<svg width="107" height="107" viewBox="0 0 107 107" fill="none" xmlns="http://www.w3.org/2000/svg">
<path d="M105.461 43.1898C105.442 42.9544 105.375 42.7253 105.265 42.5165C105.154 42.3077 105.002 42.1237 104.818 41.9755C104.634 41.8274 104.422 41.7182 104.194 41.6547C103.966 41.5913 103.728 41.5747 103.494 41.6062C102.511 41.6062 101.561 41.6062 100.598 41.6062C98.9844 41.5571 97.9614 40.7751 97.3516 39.2702C96.3483 36.7915 95.3205 34.3227 94.268 31.8637C93.9405 31.2223 93.83 30.492 93.9533 29.7824C94.0766 29.0729 94.427 28.4226 94.9517 27.9293C95.6156 27.2309 96.3238 26.567 96.9926 25.8736C97.7992 25.0277 97.8778 24.3146 97.2385 23.3752C93.4586 17.7937 88.6501 12.9834 83.0699 9.20156C82.1158 8.5573 81.4125 8.62616 80.5715 9.42287C79.8485 10.1163 79.1649 10.8491 78.437 11.5376C77.9435 12.0384 77.3035 12.3694 76.6095 12.4825C75.9155 12.5957 75.2036 12.4852 74.5765 12.1671C72.1175 11.1245 69.6584 10.0868 67.1749 9.08353C65.6208 8.45403 64.8535 7.42618 64.8142 5.74422C64.8142 4.918 64.8142 4.09669 64.8142 3.28523C64.8142 1.67212 64.406 1.14589 62.847 0.924579C60.6536 0.614745 58.4602 0.29999 56.252 0.137697C51.8604 -0.151829 47.4498 0.142539 43.1356 1.0131C42.6832 1.05905 42.2674 1.28272 41.9797 1.63496C41.692 1.98721 41.556 2.43924 41.6013 2.89178C41.6013 3.87538 41.6013 4.81964 41.6013 5.78848C41.5619 7.45568 40.7799 8.47372 39.216 9.10322C36.7669 10.0868 34.3309 11.1015 31.9079 12.1474C30.3735 12.8064 29.0948 12.6392 27.88 11.4491C27.1817 10.7802 26.5374 10.0573 25.8145 9.41795C25.427 9.13138 25.0118 8.88425 24.5751 8.68025C24.1742 8.80881 23.7858 8.97342 23.4146 9.17205C17.7944 12.973 12.9534 17.8141 9.15237 23.4342C8.87641 23.7818 8.7444 24.2221 8.78376 24.6642C8.82311 25.1062 9.03079 25.5163 9.36381 25.8096C10.0917 26.5473 10.8392 27.285 11.5523 28.0178C12.0388 28.5017 12.3605 29.1266 12.4718 29.8037C12.583 30.4808 12.4781 31.1758 12.172 31.7899C11.1293 34.2932 10.0721 36.7866 9.04911 39.2948C8.8242 39.9796 8.38455 40.5738 7.79548 40.9893C7.2064 41.4047 6.49918 41.6193 5.77857 41.6013C5.02612 41.6013 4.27854 41.6013 3.52609 41.6013C1.55889 41.6013 1.12615 41.9259 0.860575 43.8538C0.570413 45.9734 0.250719 48.098 0.0982615 50.2472C-0.178943 54.6044 0.115372 58.9793 0.973679 63.2602C0.993857 63.4932 1.06052 63.7199 1.16975 63.9267C1.27898 64.1336 1.4286 64.3164 1.60968 64.4645C1.79077 64.6126 1.99965 64.7229 2.22407 64.7889C2.44849 64.8548 2.68385 64.8752 2.91626 64.8487C3.81134 64.8487 4.70159 64.8487 5.59667 64.8487C7.41632 64.8487 8.43429 65.6257 9.09822 67.3077C10.0621 69.7208 11.0605 72.124 12.0933 74.5174C12.7818 76.101 12.5851 77.3748 11.3852 78.6338C10.7409 79.3027 10.0622 79.942 9.41796 80.601C8.60649 81.4469 8.5278 82.1502 9.16714 83.0944C12.9484 88.6748 17.7567 93.4849 23.3358 97.2681C24.2899 97.9173 24.9932 97.8484 25.8342 97.0468C26.5571 96.3583 27.2408 95.6255 27.9686 94.937C28.4587 94.4324 29.0978 94.0984 29.7919 93.9842C30.4859 93.87 31.1983 93.9816 31.8243 94.3026C34.2832 95.3452 36.7423 96.3828 39.2308 97.3861C40.7849 98.0156 41.5521 99.0386 41.5914 100.725C41.5914 101.547 41.5914 102.368 41.5914 103.184C41.5914 104.832 42.0193 105.343 43.6767 105.57C45.8357 105.86 47.9946 106.175 50.1635 106.342C54.5553 106.635 58.9665 106.339 63.2797 105.461C63.504 105.44 63.7219 105.374 63.9208 105.268C64.1196 105.162 64.2955 105.018 64.4385 104.844C64.5815 104.67 64.6889 104.47 64.7542 104.254C64.8195 104.038 64.8415 103.812 64.8191 103.588C64.8191 102.604 64.8191 101.655 64.8191 100.691C64.8536 99.0189 65.6356 98.0009 67.2044 97.3714C69.6503 96.3878 72.0846 95.3747 74.5076 94.3321C76.042 93.673 77.3206 93.8402 78.5403 95.0255C79.2337 95.6943 79.9076 96.3829 80.5912 97.0665C80.8819 97.4166 81.2987 97.6382 81.7515 97.6833C82.2043 97.7284 82.6568 97.5934 83.0108 97.3074C88.6279 93.5028 93.4683 88.6624 97.273 83.0453C97.5614 82.6936 97.7008 82.243 97.6613 81.7899C97.6217 81.3368 97.4065 80.9171 97.0615 80.6207C96.3337 79.883 95.5862 79.1453 94.873 78.4125C94.3865 77.9286 94.0648 77.3037 93.9536 76.6266C93.8423 75.9495 93.9472 75.2545 94.2534 74.6404C95.296 72.1421 96.3582 69.6487 97.3762 67.1356C97.6002 66.4511 98.0389 65.8571 98.6271 65.4416C99.2153 65.0261 99.9219 64.8113 100.642 64.829C101.429 64.829 102.216 64.829 103.002 64.829C104.871 64.829 105.304 64.4749 105.565 62.5815C105.855 60.4225 106.179 58.2635 106.332 56.0947C106.6 51.7735 106.308 47.4358 105.461 43.1898ZM53.0652 87.5501C46.2835 87.5181 39.6632 85.4783 34.0395 81.6881C28.4158 77.8979 24.0406 72.527 21.4657 66.2531C18.8909 59.9792 18.2317 53.0833 19.5715 46.4352C20.9113 39.7871 24.19 33.6848 28.994 28.8979C33.798 24.1111 39.912 20.8542 46.5648 19.5382C53.2176 18.2221 60.1112 18.9058 66.3759 21.503C72.6406 24.1002 77.9957 28.4946 81.7658 34.1318C85.5359 39.769 87.5521 46.3966 87.5599 53.1783C87.5619 57.703 86.6702 62.1835 84.9358 66.3626C83.2015 70.5417 80.6587 74.3371 77.4535 77.5308C74.2484 80.7245 70.444 83.2537 66.2587 84.9731C62.0735 86.6925 57.5898 87.5683 53.0652 87.5501Z" fill="black"/>
<path d="M26.1883 54.1078C26.1096 53.9701 26.0703 53.8668 26.0113 53.7881C21.9835 48.457 24.7326 42.0243 29.1538 39.5948C29.4706 39.4625 29.7338 39.2278 29.9014 38.9282C30.069 38.6286 30.1314 38.2815 30.0785 37.9423C30.0416 36.615 30.2928 35.2954 30.815 34.0745C31.3371 32.8536 32.1177 31.7604 33.103 30.8703C37.8341 26.3014 45.7766 26.3408 50.5028 30.9244C50.8343 31.2188 51.0973 31.5823 51.2732 31.9893C51.449 32.3963 51.5336 32.8369 51.5209 33.2801C51.5209 46.5587 51.5208 59.8717 51.4766 73.1699C51.4735 73.9033 51.2222 74.6141 50.7635 75.1863C46.0717 80.3109 37.2046 80.2027 32.5669 75.024C31.2541 73.5495 30.3996 71.7242 30.1079 69.7716C30.0705 69.5779 29.9947 69.3937 29.8849 69.2298C29.7751 69.0659 29.6335 68.9257 29.4685 68.8175C24.8358 66.4471 21.8162 59.7979 26.1883 54.1078ZM33.5211 38.2817C37.1702 39.3833 39.4227 42.0685 38.9309 44.6751H35.7734C35.6425 44.2495 35.4898 43.831 35.3161 43.421C34.6866 42.162 33.2899 41.4538 32.144 41.8571C28.1309 43.2194 25.4456 48.6292 29.4882 52.5291C30.6046 53.6111 30.6047 54.4963 29.5325 55.5439C26.3555 58.7209 27.0047 63.4127 30.9293 65.6848C32.5621 66.629 34.0767 66.1126 34.7948 64.3471C34.9275 64.0225 35.0112 63.6831 35.1047 63.3635H38.4685C38.2177 66.5503 36.5013 68.4733 33.6046 69.5552C33.8161 70.111 33.9587 70.6224 34.1899 71.0896C37.0325 76.7945 44.2816 76.3962 47.6897 73.3372C47.943 73.0128 48.0689 72.607 48.0438 72.1962C48.0635 66.088 48.0635 59.9766 48.0438 53.8619C48.0438 53.5668 47.9996 53.2717 47.9652 52.8783C47.2568 53.1679 46.6203 53.6089 46.1004 54.1705C45.5805 54.7321 45.1897 55.4006 44.9554 56.1291L41.7292 55.0422C42.8111 51.8898 44.9602 50.0603 48.0487 49.2341C48.0487 44.0653 48.0488 38.9555 48.0242 33.8457C47.9687 33.4405 47.759 33.0723 47.4389 32.8178C45.7742 31.5279 43.7226 30.8383 41.6168 30.8606C39.511 30.8829 37.4744 31.6159 35.8374 32.9407C35.0353 33.5661 34.4029 34.3828 33.9982 35.3159C33.5935 36.249 33.4295 37.2687 33.5211 38.2817Z" fill="black"/>
<path d="M53.2668 66.9536V63.511C54.9734 63.511 56.6455 63.4815 58.3127 63.511C58.6091 63.5425 58.9085 63.4928 59.1788 63.3672C59.4491 63.2416 59.6801 63.0448 59.8471 62.7979C60.716 61.5733 61.6622 60.4053 62.6798 59.3012C63.188 58.7862 63.8588 58.463 64.5782 58.3864C66.752 58.2782 68.9405 58.3176 71.1192 58.3864C71.3916 58.4226 71.6683 58.3686 71.9072 58.2327C72.1461 58.0969 72.3339 57.8866 72.4421 57.634C72.9908 56.5987 73.8832 55.7868 74.9656 55.3381C76.048 54.8893 77.2529 54.8317 78.3732 55.175C79.1843 55.4104 79.9247 55.8425 80.5287 56.4329C81.1327 57.0232 81.5815 57.7536 81.8354 58.5591C82.0893 59.3646 82.1404 60.2203 81.9842 61.0503C81.8279 61.8803 81.469 62.6588 80.9396 63.3168C80.4101 63.9748 79.7264 64.4919 78.9491 64.8222C78.1718 65.1524 77.3249 65.2856 76.4837 65.2099C75.6425 65.1343 74.833 64.8521 74.1271 64.3884C73.4212 63.9247 72.8407 63.2939 72.4372 62.552C72.3415 62.3115 72.1691 62.1094 71.9468 61.9769C71.7245 61.8444 71.4647 61.7889 71.2077 61.8192C69.4224 61.8585 67.6323 61.7897 65.8471 61.8635C65.3455 61.9109 64.8784 62.14 64.5339 62.5077C63.5503 63.629 62.6208 64.8192 61.7061 66.0093C61.4811 66.331 61.178 66.5901 60.8253 66.7622C60.4725 66.9342 60.0817 67.0137 59.6898 66.9929C57.5849 66.9339 55.475 66.9536 53.2668 66.9536ZM76.765 61.7946C77.2142 61.8285 77.6585 61.683 78.0005 61.3898C78.3426 61.0966 78.5544 60.6798 78.5896 60.2307C78.6126 60.0077 78.5908 59.7824 78.5255 59.568C78.4602 59.3535 78.3526 59.1543 78.2092 58.9821C78.0658 58.8098 77.8894 58.6679 77.6904 58.5648C77.4914 58.4617 77.2736 58.3993 77.0502 58.3815C76.5976 58.3437 76.1485 58.4872 75.8017 58.7805C75.4549 59.0738 75.239 59.4928 75.2012 59.9454C75.1633 60.398 75.3068 60.8471 75.6001 61.1939C75.8934 61.5407 76.3124 61.7568 76.765 61.7946Z" fill="black"/>
<path d="M53.6258 42.9193V39.5308C56.0012 39.5308 58.3815 39.4816 60.7569 39.5702C61.1897 39.5702 61.6766 40.062 62.011 40.4751C62.9651 41.5816 63.8798 42.7275 64.7552 43.9177C64.9118 44.1704 65.1353 44.3748 65.4009 44.5085C65.6665 44.6421 65.9638 44.6997 66.2601 44.675C68.0109 44.621 69.7618 44.6406 71.5126 44.675C71.7681 44.7141 72.0293 44.6659 72.2541 44.5383C72.479 44.4107 72.6543 44.2112 72.7518 43.9718C73.2724 42.942 74.1335 42.1241 75.1886 41.6571C76.2438 41.19 77.428 41.1025 78.5403 41.4095C79.6446 41.6946 80.6226 42.3392 81.3199 43.2417C82.0172 44.1442 82.3942 45.2531 82.3914 46.3936C82.3886 47.5341 82.006 48.6412 81.3043 49.5402C80.6025 50.4392 79.6215 51.079 78.5158 51.3586C77.4013 51.6605 76.2168 51.5679 75.1628 51.0964C74.1088 50.625 73.2501 49.8037 72.7323 48.7717C72.6453 48.547 72.4858 48.3577 72.2791 48.2339C72.0724 48.1101 71.8304 48.0588 71.5912 48.0881C69.3781 48.1176 67.165 48.0881 64.947 48.0881C64.5545 48.1079 64.1634 48.028 63.81 47.8561C63.4566 47.6841 63.1524 47.4256 62.9257 47.1045C62.0601 45.9734 61.1061 44.9013 60.2799 43.7357C60.0886 43.4414 59.8183 43.2069 59.5 43.059C59.1817 42.9111 58.8282 42.8559 58.4799 42.8997C56.9012 42.9587 55.2979 42.9193 53.6258 42.9193ZM77.2716 48.0636C77.6114 48.0575 77.9417 47.9503 78.2204 47.7558C78.4992 47.5612 78.7136 47.2881 78.8365 46.9712C78.9594 46.6543 78.9852 46.3079 78.9105 45.9763C78.8358 45.6448 78.6641 45.3429 78.4172 45.1093C78.1704 44.8756 77.8595 44.7208 77.5243 44.6645C77.1891 44.6083 76.8447 44.6531 76.5351 44.7932C76.2254 44.9334 75.9645 45.1626 75.7856 45.4516C75.6067 45.7406 75.5179 46.0764 75.5306 46.416C75.551 46.8652 75.7458 47.2887 76.0737 47.5964C76.4016 47.9041 76.8367 48.0717 77.2863 48.0636H77.2716Z" fill="black"/>
<path d="M53.2668 30.9047V27.5113C55.0914 27.5113 56.9013 27.4572 58.7013 27.5506C59.1816 27.6715 59.6002 27.9658 59.8766 28.3769C60.7233 29.3922 61.5052 30.4599 62.2176 31.5736C62.793 32.4981 63.4914 32.8375 64.593 32.5276C64.6766 32.2916 64.7749 31.9916 64.8831 31.6965C65.2673 30.623 65.9985 29.7083 66.9611 29.0971C67.9237 28.4859 69.0626 28.2132 70.1975 28.3221C71.3325 28.4311 72.3988 28.9154 73.2276 29.6985C74.0563 30.4816 74.6002 31.5187 74.7732 32.6457C74.9552 33.7271 74.7825 34.8383 74.2808 35.8133C73.7791 36.7884 72.9754 37.575 71.9897 38.0555C70.9807 38.5776 69.8233 38.7383 68.7101 38.5111C67.597 38.2838 66.5952 37.6822 65.8716 36.8063C65.6912 36.5257 65.4325 36.3044 65.1273 36.1697C64.8221 36.0351 64.4841 35.9931 64.1552 36.0489C62.0749 36.408 60.5454 35.6555 59.611 33.7523C58.4651 31.4064 56.6603 30.3539 54.0439 30.8949C53.7856 30.9194 53.5257 30.9227 53.2668 30.9047ZM71.4191 33.4522C71.4014 33.0008 71.2098 32.5737 70.8845 32.2602C70.5591 31.9468 70.125 31.7712 69.6732 31.7703C69.2167 31.7781 68.782 31.967 68.4647 32.2953C68.1474 32.6237 67.9736 33.0646 67.9814 33.5211C67.9893 33.9776 68.1782 34.4123 68.5065 34.7296C68.8348 35.0469 69.2758 35.2207 69.7323 35.2129C70.1872 35.1963 70.6177 35.0032 70.9326 34.6745C71.2475 34.3458 71.422 33.9074 71.4191 33.4522Z" fill="black"/>
<path d="M53.2717 78.9682V75.5256C54.4127 75.5256 55.5094 75.4912 56.6061 75.5256C56.8851 75.5593 57.1677 75.5106 57.4194 75.3856C57.671 75.2607 57.8806 75.0649 58.0225 74.8223C58.8044 73.6715 59.6848 72.5847 60.4815 71.4437C60.7002 71.0732 61.0212 70.7736 61.4059 70.5808C61.7905 70.3881 62.2226 70.3103 62.6504 70.3568C63.0782 70.3913 63.511 70.3568 63.9388 70.3568C64.3176 70.4145 64.7049 70.3665 65.0581 70.2181C65.4113 70.0698 65.7166 69.8267 65.9405 69.5158C66.6599 68.6594 67.6498 68.0738 68.7468 67.8557C69.8439 67.6375 70.9825 67.7998 71.9749 68.3158C72.9622 68.7953 73.7681 69.5811 74.2724 70.556C74.7767 71.5309 74.9524 72.6427 74.7732 73.7256C74.5953 74.8357 74.0577 75.8566 73.243 76.6313C72.4284 77.406 71.3817 77.8916 70.2641 78.0134C69.1465 78.1352 68.0198 77.8865 67.0574 77.3055C66.0949 76.7245 65.35 75.8434 64.9372 74.7978C64.7798 74.424 64.5142 73.9125 64.1995 73.8142C63.8811 73.7005 63.5327 73.7045 63.217 73.8254C62.9013 73.9462 62.6393 74.176 62.4782 74.4732C61.7278 75.6894 60.8774 76.8409 59.9356 77.9158C59.4453 78.4501 58.7848 78.7977 58.0668 78.8994C56.5029 79.0617 54.9291 78.9682 53.2717 78.9682ZM69.6634 71.247C69.2069 71.2568 68.7729 71.4475 68.457 71.7772C68.1411 72.1069 67.9692 72.5487 67.979 73.0052C67.9888 73.4617 68.1795 73.8956 68.5092 74.2115C68.839 74.5274 69.2806 74.6994 69.7372 74.6896C69.9632 74.6847 70.1861 74.6354 70.3931 74.5444C70.6001 74.4534 70.7871 74.3226 70.9435 74.1593C71.0999 73.9961 71.2226 73.8036 71.3047 73.5929C71.3867 73.3822 71.4264 73.1574 71.4216 72.9314C71.4168 72.7053 71.3674 72.4825 71.2764 72.2755C71.1855 72.0685 71.0546 71.8815 70.8914 71.7251C70.7281 71.5687 70.5356 71.4459 70.3249 71.3639C70.1142 71.2819 69.8895 71.2421 69.6634 71.247Z" fill="black"/>
<path d="M58.3274 46.4111V49.7111H55.0029V46.4111H58.3274Z" fill="black"/>
<path d="M58.4258 56.5815V53.2717H61.7257V56.5815H58.4258Z" fill="black"/>
</svg>
