<svg width="107" height="107" viewBox="0 0 107 107" fill="none" xmlns="http://www.w3.org/2000/svg">
<path d="M105.461 43.1898C105.442 42.9544 105.375 42.7253 105.265 42.5165C105.154 42.3077 105.002 42.1237 104.818 41.9755C104.634 41.8274 104.422 41.7182 104.194 41.6547C103.966 41.5913 103.728 41.5747 103.494 41.6062C102.511 41.6062 101.561 41.6062 100.598 41.6062C98.9844 41.5571 97.9614 40.7751 97.3516 39.2702C96.3483 36.7915 95.3205 34.3227 94.268 31.8637C93.9405 31.2223 93.83 30.492 93.9533 29.7824C94.0766 29.0729 94.427 28.4226 94.9517 27.9293C95.6156 27.2309 96.3238 26.567 96.9926 25.8736C97.7992 25.0277 97.8778 24.3146 97.2385 23.3752C93.4586 17.7937 88.6501 12.9834 83.0699 9.20156C82.1158 8.5573 81.4125 8.62616 80.5715 9.42287C79.8485 10.1163 79.1649 10.8491 78.437 11.5376C77.9435 12.0384 77.3035 12.3694 76.6095 12.4825C75.9155 12.5957 75.2036 12.4852 74.5765 12.1671C72.1175 11.1245 69.6584 10.0868 67.1749 9.08353C65.6208 8.45403 64.8535 7.42618 64.8142 5.74422C64.8142 4.918 64.8142 4.09669 64.8142 3.28523C64.8142 1.67212 64.406 1.14589 62.847 0.924579C60.6536 0.614745 58.4602 0.29999 56.252 0.137697C51.8604 -0.151829 47.4498 0.142539 43.1356 1.0131C42.6832 1.05905 42.2674 1.28272 41.9797 1.63496C41.692 1.98721 41.556 2.43924 41.6013 2.89178C41.6013 3.87538 41.6013 4.81964 41.6013 5.78848C41.5619 7.45568 40.7799 8.47372 39.216 9.10322C36.7669 10.0868 34.3309 11.1015 31.9079 12.1474C30.3735 12.8064 29.0948 12.6392 27.88 11.4491C27.1817 10.7802 26.5374 10.0573 25.8145 9.41795C25.427 9.13138 25.0118 8.88425 24.5751 8.68025C24.1742 8.80881 23.7858 8.97342 23.4146 9.17205C17.7944 12.973 12.9534 17.8141 9.15237 23.4342C8.87641 23.7818 8.7444 24.2221 8.78376 24.6642C8.82311 25.1062 9.03079 25.5163 9.36381 25.8096C10.0917 26.5473 10.8392 27.285 11.5523 28.0178C12.0388 28.5017 12.3605 29.1266 12.4718 29.8037C12.583 30.4808 12.4781 31.1758 12.172 31.7899C11.1293 34.2932 10.0721 36.7866 9.04911 39.2948C8.8242 39.9796 8.38455 40.5738 7.79548 40.9893C7.2064 41.4047 6.49918 41.6193 5.77857 41.6013C5.02612 41.6013 4.27854 41.6013 3.52609 41.6013C1.55889 41.6013 1.12615 41.9259 0.860575 43.8538C0.570413 45.9734 0.250719 48.098 0.0982615 50.2472C-0.178943 54.6044 0.115372 58.9793 0.973679 63.2602C0.993857 63.4932 1.06052 63.7199 1.16975 63.9267C1.27898 64.1336 1.4286 64.3164 1.60968 64.4645C1.79077 64.6126 1.99965 64.7229 2.22407 64.7889C2.44849 64.8548 2.68385 64.8752 2.91626 64.8487C3.81134 64.8487 4.70159 64.8487 5.59667 64.8487C7.41632 64.8487 8.43429 65.6257 9.09822 67.3077C10.0621 69.7208 11.0605 72.124 12.0933 74.5174C12.7818 76.101 12.5851 77.3748 11.3852 78.6338C10.7409 79.3027 10.0622 79.942 9.41796 80.601C8.60649 81.4469 8.5278 82.1502 9.16714 83.0944C12.9484 88.6748 17.7567 93.4849 23.3358 97.2681C24.2899 97.9173 24.9932 97.8484 25.8342 97.0468C26.5571 96.3583 27.2408 95.6255 27.9686 94.937C28.4587 94.4324 29.0978 94.0984 29.7919 93.9842C30.4859 93.87 31.1983 93.9816 31.8243 94.3026C34.2832 95.3452 36.7423 96.3828 39.2308 97.3861C40.7849 98.0156 41.5521 99.0386 41.5914 100.725C41.5914 101.547 41.5914 102.368 41.5914 103.184C41.5914 104.832 42.0193 105.343 43.6767 105.57C45.8357 105.86 47.9946 106.175 50.1635 106.342C54.5553 106.635 58.9665 106.339 63.2797 105.461C63.504 105.44 63.7219 105.374 63.9208 105.268C64.1196 105.162 64.2955 105.018 64.4385 104.844C64.5815 104.67 64.6889 104.47 64.7542 104.254C64.8195 104.038 64.8415 103.812 64.8191 103.588C64.8191 102.604 64.8191 101.655 64.8191 100.691C64.8536 99.0189 65.6356 98.0009 67.2044 97.3714C69.6503 96.3878 72.0846 95.3747 74.5076 94.3321C76.042 93.673 77.3206 93.8402 78.5403 95.0255C79.2337 95.6943 79.9076 96.3829 80.5912 97.0665C80.8819 97.4166 81.2987 97.6382 81.7515 97.6833C82.2043 97.7284 82.6568 97.5934 83.0108 97.3074C88.6279 93.5028 93.4683 88.6624 97.273 83.0453C97.5614 82.6936 97.7008 82.243 97.6613 81.7899C97.6217 81.3368 97.4065 80.9171 97.0615 80.6207C96.3337 79.883 95.5862 79.1453 94.873 78.4125C94.3865 77.9286 94.0648 77.3037 93.9536 76.6266C93.8423 75.9495 93.9472 75.2545 94.2534 74.6404C95.296 72.1421 96.3582 69.6487 97.3762 67.1356C97.6002 66.4511 98.0389 65.8571 98.6271 65.4416C99.2153 65.0261 99.9219 64.8113 100.642 64.829C101.429 64.829 102.216 64.829 103.002 64.829C104.871 64.829 105.304 64.4749 105.565 62.5815C105.855 60.4225 106.179 58.2635 106.332 56.0947C106.6 51.7735 106.308 47.4358 105.461 43.1898ZM53.0652 87.5501C46.2835 87.5181 39.6632 85.4783 34.0395 81.6881C28.4158 77.8979 24.0406 72.527 21.4657 66.2531C18.8909 59.9792 18.2317 53.0833 19.5715 46.4352C20.9113 39.7871 24.19 33.6848 28.994 28.8979C33.798 24.1111 39.912 20.8542 46.5648 19.5382C53.2176 18.2221 60.1112 18.9058 66.3759 21.503C72.6406 24.1002 77.9957 28.4946 81.7658 34.1318C85.5359 39.769 87.5521 46.3966 87.5599 53.1783C87.5619 57.703 86.6702 62.1835 84.9358 66.3626C83.2015 70.5417 80.6587 74.3371 77.4535 77.5308C74.2484 80.7245 70.444 83.2537 66.2587 84.9731C62.0735 86.6925 57.5898 87.5683 53.0652 87.5501Z" fill="black"/>
</svg>
