<svg width="17" height="16" viewBox="0 0 17 16" fill="none" xmlns="http://www.w3.org/2000/svg">
<path d="M11.6776 7.66631L7.46477 9.04757C5.28196 9.73822 3.23005 10.4504 1.11272 11.2058C0.785182 11.2735 0.494621 11.4587 0.297096 11.7258C0.0995713 11.9928 0.00910862 12.3228 0.0431635 12.6519C0.0431635 15.4145 0.0431421 15.5224 2.74983 14.6591L14.1442 10.8821C15.7376 10.3641 16.0214 9.93247 16.0432 8.24902C16.0432 5.16269 16.0433 5.18426 13.0965 4.19145L1.81123 0.349729C0.414236 -0.125092 0.0868197 0.133896 0.0431635 1.55836C0.0431635 4.2562 0.0431635 3.71664 2.22597 4.47204C5.08546 5.46484 7.94492 6.41448 10.8044 7.36412L11.6776 7.66631Z" fill="#263F22"/>
</svg>
