<svg width="240" height="185" viewBox="0 0 240 185" fill="none" xmlns="http://www.w3.org/2000/svg">
<g clip-path="url(#clip0_247_339)">
<path d="M20.04 131.39C20.04 131.39 -3.95999 118.8 1.24001 116.24C6.44001 113.68 24.54 112.32 35.69 124.95L20.04 131.39Z" fill="white" stroke="black" stroke-miterlimit="10"/>
<path d="M146 95.56C154.83 99.4245 164.463 101.102 174.08 100.45C190.42 99.45 196.55 93.78 201.66 77.33C201.66 77.33 200.38 69.81 207.02 70.84C213.66 71.87 210.08 88.45 210.08 88.45L223.08 91.77L214.6 125.87C214.6 125.87 205.98 124.45 189.89 130.32C173.8 136.19 137.79 136.45 119.19 123.39L136.3 96.07L146 95.56Z" fill="#DE9483" stroke="black" stroke-miterlimit="10"/>
<path d="M158.19 99.07C157.49 98.68 151.97 95.94 143.7 101.94C134.86 108.36 139.36 130.53 139.36 130.53L140.11 137.34C134.46 88.98 114 77.93 106.52 75.49C119.79 78.86 137.5 85.62 158.19 99.07Z" fill="#51654E" stroke="black" stroke-miterlimit="10"/>
<path d="M142.94 163.22C142.94 163.22 130.94 179.81 88.3 183.13C45.66 186.45 33.41 169.85 33.41 169.85C32.13 144.07 50.92 77.33 50.92 77.33C60.5114 73.7723 70.6931 72.0753 80.92 72.33C80.92 72.33 89.31 71.5 103.77 74.83C104.67 75.04 105.59 75.26 106.54 75.5C114.02 77.94 134.48 88.99 140.13 137.35V137.63L142.94 163.22Z" fill="#263F22" stroke="black" stroke-miterlimit="10"/>
<path d="M83.17 64.46H93.11V77.78C93.1087 78.3179 93.0013 78.8504 92.7939 79.3467C92.5865 79.8431 92.2833 80.2937 91.9015 80.6727C91.5197 81.0517 91.0669 81.3516 90.569 81.5554C90.0712 81.7591 89.538 81.8626 89 81.86H87.25C86.1653 81.86 85.125 81.4291 84.358 80.6621C83.5909 79.895 83.16 78.8547 83.16 77.77V64.46H83.17Z" fill="#DE9483" stroke="black" stroke-miterlimit="10"/>
<path d="M103.99 59.2C107.155 59.2 109.72 56.6346 109.72 53.47C109.72 50.3054 107.155 47.74 103.99 47.74C100.825 47.74 98.26 50.3054 98.26 53.47C98.26 56.6346 100.825 59.2 103.99 59.2Z" fill="#DE9483" stroke="black" stroke-miterlimit="10"/>
<path d="M72.2901 59.2C75.4547 59.2 78.0201 56.6346 78.0201 53.47C78.0201 50.3054 75.4547 47.74 72.2901 47.74C69.1255 47.74 66.5601 50.3054 66.5601 53.47C66.5601 56.6346 69.1255 59.2 72.2901 59.2Z" fill="#DE9483" stroke="black" stroke-miterlimit="10"/>
<path d="M88.07 69.8C96.7906 69.8 103.86 62.7306 103.86 54.01C103.86 45.2894 96.7906 38.22 88.07 38.22C79.3495 38.22 72.28 45.2894 72.28 54.01C72.28 62.7306 79.3495 69.8 88.07 69.8Z" fill="#DE9483" stroke="black" stroke-miterlimit="10"/>
<path d="M97.42 60.63C96.2236 61.8427 94.7983 62.8057 93.2267 63.463C91.655 64.1202 89.9685 64.4586 88.265 64.4586C86.5615 64.4586 84.8749 64.1202 83.3033 63.463C81.7317 62.8057 80.3063 61.8427 79.11 60.63H97.42Z" fill="white"/>
<path d="M103.86 54.01C103.862 55.2565 103.714 56.4987 103.42 57.71C102.585 54.2694 100.619 51.2091 97.8359 49.0206C95.053 46.832 91.6154 45.6422 88.075 45.6422C84.5347 45.6422 81.097 46.832 78.3141 49.0206C75.5313 51.2091 73.5646 54.2694 72.73 57.71C72.4362 56.4987 72.2885 55.2565 72.29 54.01C72.237 51.9036 72.6061 49.808 73.3755 47.8465C74.145 45.885 75.2992 44.0973 76.7702 42.5888C78.2412 41.0803 79.9993 39.8815 81.9408 39.0629C83.8823 38.2444 85.968 37.8226 88.075 37.8226C90.1821 37.8226 92.2677 38.2444 94.2093 39.0629C96.1508 39.8815 97.9088 41.0803 99.3798 42.5888C100.851 44.0973 102.005 45.885 102.775 47.8465C103.544 49.808 103.913 51.9036 103.86 54.01Z" fill="#17172A"/>
<path d="M88.07 41.25C93.6095 41.25 98.1 36.7594 98.1 31.22C98.1 25.6806 93.6095 21.19 88.07 21.19C82.5306 21.19 78.04 25.6806 78.04 31.22C78.04 36.7594 82.5306 41.25 88.07 41.25Z" fill="#17172A"/>
<path d="M39.79 129.2L40.3 129.8C39.99 129.44 40.16 129.64 41.07 130.72L41.25 130.93C41.07 130.72 41.82 131.62 42.91 132.93L43.28 133.36L44.28 134.53L44.58 134.88C45.2 135.62 45.32 135.77 44.85 135.21L45.11 135.51L46.31 136.94C46.355 137.001 46.4051 137.058 46.46 137.11C47.01 137.77 47.03 137.8 46.59 137.27C46.625 137.321 46.6652 137.368 46.71 137.41L46.87 137.6" stroke="black" stroke-miterlimit="10"/>
<path d="M47.17 137.96V137.9C47.12 137.85 47.05 137.76 46.94 137.62L46.78 137.43C46.7352 137.388 46.6949 137.341 46.66 137.29C47.1 137.82 47.08 137.79 46.53 137.13C46.4751 137.078 46.4249 137.021 46.38 136.96L45.09 135.45L44.83 135.15C45.3 135.71 45.18 135.56 44.56 134.82L44.26 134.47L43.26 133.3L42.89 132.87C41.8 131.58 41.05 130.68 41.23 130.87L41.05 130.66C40.14 129.58 39.97 129.38 40.28 129.74L39.77 129.14" stroke="black" stroke-miterlimit="10"/>
<path d="M97.49 155.05C93.92 156.83 89.32 154.05 89.32 154.05C89.32 154.05 90.32 158.14 87.02 160.44C83.72 162.74 78.6 161.71 78.6 161.71C78.6 161.71 77.32 167.08 71.7 167.33C66.08 167.58 61.7 158.91 59.96 155.59C58.22 152.27 54.6 154.59 54.6 154.59C36.73 160.47 24.73 168.59 9.41001 154.59C-5.90999 140.59 13.24 114.45 13.24 114.45L15.24 111.39L45.62 119.05L45.46 125.83C54.61 121.72 66.17 117.26 73.2 117.26C86.2 117.26 92.6 133.85 97.45 140.88C102.3 147.91 101.07 153.26 97.49 155.05Z" fill="#DE9483" stroke="black" stroke-miterlimit="10"/>
<path d="M45.5 125.83C37.68 129.33 31.62 132.58 31.62 132.58" stroke="black" stroke-miterlimit="10"/>
<path d="M61.79 97.85C60.26 119.05 48.79 124.41 48.79 124.41L39.79 129.2C35.2718 123.584 29.2424 119.376 22.4125 117.073C15.5825 114.77 8.23645 114.467 1.23999 116.2C1.23999 116.2 19.48 88.83 50.92 77.29C60.16 76.65 62.79 83.74 61.79 97.85Z" fill="#51654E" stroke="black" stroke-miterlimit="10"/>
<path d="M140.14 137.62V137.34" stroke="black" stroke-miterlimit="10"/>
<path d="M106.52 75.45C105.62 75.1406 104.692 74.9163 103.75 74.78" stroke="black" stroke-miterlimit="10"/>
<path d="M239.035 83.3711C240.488 76.9389 236.454 70.5471 230.024 69.0946C223.595 67.6421 217.205 71.679 215.752 78.1111L204.141 129.506C202.688 135.938 206.722 142.33 213.152 143.782C219.581 145.235 225.971 141.198 227.424 134.766L239.035 83.3711Z" fill="#4F9CB3" stroke="black" stroke-miterlimit="10"/>
<path d="M227.23 87.77C230.61 87.77 233.35 85.03 233.35 81.65C233.35 78.27 230.61 75.53 227.23 75.53C223.85 75.53 221.11 78.27 221.11 81.65C221.11 85.03 223.85 87.77 227.23 87.77Z" fill="white" stroke="black" stroke-miterlimit="10"/>
<path d="M215.59 139.33C218.97 139.33 221.71 136.59 221.71 133.21C221.71 129.83 218.97 127.09 215.59 127.09C212.21 127.09 209.47 129.83 209.47 133.21C209.47 136.59 212.21 139.33 215.59 139.33Z" fill="white" stroke="black" stroke-miterlimit="10"/>
<path d="M233.902 93.1713L211.334 89.3421C208.323 88.8312 205.468 90.858 204.957 93.8691L204.842 94.5494C204.331 97.5605 206.358 100.416 209.369 100.927L231.936 104.756C234.947 105.267 237.803 103.24 238.313 100.229L238.429 99.5484C238.94 96.5373 236.913 93.6822 233.902 93.1713Z" fill="#DE9483" stroke="black" stroke-miterlimit="10"/>
<path d="M231.871 105.113L209.304 101.284C206.293 100.773 203.438 102.8 202.927 105.811L202.811 106.491C202.301 109.503 204.327 112.358 207.338 112.869L229.906 116.698C232.917 117.209 235.772 115.182 236.283 112.171L236.398 111.49C236.909 108.479 234.883 105.624 231.871 105.113Z" fill="#DE9483" stroke="black" stroke-miterlimit="10"/>
<path d="M229.942 116.52L207.374 112.691C204.363 112.18 201.508 114.207 200.997 117.218L200.882 117.898C200.371 120.909 202.397 123.764 205.409 124.275L227.976 128.104C230.987 128.615 233.842 126.588 234.353 123.577L234.469 122.897C234.98 119.886 232.953 117.031 229.942 116.52Z" fill="#DE9483" stroke="black" stroke-miterlimit="10"/>
<path d="M123.87 41.25V60.63L140.26 44.23L123.87 41.25Z" fill="#4F9CB3" stroke="black" stroke-miterlimit="10"/>
<path d="M175.37 0.5H127.72C114.614 0.5 103.99 11.1243 103.99 24.23C103.99 37.3357 114.614 47.96 127.72 47.96H175.37C188.476 47.96 199.1 37.3357 199.1 24.23C199.1 11.1243 188.476 0.5 175.37 0.5Z" fill="#4F9CB3" stroke="black" stroke-miterlimit="10"/>
<path d="M129.8 29.65C132.528 29.65 134.74 27.4383 134.74 24.71C134.74 21.9817 132.528 19.77 129.8 19.77C127.072 19.77 124.86 21.9817 124.86 24.71C124.86 27.4383 127.072 29.65 129.8 29.65Z" fill="white" stroke="black" stroke-miterlimit="10"/>
<path d="M152.54 29.65C155.268 29.65 157.48 27.4383 157.48 24.71C157.48 21.9817 155.268 19.77 152.54 19.77C149.812 19.77 147.6 21.9817 147.6 24.71C147.6 27.4383 149.812 29.65 152.54 29.65Z" fill="white" stroke="black" stroke-miterlimit="10"/>
<path d="M173.29 29.65C176.018 29.65 178.23 27.4383 178.23 24.71C178.23 21.9817 176.018 19.77 173.29 19.77C170.562 19.77 168.35 21.9817 168.35 24.71C168.35 27.4383 170.562 29.65 173.29 29.65Z" fill="white" stroke="black" stroke-miterlimit="10"/>
<path d="M172.29 184.37H63.27V175.95H104H147.78L172.29 184.37Z" fill="white" stroke="black" stroke-miterlimit="10"/>
<path d="M104.97 184.37H171.4C172.133 184.371 172.845 184.131 173.427 183.686C174.009 183.241 174.429 182.617 174.62 181.91L188.39 131C188.526 130.506 188.545 129.988 188.448 129.486C188.35 128.984 188.137 128.511 187.827 128.104C187.516 127.697 187.115 127.368 186.656 127.142C186.197 126.916 185.692 126.799 185.18 126.8H117.95C117.211 126.801 116.493 127.046 115.908 127.499C115.324 127.951 114.906 128.585 114.72 129.3L101.72 180.21C101.593 180.704 101.581 181.221 101.685 181.72C101.789 182.219 102.007 182.688 102.321 183.09C102.635 183.492 103.037 183.817 103.496 184.039C103.956 184.26 104.46 184.374 104.97 184.37Z" fill="white" stroke="black" stroke-miterlimit="10"/>
<path d="M76.81 179.14H66.85V181.95H76.81V179.14Z" fill="white" stroke="black" stroke-miterlimit="10"/>
<path d="M89.57 179.14H79.74V181.95H89.57V179.14Z" fill="white" stroke="black" stroke-miterlimit="10"/>
</g>
<defs>
<clipPath id="clip0_247_339">
<rect width="239.88" height="184.87" fill="white"/>
</clipPath>
</defs>
</svg>
