<svg width="688" height="646" viewBox="0 0 688 646" fill="none" xmlns="http://www.w3.org/2000/svg">
<g clip-path="url(#clip0_508_1965)">
<path d="M539.444 515.389C597.301 438.247 594.162 369.085 594.162 369.085C594.162 369.085 594.162 286.835 527.341 229.883C491.111 199.027 446.634 182.827 401.254 173.277C385.479 126.806 362.922 81.744 325.282 48.2538C259.791 -10.2678 178.34 0.957708 178.34 0.957708C178.34 0.957708 109.391 7.20889 40.7876 75.0407C-27.8157 142.872 -38.0037 251.696 18.7622 310.537C75.5281 369.377 99.3358 362.435 178.579 381.321C186.334 383.177 193.979 385.46 201.482 388.158C207.643 398.517 212.928 409.372 217.283 420.61C246.783 496.555 243.139 521.081 309.136 569.335C375.132 617.589 481.561 592.557 539.444 515.389Z" fill="#E9F1E8"/>
<path d="M195.178 356.05H99.6283" stroke="#CCCCCC" stroke-width="0.5" stroke-miterlimit="10"/>
<path d="M223.508 294.097H99.6283" stroke="#CCCCCC" stroke-width="0.5" stroke-miterlimit="10"/>
<path d="M285.009 232.171H99.6283" stroke="#CCCCCC" stroke-width="0.5" stroke-miterlimit="10"/>
<path d="M347.387 170.218H99.6283" stroke="#CCCCCC" stroke-width="0.5" stroke-miterlimit="10"/>
<path d="M99.6283 417.977V170.218" stroke="#CCCCCC" stroke-width="0.5" stroke-miterlimit="10"/>
<path d="M161.581 356.13V170.218" stroke="#CCCCCC" stroke-width="0.5" stroke-miterlimit="10"/>
<path d="M223.508 281.755V170.218" stroke="#CCCCCC" stroke-width="0.5" stroke-miterlimit="10"/>
<path d="M482.811 583.912H387.288" stroke="#CCCCCC" stroke-width="0.5" stroke-miterlimit="10"/>
<path d="M511.168 521.986H387.288" stroke="#CCCCCC" stroke-width="0.5" stroke-miterlimit="10"/>
<path d="M572.669 460.033H387.288" stroke="#CCCCCC" stroke-width="0.5" stroke-miterlimit="10"/>
<path d="M635.047 398.079H387.288" stroke="#CCCCCC" stroke-width="0.5" stroke-miterlimit="10"/>
<path d="M387.288 645.865V398.079" stroke="#CCCCCC" stroke-width="0.5" stroke-miterlimit="10"/>
<path d="M449.215 584.018V398.079" stroke="#CCCCCC" stroke-width="0.5" stroke-miterlimit="10"/>
<path d="M511.168 509.643V398.079" stroke="#CCCCCC" stroke-width="0.5" stroke-miterlimit="10"/>
<path d="M553.809 495.119C564.004 495.119 572.27 486.854 572.27 476.658C572.27 466.462 564.004 458.197 553.809 458.197C543.613 458.197 535.348 466.462 535.348 476.658C535.348 486.854 543.613 495.119 553.809 495.119Z" fill="#4B408D"/>
<path d="M525.266 520.602C532.524 520.602 538.407 514.719 538.407 507.462C538.407 500.204 532.524 494.321 525.266 494.321C518.009 494.321 512.125 500.204 512.125 507.462C512.125 514.719 518.009 520.602 525.266 520.602Z" fill="#4B408D"/>
<path d="M557.746 525.63C564.195 525.63 569.423 520.402 569.423 513.952C569.423 507.503 564.195 502.275 557.746 502.275C551.296 502.275 546.068 507.503 546.068 513.952C546.068 520.402 551.296 525.63 557.746 525.63Z" fill="#4B408D"/>
<path d="M686.493 270.609H610.894V346.208H686.493V270.609Z" stroke="#808080" stroke-width="0.5" stroke-miterlimit="10"/>
<path d="M659.227 298.354H583.628V373.953H659.227V298.354Z" stroke="#808080" stroke-width="0.5" stroke-miterlimit="10"/>
<path d="M659.227 298.354L686.466 270.609" stroke="#808080" stroke-width="0.5" stroke-miterlimit="10"/>
<path d="M686.466 346.208L659.227 373.953" stroke="#808080" stroke-width="0.5" stroke-miterlimit="10"/>
<path d="M610.894 346.208L583.628 373.953" stroke="#808080" stroke-width="0.5" stroke-miterlimit="10"/>
<path d="M583.628 298.354L610.894 270.609" stroke="#808080" stroke-width="0.5" stroke-miterlimit="10"/>
<path d="M132.56 517.942C165.571 517.942 192.332 491.182 192.332 458.171C192.332 425.16 165.571 398.399 132.56 398.399C99.5489 398.399 72.7882 425.16 72.7882 458.171C72.7882 491.182 99.5489 517.942 132.56 517.942Z" stroke="#808080" stroke-width="0.5" stroke-miterlimit="10"/>
<path d="M132.56 517.942C144.666 517.942 154.479 491.182 154.479 458.171C154.479 425.16 144.666 398.399 132.56 398.399C120.454 398.399 110.641 425.16 110.641 458.171C110.641 491.182 120.454 517.942 132.56 517.942Z" stroke="#808080" stroke-width="0.5" stroke-miterlimit="10"/>
<path d="M132.56 480.09C165.571 480.09 192.332 470.276 192.332 458.171C192.332 446.065 165.571 436.252 132.56 436.252C99.5489 436.252 72.7882 446.065 72.7882 458.171C72.7882 470.276 99.5489 480.09 132.56 480.09Z" stroke="#808080" stroke-width="0.5" stroke-miterlimit="10"/>
<path d="M326.373 408.321H435.037C436.009 408.277 436.959 408.619 437.681 409.271C438.403 409.923 438.839 410.834 438.894 411.805V420.451C438.839 421.422 438.403 422.333 437.681 422.985C436.959 423.638 436.009 423.979 435.037 423.935H326.373C325.403 423.979 324.456 423.637 323.738 422.984C323.021 422.331 322.59 421.42 322.542 420.451V411.805C322.59 410.836 323.021 409.926 323.738 409.273C324.456 408.62 325.403 408.277 326.373 408.321Z" fill="white" stroke="black" stroke-miterlimit="10"/>
<path d="M386.703 408.321H435.143C436.115 408.277 437.065 408.619 437.787 409.271C438.509 409.923 438.945 410.834 439 411.805V420.451C438.945 421.422 438.509 422.333 437.787 422.985C437.065 423.638 436.115 423.979 435.143 423.935H386.703C385.734 423.979 384.787 423.637 384.069 422.984C383.351 422.331 382.921 421.42 382.873 420.451V411.805C382.921 410.836 383.351 409.926 384.069 409.273C384.787 408.62 385.734 408.277 386.703 408.321Z" fill="white" stroke="black" stroke-miterlimit="10"/>
<path d="M466.904 332.615L439.692 406.193C439.454 406.819 439.032 407.358 438.481 407.738C437.929 408.118 437.276 408.321 436.606 408.321H364.066C363.542 408.321 363.026 408.195 362.562 407.955C362.097 407.714 361.696 407.366 361.394 406.938C361.092 406.511 360.896 406.017 360.824 405.499C360.752 404.98 360.806 404.452 360.98 403.958L371.621 373.926L388.033 330.328C388.266 329.704 388.683 329.166 389.23 328.786C389.777 328.405 390.426 328.201 391.092 328.199H463.845C464.555 328.196 465.247 328.426 465.814 328.854C466.381 329.281 466.792 329.883 466.984 330.567C467.183 331.24 467.155 331.96 466.904 332.615Z" fill="white" stroke="black" stroke-miterlimit="10"/>
<path d="M380.266 372.756L393.992 336.339H457.461L433.84 400.181H370.53L380.266 372.756Z" fill="white" stroke="black" stroke-miterlimit="10"/>
<path d="M375.398 488.628L361.672 539.17C361.021 541.529 359.615 543.61 357.669 545.094C355.724 546.578 353.346 547.385 350.899 547.389H323.606C321.861 547.388 320.14 546.978 318.582 546.19C317.025 545.402 315.674 544.259 314.639 542.854C313.603 541.449 312.913 539.82 312.622 538.099C312.332 536.378 312.449 534.612 312.966 532.945L321.585 504.908L253.274 506.185L250.614 455.91L274.821 445.056H342.147C347.443 445.078 352.663 446.316 357.405 448.674C362.147 451.032 366.284 454.448 369.497 458.658C372.71 462.868 374.913 467.76 375.936 472.957C376.959 478.153 376.775 483.515 375.398 488.628Z" fill="#263F22" stroke="black" stroke-miterlimit="10"/>
<path d="M317.328 551.167C317.328 551.167 310.306 578.113 310.306 589.897V601.655H390.454C391.064 597.536 390.597 593.329 389.097 589.445L386.597 584.444C386.597 584.444 368.269 579.922 359.996 568.484C351.723 557.045 354.676 551.273 354.676 551.273L317.328 551.167Z" fill="white" stroke="black" stroke-miterlimit="10"/>
<path d="M424.077 488.628L410.351 539.17C409.706 541.507 408.321 543.572 406.402 545.054C404.483 546.536 402.135 547.356 399.711 547.389H372.286C370.54 547.388 368.819 546.978 367.262 546.19C365.704 545.402 364.353 544.259 363.318 542.854C362.283 541.449 361.592 539.82 361.301 538.099C361.011 536.378 361.129 534.612 361.645 532.945L370.264 504.908L266.521 503.232L261.201 449.579L323.447 445.056H390.773C396.074 445.07 401.3 446.302 406.049 448.656C410.797 451.011 414.941 454.426 418.16 458.637C421.379 462.849 423.586 467.743 424.612 472.943C425.638 478.144 425.455 483.51 424.077 488.628Z" fill="#263F22" stroke="black" stroke-miterlimit="10"/>
<path d="M370.264 504.855L378.244 478.972" stroke="black" stroke-miterlimit="10"/>
<path d="M366.008 551.167C366.008 551.167 358.985 578.113 358.985 589.897V601.655H439.133C439.743 597.536 439.276 593.329 437.777 589.445L435.276 584.444C435.276 584.444 416.948 579.922 408.675 568.484C400.403 557.045 403.488 551.273 403.488 551.273L366.008 551.167Z" fill="white" stroke="black" stroke-miterlimit="10"/>
<path d="M390.427 601.681H310.306V589.897H389.363C390.682 593.678 391.047 597.726 390.427 601.681Z" fill="white" stroke="black" stroke-miterlimit="10"/>
<path d="M439.107 601.681H358.985V589.897H437.963C439.308 593.671 439.701 597.719 439.107 601.681Z" fill="white" stroke="black" stroke-miterlimit="10"/>
<path d="M355.128 547.336H317.116C314.986 547.336 313.259 549.057 313.259 551.18C313.259 553.303 314.986 555.024 317.116 555.024H355.128C357.258 555.024 358.985 553.303 358.985 551.18C358.985 549.057 357.258 547.336 355.128 547.336Z" fill="#64BFCE" stroke="black" stroke-miterlimit="10"/>
<path d="M403.807 547.336H365.795C363.665 547.336 361.938 549.057 361.938 551.18C361.938 553.303 363.665 555.024 365.795 555.024H403.807C405.938 555.024 407.664 553.303 407.664 551.18C407.664 549.057 405.938 547.336 403.807 547.336Z" fill="#64BFCE" stroke="black" stroke-miterlimit="10"/>
<path d="M318.446 290.506C321.913 290.506 324.723 287.696 324.723 284.228C324.723 280.761 321.913 277.951 318.446 277.951C314.979 277.951 312.168 280.761 312.168 284.228C312.168 287.696 314.979 290.506 318.446 290.506Z" fill="#DE9483" stroke="black" stroke-miterlimit="10"/>
<path d="M278.305 289.682C281.772 289.682 284.583 286.871 284.583 283.404C284.583 279.937 281.772 277.126 278.305 277.126C274.838 277.126 272.027 279.937 272.027 283.404C272.027 286.871 274.838 289.682 278.305 289.682Z" fill="#DE9483" stroke="black" stroke-miterlimit="10"/>
<path d="M283.546 312.425L286.046 290.32L302.006 292.767L298.788 314.607L283.546 312.425Z" fill="#DE9483" stroke="black" stroke-miterlimit="10"/>
<path d="M299.506 299.391C309.966 299.391 318.446 290.911 318.446 280.451C318.446 269.991 309.966 261.511 299.506 261.511C289.046 261.511 280.566 269.991 280.566 280.451C280.566 290.911 289.046 299.391 299.506 299.391Z" fill="#DE9483" stroke="black" stroke-miterlimit="10"/>
<path d="M288.094 272.551C295.22 272.551 300.996 266.775 300.996 259.649C300.996 252.524 295.22 246.748 288.094 246.748C280.969 246.748 275.193 252.524 275.193 259.649C275.193 266.775 280.969 272.551 288.094 272.551Z" fill="#231F20" stroke="black" stroke-miterlimit="10"/>
<path d="M315.333 270.609C311.705 274.721 308.986 279.552 307.353 284.787C303.124 297.183 284.769 296.491 280.753 286.995C276.736 277.499 283.838 263.693 294.425 262.176C304.055 260.82 310.146 263.081 315.333 270.609Z" fill="#231F20" stroke="black" stroke-miterlimit="10"/>
<path d="M229.945 374.591C229.945 374.591 240.133 308.089 292.43 303.275C344.727 298.46 339.274 445.908 339.274 445.908L240.133 464.235C240.133 464.235 221.114 431.65 229.945 374.591Z" fill="#263F22" stroke="black" stroke-miterlimit="10"/>
<path d="M332.385 389.195C332.385 389.195 338.955 411.593 362.39 409.571C385.825 407.549 389.549 390.764 384.442 383.689C379.335 376.613 370.53 372.889 364.066 368.473L332.385 389.195Z" fill="#DE9483" stroke="black" stroke-miterlimit="10"/>
<path d="M291.074 323.651C291.074 323.651 292.43 363.711 327.729 400.394L374.6 369.83C374.6 369.83 335.204 337.244 327.729 317.533C320.255 297.822 284.051 293.592 291.074 323.651Z" fill="#263F22" stroke="black" stroke-miterlimit="10"/>
<path d="M407.186 498.417C407.179 500.454 406.366 502.405 404.926 503.846C403.486 505.286 401.535 506.098 399.498 506.105H324.112C322.402 506.102 320.696 505.978 319.004 505.733C314.188 505.031 309.571 503.332 305.448 500.744C301.326 498.156 297.789 494.736 295.064 490.703C291.183 484.962 289.116 478.188 289.132 471.258V382.492C289.139 380.455 289.951 378.504 291.391 377.063C292.831 375.623 294.783 374.811 296.819 374.804C298.819 374.84 300.726 375.65 302.139 377.065C303.559 378.475 304.37 380.384 304.4 382.385V455.75C304.408 464.99 308.081 473.849 314.615 480.383C321.148 486.916 330.007 490.59 339.247 490.597H399.258C400.298 490.568 401.333 490.75 402.301 491.131C403.269 491.513 404.149 492.086 404.89 492.817C405.63 493.547 406.216 494.42 406.61 495.382C407.005 496.345 407.2 497.377 407.186 498.417Z" fill="#4392A4" stroke="black" stroke-miterlimit="10"/>
<path d="M319.004 505.759C318.239 506.005 317.441 506.131 316.637 506.132H241.25C232.006 506.132 223.14 502.461 216.601 495.927C210.061 489.392 206.384 480.529 206.377 471.285V382.518C206.384 380.477 207.2 378.521 208.646 377.08C210.092 375.64 212.05 374.83 214.091 374.83H296.926C294.889 374.837 292.938 375.65 291.497 377.09C290.057 378.53 289.245 380.481 289.238 382.518V471.285C289.222 478.214 291.289 484.989 295.17 490.73C297.884 494.751 301.404 498.163 305.507 500.75C309.61 503.338 314.207 505.043 319.004 505.759Z" fill="#64D9CE" stroke="black" stroke-miterlimit="10"/>
<path d="M391.199 506.132H375.371V599.394H391.199V506.132Z" fill="white" stroke="black" stroke-miterlimit="10"/>
<path d="M322.516 506.132V522.092H239.894V599.5H223.933V518.368C223.933 515.151 225.211 512.066 227.486 509.791C229.761 507.516 232.846 506.238 236.063 506.238L322.516 506.132Z" fill="white" stroke="black" stroke-miterlimit="10"/>
<path d="M391.172 506.132V522.092H315.466V599.5H299.506V518.368C299.506 515.155 300.78 512.074 303.049 509.8C305.318 507.526 308.397 506.245 311.609 506.238L391.172 506.132Z" fill="white" stroke="black" stroke-miterlimit="10"/>
<path d="M407.186 436.172V511.133C407.186 514.011 406.042 516.771 404.007 518.807C401.972 520.842 399.211 521.986 396.333 521.986H356.032C353.916 521.986 351.886 521.145 350.39 519.648C348.893 518.152 348.052 516.122 348.052 514.005C348.054 511.903 348.886 509.886 350.367 508.393C351.86 506.912 353.877 506.08 355.979 506.078H391.305V436.119L407.186 436.172Z" fill="white" stroke="black" stroke-miterlimit="10"/>
<path d="M326.639 506.132H322.542" stroke="black" stroke-miterlimit="10"/>
<path d="M326.187 521.986H322.542" stroke="black" stroke-miterlimit="10"/>
<path d="M432.43 423.935H291.419C287.849 423.935 284.955 426.829 284.955 430.399V433.99C284.955 437.56 287.849 440.454 291.419 440.454H432.43C436 440.454 438.894 437.56 438.894 433.99V430.399C438.894 426.829 436 423.935 432.43 423.935Z" fill="#F3D375" stroke="black" stroke-miterlimit="10"/>
<path d="M305.651 423.935H291.419C287.849 423.935 284.955 426.829 284.955 430.399V433.99C284.955 437.56 287.849 440.454 291.419 440.454H305.651C309.221 440.454 312.115 437.56 312.115 433.99V430.399C312.115 426.829 309.221 423.935 305.651 423.935Z" fill="#DA8367" stroke="black" stroke-miterlimit="10"/>
<path d="M484.78 190.86H438.308C437.354 190.86 436.579 191.634 436.579 192.589V258.506C436.579 259.461 437.354 260.235 438.308 260.235H484.78C485.735 260.235 486.509 259.461 486.509 258.506V192.589C486.509 191.634 485.735 190.86 484.78 190.86Z" fill="white"/>
<path d="M484.753 260.235V259.889H438.282C437.919 259.876 437.575 259.726 437.319 259.469C437.062 259.213 436.912 258.868 436.899 258.506V192.563C436.906 192.2 437.055 191.855 437.313 191.602C437.572 191.348 437.92 191.206 438.282 191.206H484.753C484.934 191.202 485.113 191.235 485.281 191.301C485.448 191.368 485.601 191.467 485.73 191.594C485.859 191.72 485.961 191.871 486.031 192.037C486.101 192.204 486.137 192.382 486.137 192.563V258.506C486.13 258.87 485.982 259.218 485.724 259.476C485.466 259.734 485.118 259.882 484.753 259.889V260.554C485.025 260.557 485.294 260.507 485.545 260.406C485.797 260.304 486.026 260.154 486.219 259.964C486.412 259.773 486.565 259.546 486.67 259.296C486.774 259.046 486.828 258.777 486.828 258.506V192.563C486.828 192.291 486.774 192.023 486.67 191.773C486.565 191.522 486.412 191.295 486.219 191.105C486.026 190.914 485.797 190.764 485.545 190.662C485.294 190.561 485.025 190.511 484.753 190.514H438.282C438.011 190.511 437.742 190.561 437.49 190.662C437.238 190.764 437.009 190.914 436.816 191.105C436.623 191.295 436.47 191.522 436.365 191.773C436.261 192.023 436.207 192.291 436.207 192.563V258.506C436.207 258.777 436.261 259.046 436.365 259.296C436.47 259.546 436.623 259.773 436.816 259.964C437.009 260.154 437.238 260.304 437.49 260.406C437.742 260.507 438.011 260.557 438.282 260.554H484.753V260.235Z" fill="black"/>
<path d="M452.327 221.265L450.864 228.66H443.948L449.933 223.393L452.327 221.265Z" fill="#263F22"/>
<path d="M452.327 221.265L452.167 221.238L450.731 228.473H444.427L450.039 223.526L452.46 221.398L452.327 221.265L452.221 221.371L452.327 221.265L452.167 221.238L452.327 221.265L452.46 221.132L452.354 221.025L449.8 223.26L443.496 228.846H451.024L452.513 221.211L452.46 221.132L452.327 221.265Z" fill="black"/>
<path d="M475.603 224.643C476.427 225.494 477.704 227.037 479.087 228.739H471.107L468.633 220.573C469.549 220.872 470.439 221.246 471.293 221.69C472.894 222.411 474.353 223.411 475.603 224.643Z" fill="#263F22"/>
<path d="M475.603 224.643C476.427 225.494 477.704 227.01 479.087 228.713H479.22V228.527H471.293L468.873 220.546H468.687V220.706C468.959 220.775 469.225 220.864 469.485 220.972C470.147 221.22 470.795 221.504 471.426 221.823C472.947 222.561 474.332 223.55 475.523 224.749H475.656C474.439 223.513 473.017 222.496 471.453 221.743C470.588 221.313 469.7 220.932 468.793 220.6H468.5L471.16 229.192H479.593L479.353 228.926C477.97 227.223 476.693 225.68 475.869 224.829L475.603 224.643Z" fill="black"/>
<path d="M474.246 228.66H449.055C449.278 227.608 449.42 226.541 449.481 225.467C449.47 224.753 449.616 224.045 449.906 223.393C450.97 220.999 454.03 219.429 459.084 219.19H459.376C459.961 219.19 460.573 219.19 461.185 219.19H462.01C465.334 218.979 468.64 219.827 471.453 221.61C472.58 222.562 473.357 223.864 473.661 225.308C473.82 226.026 474.033 227.303 474.246 228.66Z" fill="#263F22"/>
<path d="M474.246 228.66V228.473H449.055V228.66H449.215C449.44 227.599 449.582 226.523 449.64 225.441C449.643 224.754 449.788 224.074 450.066 223.446C451.077 221.132 454.056 219.589 459.11 219.349H462.01C465.289 219.132 468.552 219.971 471.32 221.743C472.423 222.674 473.182 223.948 473.475 225.361C473.661 226.053 473.847 227.223 474.06 228.686H474.246H474.485C474.273 227.223 474.06 226.026 473.9 225.335C473.589 223.851 472.794 222.513 471.639 221.531C468.797 219.718 465.454 218.852 462.09 219.057H459.163C454.083 219.296 450.944 220.866 449.827 223.34C449.527 224.018 449.373 224.752 449.374 225.494C449.339 226.559 449.205 227.619 448.975 228.66V228.846H474.485V228.66H474.246Z" fill="black"/>
<path d="M460.547 222.276C460.159 222.276 459.787 222.121 459.512 221.847C459.238 221.573 459.084 221.201 459.084 220.813V217.142H462.01V220.813C462.01 221.201 461.856 221.573 461.581 221.847C461.307 222.121 460.935 222.276 460.547 222.276Z" fill="#DE9483"/>
<path d="M460.547 222.275V221.983C460.378 221.986 460.21 221.956 460.054 221.893C459.897 221.83 459.755 221.736 459.636 221.617C459.516 221.498 459.423 221.355 459.36 221.199C459.297 221.042 459.266 220.875 459.27 220.706V217.221H461.93V220.706C461.93 220.876 461.896 221.044 461.83 221.201C461.765 221.358 461.668 221.5 461.547 221.618C461.425 221.737 461.281 221.831 461.123 221.893C460.965 221.956 460.796 221.986 460.626 221.983V222.329C460.842 222.332 461.056 222.293 461.256 222.213C461.456 222.133 461.638 222.014 461.791 221.863C461.945 221.712 462.066 221.532 462.15 221.333C462.233 221.135 462.276 220.921 462.276 220.706V216.875H459.004V220.706C459.004 221.136 459.175 221.549 459.479 221.853C459.783 222.158 460.196 222.329 460.626 222.329L460.547 222.275Z" fill="black"/>
<path d="M461.717 217.514V220.467L459.403 219.296V217.514H461.717Z" fill="#A76F62"/>
<path d="M466.904 214.003C466.897 214.45 466.715 214.876 466.396 215.189C466.078 215.503 465.649 215.679 465.202 215.679C464.757 215.679 464.331 215.502 464.017 215.188C463.703 214.873 463.526 214.447 463.526 214.003C463.526 213.558 463.703 213.132 464.017 212.818C464.331 212.504 464.757 212.327 465.202 212.327C465.649 212.327 466.078 212.503 466.396 212.816C466.715 213.13 466.897 213.556 466.904 214.003Z" fill="#DE9483"/>
<path d="M466.904 214.003H466.718C466.718 214.202 466.679 214.399 466.603 214.583C466.527 214.767 466.415 214.934 466.274 215.075C466.133 215.216 465.966 215.327 465.782 215.404C465.598 215.48 465.401 215.519 465.202 215.519C464.828 215.479 464.482 215.302 464.231 215.022C463.981 214.742 463.843 214.379 463.845 214.003C463.845 213.605 464.001 213.223 464.28 212.94C464.558 212.656 464.937 212.493 465.335 212.486C465.737 212.486 466.123 212.646 466.407 212.931C466.691 213.215 466.851 213.601 466.851 214.003H467.197C467.197 213.509 467.001 213.035 466.652 212.686C466.302 212.337 465.829 212.141 465.335 212.141C465.092 212.141 464.851 212.189 464.626 212.283C464.402 212.377 464.198 212.514 464.028 212.688C463.857 212.861 463.722 213.066 463.631 213.292C463.541 213.518 463.496 213.759 463.499 214.003C463.496 214.246 463.541 214.487 463.631 214.713C463.722 214.939 463.857 215.145 464.028 215.318C464.198 215.491 464.402 215.629 464.626 215.723C464.851 215.816 465.092 215.865 465.335 215.865C465.829 215.865 466.302 215.669 466.652 215.319C467.001 214.97 467.197 214.497 467.197 214.003H466.904Z" fill="black"/>
<path d="M457.567 214.003C457.567 214.447 457.391 214.873 457.077 215.188C456.762 215.502 456.336 215.679 455.892 215.679C455.447 215.679 455.021 215.502 454.707 215.188C454.392 214.873 454.216 214.447 454.216 214.003C454.216 213.558 454.392 213.132 454.707 212.818C455.021 212.504 455.447 212.327 455.892 212.327C456.336 212.327 456.762 212.504 457.077 212.818C457.391 213.132 457.567 213.558 457.567 214.003Z" fill="#DE9483"/>
<path d="M457.567 214.003H457.408C457.401 214.403 457.239 214.784 456.956 215.067C456.673 215.35 456.292 215.512 455.892 215.519C455.492 215.512 455.11 215.35 454.827 215.067C454.544 214.784 454.382 214.403 454.375 214.003C454.382 213.603 454.544 213.221 454.827 212.938C455.11 212.655 455.492 212.493 455.892 212.486C456.292 212.493 456.673 212.655 456.956 212.938C457.239 213.221 457.401 213.603 457.408 214.003H457.754C457.754 213.758 457.706 213.516 457.612 213.29C457.518 213.064 457.381 212.859 457.208 212.686C457.035 212.513 456.83 212.376 456.604 212.282C456.378 212.189 456.136 212.141 455.892 212.141C455.398 212.141 454.924 212.337 454.575 212.686C454.226 213.035 454.03 213.509 454.03 214.003C454.03 214.497 454.226 214.97 454.575 215.319C454.924 215.669 455.398 215.865 455.892 215.865C456.136 215.865 456.378 215.817 456.604 215.723C456.83 215.629 457.035 215.492 457.208 215.319C457.381 215.146 457.518 214.941 457.612 214.715C457.706 214.489 457.754 214.247 457.754 214.003H457.567Z" fill="black"/>
<path d="M460.547 218.711C463.103 218.711 465.175 216.639 465.175 214.082C465.175 211.526 463.103 209.454 460.547 209.454C457.99 209.454 455.918 211.526 455.918 214.082C455.918 216.639 457.99 218.711 460.547 218.711Z" fill="#DE9483"/>
<path d="M465.175 214.003H464.989C464.989 215.183 464.522 216.316 463.69 217.153C462.857 217.991 461.727 218.465 460.547 218.472C459.362 218.472 458.225 218.001 457.387 217.163C456.549 216.325 456.078 215.188 456.078 214.003C456.078 212.817 456.549 211.681 457.387 210.843C458.225 210.005 459.362 209.534 460.547 209.534C461.727 209.541 462.857 210.015 463.69 210.852C464.522 211.689 464.989 212.822 464.989 214.003H465.335C465.335 212.73 464.831 211.51 463.934 210.608C463.037 209.705 461.819 209.195 460.547 209.188C459.293 209.223 458.102 209.745 457.228 210.644C456.353 211.544 455.865 212.748 455.865 214.003C455.865 215.28 456.372 216.504 457.275 217.407C458.178 218.31 459.403 218.817 460.68 218.817C461.952 218.81 463.17 218.3 464.067 217.398C464.964 216.496 465.468 215.275 465.468 214.003H465.175Z" fill="black"/>
<path d="M463.287 216.024C462.581 216.732 461.625 217.133 460.626 217.142C459.628 217.13 458.674 216.729 457.966 216.024H463.287Z" fill="black"/>
<path d="M466.904 210.332C466.897 209.805 466.685 209.301 466.312 208.929C465.94 208.556 465.436 208.343 464.909 208.337C464.53 208.329 464.158 208.44 463.845 208.656C463.735 208.424 463.592 208.208 463.42 208.017C463.433 207.805 463.433 207.592 463.42 207.379C463.42 206.6 463.112 205.853 462.564 205.3C462.016 204.748 461.272 204.433 460.493 204.426C459.864 204.426 459.25 204.627 458.743 205.001C458.236 205.374 457.861 205.9 457.674 206.501H457.514C456.985 206.501 456.478 206.711 456.103 207.085C455.729 207.46 455.519 207.967 455.519 208.496C455.494 208.655 455.494 208.816 455.519 208.975C455.301 209.163 455.127 209.396 455.007 209.657C454.888 209.919 454.827 210.204 454.827 210.491V210.704C454.506 210.877 454.237 211.134 454.049 211.448C453.862 211.762 453.763 212.121 453.764 212.486C453.77 213.013 453.983 213.517 454.356 213.889C454.728 214.262 455.232 214.474 455.759 214.481C456.286 214.474 456.789 214.262 457.162 213.889C457.534 213.517 457.747 213.013 457.754 212.486V212.247C458.08 212.084 458.355 211.834 458.548 211.524C458.741 211.214 458.843 210.856 458.844 210.491C458.872 210.333 458.872 210.171 458.844 210.012C459.213 210.244 459.634 210.381 460.068 210.411C460.231 210.745 460.485 211.027 460.8 211.224C461.115 211.421 461.478 211.527 461.85 211.529C462.017 211.556 462.188 211.556 462.356 211.529C462.352 211.792 462.401 212.053 462.5 212.296C462.599 212.54 462.746 212.761 462.932 212.947C463.118 213.133 463.339 213.28 463.583 213.379C463.827 213.478 464.088 213.527 464.351 213.524C464.861 213.531 465.354 213.337 465.722 212.983C466.091 212.63 466.305 212.145 466.319 211.635C466.677 211.294 466.887 210.826 466.904 210.332Z" fill="black"/>
<path d="M480.551 228.66V228.314H442.565C442.198 228.314 441.846 228.168 441.587 227.909C441.327 227.649 441.181 227.297 441.181 226.931V196.074C441.181 195.707 441.327 195.355 441.587 195.096C441.846 194.836 442.198 194.691 442.565 194.691H480.604C480.784 194.691 480.963 194.727 481.129 194.796C481.295 194.866 481.446 194.968 481.572 195.097C481.699 195.226 481.798 195.379 481.865 195.547C481.931 195.714 481.964 195.893 481.96 196.074V226.931C481.96 227.293 481.818 227.641 481.565 227.9C481.311 228.158 480.966 228.307 480.604 228.314V229.006C480.875 229.006 481.143 228.952 481.394 228.847C481.644 228.743 481.871 228.589 482.061 228.396C482.252 228.203 482.402 227.974 482.504 227.723C482.605 227.471 482.655 227.202 482.652 226.931V196.074C482.655 195.803 482.605 195.533 482.504 195.282C482.402 195.03 482.252 194.801 482.061 194.608C481.871 194.415 481.644 194.262 481.394 194.157C481.143 194.053 480.875 193.999 480.604 193.999H442.565C442.014 193.999 441.487 194.218 441.098 194.607C440.708 194.996 440.49 195.524 440.49 196.074V226.931C440.49 227.481 440.708 228.009 441.098 228.398C441.487 228.787 442.014 229.006 442.565 229.006H480.604L480.551 228.66Z" fill="black"/>
<path d="M449.587 241.029L450.252 242.359L451.715 242.572L450.651 243.609L450.917 245.072L449.587 244.381L448.284 245.072L448.523 243.609L447.486 242.572L448.949 242.359L449.587 241.029Z" fill="#263F22"/>
<path d="M455.572 241.029L456.237 242.359L457.7 242.572L456.636 243.609L456.876 245.072L455.572 244.381L454.242 245.072L454.508 243.609L453.444 242.572L454.907 242.359L455.572 241.029Z" fill="#263F22"/>
<path d="M461.531 241.029L462.196 242.359L463.659 242.572L462.595 243.609L462.834 245.072L461.531 244.381L460.227 245.072L460.467 243.609L459.403 242.572L460.866 242.359L461.531 241.029Z" fill="#263F22"/>
<path d="M467.489 241.029L468.154 242.359L469.618 242.572L468.553 243.609L468.819 245.072L467.489 244.381L466.186 245.072L466.452 243.609L465.388 242.572L466.851 242.359L467.489 241.029Z" fill="#263F22"/>
<path d="M473.475 241.029L474.113 242.359L475.603 242.572L474.539 243.609L474.778 245.072L473.475 244.381L472.145 245.072L472.411 243.609L471.347 242.572L472.81 242.359L473.475 241.029Z" fill="#263F22"/>
<path d="M447.113 235.124H475.949V232.357H447.113" fill="#263F22"/>
<path d="M440.782 249.568H482.279V246.801H440.782" fill="#263F22"/>
<path d="M440.782 254.622H482.279V251.882H440.782" fill="#263F22"/>
<path d="M455.12 238.768H467.942V236.001H455.12" fill="#263F22"/>
<path d="M465.681 273.987H442.751C442.281 273.987 441.9 274.368 441.9 274.839V307.371C441.9 307.841 442.281 308.222 442.751 308.222H465.681C466.151 308.222 466.532 307.841 466.532 307.371V274.839C466.532 274.368 466.151 273.987 465.681 273.987Z" fill="white"/>
<path d="M465.681 308.222V308.063H442.751C442.567 308.063 442.392 307.99 442.262 307.86C442.132 307.73 442.059 307.555 442.059 307.371V274.838C442.066 274.66 442.142 274.491 442.271 274.367C442.4 274.243 442.572 274.173 442.751 274.173H465.681C465.857 274.173 466.026 274.244 466.151 274.368C466.276 274.493 466.346 274.662 466.346 274.838V307.371C466.346 307.55 466.277 307.722 466.153 307.851C466.029 307.98 465.859 308.056 465.681 308.063V308.382C465.949 308.382 466.206 308.276 466.395 308.086C466.585 307.896 466.691 307.639 466.691 307.371V274.838C466.691 274.57 466.585 274.313 466.395 274.124C466.206 273.934 465.949 273.828 465.681 273.828H442.751C442.48 273.828 442.22 273.933 442.027 274.122C441.833 274.311 441.72 274.568 441.713 274.838V307.371C441.72 307.642 441.833 307.899 442.027 308.088C442.22 308.276 442.48 308.382 442.751 308.382H465.681V308.222Z" fill="black"/>
<path d="M449.694 288.99L448.949 292.661H445.544L448.497 290.054L449.667 288.99H449.694Z" fill="#263F22"/>
<path d="M449.694 288.99H449.587L448.896 292.555H445.783L448.55 290.107L449.747 289.07L449.667 288.99L449.614 289.07L449.694 288.99H449.587H449.694L449.747 288.937L449.694 288.884L448.443 290.001L445.331 292.741H449.029L449.773 288.963L449.747 288.937L449.694 288.99Z" fill="black"/>
<path d="M461.185 290.639C461.584 291.065 462.223 291.81 462.914 292.634H459.004L457.78 288.618C458.249 288.76 458.703 288.947 459.137 289.176C459.901 289.539 460.594 290.034 461.185 290.639Z" fill="#263F22"/>
<path d="M461.185 290.639C461.584 291.065 462.196 291.81 462.888 292.661H459.03L457.833 288.697L458.206 288.83L459.163 289.256C459.925 289.611 460.618 290.098 461.212 290.692C460.617 290.08 459.913 289.584 459.137 289.229C458.703 289 458.249 288.813 457.78 288.671H457.621L458.897 292.927H463.047V292.767L461.318 290.746L461.185 290.639Z" fill="black"/>
<path d="M460.493 292.634H448.071C448.165 292.115 448.227 291.591 448.257 291.065C448.261 290.717 448.334 290.374 448.47 290.054C449.002 288.884 450.518 288.112 453.019 287.979H454.455C456.095 287.872 457.726 288.292 459.11 289.176C459.667 289.65 460.051 290.296 460.201 291.012C460.281 291.358 460.387 291.916 460.493 292.634Z" fill="#263F22"/>
<path d="M460.493 292.634H448.071C448.184 292.109 448.255 291.575 448.284 291.038C448.276 290.701 448.339 290.365 448.47 290.054C448.975 288.937 450.439 288.165 452.939 288.032H454.375C455.994 287.927 457.605 288.337 458.977 289.203C459.514 289.667 459.888 290.292 460.041 290.985C460.041 291.331 460.201 291.916 460.307 292.634C460.307 291.916 460.094 291.331 460.015 290.985C459.861 290.25 459.468 289.585 458.898 289.096C457.491 288.218 455.845 287.799 454.189 287.899H452.726C450.226 287.899 448.683 288.777 448.124 290.001C447.988 290.339 447.915 290.7 447.911 291.065C447.883 291.593 447.811 292.118 447.699 292.634H460.307H460.493Z" fill="black"/>
<path d="M453.737 289.495C453.546 289.495 453.364 289.42 453.229 289.285C453.094 289.15 453.019 288.968 453.019 288.777V286.968H454.455V288.777C454.455 288.968 454.379 289.15 454.245 289.285C454.11 289.42 453.927 289.495 453.737 289.495Z" fill="#DE9483"/>
<path d="M453.737 289.495C453.568 289.495 453.405 289.428 453.285 289.308C453.166 289.189 453.099 289.026 453.099 288.857V287.128H454.375V288.857C454.375 289.026 454.308 289.189 454.188 289.308C454.069 289.428 453.906 289.495 453.737 289.495V289.655C453.949 289.655 454.152 289.571 454.301 289.421C454.451 289.272 454.535 289.069 454.535 288.857V286.968H452.912V288.857C452.912 288.964 452.934 289.07 452.976 289.169C453.017 289.267 453.078 289.356 453.155 289.431C453.232 289.505 453.323 289.564 453.423 289.602C453.523 289.641 453.63 289.659 453.737 289.655V289.495Z" fill="black"/>
<path d="M454.322 287.155V288.618L453.152 288.032V287.155H454.322Z" fill="#A76F62"/>
<path d="M456.849 285.372C456.849 285.591 456.762 285.801 456.608 285.955C456.453 286.11 456.243 286.197 456.025 286.197C455.806 286.197 455.596 286.11 455.442 285.955C455.287 285.801 455.2 285.591 455.2 285.372C455.2 285.154 455.287 284.944 455.442 284.789C455.596 284.635 455.806 284.548 456.025 284.548C456.243 284.548 456.453 284.635 456.608 284.789C456.762 284.944 456.849 285.154 456.849 285.372Z" fill="#DE9483"/>
<path d="M456.849 285.372C456.853 285.471 456.836 285.57 456.8 285.662C456.764 285.754 456.709 285.837 456.639 285.907C456.569 285.977 456.486 286.032 456.394 286.068C456.302 286.104 456.203 286.121 456.104 286.117C455.907 286.117 455.717 286.039 455.578 285.899C455.438 285.759 455.36 285.57 455.36 285.372C455.366 285.177 455.447 284.991 455.585 284.853C455.723 284.715 455.909 284.634 456.104 284.627C456.302 284.627 456.491 284.706 456.631 284.846C456.771 284.985 456.849 285.175 456.849 285.372H457.035C457.028 285.13 456.927 284.9 456.754 284.731C456.58 284.562 456.347 284.468 456.104 284.468C455.865 284.468 455.635 284.563 455.465 284.733C455.295 284.902 455.2 285.132 455.2 285.372C455.2 285.615 455.294 285.848 455.463 286.021C455.632 286.195 455.862 286.296 456.104 286.303C456.351 286.303 456.588 286.205 456.763 286.031C456.937 285.856 457.035 285.619 457.035 285.372H456.849Z" fill="black"/>
<path d="M452.274 285.372C452.274 285.483 452.252 285.592 452.209 285.694C452.166 285.796 452.103 285.888 452.023 285.965C451.944 286.042 451.85 286.102 451.746 286.142C451.643 286.182 451.533 286.201 451.423 286.197C451.204 286.197 450.994 286.11 450.84 285.956C450.685 285.801 450.598 285.591 450.598 285.372C450.598 285.154 450.685 284.944 450.84 284.789C450.994 284.635 451.204 284.548 451.423 284.548C451.533 284.544 451.643 284.563 451.746 284.603C451.85 284.643 451.944 284.703 452.023 284.78C452.103 284.857 452.166 284.949 452.209 285.051C452.252 285.152 452.274 285.262 452.274 285.372Z" fill="#DE9483"/>
<path d="M452.274 285.372C452.278 285.471 452.261 285.57 452.225 285.662C452.189 285.754 452.134 285.837 452.064 285.907C451.994 285.977 451.91 286.032 451.818 286.068C451.726 286.104 451.628 286.121 451.529 286.117C451.332 286.117 451.142 286.039 451.002 285.899C450.863 285.759 450.784 285.57 450.784 285.372C450.791 285.177 450.871 284.991 451.01 284.853C451.148 284.715 451.334 284.634 451.529 284.627C451.727 284.627 451.916 284.706 452.056 284.846C452.195 284.985 452.274 285.175 452.274 285.372H452.46C452.453 285.13 452.352 284.9 452.178 284.731C452.004 284.562 451.771 284.468 451.529 284.468C451.289 284.468 451.059 284.563 450.89 284.733C450.72 284.902 450.625 285.132 450.625 285.372C450.625 285.615 450.719 285.848 450.888 286.021C451.057 286.195 451.287 286.296 451.529 286.303C451.776 286.303 452.013 286.205 452.187 286.031C452.362 285.856 452.46 285.619 452.46 285.372H452.274Z" fill="black"/>
<path d="M453.737 287.74C455 287.74 456.025 286.716 456.025 285.452C456.025 284.189 455 283.165 453.737 283.165C452.473 283.165 451.449 284.189 451.449 285.452C451.449 286.716 452.473 287.74 453.737 287.74Z" fill="#DE9483"/>
<path d="M455.998 285.452C455.998 286.038 455.765 286.599 455.351 287.013C454.937 287.427 454.376 287.66 453.79 287.66C453.207 287.653 452.649 287.418 452.237 287.006C451.824 286.593 451.589 286.035 451.582 285.452C451.589 284.869 451.824 284.311 452.237 283.899C452.649 283.486 453.207 283.251 453.79 283.244C454.376 283.244 454.937 283.477 455.351 283.891C455.765 284.305 455.998 284.866 455.998 285.452H456.184C456.184 285.139 456.122 284.829 456.002 284.54C455.881 284.251 455.704 283.989 455.481 283.769C455.259 283.548 454.995 283.375 454.704 283.257C454.414 283.14 454.103 283.081 453.79 283.085C453.162 283.085 452.56 283.334 452.116 283.778C451.672 284.222 451.423 284.824 451.423 285.452C451.423 286.08 451.672 286.682 452.116 287.126C452.56 287.57 453.162 287.82 453.79 287.82C454.103 287.823 454.414 287.764 454.704 287.647C454.995 287.53 455.259 287.356 455.481 287.136C455.704 286.915 455.881 286.653 456.002 286.364C456.122 286.075 456.184 285.765 456.184 285.452H455.998Z" fill="black"/>
<path d="M455.067 286.41C454.896 286.589 454.689 286.731 454.46 286.827C454.231 286.924 453.985 286.971 453.737 286.968C453.493 286.969 453.252 286.92 453.027 286.824C452.803 286.728 452.601 286.587 452.434 286.41H455.067Z" fill="black"/>
<path d="M456.849 283.617C456.853 283.487 456.83 283.357 456.782 283.236C456.734 283.115 456.661 283.005 456.569 282.913C456.477 282.82 456.367 282.748 456.246 282.7C456.125 282.652 455.995 282.629 455.865 282.632C455.688 282.632 455.513 282.678 455.36 282.766C455.304 282.658 455.232 282.559 455.147 282.473C455.16 282.367 455.16 282.26 455.147 282.154C455.147 281.766 454.993 281.394 454.718 281.119C454.444 280.845 454.072 280.691 453.684 280.691C453.373 280.694 453.071 280.797 452.822 280.983C452.574 281.17 452.391 281.431 452.3 281.728C452.172 281.725 452.045 281.747 451.926 281.793C451.807 281.84 451.698 281.91 451.606 281.999C451.514 282.088 451.441 282.195 451.392 282.313C451.342 282.431 451.316 282.558 451.316 282.686C451.3 282.765 451.3 282.846 451.316 282.925C451.208 283.017 451.122 283.131 451.062 283.26C451.002 283.388 450.971 283.528 450.97 283.67V283.803C450.812 283.882 450.678 284.003 450.584 284.153C450.49 284.304 450.44 284.477 450.438 284.654C450.438 284.915 450.542 285.166 450.727 285.35C450.911 285.535 451.162 285.638 451.423 285.638C451.553 285.642 451.683 285.619 451.804 285.571C451.925 285.523 452.035 285.45 452.127 285.358C452.219 285.266 452.291 285.156 452.339 285.035C452.388 284.914 452.411 284.784 452.407 284.654C452.57 284.573 452.706 284.448 452.8 284.293C452.895 284.137 452.943 283.958 452.939 283.776C452.939 283.776 452.939 283.617 452.939 283.537C453.119 283.663 453.331 283.736 453.551 283.75C453.625 283.92 453.748 284.064 453.904 284.163C454.061 284.263 454.243 284.313 454.429 284.308H454.668C454.675 284.567 454.781 284.814 454.964 284.997C455.147 285.18 455.393 285.286 455.652 285.293C455.904 285.293 456.147 285.197 456.33 285.023C456.513 284.85 456.623 284.613 456.636 284.362C456.725 284.261 456.79 284.142 456.827 284.013C456.863 283.884 456.871 283.749 456.849 283.617Z" fill="black"/>
<path d="M463.579 292.634V292.475H444.959C444.775 292.475 444.599 292.402 444.47 292.272C444.34 292.143 444.267 291.967 444.267 291.783V276.568C444.267 276.384 444.34 276.208 444.47 276.078C444.599 275.949 444.775 275.876 444.959 275.876H463.579C463.763 275.876 463.939 275.949 464.068 276.078C464.198 276.208 464.271 276.384 464.271 276.568V291.783C464.271 291.967 464.198 292.143 464.068 292.272C463.939 292.402 463.763 292.475 463.579 292.475V292.821C463.716 292.824 463.853 292.8 463.98 292.749C464.108 292.698 464.224 292.622 464.321 292.525C464.418 292.428 464.494 292.312 464.545 292.184C464.596 292.057 464.62 291.92 464.617 291.783V276.568C464.617 276.432 464.59 276.299 464.537 276.174C464.485 276.05 464.408 275.937 464.311 275.843C464.214 275.749 464.1 275.675 463.974 275.626C463.849 275.577 463.714 275.553 463.579 275.557H444.959C444.691 275.557 444.433 275.663 444.244 275.853C444.054 276.042 443.948 276.299 443.948 276.568V291.783C443.944 291.918 443.968 292.052 444.017 292.178C444.066 292.304 444.14 292.418 444.234 292.515C444.329 292.612 444.441 292.689 444.566 292.741C444.69 292.794 444.824 292.821 444.959 292.821H463.579V292.634Z" fill="black"/>
<path d="M448.337 298.752L448.656 299.417L449.374 299.524L448.842 300.029L448.975 300.747L448.337 300.402L447.672 300.747L447.805 300.029L447.273 299.524L448.018 299.417L448.337 298.752Z" fill="#263F22"/>
<path d="M451.263 298.752L451.609 299.417L452.327 299.524L451.795 300.029L451.928 300.747L451.263 300.402L450.625 300.747L450.758 300.029L450.226 299.524L450.944 299.417L451.263 298.752Z" fill="#263F22"/>
<path d="M454.216 298.752L454.535 299.417L455.253 299.524L454.748 300.029L454.854 300.747L454.216 300.402L453.577 300.747L453.684 300.029L453.178 299.524L453.896 299.417L454.216 298.752Z" fill="#263F22"/>
<path d="M457.168 298.752L457.488 299.417L458.206 299.524L457.674 300.029L457.807 300.747L457.168 300.402L456.503 300.747L456.636 300.029L456.104 299.524L456.849 299.417L457.168 298.752Z" fill="#263F22"/>
<path d="M460.121 298.752L460.44 299.417L461.158 299.524L460.626 300.029L460.759 300.747L460.121 300.402L459.456 300.747L459.589 300.029L459.057 299.524L459.775 299.417L460.121 298.752Z" fill="#263F22"/>
<path d="M447.113 295.826H461.318V294.47H447.113" fill="#263F22"/>
<path d="M443.974 302.982H464.457V301.599H443.974" fill="#263F22"/>
<path d="M443.974 305.456H464.457V304.099H443.974" fill="#263F22"/>
<path d="M451.05 297.635H457.381V296.279H451.05" fill="#263F22"/>
<path d="M578.654 165.669H505.183C503.684 165.669 502.469 166.884 502.469 168.382V272.604C502.469 274.103 503.684 275.317 505.183 275.317H578.654C580.152 275.317 581.367 274.103 581.367 272.604V168.382C581.367 166.884 580.152 165.669 578.654 165.669Z" fill="white"/>
<path d="M578.654 275.317V274.759H505.183C504.604 274.759 504.049 274.529 503.64 274.12C503.231 273.711 503.001 273.156 503.001 272.577V168.382C503.001 167.804 503.231 167.249 503.64 166.84C504.049 166.431 504.604 166.201 505.183 166.201H578.654C579.228 166.208 579.776 166.441 580.179 166.849C580.582 167.258 580.808 167.809 580.808 168.382V272.524C580.812 272.809 580.759 273.092 580.652 273.357C580.546 273.621 580.387 273.862 580.187 274.065C579.987 274.268 579.748 274.429 579.485 274.539C579.221 274.649 578.939 274.705 578.654 274.705V275.796C579.517 275.789 580.342 275.441 580.95 274.828C581.558 274.216 581.899 273.387 581.899 272.524V168.329C581.899 167.466 581.558 166.638 580.95 166.025C580.342 165.412 579.517 165.064 578.654 165.057H505.183C504.753 165.057 504.328 165.142 503.931 165.306C503.534 165.471 503.173 165.712 502.869 166.016C502.565 166.32 502.324 166.68 502.16 167.077C501.995 167.474 501.911 167.9 501.911 168.329V272.524C501.911 273.392 502.256 274.224 502.869 274.838C503.483 275.451 504.315 275.796 505.183 275.796H578.654V275.317Z" fill="black"/>
<path d="M527.394 213.737L525.08 225.414H514.147L523.564 217.088L527.394 213.71V213.737Z" fill="#263F22"/>
<path d="M527.394 213.737L527.128 213.683L524.841 225.148H514.865L523.75 217.301L527.554 213.923L527.394 213.71L527.181 213.923H527.208L527.394 213.737L527.128 213.683L527.394 213.737L527.58 213.524L527.394 213.338L523.378 216.902L513.429 225.68H525.293L527.687 213.63L527.58 213.524L527.394 213.737Z" fill="black"/>
<path d="M564.157 218.95C565.46 220.307 567.481 222.728 569.689 225.414H557.161L553.25 212.513C554.74 212.983 556.189 213.57 557.586 214.269C560.028 215.441 562.251 217.025 564.157 218.95Z" fill="#263F22"/>
<path d="M564.156 218.95L563.97 219.137C565.247 220.493 567.269 222.914 569.477 225.6L569.689 225.414V225.148H557.347L553.516 212.433H553.25V212.673L554.5 213.098C555.272 213.391 556.336 213.843 557.559 214.428C559.964 215.602 562.157 217.166 564.05 219.057L564.236 218.871L564.449 218.684C562.513 216.744 560.265 215.144 557.799 213.949C556.388 213.235 554.919 212.639 553.41 212.167L552.931 212.008L557.028 225.6H570.328L569.955 225.175C567.748 222.515 565.726 220.068 564.422 218.684L564.156 218.95Z" fill="black"/>
<path d="M562.002 225.414H522.101C522.455 223.759 522.677 222.078 522.766 220.387C522.759 219.251 522.995 218.126 523.457 217.088C525.133 213.311 529.974 210.837 537.955 210.465H538.433C539.338 210.465 540.296 210.465 541.28 210.465H542.583C549.739 210.731 554.527 211.875 557.48 214.295C559.278 215.799 560.508 217.874 560.964 220.174C561.363 221.238 561.656 223.1 562.002 225.414Z" fill="#263F22"/>
<path d="M562.002 225.414V225.148H522.101V225.414H522.367C522.723 223.741 522.946 222.042 523.032 220.334C523.031 219.235 523.258 218.148 523.697 217.142C525.293 213.524 530.028 211.077 537.981 210.678H542.583C549.712 210.944 554.447 212.087 557.32 214.455C559.057 215.928 560.247 217.942 560.698 220.174C560.964 221.265 561.284 223.1 561.629 225.494H561.895H562.268C561.922 223.153 561.603 221.318 561.31 220.174C560.833 217.826 559.577 215.708 557.746 214.162C554.687 211.662 549.765 210.518 542.663 210.279H540.349H538.487H538.035C530.054 210.651 525.027 213.151 523.271 217.062C522.808 218.137 522.572 219.296 522.58 220.467C522.475 222.138 522.253 223.8 521.915 225.441V225.76H562.268V225.468L562.002 225.414Z" fill="black"/>
<path d="M540.375 215.333C539.762 215.333 539.173 215.089 538.739 214.655C538.305 214.221 538.061 213.632 538.061 213.018V207.246H542.69V213.018C542.69 213.632 542.446 214.221 542.012 214.655C541.578 215.089 540.989 215.333 540.375 215.333Z" fill="#DE9483"/>
<path d="M540.375 215.333V215.04C539.837 215.04 539.32 214.828 538.936 214.45C538.553 214.071 538.334 213.557 538.327 213.019V207.512H542.424V213.019C542.417 213.557 542.198 214.071 541.814 214.45C541.431 214.828 540.914 215.04 540.375 215.04V215.599C541.081 215.599 541.758 215.319 542.256 214.82C542.755 214.321 543.036 213.644 543.036 212.939V206.874H537.795V212.939C537.795 213.644 538.075 214.321 538.574 214.82C539.073 215.319 539.75 215.599 540.455 215.599L540.375 215.333Z" fill="black"/>
<path d="M542.237 207.831V212.46L538.54 210.598V207.831H542.237Z" fill="#A76F62"/>
<path d="M550.404 202.139C550.404 202.844 550.124 203.521 549.625 204.02C549.126 204.519 548.449 204.799 547.744 204.799C547.038 204.799 546.362 204.519 545.863 204.02C545.364 203.521 545.084 202.844 545.084 202.139C545.084 201.433 545.364 200.757 545.863 200.258C546.362 199.759 547.038 199.479 547.744 199.479C548.449 199.479 549.126 199.759 549.625 200.258C550.124 200.757 550.404 201.433 550.404 202.139Z" fill="#DE9483"/>
<path d="M550.404 202.139H550.138C550.138 202.452 550.076 202.762 549.955 203.051C549.835 203.34 549.658 203.602 549.435 203.822C549.212 204.042 548.948 204.216 548.658 204.334C548.368 204.451 548.057 204.51 547.744 204.506C547.431 204.51 547.12 204.451 546.83 204.334C546.539 204.216 546.275 204.042 546.052 203.822C545.83 203.602 545.653 203.34 545.532 203.051C545.412 202.762 545.35 202.452 545.35 202.139C545.35 201.504 545.602 200.895 546.051 200.446C546.5 199.997 547.109 199.745 547.744 199.745C548.379 199.745 548.988 199.997 549.437 200.446C549.886 200.895 550.138 201.504 550.138 202.139H550.67C550.67 201.36 550.362 200.613 549.814 200.06C549.266 199.507 548.522 199.193 547.744 199.186C546.965 199.193 546.221 199.507 545.673 200.06C545.125 200.613 544.818 201.36 544.818 202.139C544.818 202.523 544.893 202.903 545.041 203.258C545.188 203.613 545.403 203.936 545.675 204.208C545.947 204.479 546.269 204.695 546.624 204.842C546.979 204.989 547.36 205.065 547.744 205.065C548.52 205.065 549.264 204.757 549.813 204.208C550.362 203.659 550.67 202.915 550.67 202.139H550.404Z" fill="black"/>
<path d="M535.667 202.139C535.667 202.844 535.387 203.521 534.888 204.02C534.389 204.519 533.712 204.799 533.007 204.799C532.301 204.799 531.625 204.519 531.126 204.02C530.627 203.521 530.347 202.844 530.347 202.139C530.347 201.433 530.627 200.757 531.126 200.258C531.625 199.759 532.301 199.479 533.007 199.479C533.712 199.479 534.389 199.759 534.888 200.258C535.387 200.757 535.667 201.433 535.667 202.139Z" fill="#DE9483"/>
<path d="M535.667 202.139H535.401C535.401 202.452 535.339 202.762 535.218 203.051C535.098 203.34 534.921 203.602 534.698 203.822C534.476 204.042 534.212 204.216 533.921 204.334C533.631 204.451 533.32 204.51 533.007 204.506C532.377 204.506 531.772 204.258 531.324 203.814C530.875 203.371 530.62 202.769 530.613 202.139C530.613 201.504 530.865 200.895 531.314 200.446C531.763 199.997 532.372 199.745 533.007 199.745C533.642 199.745 534.251 199.997 534.7 200.446C535.149 200.895 535.401 201.504 535.401 202.139H535.96C535.96 201.751 535.883 201.367 535.735 201.009C535.587 200.651 535.369 200.325 535.095 200.051C534.821 199.777 534.495 199.559 534.137 199.411C533.779 199.262 533.395 199.186 533.007 199.186C532.229 199.193 531.484 199.507 530.936 200.06C530.388 200.613 530.081 201.36 530.081 202.139C530.081 202.523 530.157 202.903 530.304 203.258C530.451 203.613 530.666 203.936 530.938 204.208C531.21 204.479 531.532 204.695 531.887 204.842C532.242 204.989 532.623 205.065 533.007 205.065C533.786 205.065 534.533 204.757 535.086 204.209C535.638 203.661 535.953 202.917 535.96 202.139H535.667Z" fill="black"/>
<path d="M540.349 209.72C544.404 209.72 547.691 206.433 547.691 202.378C547.691 198.323 544.404 195.036 540.349 195.036C536.294 195.036 533.007 198.323 533.007 202.378C533.007 206.433 536.294 209.72 540.349 209.72Z" fill="#DE9483"/>
<path d="M547.691 202.378H547.398C547.401 203.305 547.222 204.223 546.869 205.08C546.516 205.937 545.996 206.715 545.341 207.37C544.686 208.026 543.907 208.545 543.051 208.898C542.194 209.251 541.276 209.431 540.349 209.427C538.477 209.427 536.681 208.685 535.355 207.364C534.029 206.043 533.28 204.25 533.273 202.378C533.28 200.504 534.028 198.708 535.353 197.383C536.679 196.057 538.474 195.309 540.349 195.302C542.221 195.309 544.014 196.058 545.335 197.384C546.656 198.71 547.398 200.506 547.398 202.378H547.957C547.957 200.36 547.155 198.425 545.728 196.999C544.302 195.572 542.367 194.77 540.349 194.77C538.331 194.77 536.396 195.572 534.969 196.999C533.543 198.425 532.741 200.36 532.741 202.378C532.741 204.396 533.543 206.331 534.969 207.758C536.396 209.184 538.331 209.986 540.349 209.986C542.367 209.986 544.302 209.184 545.728 207.758C547.155 206.331 547.957 204.396 547.957 202.378H547.691Z" fill="black"/>
<path d="M544.685 205.464C544.13 206.03 543.468 206.48 542.737 206.786C542.006 207.092 541.221 207.248 540.429 207.246C538.83 207.239 537.299 206.598 536.172 205.464H544.685Z" fill="black"/>
<path d="M550.404 196.446C550.404 195.614 550.073 194.815 549.485 194.227C548.896 193.638 548.097 193.307 547.265 193.307C546.671 193.295 546.087 193.462 545.589 193.786C545.421 193.418 545.187 193.084 544.897 192.802C544.938 192.466 544.938 192.127 544.897 191.791C544.897 190.556 544.407 189.372 543.534 188.499C542.661 187.626 541.477 187.136 540.242 187.136C539.25 187.137 538.284 187.454 537.484 188.043C536.685 188.632 536.095 189.46 535.8 190.408H535.667C535.253 190.408 534.842 190.49 534.46 190.649C534.077 190.809 533.73 191.042 533.438 191.337C533.146 191.631 532.916 191.98 532.759 192.364C532.603 192.748 532.525 193.159 532.528 193.573C532.502 193.83 532.502 194.088 532.528 194.345C532.186 194.637 531.911 195 531.723 195.409C531.535 195.818 531.437 196.262 531.438 196.712V197.085C530.927 197.35 530.501 197.751 530.205 198.244C529.909 198.737 529.756 199.303 529.762 199.878C529.762 200.71 530.092 201.509 530.681 202.097C531.27 202.686 532.068 203.017 532.901 203.017C533.315 203.02 533.726 202.942 534.11 202.785C534.494 202.629 534.843 202.399 535.137 202.107C535.432 201.815 535.665 201.468 535.825 201.085C535.984 200.703 536.066 200.292 536.066 199.878V199.505C536.572 199.235 536.996 198.833 537.291 198.341C537.586 197.849 537.742 197.286 537.742 196.712C537.769 196.465 537.769 196.215 537.742 195.967L537.928 195.781C538.518 196.144 539.182 196.371 539.87 196.446C540.122 196.98 540.522 197.431 541.021 197.747C541.52 198.063 542.099 198.23 542.69 198.229C542.946 198.256 543.205 198.256 543.461 198.229C543.461 198.643 543.543 199.053 543.703 199.436C543.862 199.818 544.095 200.166 544.39 200.457C544.684 200.749 545.033 200.98 545.417 201.136C545.801 201.292 546.212 201.371 546.627 201.367C547.435 201.362 548.21 201.047 548.793 200.488C549.377 199.929 549.725 199.168 549.765 198.361C550.189 197.814 550.414 197.138 550.404 196.446Z" fill="black"/>
<path d="M571.977 225.414V224.856H511.859C511.281 224.856 510.726 224.626 510.317 224.217C509.908 223.808 509.678 223.253 509.678 222.675V173.889C509.685 173.312 509.917 172.762 510.325 172.354C510.732 171.947 511.283 171.714 511.859 171.708H571.977C572.553 171.714 573.104 171.947 573.512 172.354C573.919 172.762 574.151 173.312 574.158 173.889V222.675C574.158 222.961 574.102 223.245 573.992 223.509C573.883 223.774 573.722 224.014 573.519 224.217C573.317 224.419 573.076 224.58 572.812 224.69C572.547 224.799 572.264 224.856 571.977 224.856V225.946C572.407 225.946 572.832 225.862 573.229 225.697C573.626 225.533 573.987 225.292 574.291 224.988C574.594 224.684 574.835 224.324 575 223.927C575.164 223.53 575.249 223.104 575.249 222.675V173.889C575.249 173.021 574.904 172.189 574.291 171.575C573.677 170.962 572.845 170.617 571.977 170.617H511.859C510.992 170.617 510.159 170.962 509.546 171.575C508.932 172.189 508.588 173.021 508.588 173.889V222.675C508.588 223.104 508.672 223.53 508.837 223.927C509.001 224.324 509.242 224.684 509.546 224.988C509.85 225.292 510.21 225.533 510.607 225.697C511.004 225.862 511.43 225.946 511.859 225.946H571.977V225.414Z" fill="black"/>
<path d="M523.058 244.966L524.096 247.067L526.41 247.413L524.734 249.036L525.133 251.35L523.058 250.259L520.983 251.35L521.383 249.036L519.707 247.413L522.021 247.067L523.058 244.966Z" fill="#263F22"/>
<path d="M532.502 244.966L533.539 247.067L535.853 247.413L534.177 249.036L534.576 251.35L532.502 250.259L530.427 251.35L530.799 249.036L529.123 247.413L531.464 247.067L532.502 244.966Z" fill="#263F22"/>
<path d="M541.918 244.966L542.956 247.067L545.27 247.413L543.594 249.036L543.993 251.35L541.918 250.259L539.843 251.35L540.242 249.036L538.567 247.413L540.881 247.067L541.918 244.966Z" fill="#263F22"/>
<path d="M551.362 244.966L552.399 247.067L554.713 247.413L553.037 249.036L553.436 251.35L551.362 250.259L549.287 251.35L549.686 249.036L548.01 247.413L550.324 247.067L551.362 244.966Z" fill="#263F22"/>
<path d="M560.778 244.966L561.816 247.067L564.13 247.413L562.454 249.036L562.853 251.35L560.778 250.259L558.703 251.35L559.102 249.036L557.427 247.413L559.741 247.067L560.778 244.966Z" fill="#263F22"/>
<path d="M519.148 235.629H564.689V231.267H519.148" fill="#263F22"/>
<path d="M509.146 258.479H574.717V254.116H509.146" fill="#263F22"/>
<path d="M509.146 266.486H574.717V262.097H509.146" fill="#263F22"/>
<path d="M531.81 241.375H552.053V237.012H531.81" fill="#263F22"/>
<path d="M423.013 214.242H362.204C360.955 214.242 359.943 215.254 359.943 216.503V302.769C359.943 304.018 360.955 305.03 362.204 305.03H423.013C424.262 305.03 425.274 304.018 425.274 302.769V216.503C425.274 215.254 424.262 214.242 423.013 214.242Z" fill="white"/>
<path d="M423.013 305.03V304.578H362.177C361.702 304.578 361.246 304.391 360.908 304.058C360.569 303.724 360.375 303.271 360.368 302.796V216.503C360.375 216.025 360.568 215.569 360.906 215.232C361.244 214.894 361.7 214.701 362.177 214.694H423.013C423.488 214.701 423.941 214.895 424.275 215.233C424.608 215.572 424.795 216.028 424.795 216.503V302.796C424.795 303.268 424.608 303.722 424.273 304.056C423.939 304.39 423.486 304.578 423.013 304.578V305.482C423.719 305.482 424.395 305.202 424.894 304.703C425.393 304.204 425.673 303.528 425.673 302.822V216.53C425.673 215.824 425.393 215.148 424.894 214.649C424.395 214.15 423.719 213.87 423.013 213.87H362.177C361.472 213.87 360.795 214.15 360.296 214.649C359.797 215.148 359.517 215.824 359.517 216.53V302.822C359.517 303.528 359.797 304.204 360.296 304.703C360.795 305.202 361.472 305.482 362.177 305.482H423.013V305.03Z" fill="black"/>
<path d="M380.558 254.037L378.643 263.719H369.599L377.393 256.83L380.558 254.037Z" fill="#263F22"/>
<path d="M380.558 254.037L380.346 254.01L378.457 263.507H370.211L377.552 257.016L380.718 254.223L380.558 254.037L380.399 254.196L380.558 254.037L380.346 254.01L380.558 254.037L380.718 253.877L380.585 253.744L377.26 256.67L369.014 263.959H378.829L380.824 253.984L380.718 253.877L380.558 254.037Z" fill="black"/>
<path d="M411.016 258.373C412.08 259.49 413.676 261.512 415.591 263.693H405.324L402.078 253.052C403.31 253.449 404.511 253.939 405.669 254.516C407.654 255.495 409.461 256.799 411.016 258.373Z" fill="#263F22"/>
<path d="M411.016 258.373L410.857 258.532C411.921 259.65 413.517 261.645 415.405 263.852L415.591 263.693V263.48H405.324L402.132 252.84H401.919V253.053L402.93 253.425C403.793 253.738 404.637 254.103 405.457 254.516C407.429 255.491 409.226 256.785 410.777 258.346L410.936 258.186L411.096 258.027C409.495 256.422 407.633 255.099 405.59 254.117C404.419 253.519 403.2 253.021 401.945 252.627H401.546L404.951 263.879H415.964L415.645 263.507C413.836 261.272 412.16 259.277 411.069 258.186L411.016 258.373Z" fill="black"/>
<path d="M409.234 263.719H376.276C376.569 262.344 376.755 260.948 376.834 259.543C376.834 258.627 377.024 257.721 377.393 256.883C378.776 253.771 382.713 251.723 389.39 251.403H393.22C399.179 251.616 403.116 252.574 405.563 254.569C407.038 255.829 408.057 257.54 408.462 259.437C408.675 260.288 408.941 261.884 409.234 263.719Z" fill="#263F22"/>
<path d="M409.234 263.719V263.507H376.276V263.719H376.488C376.782 262.326 376.969 260.912 377.047 259.49C377.031 258.573 377.222 257.663 377.606 256.83C378.936 253.824 382.926 251.776 389.416 251.51H389.789H391.305H393.22C399.152 251.696 403.036 252.653 405.43 254.622C406.866 255.846 407.857 257.511 408.25 259.357C408.462 260.261 408.729 261.778 409.021 263.719H409.234H409.447C409.181 261.804 408.915 260.261 408.675 259.33C408.276 257.388 407.236 255.637 405.723 254.356C403.196 252.281 399.206 251.35 393.247 251.137H391.305H389.789H389.363C382.713 251.456 378.723 253.531 377.153 256.777C376.756 257.653 376.556 258.607 376.568 259.57C376.486 260.963 376.308 262.35 376.036 263.719V263.985H409.527V263.719H409.234Z" fill="black"/>
<path d="M391.305 255.367C391.055 255.367 390.807 255.317 390.576 255.22C390.345 255.124 390.136 254.982 389.96 254.804C389.784 254.626 389.646 254.415 389.553 254.182C389.459 253.95 389.413 253.702 389.416 253.451V248.583H393.22V253.372C393.231 253.63 393.189 253.887 393.098 254.129C393.007 254.371 392.867 254.591 392.688 254.778C392.509 254.964 392.295 255.112 392.057 255.214C391.819 255.315 391.563 255.367 391.305 255.367Z" fill="#DE9483"/>
<path d="M391.305 255.367V255.154C390.858 255.147 390.432 254.964 390.118 254.646C389.805 254.327 389.629 253.898 389.629 253.451V248.903H393.007V253.451C393.007 253.903 392.828 254.336 392.509 254.655C392.19 254.975 391.757 255.154 391.305 255.154V255.606C391.876 255.606 392.424 255.379 392.829 254.975C393.233 254.571 393.46 254.023 393.46 253.451V248.583H389.177V253.584C389.173 253.866 389.226 254.146 389.331 254.407C389.437 254.668 389.593 254.906 389.791 255.106C389.989 255.307 390.225 255.466 390.484 255.575C390.744 255.683 391.023 255.739 391.305 255.739V255.367Z" fill="black"/>
<path d="M392.848 249.169V252.999L389.789 251.456V249.169H392.848Z" fill="#A76F62"/>
<path d="M399.631 244.434C399.631 245.02 399.398 245.581 398.984 245.995C398.57 246.409 398.009 246.642 397.423 246.642C396.838 246.642 396.276 246.409 395.862 245.995C395.448 245.581 395.215 245.02 395.215 244.434C395.215 243.848 395.448 243.287 395.862 242.873C396.276 242.459 396.838 242.226 397.423 242.226C398.009 242.226 398.57 242.459 398.984 242.873C399.398 243.287 399.631 243.848 399.631 244.434Z" fill="#DE9483"/>
<path d="M399.631 244.434H399.392C399.392 244.958 399.185 245.462 398.817 245.835C398.448 246.209 397.948 246.422 397.423 246.429C396.896 246.422 396.393 246.21 396.02 245.837C395.648 245.464 395.435 244.961 395.428 244.434C395.435 243.909 395.648 243.409 396.022 243.04C396.395 242.672 396.899 242.465 397.423 242.465C397.945 242.465 398.446 242.673 398.815 243.042C399.184 243.411 399.392 243.912 399.392 244.434H399.844C399.844 243.792 399.589 243.176 399.135 242.722C398.681 242.268 398.065 242.013 397.423 242.013C396.779 242.013 396.16 242.267 395.702 242.721C395.244 243.174 394.983 243.789 394.976 244.434C394.976 244.755 395.039 245.074 395.162 245.37C395.285 245.667 395.466 245.937 395.693 246.164C395.92 246.392 396.19 246.572 396.487 246.695C396.784 246.818 397.102 246.881 397.423 246.881C398.068 246.874 398.683 246.613 399.137 246.155C399.59 245.697 399.844 245.078 399.844 244.434H399.631Z" fill="black"/>
<path d="M387.421 244.434C387.421 245.02 387.189 245.581 386.775 245.995C386.361 246.409 385.799 246.642 385.214 246.642C384.924 246.642 384.636 246.585 384.369 246.474C384.101 246.363 383.857 246.2 383.652 245.995C383.447 245.79 383.285 245.547 383.174 245.279C383.063 245.011 383.006 244.724 383.006 244.434C383.006 244.144 383.063 243.857 383.174 243.589C383.285 243.321 383.447 243.078 383.652 242.873C383.857 242.668 384.101 242.505 384.369 242.394C384.636 242.283 384.924 242.226 385.214 242.226C385.799 242.226 386.361 242.459 386.775 242.873C387.189 243.287 387.421 243.848 387.421 244.434Z" fill="#DE9483"/>
<path d="M387.421 244.434H387.209C387.202 244.961 386.989 245.464 386.617 245.837C386.244 246.21 385.741 246.422 385.214 246.429C384.689 246.422 384.188 246.209 383.82 245.835C383.452 245.462 383.245 244.958 383.245 244.434C383.245 243.912 383.453 243.411 383.822 243.042C384.191 242.673 384.691 242.465 385.214 242.465C385.738 242.465 386.241 242.672 386.615 243.04C386.988 243.409 387.202 243.909 387.209 244.434H387.661C387.654 243.789 387.393 243.174 386.935 242.721C386.477 242.267 385.858 242.013 385.214 242.013C384.572 242.013 383.956 242.268 383.502 242.722C383.048 243.176 382.793 243.792 382.793 244.434C382.793 245.078 383.047 245.697 383.5 246.155C383.953 246.613 384.569 246.874 385.214 246.881C385.535 246.881 385.853 246.818 386.15 246.695C386.447 246.572 386.717 246.392 386.944 246.164C387.171 245.937 387.352 245.667 387.475 245.37C387.598 245.074 387.661 244.755 387.661 244.434H387.421Z" fill="black"/>
<path d="M391.305 250.712C394.655 250.712 397.37 247.996 397.37 244.647C397.37 241.297 394.655 238.582 391.305 238.582C387.955 238.582 385.24 241.297 385.24 244.647C385.24 247.996 387.955 250.712 391.305 250.712Z" fill="#DE9483"/>
<path d="M397.343 244.647H397.104C397.107 245.414 396.959 246.174 396.668 246.884C396.377 247.594 395.948 248.239 395.407 248.783C394.866 249.327 394.222 249.758 393.514 250.053C392.805 250.347 392.046 250.499 391.278 250.499C390.509 250.502 389.746 250.353 389.035 250.061C388.323 249.768 387.677 249.337 387.133 248.793C386.588 248.248 386.157 247.602 385.865 246.89C385.572 246.179 385.423 245.416 385.426 244.647C385.433 243.097 386.052 241.612 387.148 240.516C388.244 239.42 389.728 238.802 391.278 238.795C392.826 238.802 394.308 239.421 395.399 240.518C396.491 241.615 397.104 243.099 397.104 244.647H397.556C397.556 242.979 396.896 241.38 395.719 240.198C394.543 239.017 392.946 238.349 391.278 238.342C389.606 238.342 388.003 239.006 386.82 240.189C385.638 241.371 384.974 242.975 384.974 244.647C384.974 246.319 385.638 247.922 386.82 249.104C388.003 250.287 389.606 250.951 391.278 250.951C392.946 250.944 394.543 250.277 395.719 249.095C396.896 247.914 397.556 246.314 397.556 244.647H397.343Z" fill="black"/>
<path d="M397.343 243.264L395.854 242.811C392.975 241.933 389.901 241.933 387.022 242.811L385.506 243.29C385.798 241.934 386.546 240.719 387.626 239.848C388.705 238.976 390.051 238.501 391.438 238.502C392.818 238.501 394.157 238.973 395.232 239.84C396.306 240.706 397.052 241.914 397.343 243.264Z" fill="#263F22"/>
<path d="M397.343 243.263V243.051L395.854 242.598C394.397 242.153 392.882 241.929 391.358 241.933C389.844 241.931 388.337 242.155 386.889 242.598L385.346 243.077V243.29H385.559C385.835 241.978 386.554 240.802 387.596 239.959C388.638 239.115 389.938 238.657 391.278 238.661C392.61 238.662 393.902 239.119 394.938 239.957C395.974 240.794 396.691 241.961 396.971 243.263H397.184H397.343C397.04 241.858 396.265 240.598 395.148 239.693C394.03 238.789 392.637 238.293 391.199 238.289C389.756 238.287 388.357 238.78 387.233 239.685C386.11 240.59 385.332 241.853 385.027 243.263V243.636L386.943 243.051C388.349 242.627 389.81 242.412 391.278 242.412C392.756 242.41 394.226 242.625 395.641 243.051L397.131 243.503L397.503 243.636V243.263H397.343Z" fill="black"/>
<path d="M394.896 247.2C394.432 247.666 393.881 248.035 393.274 248.286C392.666 248.537 392.015 248.665 391.358 248.663C390.705 248.665 390.058 248.536 389.456 248.285C388.853 248.034 388.306 247.665 387.847 247.2H394.896Z" fill="black"/>
<path d="M397.503 243.184L397.29 243.13L397.157 243.583L397.37 243.636" fill="black"/>
<path d="M385.293 243.157L385.16 243.184L385.293 243.636L385.426 243.583" fill="black"/>
<path d="M417.48 263.72V263.267H367.71C367.472 263.271 367.235 263.227 367.014 263.137C366.793 263.047 366.592 262.914 366.423 262.746C366.255 262.577 366.121 262.376 366.032 262.155C365.942 261.934 365.898 261.697 365.901 261.458V221.079C365.898 220.84 365.942 220.603 366.032 220.382C366.121 220.161 366.255 219.96 366.423 219.791C366.592 219.623 366.793 219.49 367.014 219.4C367.235 219.31 367.472 219.266 367.71 219.27H417.48C417.96 219.27 418.42 219.46 418.759 219.8C419.098 220.139 419.289 220.599 419.289 221.079V261.458C419.289 261.938 419.098 262.398 418.759 262.737C418.42 263.077 417.96 263.267 417.48 263.267V264.172C418.186 264.172 418.862 263.891 419.361 263.393C419.86 262.894 420.14 262.217 420.14 261.512V221.132C420.14 220.426 419.86 219.75 419.361 219.251C418.862 218.752 418.186 218.472 417.48 218.472H367.71C367.005 218.472 366.328 218.752 365.829 219.251C365.33 219.75 365.05 220.426 365.05 221.132V261.512C365.05 262.217 365.33 262.894 365.829 263.393C366.328 263.891 367.005 264.172 367.71 264.172H417.48V263.72Z" fill="black"/>
<path d="M376.994 279.919L377.845 281.648L379.76 281.941L378.377 283.297L378.696 285.213L376.994 284.308L375.265 285.213L375.584 283.297L374.201 281.941L376.116 281.648L376.994 279.919Z" fill="#263F22"/>
<path d="M384.788 279.919L385.639 281.648L387.581 281.941L386.171 283.297L386.517 285.213L384.788 284.308L383.085 285.213L383.405 283.297L382.021 281.941L383.937 281.648L384.788 279.919Z" fill="#263F22"/>
<path d="M392.609 279.919L393.46 281.648L395.375 281.941L393.992 283.297L394.311 285.213L392.609 284.308L390.879 285.213L391.199 283.297L389.815 281.941L391.731 281.648L392.609 279.919Z" fill="#263F22"/>
<path d="M400.403 279.919L401.28 281.648L403.196 281.941L401.786 283.297L402.132 285.213L400.403 284.308L398.7 285.213L399.019 283.297L397.636 281.941L399.551 281.648L400.403 279.919Z" fill="#263F22"/>
<path d="M408.223 279.919L409.074 281.648L410.99 281.941L409.606 283.297L409.926 285.213L408.223 284.308L406.494 285.213L406.84 283.297L405.43 281.941L407.372 281.648L408.223 279.919Z" fill="#263F22"/>
<path d="M373.749 272.178H411.468V268.561H373.749" fill="#263F22"/>
<path d="M365.449 291.118H419.741V287.5H365.449" fill="#263F22"/>
<path d="M365.449 297.715H419.741V294.097H365.449" fill="#263F22"/>
<path d="M384.203 276.94H400.988V273.322H384.203" fill="#263F22"/>
<path d="M559.289 289.602H483.849C482.306 289.602 481.056 290.852 481.056 292.395V399.409C481.056 400.952 482.306 402.203 483.849 402.203H559.289C560.831 402.203 562.082 400.952 562.082 399.409V292.395C562.082 290.852 560.831 289.602 559.289 289.602Z" fill="white"/>
<path d="M559.262 402.176V401.617H483.849C483.555 401.621 483.262 401.566 482.99 401.455C482.717 401.344 482.469 401.179 482.261 400.971C482.053 400.763 481.888 400.515 481.777 400.242C481.666 399.97 481.611 399.677 481.614 399.383V292.395C481.611 292.101 481.666 291.808 481.777 291.536C481.888 291.263 482.053 291.015 482.261 290.807C482.469 290.599 482.717 290.434 482.99 290.323C483.262 290.212 483.555 290.157 483.849 290.161H559.262C559.556 290.157 559.849 290.212 560.121 290.323C560.394 290.434 560.642 290.599 560.85 290.807C561.058 291.015 561.223 291.263 561.334 291.536C561.445 291.808 561.5 292.101 561.496 292.395V399.383C561.5 399.677 561.445 399.97 561.334 400.242C561.223 400.515 561.058 400.763 560.85 400.971C560.642 401.179 560.394 401.344 560.121 401.455C559.849 401.566 559.556 401.621 559.262 401.617V402.735C559.703 402.738 560.141 402.654 560.549 402.487C560.957 402.32 561.328 402.073 561.64 401.761C561.952 401.449 562.199 401.078 562.366 400.67C562.533 400.262 562.617 399.824 562.614 399.383V292.395C562.617 291.953 562.533 291.514 562.366 291.104C562.199 290.694 561.953 290.322 561.641 290.008C561.33 289.694 560.959 289.444 560.551 289.274C560.142 289.104 559.704 289.017 559.262 289.017H483.849C482.953 289.017 482.094 289.373 481.46 290.006C480.826 290.64 480.471 291.499 480.471 292.395V399.383C480.471 399.825 480.558 400.263 480.728 400.672C480.898 401.08 481.148 401.451 481.462 401.762C481.776 402.074 482.148 402.32 482.558 402.487C482.968 402.654 483.407 402.738 483.849 402.735H559.262V402.176Z" fill="black"/>
<path d="M506.646 338.946L504.252 350.943H493.053L502.709 342.404L506.646 338.946Z" fill="#263F22"/>
<path d="M506.646 338.946L506.38 338.893L504.039 350.677H493.771L502.895 342.617L506.832 339.159L506.646 338.946L506.433 339.132L506.646 338.946L506.38 338.893L506.646 338.946L506.832 338.733L506.646 338.547L502.523 342.191L492.308 351.236H504.491L506.938 338.84L506.832 338.733L506.646 338.946Z" fill="black"/>
<path d="M544.392 344.346C545.722 345.729 547.797 348.203 550.058 350.97H537.21L533.193 337.669C534.731 338.145 536.226 338.75 537.662 339.478C540.168 340.703 542.444 342.35 544.392 344.346Z" fill="#263F22"/>
<path d="M544.392 344.346L544.206 344.532C545.509 345.916 547.584 348.389 549.845 351.156L550.058 350.97V350.704H537.396L533.459 337.643H533.193V337.909C533.193 337.909 533.672 337.909 534.47 338.334C535.539 338.733 536.586 339.186 537.609 339.691C540.087 340.891 542.344 342.501 544.286 344.453L544.472 344.266L544.685 344.054C542.698 342.062 540.386 340.425 537.848 339.212C536.408 338.467 534.903 337.853 533.353 337.377L532.847 337.217L537.077 351.183H550.75L550.377 350.73C548.09 348.07 546.015 345.41 544.685 344.054L544.392 344.346Z" fill="black"/>
<path d="M542.184 350.943H501.326C501.686 349.243 501.917 347.518 502.017 345.783C501.999 344.62 502.235 343.466 502.709 342.404C504.438 338.521 509.386 335.993 517.605 335.594H518.084C519.015 335.594 519.999 335.594 521.01 335.594H522.34C529.709 335.86 534.603 337.031 537.662 339.531C539.493 341.077 540.749 343.195 541.227 345.543C541.519 346.66 541.839 348.576 542.184 350.943Z" fill="#263F22"/>
<path d="M542.184 350.943V350.677H501.326V350.943H501.592C501.96 349.19 502.191 347.412 502.283 345.623C502.282 344.499 502.509 343.386 502.948 342.351C504.598 338.627 509.439 336.1 517.605 335.701H518.084H519.973H522.367C529.709 335.94 534.55 337.137 537.503 339.558C539.279 341.081 540.504 343.147 540.987 345.437C541.253 346.554 541.599 348.443 541.945 350.757H542.211H542.504C542.131 348.363 541.812 346.448 541.519 345.304C541.02 342.894 539.727 340.722 537.848 339.132C534.736 336.472 529.868 335.382 522.393 335.142H519.999C519.334 335.142 518.723 335.142 518.084 335.142H517.605C509.359 335.541 504.305 338.095 502.469 342.138C501.985 343.236 501.74 344.424 501.751 345.623C501.648 347.34 501.417 349.047 501.06 350.73V351.076H542.583V350.757L542.184 350.943Z" fill="black"/>
<path d="M519.973 340.595C519.659 340.595 519.349 340.533 519.06 340.413C518.771 340.292 518.509 340.115 518.289 339.893C518.069 339.67 517.895 339.406 517.778 339.116C517.66 338.825 517.602 338.515 517.605 338.201V332.269H522.367V338.201C522.37 338.517 522.311 338.83 522.192 339.122C522.073 339.414 521.896 339.679 521.673 339.902C521.45 340.125 521.185 340.301 520.893 340.421C520.601 340.54 520.288 340.599 519.973 340.595Z" fill="#DE9483"/>
<path d="M519.973 340.595V340.303C519.417 340.296 518.887 340.072 518.494 339.68C518.102 339.287 517.878 338.757 517.871 338.201V332.562H522.074V338.201C522.074 338.759 521.853 339.293 521.459 339.687C521.065 340.082 520.53 340.303 519.973 340.303V340.861C520.678 340.861 521.355 340.581 521.854 340.082C522.353 339.583 522.633 338.907 522.633 338.201V332.003H517.312V338.201C517.312 338.907 517.593 339.583 518.092 340.082C518.591 340.581 519.267 340.861 519.973 340.861V340.595Z" fill="black"/>
<path d="M521.888 332.881V337.643L518.084 335.728V332.881H521.888Z" fill="#A76F62"/>
<path d="M530.347 327.029C530.347 327.734 530.067 328.411 529.568 328.91C529.069 329.409 528.392 329.689 527.687 329.689C526.981 329.689 526.305 329.409 525.806 328.91C525.307 328.411 525.027 327.734 525.027 327.029C525.027 326.323 525.307 325.647 525.806 325.148C526.305 324.649 526.981 324.369 527.687 324.369C528.392 324.369 529.069 324.649 529.568 325.148C530.067 325.647 530.347 326.323 530.347 327.029Z" fill="#DE9483"/>
<path d="M530.347 327.029H530.081C530.074 327.681 529.81 328.303 529.347 328.761C528.884 329.219 528.259 329.476 527.607 329.476C526.958 329.476 526.336 329.219 525.877 328.76C525.418 328.301 525.16 327.678 525.16 327.029C525.16 326.38 525.418 325.758 525.877 325.299C526.336 324.84 526.958 324.582 527.607 324.582C528.259 324.582 528.884 324.839 529.347 325.297C529.81 325.755 530.074 326.378 530.081 327.029H530.64C530.632 326.229 530.31 325.465 529.742 324.902C529.174 324.339 528.407 324.023 527.607 324.023C526.812 324.03 526.051 324.349 525.489 324.911C524.927 325.474 524.608 326.234 524.601 327.029C524.601 327.829 524.917 328.596 525.48 329.164C526.043 329.732 526.807 330.055 527.607 330.062C528.411 330.062 529.183 329.742 529.751 329.173C530.32 328.605 530.64 327.833 530.64 327.029H530.347Z" fill="black"/>
<path d="M515.158 327.029C515.158 327.734 514.878 328.411 514.379 328.91C513.88 329.409 513.203 329.689 512.498 329.689C511.792 329.689 511.116 329.409 510.617 328.91C510.118 328.411 509.838 327.734 509.838 327.029C509.838 326.323 510.118 325.647 510.617 325.148C511.116 324.649 511.792 324.369 512.498 324.369C513.203 324.369 513.88 324.649 514.379 325.148C514.878 325.647 515.158 326.323 515.158 327.029Z" fill="#DE9483"/>
<path d="M515.158 327.029H514.865C514.865 327.678 514.607 328.301 514.148 328.76C513.69 329.219 513.067 329.476 512.418 329.476C511.769 329.476 511.146 329.219 510.688 328.76C510.229 328.301 509.971 327.678 509.971 327.029C509.971 326.38 510.229 325.758 510.688 325.299C511.146 324.84 511.769 324.582 512.418 324.582C513.067 324.582 513.69 324.84 514.148 325.299C514.607 325.758 514.865 326.38 514.865 327.029H515.424C515.417 326.234 515.098 325.474 514.536 324.911C513.974 324.349 513.213 324.03 512.418 324.023C511.618 324.023 510.851 324.339 510.283 324.902C509.715 325.465 509.393 326.229 509.386 327.029C509.386 327.833 509.705 328.605 510.274 329.173C510.843 329.742 511.614 330.062 512.418 330.062C513.218 330.055 513.982 329.732 514.545 329.164C515.108 328.596 515.424 327.829 515.424 327.029H515.158Z" fill="black"/>
<path d="M519.946 334.823C524.104 334.823 527.474 331.453 527.474 327.295C527.474 323.137 524.104 319.767 519.946 319.767C515.788 319.767 512.418 323.137 512.418 327.295C512.418 331.453 515.788 334.823 519.946 334.823Z" fill="#DE9483"/>
<path d="M527.474 327.295H527.208C527.201 329.216 526.433 331.057 525.072 332.413C523.71 333.769 521.868 334.531 519.946 334.53C518.025 334.531 516.182 333.769 514.821 332.413C513.459 331.057 512.691 329.216 512.684 327.295C512.691 325.371 513.459 323.528 514.819 322.168C516.179 320.807 518.022 320.04 519.946 320.033C521.87 320.04 523.713 320.807 525.073 322.168C526.434 323.528 527.201 325.371 527.208 327.295H527.687C527.687 325.221 526.863 323.232 525.396 321.765C523.93 320.298 521.94 319.474 519.866 319.474C518.839 319.474 517.822 319.677 516.874 320.07C515.925 320.463 515.062 321.039 514.336 321.765C513.61 322.491 513.034 323.353 512.641 324.302C512.248 325.251 512.046 326.268 512.046 327.295C512.046 328.322 512.248 329.339 512.641 330.288C513.034 331.237 513.61 332.099 514.336 332.825C515.062 333.551 515.925 334.127 516.874 334.52C517.822 334.913 518.839 335.116 519.866 335.116C521.94 335.116 523.93 334.292 525.396 332.825C526.863 331.358 527.687 329.369 527.687 327.295H527.474Z" fill="black"/>
<path d="M524.415 330.461C523.839 331.037 523.155 331.493 522.401 331.804C521.648 332.114 520.841 332.273 520.026 332.269C519.215 332.271 518.413 332.111 517.664 331.801C516.915 331.49 516.235 331.035 515.663 330.461H524.415Z" fill="black"/>
<path d="M527.687 326.683C527.683 327.283 527.612 327.881 527.474 328.466C527.08 326.822 526.144 325.359 524.817 324.311C523.49 323.264 521.849 322.694 520.159 322.693C518.473 322.7 516.839 323.273 515.517 324.32C514.195 325.366 513.263 326.826 512.87 328.466C512.733 327.881 512.661 327.283 512.657 326.683C512.657 324.694 513.448 322.786 514.855 321.379C516.261 319.972 518.169 319.182 520.159 319.182C522.151 319.182 524.062 319.971 525.473 321.377C526.884 322.783 527.68 324.691 527.687 326.683Z" fill="#17172A"/>
<path d="M524.814 315.83C524.814 317.1 524.31 318.318 523.412 319.216C522.514 320.114 521.296 320.618 520.026 320.618C519.398 320.618 518.777 320.494 518.198 320.253C517.618 320.012 517.092 319.659 516.65 319.214C516.207 318.769 515.857 318.241 515.619 317.66C515.382 317.08 515.261 316.458 515.264 315.83C515.264 314.567 515.766 313.356 516.659 312.463C517.552 311.57 518.763 311.069 520.026 311.069C521.291 311.069 522.505 311.569 523.402 312.462C524.3 313.354 524.807 314.565 524.814 315.83Z" fill="#17172A"/>
<path d="M552.425 350.943V350.384H490.685C490.095 350.378 489.53 350.14 489.113 349.722C488.695 349.305 488.458 348.741 488.451 348.15V298.061C488.451 297.468 488.686 296.9 489.105 296.481C489.524 296.062 490.093 295.827 490.685 295.827H552.425C553.018 295.827 553.586 296.062 554.006 296.481C554.425 296.9 554.66 297.468 554.66 298.061V348.15C554.653 348.741 554.415 349.305 553.998 349.722C553.58 350.14 553.016 350.378 552.425 350.384V351.502C553.312 351.495 554.161 351.139 554.788 350.512C555.415 349.885 555.77 349.037 555.777 348.15V298.061C555.777 297.17 555.425 296.314 554.797 295.682C554.169 295.049 553.317 294.69 552.425 294.683H490.685C490.243 294.683 489.805 294.77 489.396 294.94C488.988 295.11 488.617 295.36 488.306 295.674C487.994 295.988 487.748 296.36 487.581 296.77C487.414 297.18 487.33 297.619 487.334 298.061V348.15C487.334 349.039 487.687 349.892 488.315 350.52C488.944 351.149 489.796 351.502 490.685 351.502H552.425V350.943Z" fill="black"/>
<path d="M502.203 371.027L503.267 373.181L505.635 373.527L503.906 375.203L504.331 377.57L502.203 376.453L500.049 377.57L500.474 375.203L498.745 373.527L501.139 373.181L502.203 371.027Z" fill="#263F22"/>
<path d="M511.886 371.027L512.95 373.181L515.318 373.527L513.588 375.203L514.014 377.57L511.886 376.453L509.758 377.57L510.157 375.203L508.428 373.527L510.822 373.181L511.886 371.027Z" fill="#263F22"/>
<path d="M521.569 371.027L522.633 373.181L525 373.527L523.298 375.203L523.697 377.57L521.569 376.453L519.441 377.57L519.84 375.203L518.111 373.527L520.505 373.181L521.569 371.027Z" fill="#263F22"/>
<path d="M531.251 371.027L532.315 373.181L534.683 373.527L532.98 375.203L533.379 377.57L531.251 376.453L529.123 377.57L529.522 375.203L527.793 373.527L530.187 373.181L531.251 371.027Z" fill="#263F22"/>
<path d="M540.934 371.027L541.998 373.181L544.366 373.527L542.663 375.203L543.062 377.57L540.934 376.453L538.806 377.57L539.205 375.203L537.476 373.527L539.87 373.181L540.934 371.027Z" fill="#263F22"/>
<path d="M498.16 361.424H544.951V356.928H498.16" fill="#263F22"/>
<path d="M487.892 384.912H555.219V380.417H487.892" fill="#263F22"/>
<path d="M487.892 393.105H555.219V388.61H487.892" fill="#263F22"/>
<path d="M511.168 367.329H531.97V362.86H511.168" fill="#263F22"/>
</g>
<defs>
<clipPath id="clip0_508_1965">
<rect width="705.131" height="645.865" fill="white" transform="translate(-18)"/>
</clipPath>
</defs>
</svg>
