<svg width="223" height="196" viewBox="0 0 223 196" fill="none" xmlns="http://www.w3.org/2000/svg">
<g clip-path="url(#clip0_247_385)">
<path d="M99.9642 9.38365V70.6146L221.943 77.3009V4.61275L99.9642 9.38365Z" fill="white" stroke="#17172A" stroke-miterlimit="10"/>
<path d="M102.776 11.7032L218.92 7.23982V73.6634L102.776 68.2072V11.7032Z" stroke="#17172A" stroke-miterlimit="10"/>
<path d="M109.357 61.6L117.545 48.3065L123.617 52.7435L134.766 48.3065H142.665L147.568 41.9101H162.25" stroke="#1AB8FF" stroke-miterlimit="10"/>
<path d="M136.128 63.3221L136.444 55.0367" stroke="#17172A" stroke-miterlimit="10"/>
<path d="M140.117 63.4714L140.767 46.4965" stroke="#17172A" stroke-miterlimit="10"/>
<path d="M145.046 63.8668L145.521 51.3816" stroke="#17172A" stroke-miterlimit="10"/>
<path d="M149.791 64.0513L150.327 50.0461" stroke="#17172A" stroke-miterlimit="10"/>
<path d="M154.535 64.227L155.01 51.7419" stroke="#17172A" stroke-miterlimit="10"/>
<path d="M158.603 64.3852L159.078 51.9" stroke="#17172A" stroke-miterlimit="10"/>
<path d="M109.357 62.3995L109.673 54.1229" stroke="#17172A" stroke-miterlimit="10"/>
<path d="M113.346 62.5577L113.996 45.5827" stroke="#17172A" stroke-miterlimit="10"/>
<path d="M118.275 62.9531L118.749 50.4591" stroke="#17172A" stroke-miterlimit="10"/>
<path d="M123.019 63.1288L123.555 49.1236" stroke="#17172A" stroke-miterlimit="10"/>
<path d="M127.764 63.3133L128.238 50.8193" stroke="#17172A" stroke-miterlimit="10"/>
<path d="M131.832 63.4714L132.306 50.9775" stroke="#17172A" stroke-miterlimit="10"/>
<path d="M166.379 66.4939L167.539 16.1051" stroke="#17172A" stroke-miterlimit="10"/>
<path d="M108.197 38.299L162.276 37.5258" stroke="#17172A" stroke-miterlimit="10"/>
<path d="M108.223 32.957V17.423L129.872 16.1051V33.449L108.223 32.957Z" stroke="#17172A" stroke-miterlimit="10"/>
<path d="M131.208 15.7009H163.119" stroke="#17172A" stroke-miterlimit="10"/>
<path d="M131.208 18.1523H163.119" stroke="#17172A" stroke-miterlimit="10"/>
<path d="M131.208 20.4894H163.119" stroke="#17172A" stroke-miterlimit="10"/>
<path d="M117.317 23.3801H149.228" stroke="#17172A" stroke-miterlimit="10"/>
<path d="M131.208 26.1741H163.119" stroke="#17172A" stroke-miterlimit="10"/>
<path d="M123.494 28.6166H155.405" stroke="#17172A" stroke-miterlimit="10"/>
<path d="M131.208 30.9625H163.119" stroke="#17172A" stroke-miterlimit="10"/>
<path d="M131.208 33.8532H163.119" stroke="#17172A" stroke-miterlimit="10"/>
<path d="M191.613 60.4402C201.396 60.4402 209.326 52.5098 209.326 42.7272C209.326 32.9446 201.396 25.0143 191.613 25.0143C181.83 25.0143 173.9 32.9446 173.9 42.7272C173.9 52.5098 181.83 60.4402 191.613 60.4402Z" stroke="#17172A" stroke-miterlimit="10"/>
<path d="M211.294 32.175L189.97 42.1298L197.236 22.15C197.236 22.15 206.022 21.86 211.294 32.175Z" fill="black" stroke="black" stroke-miterlimit="10"/>
<path d="M58.6868 61.6176L3.10535 110.724C3.10535 110.724 12.4626 107.534 20.6777 113.491C28.8928 119.448 43.7854 136.502 43.7854 136.502L58.6868 61.6176Z" fill="#51654E" stroke="black" stroke-miterlimit="10"/>
<path d="M136.269 113.509C136.269 113.509 140.354 102.412 157.277 106.814C174.199 111.216 188.213 122.585 183.539 129.008C178.864 135.43 174.533 138.725 160.361 134.877C160.361 134.877 143.869 133.963 136.269 113.509Z" fill="white" stroke="black" stroke-miterlimit="10"/>
<path d="M182.528 121.153C182.528 121.153 153.885 84.2508 143.983 73.804C134.081 63.3572 118.67 58.8675 118.67 58.8675L135.179 113.535C135.179 113.535 142.358 104.872 150.599 105.856C158.84 106.84 173.742 107.973 182.528 121.153Z" fill="#51654E" stroke="black" stroke-miterlimit="10"/>
<path d="M26.7665 170.566C26.7665 170.566 48.2311 91.3764 48.2311 77.0637C48.2311 62.751 62.5351 53.4025 91.1517 53.956C119.768 54.5095 132.965 60.5544 136.84 76.5189C140.715 92.4834 148.947 174.046 148.947 174.046C148.947 174.046 123.081 197.065 83.4638 194.86C43.8468 192.655 26.7665 170.566 26.7665 170.566Z" fill="#263F22" stroke="black" stroke-miterlimit="10"/>
<path d="M83.455 46.6283H94.1742V61.7845C94.1742 62.7376 93.7956 63.6516 93.1216 64.3255C92.4477 64.9994 91.5337 65.378 90.5806 65.378H87.0661C86.1131 65.378 85.199 64.9994 84.5251 64.3255C83.8512 63.6516 83.4726 62.7376 83.4726 61.7845V46.6283H83.455Z" fill="#DE9483" stroke="black" stroke-miterlimit="10"/>
<path d="M105.895 40.9612C109.306 40.9612 112.072 38.1958 112.072 34.7845C112.072 31.3732 109.306 28.6078 105.895 28.6078C102.484 28.6078 99.7183 31.3732 99.7183 34.7845C99.7183 38.1958 102.484 40.9612 105.895 40.9612Z" fill="#DE9483" stroke="black" stroke-miterlimit="10"/>
<path d="M71.7342 40.9612C75.1455 40.9612 77.9109 38.1958 77.9109 34.7845C77.9109 31.3732 75.1455 28.6078 71.7342 28.6078C68.323 28.6078 65.5576 31.3732 65.5576 34.7845C65.5576 38.1958 68.323 40.9612 71.7342 40.9612Z" fill="#DE9483" stroke="black" stroke-miterlimit="10"/>
<path d="M88.7443 52.3745C98.1387 52.3745 105.754 44.7588 105.754 35.3644C105.754 25.97 98.1387 18.3544 88.7443 18.3544C79.3499 18.3544 71.7343 25.97 71.7343 35.3644C71.7343 44.7588 79.3499 52.3745 88.7443 52.3745Z" fill="#DE9483" stroke="black" stroke-miterlimit="10"/>
<path d="M98.8132 42.4988C97.5255 43.8071 95.9903 44.8462 94.2971 45.5554C92.6039 46.2647 90.7865 46.6299 88.9508 46.6299C87.115 46.6299 85.2976 46.2647 83.6044 45.5554C81.9112 44.8462 80.376 43.8071 79.0883 42.4988H98.8132Z" fill="white"/>
<path d="M112.063 21.614C112.058 20.3107 111.704 19.0325 111.039 17.912C110.373 16.7915 109.42 15.8696 108.277 15.242C107.135 14.6144 105.846 14.3039 104.543 14.3429C103.24 14.3819 101.972 14.7689 100.869 15.4637C100.494 14.6047 99.9575 13.826 99.2877 13.1705C99.4607 12.4064 99.549 11.6256 99.5513 10.8422C99.5236 8.27847 98.5855 5.8081 96.9044 3.87237C95.2232 1.93663 92.9087 0.661621 90.3741 0.275105C87.8396 -0.111412 85.2502 0.415743 83.0685 1.7624C80.8868 3.10906 79.2549 5.18749 78.4644 7.62641C78.2975 7.62641 78.1218 7.62641 77.946 7.62641C76.8335 7.62099 75.7346 7.87078 74.7337 8.3566C73.7329 8.84242 72.8568 9.5513 72.1728 10.4287C71.4889 11.3062 71.0153 12.3288 70.7884 13.418C70.5616 14.5071 70.5876 15.6338 70.8644 16.7113C70.0672 17.3965 69.4276 18.2458 68.9893 19.2012C68.551 20.1566 68.3245 21.1955 68.3251 22.2466C68.3231 22.5404 68.3407 22.8339 68.3779 23.1252C67.2308 23.7279 66.2647 24.6247 65.5782 25.7236C64.8917 26.8226 64.5097 28.0842 64.4712 29.3794C64.4328 30.6745 64.7392 31.9566 65.3592 33.0944C65.9793 34.2321 66.8905 35.1846 67.9998 35.8543C69.109 36.5241 70.3763 36.8869 71.6719 36.9057C72.9674 36.9246 74.2448 36.5987 75.373 35.9615C76.5012 35.3244 77.4398 34.3987 78.0926 33.2795C78.7454 32.1603 79.089 30.8876 79.0882 29.5919C79.0882 29.3107 79.0882 29.0296 79.0355 28.7133C80.2141 28.0941 81.2007 27.1642 81.8884 26.0243C82.576 24.8843 82.9386 23.5779 82.9366 22.2466C82.9342 21.6542 82.8604 21.0642 82.717 20.4894C82.8663 20.3664 83.0069 20.2346 83.1475 20.094C84.5188 20.904 86.0517 21.402 87.6372 21.5525C88.3718 23.0689 89.6099 24.2833 91.1402 24.9883C92.6705 25.6934 94.3981 25.8454 96.028 25.4184C96.028 25.4975 96.028 25.5766 96.028 25.6557C96.0274 27.5613 96.7719 29.3916 98.1024 30.7558C99.433 32.12 101.244 32.9099 103.149 32.9569C105.054 33.0039 106.902 32.3043 108.298 31.0074C109.695 29.7106 110.528 27.9192 110.622 26.0159C111.571 24.746 112.077 23.1995 112.063 21.614Z" fill="#17172A"/>
<path d="M11.5663 110.741C11.5663 110.741 3.12281 107.701 0.926258 111.752C-1.27029 115.802 21.1345 145.517 31.7394 145.517C42.3444 145.517 57.9662 127.602 44.3915 121.153C30.8169 114.704 11.5663 110.741 11.5663 110.741Z" fill="white" stroke="black" stroke-miterlimit="10"/>
<path d="M16.8733 94.7766L30.6237 147.538H91.4241L79.0444 95.5322L16.8733 94.7766Z" fill="white" stroke="black" stroke-miterlimit="10"/>
<path d="M34.025 105.081L11.0938 108.002C8.75923 108.299 7.1078 110.433 7.40521 112.768L7.64948 114.685C7.94689 117.02 10.0805 118.671 12.4151 118.374L35.3462 115.452C37.6808 115.155 39.3323 113.021 39.0349 110.687L38.7906 108.769C38.4932 106.435 36.3595 104.783 34.025 105.081Z" fill="#DE9483" stroke="black" stroke-miterlimit="10"/>
<path d="M36.3707 117.888L13.4395 120.81C11.105 121.107 9.4535 123.241 9.75091 125.575L9.99518 127.493C10.2926 129.827 12.4263 131.479 14.7608 131.181L37.692 128.26C40.0266 127.963 41.678 125.829 41.3806 123.494L41.1363 121.577C40.8389 119.242 38.7053 117.591 36.3707 117.888Z" fill="#DE9483" stroke="black" stroke-miterlimit="10"/>
<path d="M39.4234 130.553L16.4923 133.475C14.1577 133.772 12.5062 135.906 12.8036 138.24L13.0479 140.158C13.3453 142.492 15.479 144.144 17.8136 143.846L40.7447 140.925C43.0793 140.628 44.7308 138.494 44.4333 136.159L44.1891 134.242C43.8917 131.907 41.758 130.256 39.4234 130.553Z" fill="#DE9483" stroke="black" stroke-miterlimit="10"/>
<path d="M104.173 127.584C104.173 127.584 132.42 163.124 155.713 152.853C179.005 142.582 172.406 112.683 172.406 112.683C172.406 112.683 160.668 107.183 150.397 106.445C140.126 105.707 137.367 112.683 137.367 112.683C137.367 112.683 111.509 92.6943 104.173 91.4115C96.8364 90.1288 82.8927 103.326 82.8927 103.326C81.9111 104.036 81.1382 104.997 80.6545 106.108C80.1708 107.22 79.994 108.44 80.1426 109.643C80.6961 113.781 86.0118 112.867 86.0118 112.867C84.36 121.654 94.6311 119.106 94.6311 119.106C90.9672 121.302 91.6964 128.639 98.4882 129.192C105.28 129.746 106.554 124.553 106.554 124.553" fill="#DE9483"/>
<path d="M104.173 127.584C104.173 127.584 132.42 163.124 155.713 152.853C179.005 142.582 172.406 112.683 172.406 112.683C172.406 112.683 160.668 107.183 150.397 106.445C140.126 105.707 137.367 112.683 137.367 112.683C137.367 112.683 111.509 92.6943 104.173 91.4115C96.8364 90.1288 82.8927 103.326 82.8927 103.326C81.9111 104.036 81.1382 104.997 80.6545 106.108C80.1708 107.22 79.994 108.44 80.1426 109.643C80.6961 113.781 86.0118 112.867 86.0118 112.867C84.36 121.654 94.6311 119.106 94.6311 119.106C90.9672 121.302 91.6964 128.639 98.4882 129.192C105.28 129.746 106.554 124.553 106.554 124.553" stroke="black" stroke-miterlimit="10"/>
</g>
<defs>
<clipPath id="clip0_247_385">
<rect width="222.045" height="195.44" fill="white" transform="translate(0.337646)"/>
</clipPath>
</defs>
</svg>
