<svg width="183" height="120" viewBox="0 0 183 120" fill="none" xmlns="http://www.w3.org/2000/svg">
<path d="M0.0245605 56.0133C0.842445 52.3247 1.33318 48.5297 2.47821 44.9555C9.51202 23.3879 30 9.99916 52.958 11.7903C74.3375 13.4261 92.5599 30.5035 96.0277 52.2756C96.6657 56.3078 96.6004 60.4545 97.0421 64.5439C99.1277 83.6006 116.287 98.3307 135.483 97.57C140.457 97.4183 145.352 96.283 149.885 94.2295C154.418 92.176 158.5 89.245 161.894 85.6057C165.289 81.9664 167.929 77.6909 169.662 73.0259C171.395 68.361 172.188 63.3989 171.993 58.4261C171.576 43.6469 161.36 29.563 147.456 24.6475C147.129 24.533 146.794 24.4594 146.033 24.2549C147.604 26.5368 149.019 28.4588 150.303 30.4708C150.815 31.2066 151.133 32.0607 151.225 32.9528C151.317 33.8449 151.181 34.7458 150.829 35.5708C150.478 36.3959 149.922 37.118 149.215 37.6694C148.508 38.2209 147.672 38.5835 146.786 38.7233C145.88 38.9374 144.931 38.8793 144.058 38.5563C143.185 38.2333 142.427 37.6597 141.878 36.9076C137.789 31.1824 133.74 25.4572 129.806 19.6747C129.068 18.5634 128.796 17.2059 129.05 15.8958C129.304 14.5857 130.064 13.4282 131.164 12.6736C136.715 8.69872 142.315 4.78106 147.963 0.920647C148.529 0.530801 149.167 0.256609 149.839 0.113832C150.512 -0.0289449 151.205 -0.0374955 151.881 0.0886603C152.557 0.214816 153.201 0.473192 153.776 0.848962C154.352 1.22473 154.847 1.7105 155.235 2.27834C156.054 3.40647 156.396 4.81257 156.184 6.19096C155.973 7.56935 155.226 8.8086 154.106 9.6393C153.231 10.3427 152.274 10.9561 151.35 11.6104L148.413 13.696C154.588 15.6998 160.052 18.4152 164.722 22.4392C180.041 35.6235 186.085 52.3002 181.08 71.8558C176.074 91.4114 162.939 103.524 143.097 107.417C116.107 112.717 90.2944 93.9059 86.4995 66.6131C85.9842 62.859 86.066 59.0232 85.6816 55.2364C84.0458 39.2876 70.6325 25.3018 54.7737 22.8808C33.8113 19.6747 15.2045 32.8345 11.2705 53.6578C7.94986 71.2424 18.8849 89.8001 35.9132 95.4844C36.1255 95.5035 36.339 95.5035 36.5512 95.4844C35.1036 93.3907 33.7051 91.4686 32.4129 89.4648C31.8989 88.7304 31.5795 87.8776 31.4848 86.9863C31.39 86.0949 31.5229 85.1941 31.8709 84.368C32.219 83.542 32.7709 82.8177 33.475 82.263C34.1791 81.7082 35.0125 81.3411 35.8971 81.196C36.8665 80.9792 37.8787 81.0618 38.8002 81.4327C39.7217 81.8037 40.5089 82.4455 41.0578 83.2734C45.0327 88.835 48.9532 94.4348 52.819 100.073C53.2101 100.624 53.4879 101.247 53.6367 101.906C53.7855 102.565 53.8022 103.247 53.6858 103.912C53.5695 104.577 53.3224 105.213 52.9588 105.783C52.5952 106.352 52.1224 106.844 51.5677 107.229C46.0224 111.221 40.4253 115.141 34.7765 118.99C34.2013 119.387 33.5538 119.666 32.8707 119.812C32.1877 119.958 31.4824 119.968 30.7955 119.842C30.1085 119.715 29.4532 119.455 28.867 119.075C28.2807 118.695 27.7751 118.204 27.3788 117.629C26.5783 116.467 26.2721 115.035 26.5275 113.648C26.7829 112.26 27.579 111.031 28.7406 110.231C30.4336 108.939 32.1919 107.72 33.9176 106.46C33.9176 106.46 33.9176 106.354 33.9176 106.362C31.006 105.046 27.9881 103.958 25.24 102.387C10.8207 94.1431 2.42104 81.7931 0.3109 65.2554C0.234691 64.9176 0.130636 64.5866 0 64.2658L0.0245605 56.0133Z" fill="black"/>
</svg>
