<svg width="183" height="120" viewBox="0 0 183 120" fill="none" xmlns="http://www.w3.org/2000/svg">
<path d="M0.0245605 56.0133C0.842445 52.3247 1.33318 48.5297 2.47821 44.9555C9.51202 23.3879 30 9.99916 52.958 11.7903C74.3375 13.4261 92.5599 30.5035 96.0277 52.2756C96.6657 56.3078 96.6005 60.4545 97.0421 64.5439C99.1277 83.6006 116.287 98.3307 135.483 97.57C140.457 97.4183 145.352 96.283 149.885 94.2295C154.418 92.176 158.5 89.245 161.894 85.6057C165.289 81.9664 167.929 77.6909 169.662 73.0259C171.395 68.361 172.188 63.3989 171.993 58.4261C171.576 43.6469 161.36 29.563 147.456 24.6475C147.129 24.533 146.794 24.4594 146.033 24.2549C147.604 26.5368 149.019 28.4588 150.303 30.4708C150.815 31.2066 151.133 32.0607 151.225 32.9528C151.317 33.8449 151.181 34.7458 150.829 35.5708C150.478 36.3959 149.922 37.118 149.215 37.6694C148.508 38.2209 147.672 38.5835 146.786 38.7233C145.88 38.9374 144.931 38.8793 144.058 38.5563C143.185 38.2333 142.427 37.6597 141.878 36.9076C137.789 31.1824 133.74 25.4572 129.806 19.6747C129.068 18.5634 128.796 17.2059 129.05 15.8958C129.304 14.5857 130.064 13.4282 131.164 12.6736C136.715 8.69872 142.315 4.78106 147.963 0.920647C148.529 0.530801 149.167 0.256609 149.839 0.113832C150.512 -0.0289449 151.205 -0.0374955 151.881 0.0886603C152.557 0.214816 153.201 0.473192 153.776 0.848962C154.352 1.22473 154.847 1.7105 155.235 2.27834C156.054 3.40647 156.396 4.81257 156.184 6.19096C155.973 7.56935 155.226 8.8086 154.106 9.6393C153.231 10.3427 152.274 10.9561 151.35 11.6104L148.413 13.696C154.588 15.6998 160.052 18.4152 164.722 22.4392C180.041 35.6235 186.085 52.3002 181.08 71.8558C176.074 91.4114 162.939 103.524 143.097 107.417C116.107 112.717 90.2945 93.9059 86.4995 66.6131C85.9842 62.859 86.066 59.0232 85.6816 55.2364C84.0458 39.2876 70.6325 25.3018 54.7737 22.8808C33.8113 19.6747 15.2045 32.8345 11.2705 53.6578C7.94986 71.2424 18.8849 89.8001 35.9132 95.4844C36.1255 95.5035 36.339 95.5035 36.5512 95.4844C35.1036 93.3907 33.7051 91.4686 32.4129 89.4648C31.8989 88.7304 31.5795 87.8776 31.4848 86.9863C31.39 86.0949 31.5229 85.1941 31.8709 84.368C32.219 83.542 32.7709 82.8177 33.475 82.263C34.1791 81.7082 35.0125 81.3411 35.8971 81.196C36.8665 80.9792 37.8787 81.0618 38.8002 81.4327C39.7217 81.8037 40.5089 82.4455 41.0578 83.2734C45.0327 88.835 48.9532 94.4348 52.819 100.073C53.2101 100.624 53.4879 101.247 53.6367 101.906C53.7855 102.565 53.8022 103.247 53.6858 103.912C53.5695 104.577 53.3224 105.213 52.9588 105.783C52.5952 106.352 52.1224 106.844 51.5677 107.229C46.0224 111.221 40.4253 115.141 34.7765 118.99C34.2013 119.387 33.5538 119.666 32.8707 119.812C32.1877 119.958 31.4824 119.968 30.7955 119.842C30.1085 119.715 29.4532 119.455 28.867 119.075C28.2807 118.695 27.7751 118.204 27.3788 117.629C26.5783 116.467 26.2721 115.035 26.5275 113.648C26.7829 112.26 27.579 111.031 28.7406 110.231C30.4336 108.939 32.1919 107.72 33.9176 106.46C33.9176 106.46 33.9176 106.354 33.9176 106.362C31.006 105.045 27.9881 103.958 25.24 102.387C10.8207 94.1431 2.42104 81.7931 0.3109 65.2554C0.234691 64.9176 0.130636 64.5866 0 64.2658L0.0245605 56.0133Z" fill="black"/>
<path d="M35.4885 59.023L44.1418 62.0736V66.3267L31.0557 60.7814V57.1991L44.1418 51.6538V55.9068L35.4885 59.023Z" fill="black"/>
<path d="M49.139 70.3099H45.8674L54.0463 46.2969H57.3178L49.139 70.3099Z" fill="black"/>
<path d="M68.3347 58.9736L59.5099 55.8984V51.6699L72.7432 57.2152V60.7812L59.5099 66.3428V62.1061L68.3347 58.9736Z" fill="black"/>
<path d="M126.159 71.9373C123.362 71.1194 121.955 69.3446 121.955 66.5147V64.1919C121.955 62.5561 121.268 61.7382 119.886 61.7382V59.2846C121.235 59.2846 121.931 58.5076 121.955 56.9618V54.5081C121.897 53.2576 122.27 52.0249 123.01 51.0158C123.827 50.0548 124.931 49.3812 126.159 49.0938L126.813 50.9749C126.241 51.1751 125.764 51.5801 125.472 52.1117C125.128 52.8072 124.962 53.5773 124.99 54.3527V56.8064C125.049 57.5601 124.882 58.3144 124.511 58.9728C124.139 59.6313 123.58 60.1641 122.904 60.5032C123.581 60.8452 124.141 61.3809 124.512 62.0422C124.884 62.7035 125.05 63.4604 124.99 64.2164V66.6701C125.033 68.4858 125.641 69.5981 126.813 70.0071L126.159 71.9373Z" fill="black"/>
<path d="M128.678 66.0813C128.669 65.8372 128.713 65.594 128.806 65.3682C128.899 65.1424 129.04 64.9393 129.218 64.7727C129.589 64.4359 130.076 64.2569 130.576 64.2738C131.081 64.2552 131.574 64.4342 131.95 64.7727C132.129 64.9393 132.269 65.1424 132.362 65.3682C132.456 65.594 132.499 65.8372 132.49 66.0813C132.5 66.3219 132.457 66.5617 132.363 66.7837C132.27 67.0056 132.129 67.2043 131.95 67.3654C131.765 67.5349 131.548 67.6662 131.313 67.7518C131.077 67.8374 130.826 67.8757 130.576 67.8643C130.073 67.8824 129.583 67.7034 129.21 67.3654C129.035 67.2015 128.897 67.0021 128.806 66.7807C128.714 66.5593 128.671 66.3208 128.678 66.0813Z" fill="black"/>
<path d="M135.614 66.0813C135.605 65.8364 135.649 65.5925 135.744 65.3665C135.838 65.1405 135.981 64.9379 136.162 64.7727C136.532 64.4344 137.019 64.2552 137.52 64.2738C138.023 64.2557 138.513 64.4347 138.886 64.7727C139.065 64.9389 139.207 65.1417 139.302 65.3675C139.396 65.5932 139.441 65.8367 139.434 66.0813C139.444 66.3219 139.401 66.5617 139.307 66.7837C139.214 67.0056 139.073 67.2043 138.894 67.3654C138.519 67.7054 138.025 67.8846 137.52 67.8643C137.017 67.8842 136.526 67.7049 136.154 67.3654C135.975 67.2043 135.834 67.0056 135.74 66.7837C135.647 66.5617 135.604 66.3219 135.614 66.0813Z" fill="black"/>
<path d="M142.558 66.0813C142.548 65.8372 142.592 65.594 142.685 65.3682C142.778 65.1424 142.919 64.9393 143.098 64.7727C143.468 64.4359 143.955 64.2569 144.455 64.2738C144.961 64.2552 145.453 64.4342 145.829 64.7727C146.008 64.9393 146.149 65.1424 146.242 65.3682C146.335 65.594 146.378 65.8372 146.369 66.0813C146.379 66.3219 146.336 66.5617 146.243 66.7837C146.149 67.0056 146.008 67.2043 145.829 67.3654C145.644 67.5349 145.428 67.6662 145.192 67.7518C144.956 67.8374 144.706 67.8757 144.455 67.8643C143.952 67.8824 143.462 67.7034 143.089 67.3654C142.915 67.2015 142.777 67.0021 142.685 66.7807C142.593 66.5593 142.55 66.3208 142.558 66.0813Z" fill="black"/>
<path d="M148.422 70.0482C149.6 69.6229 150.213 68.4942 150.238 66.6622V64.2085C150.177 63.4529 150.349 62.6968 150.731 62.0418C151.112 61.3867 151.685 60.8642 152.372 60.5444C151.68 60.2155 151.104 59.6829 150.723 59.0178C150.341 58.3527 150.172 57.5869 150.238 56.823V54.3694C150.238 52.5618 149.6 51.4332 148.422 50.9915L149.076 49.1104C150.299 49.3912 151.397 50.0596 152.209 51.016C152.949 52.0166 153.324 53.2404 153.272 54.4839V56.9948C153.272 58.5406 154 59.3176 155.35 59.3176V61.7712C153.967 61.7712 153.272 62.5891 153.272 64.2249V66.7521C153.218 69.4784 151.819 71.226 149.076 71.9948L148.422 70.0482Z" fill="black"/>
</svg>
