<?xml version="1.0" encoding="UTF-8"?>
<svg xmlns="http://www.w3.org/2000/svg" xmlns:xlink="http://www.w3.org/1999/xlink" width="683px" height="683px" viewBox="0 0 128 128" version="1.1">
<g id="surface1">
<path style=" stroke:none;fill-rule:nonzero;fill:rgb(0%,0%,0%);fill-opacity:1;" d="M 38 2.324219 C 36.773438 2.726562 34.675781 4.875 34.300781 6.148438 C 33.875 7.648438 33.875 72.351562 34.300781 73.851562 C 34.699219 75.226562 36.773438 77.300781 38.148438 77.699219 C 38.800781 77.875 40.851562 78 43.574219 78 L 47.949219 78 L 44.976562 86.925781 C 43.226562 92.199219 42.074219 96.074219 42.148438 96.375 C 42.351562 97.101562 43.425781 98 44.101562 98 C 44.425781 98 50.976562 93.773438 59.625 88 L 74.625 78 L 97.75 78 C 124.050781 78 122.425781 78.125 124.324219 76 C 124.925781 75.351562 125.550781 74.351562 125.699219 73.800781 C 126.125 72.375 126.125 7.625 125.699219 6.199219 C 125.550781 5.648438 124.925781 4.648438 124.324219 4 C 122.375 1.824219 126.226562 2 79.898438 2.023438 C 50.75 2.050781 38.625 2.125 38 2.324219 Z M 121.375 6.625 L 122 7.226562 L 122 72.773438 L 121.375 73.375 L 120.773438 74 L 73.375 74 L 61.25 82.074219 C 54.574219 86.523438 48.824219 90.351562 48.449219 90.601562 C 47.824219 91.023438 47.898438 90.726562 50.273438 83.574219 C 51.699219 79.226562 52.675781 75.925781 52.601562 75.625 C 52.523438 75.351562 52.175781 74.875 51.851562 74.550781 C 51.226562 74 51.101562 74 45.226562 74 L 39.226562 74 L 38.625 73.375 L 38 72.773438 L 38 7.226562 L 38.625 6.625 L 39.226562 6 L 120.773438 6 Z M 121.375 6.625 "/>
<path style=" stroke:none;fill-rule:nonzero;fill:rgb(0%,0%,0%);fill-opacity:1;" d="M 71.5 10.648438 C 69.074219 11.351562 64.273438 13.625 63.050781 14.675781 C 62.148438 15.425781 62.101562 15.648438 62.375 18.125 C 62.523438 19.449219 62.476562 19.726562 61.949219 20.5 C 61.625 20.976562 60.976562 21.625 60.5 21.949219 C 59.726562 22.476562 59.449219 22.523438 58.125 22.375 C 55.648438 22.101562 55.425781 22.148438 54.675781 23.050781 C 53.601562 24.300781 51.324219 29.101562 50.625 31.601562 C 49.800781 34.550781 49.800781 35.074219 50.773438 35.800781 C 53.273438 37.648438 53.976562 39 53.476562 40.875 C 53.199219 41.851562 52.074219 43.125 50.675781 44.074219 C 49.851562 44.625 49.800781 45.425781 50.5 48.023438 C 51.125 50.5 52.273438 53.175781 53.648438 55.523438 C 54.976562 57.773438 55.574219 58.148438 57.273438 57.773438 C 60.398438 57.074219 63.023438 59.675781 62.25 62.699219 C 61.824219 64.375 62.226562 65.050781 64.25 66.273438 C 66.425781 67.550781 69.574219 68.875 71.949219 69.5 C 74.574219 70.199219 75.101562 70.148438 75.800781 69.226562 C 77.675781 66.726562 78.949219 66.050781 80.925781 66.523438 C 81.699219 66.726562 82.25 67.101562 82.875 67.851562 C 84.824219 70.175781 84.675781 70.074219 86.074219 69.898438 C 88.800781 69.601562 95.050781 66.976562 96.976562 65.351562 L 97.800781 64.675781 L 97.625 62.726562 C 97.425781 60.398438 97.824219 59.273438 99.273438 58.324219 C 100.300781 57.648438 101.425781 57.523438 103.199219 57.851562 C 104.199219 58.050781 104.300781 58.023438 105.148438 57.125 C 106.875 55.300781 110 47.800781 110 45.5 C 110 45 109.773438 44.625 109.226562 44.199219 C 106.726562 42.324219 106.050781 41.050781 106.523438 39.074219 C 106.800781 38.050781 107.074219 37.726562 109.351562 35.824219 C 110.148438 35.175781 110.175781 34.5 109.5 31.976562 C 108.476562 28.074219 105.851562 22.851562 104.601562 22.273438 C 104.074219 22.050781 103.625 22.050781 102.601562 22.273438 C 101.449219 22.523438 101.101562 22.523438 100.125 22.148438 C 98.101562 21.351562 97.074219 19.199219 97.75 17.148438 C 98.226562 15.726562 97.75 14.925781 95.773438 13.75 C 93.523438 12.398438 90.523438 11.148438 88.148438 10.523438 C 85.398438 9.800781 84.898438 9.851562 84.199219 10.773438 C 82.324219 13.273438 81.050781 13.949219 79.074219 13.476562 C 78.023438 13.199219 77.125 12.398438 75.925781 10.648438 C 75.351562 9.824219 74.375 9.800781 71.5 10.648438 Z M 74.550781 15.351562 C 77.699219 18.199219 82.300781 18.199219 85.449219 15.375 L 86.699219 14.25 L 88.398438 14.851562 C 89.351562 15.175781 90.875 15.800781 91.773438 16.25 L 93.449219 17.074219 L 93.550781 18.75 C 93.875 23.074219 96.925781 26.125 101.25 26.449219 L 102.925781 26.550781 L 103.75 28.226562 C 104.199219 29.125 104.824219 30.648438 105.125 31.625 L 105.699219 33.351562 L 104.601562 34.574219 C 101.800781 37.699219 101.800781 42.300781 104.601562 45.425781 L 105.699219 46.648438 L 105.125 48.375 C 104.824219 49.351562 104.199219 50.875 103.75 51.773438 L 102.925781 53.449219 L 101.25 53.550781 C 96.949219 53.875 93.875 56.949219 93.550781 61.25 L 93.449219 62.925781 L 91.773438 63.75 C 90.875 64.199219 89.351562 64.824219 88.398438 65.148438 L 86.699219 65.75 L 85.449219 64.625 C 82.300781 61.800781 77.699219 61.800781 74.550781 64.625 L 73.300781 65.75 L 71.601562 65.148438 C 70.648438 64.824219 69.125 64.199219 68.226562 63.75 L 66.550781 62.925781 L 66.449219 61.25 C 66.125 56.925781 63.074219 53.875 58.75 53.550781 L 57.074219 53.449219 L 56.25 51.773438 C 55.800781 50.875 55.175781 49.351562 54.851562 48.398438 L 54.25 46.699219 L 55.375 45.449219 C 58.199219 42.300781 58.199219 37.699219 55.375 34.550781 L 54.25 33.300781 L 54.851562 31.601562 C 55.175781 30.648438 55.800781 29.125 56.25 28.226562 L 57.074219 26.550781 L 58.75 26.449219 C 63.050781 26.125 66.125 23.050781 66.449219 18.75 L 66.550781 17.074219 L 68.476562 16.148438 C 69.949219 15.425781 72.550781 14.398438 73.226562 14.273438 C 73.25 14.25 73.851562 14.75 74.550781 15.351562 Z M 74.550781 15.351562 "/>
<path style=" stroke:none;fill-rule:nonzero;fill:rgb(0%,0%,0%);fill-opacity:1;" d="M 76.5 22.351562 C 72.625 23.199219 70.101562 24.574219 67.25 27.476562 C 65.574219 29.148438 64.875 30.101562 64.050781 31.75 C 62.5 34.875 62.125 36.550781 62.148438 40.25 C 62.175781 42.925781 62.273438 43.675781 62.824219 45.375 C 63.773438 48.25 65.074219 50.351562 67.375 52.625 C 69.699219 54.949219 71.375 56 74.425781 57.074219 C 76.425781 57.773438 76.925781 57.851562 79.75 57.851562 C 83.449219 57.875 85.148438 57.5 88.199219 55.949219 C 94.476562 52.824219 98.425781 45.824219 97.898438 38.699219 C 97.601562 34.300781 95.875 30.574219 92.648438 27.351562 C 89.226562 23.925781 85.523438 22.300781 80.75 22.101562 C 79.074219 22.050781 77.550781 22.148438 76.5 22.351562 Z M 84.523438 26.800781 C 86.925781 27.675781 88.351562 28.601562 90.050781 30.324219 L 91.550781 31.875 L 85.773438 31.949219 L 80 32 L 80 36 L 93.476562 36 L 93.675781 36.925781 C 94.050781 38.648438 93.898438 42.523438 93.398438 44 C 92.300781 47.300781 89.925781 50.398438 87.324219 51.925781 C 81.625 55.25 74.726562 54.398438 70.125 49.800781 L 68.449219 48.125 L 74.226562 48.050781 L 80 48 L 80 44 L 66.523438 44 L 66.324219 43.050781 C 65.949219 41.351562 66.101562 37.476562 66.601562 36 C 68.050781 31.648438 71 28.5 75.074219 26.949219 C 77.101562 26.175781 78.199219 26.023438 80.625 26.125 C 82.199219 26.175781 83.375 26.398438 84.523438 26.800781 Z M 84.523438 26.800781 "/>
<path style=" stroke:none;fill-rule:nonzero;fill:rgb(0%,0%,0%);fill-opacity:1;" d="M 72 34 L 72 36 L 76 36 L 76 32 L 72 32 Z M 72 34 "/>
<path style=" stroke:none;fill-rule:nonzero;fill:rgb(0%,0%,0%);fill-opacity:1;" d="M 84 46 L 84 48 L 88 48 L 88 44 L 84 44 Z M 84 46 "/>
<path style=" stroke:none;fill-rule:nonzero;fill:rgb(0%,0%,0%);fill-opacity:1;" d="M 15.648438 76.25 C 14.074219 76.648438 11.824219 78 10.726562 79.175781 C 10.175781 79.773438 9.351562 81.023438 8.925781 81.949219 C 8.199219 83.476562 8.125 83.851562 8.125 86.023438 C 8.125 88.273438 8.175781 88.5 9.050781 90.300781 C 10.175781 92.574219 11.625 93.976562 13.949219 95.074219 C 15.476562 95.800781 15.851562 95.875 18 95.875 C 20.148438 95.875 20.523438 95.800781 22.050781 95.074219 C 24.375 93.976562 25.824219 92.574219 26.949219 90.300781 C 27.824219 88.5 27.875 88.273438 27.875 86 C 27.875 83.726562 27.824219 83.5 26.949219 81.699219 C 25.25 78.300781 22.25 76.273438 18.550781 76.101562 C 17.5 76.050781 16.199219 76.125 15.648438 76.25 Z M 19.773438 80.273438 C 20.300781 80.449219 21.101562 80.898438 21.550781 81.273438 L 22.375 81.976562 L 21.375 82 C 20.476562 82 19 82.449219 16.125 83.574219 C 15.050781 84 12.875 84.125 12.648438 83.800781 C 12.449219 83.476562 13.375 82.101562 14.351562 81.351562 C 15.949219 80.074219 17.824219 79.699219 19.773438 80.273438 Z M 23.875 86.300781 C 23.976562 86.375 23.925781 86.898438 23.773438 87.425781 C 22.800781 91 18.675781 92.773438 15.300781 91.101562 C 14.175781 90.550781 12.5 88.824219 12.5 88.199219 C 12.5 88.101562 13.199219 88 14.074219 88 C 15.523438 87.976562 16.851562 87.625 19.875 86.398438 C 20.824219 86.023438 23.523438 85.949219 23.875 86.300781 Z M 23.875 86.300781 "/>
<path style=" stroke:none;fill-rule:nonzero;fill:rgb(0%,0%,0%);fill-opacity:1;" d="M 14.5 98.398438 C 10.074219 99.351562 5.800781 102.675781 3.773438 106.75 C 2.226562 109.925781 2 111.351562 2 118.574219 L 2 124.773438 L 2.625 125.375 L 3.226562 126 L 32.773438 126 L 33.375 125.375 L 34 124.773438 L 34 118.574219 C 34 111.324219 33.773438 109.898438 32.199219 106.75 C 28.976562 100.324219 21.648438 96.851562 14.5 98.398438 Z M 13.25 105 C 12.574219 106.375 12 107.75 12 108.050781 C 12.023438 108.375 13.050781 110.648438 14.324219 113.125 C 16.226562 116.851562 16.75 117.675781 17.324219 117.851562 C 18.824219 118.375 19.199219 117.976562 21.675781 113.125 C 22.949219 110.648438 23.976562 108.375 24 108.050781 C 24 107.75 23.425781 106.375 22.75 105 L 21.5 102.5 L 22.425781 102.875 C 26.050781 104.398438 28.648438 107.375 29.625 111.175781 C 29.898438 112.199219 30 113.949219 30 117.300781 L 30 122 L 6 122 L 6 117.300781 C 6 112.199219 6.226562 110.773438 7.398438 108.449219 C 8.398438 106.5 10.523438 104.398438 12.574219 103.375 C 13.523438 102.898438 14.351562 102.5 14.398438 102.5 C 14.449219 102.5 13.949219 103.625 13.25 105 Z M 18.949219 106.375 L 19.75 108 L 18.949219 109.625 C 18.5 110.523438 18.074219 111.25 18 111.25 C 17.925781 111.25 17.5 110.523438 17.050781 109.625 L 16.25 108 L 17.050781 106.375 C 17.5 105.476562 17.925781 104.75 18 104.75 C 18.074219 104.75 18.5 105.476562 18.949219 106.375 Z M 18.949219 106.375 "/>
</g>
</svg>
