<?xml version="1.0" encoding="UTF-8"?>
<svg xmlns="http://www.w3.org/2000/svg" xmlns:xlink="http://www.w3.org/1999/xlink" width="683px" height="683px" viewBox="0 0 128 128" version="1.1">
<g id="surface1">
<path style=" stroke:none;fill-rule:nonzero;fill:rgb(0%,0%,0%);fill-opacity:1;" d="M 59.824219 4.375 C 56.175781 5.023438 52.101562 6.726562 49.148438 8.851562 C 47.25 10.199219 43.949219 13.648438 42.675781 15.574219 C 39.375 20.550781 37.800781 26.925781 38.449219 32.574219 C 39.175781 38.824219 41.449219 43.648438 45.75 48.023438 C 49 51.351562 52.851562 53.726562 56.824219 54.875 L 58.25 55.273438 L 58.25 62 L 57.351562 62 C 56.875 62 56.273438 62.101562 56.023438 62.226562 C 55.773438 62.375 53 64.625 49.875 67.226562 L 44.148438 72 L 37.976562 72 C 31.773438 72 31.773438 72 31.074219 72.601562 L 30.375 73.199219 L 30.375 100.699219 L 30.976562 101.351562 L 31.574219 102 L 43.273438 102 L 44.574219 102.976562 C 45.300781 103.5 46.476562 104.25 47.175781 104.601562 C 49.800781 105.898438 50.726562 106 62.375 106 C 68.824219 106 73.476562 105.898438 74.023438 105.75 C 75.324219 105.375 76.5 104.523438 77.375 103.300781 C 78.074219 102.300781 78.125 102.023438 78.148438 99.949219 L 78.199219 97.726562 L 79.226562 97.199219 C 81.199219 96.226562 82.25 94.425781 82.25 91.976562 C 82.25 90.800781 82.101562 90.175781 81.601562 89.25 L 80.949219 88.074219 L 81.601562 86.800781 C 82.5 85.023438 82.5 82.949219 81.601562 81.175781 L 80.976562 79.898438 L 81.601562 78.726562 C 82.101562 77.824219 82.25 77.199219 82.25 76.023438 C 82.25 73.523438 81.199219 71.75 79.125 70.75 C 78.074219 70.25 78.023438 70.175781 78.199219 69.425781 C 78.300781 68.976562 78.375 67.398438 78.375 65.925781 C 78.375 63.25 78.351562 63.199219 77.675781 62.601562 C 77 62.023438 76.800781 62 73.601562 62 L 70.25 62 L 70.25 55.324219 L 71.449219 55 C 72.101562 54.800781 73.101562 54.476562 73.675781 54.226562 L 74.75 53.773438 L 73.976562 52.074219 C 73.550781 51.148438 73.175781 50.351562 73.148438 50.300781 C 73.101562 50.273438 72.226562 50.5 71.226562 50.851562 C 60.648438 54.375 49.050781 49.300781 44.351562 39.101562 C 41.648438 33.300781 41.75 26.226562 44.625 20.375 C 47.324219 14.824219 52.25 10.699219 58.375 8.851562 C 60.351562 8.25 61.050781 8.175781 64.125 8.148438 C 69.25 8.148438 72.648438 9.148438 76.726562 11.875 L 78.726562 13.226562 L 79.976562 11.800781 C 81.425781 10.148438 81.449219 10.148438 78.75 8.398438 C 73.175781 4.699219 66.199219 3.226562 59.824219 4.375 Z M 66.25 59 L 66.25 62 L 62.25 62 L 62.25 56 L 66.25 56 Z M 74.425781 67.425781 C 74.300781 68.574219 74.125 69 73.625 69.425781 C 73 69.976562 72.773438 70 68.726562 70 L 64.5 70 L 64.5 74 L 70.726562 74 C 76.625 74 76.976562 74.023438 77.601562 74.523438 C 78.523438 75.25 78.523438 76.75 77.601562 77.476562 C 77 77.949219 76.601562 78 73.726562 78 L 70.5 78 L 70.5 82 L 73.726562 82 C 76.601562 82 77 82.050781 77.601562 82.523438 C 78.101562 82.925781 78.25 83.25 78.25 84 C 78.25 84.75 78.101562 85.074219 77.601562 85.476562 C 77 85.949219 76.601562 86 73.726562 86 L 70.5 86 L 70.5 90 L 73.726562 90 C 76.601562 90 77 90.050781 77.601562 90.523438 C 78.101562 90.925781 78.25 91.25 78.25 92 C 78.25 92.75 78.101562 93.074219 77.601562 93.476562 C 77 93.949219 76.601562 94 73.726562 94 L 70.5 94 L 70.5 98 L 71.726562 98 C 73.375 98 74.25 98.675781 74.25 100 C 74.25 100.75 74.101562 101.074219 73.601562 101.476562 C 72.949219 101.976562 72.675781 102 62.523438 102 C 49.699219 102 49.425781 101.949219 46.199219 99.074219 C 45.523438 98.476562 44.824219 98 44.625 98 C 44.324219 98 44.25 97.601562 44.25 96 L 44.25 94 L 40.25 94 L 40.25 98 L 34.25 98 L 34.25 76 L 39.773438 76 C 42.800781 76 45.476562 75.898438 45.726562 75.773438 C 45.976562 75.625 48.75 73.375 51.875 70.773438 L 57.601562 66 L 74.574219 66 Z M 74.425781 67.425781 "/>
<path style=" stroke:none;fill-rule:nonzero;fill:rgb(0%,0%,0%);fill-opacity:1;" d="M 60.75 12.375 C 52.226562 14.25 46.425781 21.375 46.425781 30 C 46.398438 35.425781 48.75 40.425781 52.898438 43.851562 C 57.875 47.949219 64.699219 49.074219 70.75 46.773438 C 72.949219 45.925781 72.925781 45.976562 72.273438 44.574219 C 71.226562 42.300781 71.324219 42.351562 69.074219 43.125 C 63.800781 44.949219 58.5 43.773438 54.601562 39.898438 C 51.773438 37.101562 50.425781 33.875 50.425781 30 C 50.425781 26.125 51.773438 22.898438 54.601562 20.125 C 56.675781 18.074219 58.226562 17.175781 60.898438 16.5 C 64.023438 15.699219 67.425781 15.976562 70.050781 17.25 C 70.625 17.523438 71.101562 17.726562 71.125 17.675781 C 71.148438 17.648438 71.601562 16.875 72.101562 15.949219 L 73.023438 14.273438 L 72.074219 13.800781 C 69.050781 12.25 64.101562 11.625 60.75 12.375 Z M 60.75 12.375 "/>
<path style=" stroke:none;fill-rule:nonzero;fill:rgb(0%,0%,0%);fill-opacity:1;" d="M 75.949219 19.148438 C 75.875 20.226562 75.824219 20.324219 74.925781 20.699219 C 73.949219 21.074219 73.949219 21.074219 73.175781 20.273438 L 72.375 19.5 L 70.949219 20.925781 L 69.5 22.351562 L 70.273438 23.148438 C 71.050781 23.949219 71.074219 23.976562 70.675781 24.925781 C 70.324219 25.824219 70.226562 25.875 69.148438 25.949219 L 68 26.023438 L 68 29.976562 L 69.148438 30.050781 C 70.226562 30.125 70.324219 30.175781 70.699219 31.074219 C 71.074219 32.050781 71.074219 32.050781 70.273438 32.824219 L 69.5 33.625 L 70.925781 35.050781 L 72.351562 36.5 L 73.148438 35.726562 C 73.949219 34.949219 73.976562 34.925781 74.925781 35.324219 C 75.824219 35.675781 75.875 35.773438 75.949219 36.851562 L 76.023438 38 L 78.601562 38 L 76.898438 39.75 L 77.699219 40.574219 C 78.824219 41.726562 78.726562 42 77.25 42 L 76 42 L 76 46 L 77.25 46 C 78.75 46 78.824219 46.273438 77.699219 47.425781 L 76.898438 48.25 L 79.75 51.101562 L 80.574219 50.300781 C 81.726562 49.175781 82 49.25 82 50.75 L 82 52 L 86 52 L 86 50.75 C 86 49.25 86.273438 49.175781 87.425781 50.300781 L 88.25 51.101562 L 91.101562 48.25 L 90.300781 47.425781 C 89.175781 46.273438 89.25 46 90.75 46 L 92 46 L 92 42 L 90.75 42 C 89.25 42 89.175781 41.726562 90.300781 40.574219 L 91.101562 39.75 L 88.25 36.898438 L 87.425781 37.699219 C 86.273438 38.824219 86 38.75 86 37.25 L 86 36 L 84.148438 36 L 86.5 33.601562 L 85.726562 32.824219 C 84.925781 32.050781 84.925781 32.050781 85.300781 31.074219 C 85.675781 30.175781 85.773438 30.125 86.851562 30.050781 L 88 29.976562 L 88 33.976562 L 89.148438 34.050781 C 90.226562 34.125 90.324219 34.175781 90.699219 35.074219 C 91.074219 36.050781 91.074219 36.050781 90.273438 36.824219 L 89.5 37.625 L 90.925781 39.050781 L 92.351562 40.5 L 93.148438 39.726562 C 93.949219 38.949219 93.976562 38.925781 94.925781 39.324219 C 95.824219 39.675781 95.875 39.773438 95.949219 40.851562 L 96.023438 42 L 99.976562 42 L 100.050781 40.851562 C 100.125 39.773438 100.175781 39.675781 101.074219 39.324219 C 102.023438 38.925781 102.050781 38.949219 102.851562 39.726562 L 103.648438 40.5 L 105.074219 39.050781 L 106.5 37.625 L 105.726562 36.824219 C 104.925781 36.050781 104.925781 36.050781 105.300781 35.074219 C 105.675781 34.175781 105.773438 34.125 106.851562 34.050781 L 108 33.976562 L 108 30.023438 L 106.851562 29.949219 C 105.773438 29.875 105.675781 29.824219 105.300781 28.925781 C 104.925781 27.949219 104.925781 27.949219 105.726562 27.175781 L 106.5 26.375 L 105.074219 24.949219 L 103.648438 23.5 L 102.851562 24.273438 C 102.050781 25.050781 102.023438 25.074219 101.074219 24.675781 C 100.175781 24.324219 100.125 24.226562 100.050781 23.148438 L 99.976562 22 L 96.023438 22 L 95.949219 23.148438 C 95.875 24.226562 95.824219 24.324219 94.925781 24.699219 C 93.949219 25.074219 93.949219 25.074219 93.175781 24.273438 L 92.375 23.5 L 90.949219 24.925781 L 89.5 26.351562 L 90.273438 27.148438 C 91.050781 27.949219 91.074219 27.976562 90.675781 28.925781 C 90.324219 29.824219 90.226562 29.875 89.148438 29.949219 L 88 30.023438 L 88 26.023438 L 86.851562 25.949219 C 85.773438 25.875 85.675781 25.824219 85.300781 24.925781 C 84.925781 23.949219 84.925781 23.949219 85.726562 23.175781 L 86.5 22.375 L 85.074219 20.949219 L 83.648438 19.5 L 82.851562 20.273438 C 82.050781 21.050781 82.023438 21.074219 81.074219 20.675781 C 80.175781 20.324219 80.125 20.226562 80.050781 19.148438 L 79.976562 18 L 76.023438 18 Z M 79.574219 24.351562 C 82.148438 25.425781 82.773438 28.773438 80.773438 30.773438 C 77.976562 33.601562 73.375 31.074219 74.101562 27.125 C 74.550781 24.773438 77.300781 23.375 79.574219 24.351562 Z M 99.574219 28.351562 C 102.175781 29.425781 102.773438 32.726562 100.75 34.75 C 99.101562 36.398438 96.851562 36.425781 95.226562 34.773438 C 92.125 31.699219 95.550781 26.648438 99.574219 28.351562 Z M 82.625 35.5 C 83.074219 35.976562 83.050781 36 82.550781 36 C 82.050781 36 82 36.125 82 37.25 C 82 38.699219 81.726562 38.824219 80.699219 37.824219 C 79.699219 36.875 79.75 35.875 80.824219 35.398438 C 81.925781 34.898438 82.101562 34.925781 82.625 35.5 Z M 85.375 42.625 C 85.773438 43 86 43.523438 86 44 C 86 44.476562 85.773438 45 85.375 45.375 C 85 45.773438 84.476562 46 84 46 C 83.523438 46 83 45.773438 82.625 45.375 C 82.226562 45 82 44.476562 82 44 C 82 43.523438 82.226562 43 82.625 42.625 C 83 42.226562 83.523438 42 84 42 C 84.476562 42 85 42.226562 85.375 42.625 Z M 85.375 42.625 "/>
<path style=" stroke:none;fill-rule:nonzero;fill:rgb(0%,0%,0%);fill-opacity:1;" d="M 17.5 71.199219 C 12.574219 79.648438 10.425781 83.574219 10.425781 84.101562 C 10.425781 84.574219 10.648438 85.023438 11.101562 85.425781 C 11.75 85.976562 11.925781 86 16 86 L 20.25 86 L 20.300781 100.351562 L 20.375 114.699219 L 20.976562 115.351562 L 21.574219 116 L 38.675781 116 L 39.5 120.125 C 40.25 123.949219 40.351562 124.25 40.875 124.25 C 41.726562 124.25 44.25 123.699219 44.25 123.5 C 44.25 122.898438 42.226562 113.398438 42 113 C 41.851562 112.726562 41.523438 112.398438 41.25 112.25 C 40.976562 112.101562 37.675781 112 32.523438 112 L 24.25 112 L 24.25 83.226562 L 23.625 82.625 C 23.050781 82.023438 22.898438 82 19.476562 82 C 16.75 82 15.976562 81.925781 16.074219 81.675781 C 16.125 81.523438 18.851562 76.824219 22.101562 71.25 C 26.699219 63.351562 27.925781 61.074219 27.675781 60.851562 C 27.523438 60.699219 26.75 60.226562 26 59.800781 L 24.601562 59.023438 Z M 17.5 71.199219 "/>
<path style=" stroke:none;fill-rule:nonzero;fill:rgb(0%,0%,0%);fill-opacity:1;" d="M 106.25 63.851562 C 106.25 70.351562 105.101562 75.375 102.351562 80.875 C 101.5 82.601562 99.398438 85.898438 96.675781 89.75 L 92.375 95.875 L 92.300781 109.925781 L 92.25 124 L 96.25 124 L 96.25 97.351562 L 99.925781 92.101562 C 104.125 86.101562 105.425781 83.976562 106.75 81 C 109.199219 75.425781 110 71.574219 110.175781 64.925781 L 110.324219 60 L 106.25 60 Z M 106.25 63.851562 "/>
</g>
</svg>
