<svg width="936" height="410" viewBox="0 0 936 410" fill="none" xmlns="http://www.w3.org/2000/svg">
<path d="M323.861 247.61C323.861 284.035 323.861 318.59 323.861 353.138C323.861 366.508 324.004 379.878 323.754 393.241C323.562 403.931 318.666 410.12 306.724 409.75C294.289 409.367 281.826 409.234 269.399 409.681C257.242 410.106 252.917 403.624 252.518 393.101C252.29 387.212 252.447 381.308 252.447 375.412C252.447 317.229 252.447 259.047 252.447 200.864C252.447 180.565 255.126 178.186 276.197 178.2C341.63 178.237 407.066 178.221 472.504 178.151C499.055 178.102 507.934 170.475 510.449 144.768C511.368 135.024 511.205 125.212 509.965 115.502C507.556 96.334 497.58 88.1139 477.628 88.079C410.988 87.9674 344.345 87.9511 277.7 88.0302C255.09 88.0302 252.468 85.5041 252.447 62.8745C252.447 54.2218 252.276 45.5691 252.447 36.9234C252.782 22.13 256.907 18.0828 271.943 18.0828C344.205 18.02 416.467 17.8525 488.73 18.1177C540.47 18.3061 567.655 39.6029 578.18 89.2164C585.305 122.711 584.913 156.449 574.838 189.49C563.607 226.306 537.876 245.893 498.848 246.528C445.491 247.38 392.119 247.296 338.675 247.61C334.357 247.638 330.003 247.61 323.861 247.61Z" fill="#1B3517"/>
<path d="M561.712 409.681C533.437 409.632 531.926 407.253 542.337 381.525C591.358 260.475 640.205 139.367 688.878 18.2016C694.166 4.94338 701.078 0.931035 715.322 0.756585C747.994 0.32395 749.291 4.8108 737.64 33.274C689.377 151.251 642.062 269.612 594.377 387.819C585.541 409.765 585.505 409.716 561.712 409.681Z" fill="#1B3517"/>
<path d="M60.564 231.958C80.5589 238.513 100.549 245.063 120.534 251.608C142.197 258.691 163.674 266.395 185.6 272.542C198.519 276.178 205.025 282.395 203.072 295.939C202.459 300.182 203.072 304.578 202.937 308.905C202.588 321.932 197.236 326.063 184.631 321.988C147.755 310.063 110.993 297.789 74.1814 285.612C56.7517 279.869 39.1938 274.391 21.9281 268.111C5.93791 262.313 1.37743 255.307 1.09953 238.846C0.443958 200.306 1.89048 198.262 38.973 185.869C86.003 170.154 133.019 154.456 180.02 138.774C197.906 132.801 203.029 136.178 202.944 154.216C202.823 182.645 206.243 180.035 177.555 189.567C142.263 201.281 106.972 212.999 71.6802 224.722C67.9891 225.95 64.4048 227.471 60.7707 228.853L60.564 231.958Z" fill="#1B3517"/>
<path d="M881.26 228.49C861.193 221.931 844.676 216.481 828.123 211.129C801.501 202.518 774.979 193.607 748.172 185.589C738.274 182.624 734.982 176.916 734.725 167.523C733.806 133.206 735.438 131.761 768.73 142.542C816.653 158.066 864.509 173.757 912.299 189.616C932.187 196.189 935.886 201.569 935.964 222.412C936.107 260.847 936.057 260.701 899.01 273.052C851.631 288.85 804.351 304.927 757.029 320.865C739.514 326.761 735.253 323.698 734.882 305.967C734.17 272.361 735.595 278.383 761.682 269.458C797.603 257.191 833.709 245.447 869.716 233.424C872.488 232.475 875.089 231.128 881.26 228.49Z" fill="#1B3517"/>
</svg>
