<svg width="436" height="479" viewBox="0 0 436 479" fill="none" xmlns="http://www.w3.org/2000/svg">
<g clip-path="url(#clip0_374_2330)">
<path d="M64.1063 3.33388C51.6723 7.7687 40.448 15.0542 31.3313 24.6075C22.2146 34.1608 15.4586 45.7166 11.6036 58.3508C-7.14845 115.041 -3.0651 176.816 22.9855 230.54C77.2002 342.066 121.713 458.159 253.065 477.038C384.417 495.916 443.704 348.57 424.269 292.125C403.376 231.175 370.372 177.205 240.383 176.507C110.395 175.809 183.6 59.1123 132.112 20.023C102.754 -2.31373 81.8291 -2.66278 64.1063 3.33388Z" fill="#E9F1E8"/>
<path d="M336.796 229.684V179.807" stroke="#CCCCCC" stroke-width="0.454167" stroke-miterlimit="10"/>
<path d="M369.104 244.501V179.807" stroke="#CCCCCC" stroke-width="0.454167" stroke-miterlimit="10"/>
<path d="M401.443 276.61V179.807" stroke="#CCCCCC" stroke-width="0.454167" stroke-miterlimit="10"/>
<path d="M433.749 309.195V179.807" stroke="#CCCCCC" stroke-width="0.454167" stroke-miterlimit="10"/>
<path d="M304.458 179.807H433.749" stroke="#CCCCCC" stroke-width="0.454167" stroke-miterlimit="10"/>
<path d="M336.733 212.138H433.749" stroke="#CCCCCC" stroke-width="0.454167" stroke-miterlimit="10"/>
<path d="M375.54 244.501H433.749" stroke="#CCCCCC" stroke-width="0.454167" stroke-miterlimit="10"/>
<path d="M96.0969 354.027L119.463 367.48C119.951 367.757 120.357 368.158 120.639 368.643C120.922 369.128 121.07 369.679 121.07 370.241C121.07 370.802 120.922 371.353 120.639 371.838C120.357 372.323 119.951 372.724 119.463 373.001L96.0969 386.454C95.6131 386.733 95.2116 387.136 94.9333 387.621C94.6549 388.105 94.5094 388.655 94.5117 389.214V412.693C94.5117 413.535 94.8457 414.342 95.4403 414.937C96.0348 415.532 96.8413 415.866 97.6821 415.866H268.601C269.442 415.866 270.248 415.532 270.843 414.937C271.437 414.342 271.771 413.535 271.771 412.693V55.7812C271.771 54.9397 271.437 54.1328 270.843 53.5377C270.248 52.9427 269.442 52.6084 268.601 52.6084H97.6187C96.7778 52.6084 95.9714 52.9427 95.3768 53.5377C94.7823 54.1328 94.4482 54.9397 94.4482 55.7812V351.267C94.4524 351.833 94.6074 352.387 94.8972 352.872C95.1871 353.357 95.6013 353.756 96.0969 354.027Z" fill="#F2F2F2"/>
<path d="M95.4306 355.077L106.781 361.581L114.897 366.277C116.277 366.866 117.586 367.611 118.797 368.498C121.301 370.877 118.29 372.273 116.546 373.289L109.476 377.35C104.942 379.952 100.186 382.331 95.8427 385.187C92.4504 387.44 93.243 391.374 93.243 394.959C93.243 400.575 93.0528 406.254 93.243 411.902C93.4332 417.55 98.8547 417.074 103.166 417.074H263.306C267.142 417.074 272.437 417.93 272.817 412.6C273.578 404.636 272.817 396.228 272.817 388.201V62.8587C272.817 60.5743 273.039 58.1629 272.817 55.8467C272.342 50.5163 266.888 51.4048 263.052 51.4048H102.945C99.0766 51.4048 93.6552 50.4846 93.1479 55.8785C92.8942 58.6071 93.1479 61.4944 93.1479 64.223V346.193C93.1479 349.366 92.5138 352.697 95.1135 354.886C96.2549 355.838 97.9669 354.188 96.7939 353.205C94.6063 351.364 95.5257 347.018 95.5257 344.606V65.397C95.1929 62.3389 95.1929 59.2538 95.5257 56.1958C96.4451 52.6739 102.12 53.9113 104.688 53.9113H263.211C265.842 53.9113 269.805 52.9595 270.439 56.5131C270.693 59.5007 270.693 62.5045 270.439 65.4921V404.605C270.725 407.241 270.725 409.9 270.439 412.537C269.583 416.058 263.845 414.821 261.277 414.821H103.071C101.385 414.996 99.6851 414.996 97.9987 414.821C94.3526 413.996 95.5257 408.793 95.5257 406.032V396.863C95.3355 394.529 95.3355 392.184 95.5257 389.851C96.1915 386.234 102.691 384.076 105.544 382.426C110.141 379.793 114.865 377.318 119.304 374.494C120.079 374.148 120.741 373.59 121.213 372.884C121.684 372.177 121.947 371.352 121.97 370.503C121.993 369.654 121.776 368.815 121.344 368.085C120.911 367.354 120.281 366.76 119.526 366.372C112.107 361.581 104.181 357.52 96.5402 353.141C96.3032 353.11 96.0622 353.149 95.8479 353.255C95.6335 353.361 95.4555 353.529 95.3366 353.736C95.2176 353.944 95.163 354.182 95.1797 354.421C95.1965 354.659 95.2838 354.888 95.4306 355.077Z" fill="black"/>
<path d="M248.246 36.0454H157.571C155.82 36.0454 154.401 37.4659 154.401 39.2182V129.961C154.401 131.714 155.82 133.134 157.571 133.134H248.246C249.997 133.134 251.417 131.714 251.417 129.961V39.2182C251.417 37.4659 249.997 36.0454 248.246 36.0454Z" fill="white"/>
<path d="M248.278 131.93H161.503C160.281 132.073 159.047 132.073 157.825 131.93C154.37 130.978 155.606 125.394 155.606 122.856V44.6135C155.448 43.0522 155.448 41.4789 155.606 39.9177C156.462 36.2372 160.235 37.2207 163.183 37.2207H232.426C237.294 36.951 242.174 36.951 247.042 37.2207C250.783 37.6332 250.403 40.3936 250.403 43.2809V127.583C250.403 129.328 250.878 131.517 248.088 131.962C246.598 132.215 247.232 134.5 248.722 134.278C253.732 133.453 252.78 128.091 252.78 124.347V51.086C252.78 47.2151 253.129 43.1857 252.78 39.3148C252.368 34.5238 248.247 34.8411 244.696 34.8411H197.805C184.647 34.8411 171.3 34.2065 158.174 34.8411C153.926 35.0315 153.228 38.0139 153.228 41.5675V112.353C153.228 117.716 153.228 123.109 153.228 128.471C153.125 129.243 153.196 130.029 153.438 130.769C153.68 131.509 154.086 132.185 154.626 132.746C155.165 133.308 155.824 133.74 156.554 134.01C157.284 134.281 158.065 134.383 158.84 134.309C187.723 135.103 216.732 134.309 245.615 134.309H248.278C248.56 134.263 248.817 134.118 249.002 133.9C249.187 133.682 249.288 133.406 249.288 133.12C249.288 132.834 249.187 132.557 249.002 132.339C248.817 132.121 248.56 131.976 248.278 131.93Z" fill="black"/>
<path d="M159.759 101.185H218.824C219.106 101.139 219.363 100.994 219.548 100.776C219.733 100.558 219.834 100.281 219.834 99.9955C219.834 99.7095 219.733 99.4329 219.548 99.215C219.363 98.997 219.106 98.8519 218.824 98.8057H159.759C159.477 98.8519 159.221 98.997 159.036 99.215C158.851 99.4329 158.749 99.7095 158.749 99.9955C158.749 100.281 158.851 100.558 159.036 100.776C159.221 100.994 159.477 101.139 159.759 101.185Z" fill="black"/>
<path d="M228.684 101.185H238.544C238.826 101.139 239.083 100.994 239.268 100.776C239.453 100.558 239.554 100.281 239.554 99.9955C239.554 99.7095 239.453 99.4329 239.268 99.215C239.083 98.997 238.826 98.8519 238.544 98.8057H228.684C228.402 98.8519 228.146 98.997 227.961 99.215C227.776 99.4329 227.674 99.7095 227.674 99.9955C227.674 100.281 227.776 100.558 227.961 100.776C228.146 100.994 228.402 101.139 228.684 101.185Z" fill="black"/>
<path d="M238.544 120.794H179.447C179.165 120.84 178.909 120.985 178.724 121.203C178.539 121.421 178.437 121.698 178.437 121.984C178.437 122.27 178.539 122.546 178.724 122.764C178.909 122.982 179.165 123.127 179.447 123.174H238.544C238.826 123.127 239.083 122.982 239.268 122.764C239.453 122.546 239.554 122.27 239.554 121.984C239.554 121.698 239.453 121.421 239.268 121.203C239.083 120.985 238.826 120.84 238.544 120.794Z" fill="black"/>
<path d="M169.587 120.794H159.759C159.477 120.84 159.221 120.985 159.036 121.203C158.851 121.421 158.749 121.698 158.749 121.984C158.749 122.27 158.851 122.546 159.036 122.764C159.221 122.982 159.477 123.127 159.759 123.174H169.587C169.869 123.127 170.126 122.982 170.311 122.764C170.496 122.546 170.597 122.27 170.597 121.984C170.597 121.698 170.496 121.421 170.311 121.203C170.126 120.985 169.869 120.84 169.587 120.794Z" fill="black"/>
<path d="M159.759 112.163H238.545C238.827 112.117 239.083 111.972 239.268 111.754C239.453 111.536 239.555 111.259 239.555 110.974C239.555 110.688 239.453 110.411 239.268 110.193C239.083 109.975 238.827 109.83 238.545 109.784H159.759C159.477 109.83 159.221 109.975 159.036 110.193C158.851 110.411 158.749 110.688 158.749 110.974C158.749 111.259 158.851 111.536 159.036 111.754C159.221 111.972 159.477 112.117 159.759 112.163Z" fill="black"/>
<path d="M220.061 43.5356H162.898C161.147 43.5356 159.728 44.9562 159.728 46.7085V85.0998C159.728 86.8521 161.147 88.2726 162.898 88.2726H220.061C221.812 88.2726 223.232 86.8521 223.232 85.0998V46.7085C223.232 44.9562 221.812 43.5356 220.061 43.5356Z" fill="#263F22"/>
<path d="M329.599 133.865H301.065C299.314 133.865 297.895 135.286 297.895 137.038V165.594C297.895 167.346 299.314 168.766 301.065 168.766H329.599C331.35 168.766 332.77 167.346 332.77 165.594V137.038C332.77 135.286 331.35 133.865 329.599 133.865Z" fill="white" stroke="black" stroke-width="0.454167" stroke-miterlimit="10"/>
<path d="M299.798 156.868H321.072" stroke="black" stroke-width="0.454167" stroke-miterlimit="10"/>
<path d="M324.591 156.868H328.142" stroke="black" stroke-width="0.454167" stroke-miterlimit="10"/>
<path d="M328.141 164.77H306.899" stroke="black" stroke-width="0.454167" stroke-miterlimit="10"/>
<path d="M303.349 164.77H299.798" stroke="black" stroke-width="0.454167" stroke-miterlimit="10"/>
<path d="M299.798 160.835H328.142" stroke="black" stroke-width="0.454167" stroke-miterlimit="10"/>
<path d="M319.455 136.562H302.968C301.217 136.562 299.798 137.983 299.798 139.735V149.475C299.798 151.228 301.217 152.648 302.968 152.648H319.455C321.206 152.648 322.625 151.228 322.625 149.475V139.735C322.625 137.983 321.206 136.562 319.455 136.562Z" fill="#263F22"/>
<path d="M380.803 133.865H352.269C350.518 133.865 349.098 135.286 349.098 137.038V165.594C349.098 167.346 350.518 168.766 352.269 168.766H380.803C382.554 168.766 383.973 167.346 383.973 165.594V137.038C383.973 135.286 382.554 133.865 380.803 133.865Z" fill="white" stroke="black" stroke-width="0.454167" stroke-miterlimit="10"/>
<path d="M351.032 156.868H372.274" stroke="black" stroke-width="0.454167" stroke-miterlimit="10"/>
<path d="M375.825 156.868H379.344" stroke="black" stroke-width="0.454167" stroke-miterlimit="10"/>
<path d="M379.345 164.77H358.103" stroke="black" stroke-width="0.454167" stroke-miterlimit="10"/>
<path d="M354.551 164.77H351.032" stroke="black" stroke-width="0.454167" stroke-miterlimit="10"/>
<path d="M351.032 160.835H379.344" stroke="black" stroke-width="0.454167" stroke-miterlimit="10"/>
<path d="M370.689 136.562H354.202C352.451 136.562 351.032 137.983 351.032 139.735V149.475C351.032 151.228 352.451 152.648 354.202 152.648H370.689C372.439 152.648 373.859 151.228 373.859 149.475V139.735C373.859 137.983 372.439 136.562 370.689 136.562Z" fill="#263F22"/>
<path d="M432.037 133.865H403.503C401.752 133.865 400.333 135.286 400.333 137.038V165.594C400.333 167.346 401.752 168.766 403.503 168.766H432.037C433.788 168.766 435.208 167.346 435.208 165.594V137.038C435.208 135.286 433.788 133.865 432.037 133.865Z" fill="white" stroke="black" stroke-width="0.454167" stroke-miterlimit="10"/>
<path d="M402.235 156.868H423.477" stroke="black" stroke-width="0.454167" stroke-miterlimit="10"/>
<path d="M427.028 156.868H430.578" stroke="black" stroke-width="0.454167" stroke-miterlimit="10"/>
<path d="M430.579 164.77H409.305" stroke="black" stroke-width="0.454167" stroke-miterlimit="10"/>
<path d="M405.786 164.77H402.235" stroke="black" stroke-width="0.454167" stroke-miterlimit="10"/>
<path d="M402.235 160.835H430.578" stroke="black" stroke-width="0.454167" stroke-miterlimit="10"/>
<path d="M421.891 136.562H405.405C403.654 136.562 402.235 137.983 402.235 139.735V149.475C402.235 151.228 403.654 152.648 405.405 152.648H421.891C423.642 152.648 425.062 151.228 425.062 149.475V139.735C425.062 137.983 423.642 136.562 421.891 136.562Z" fill="#263F22"/>
<path d="M227.924 127.997H130.908V225.085H227.924V127.997Z" fill="white"/>
<path d="M227.955 223.91H130.971L132.144 225.084V127.996L130.971 129.17H227.987L226.782 127.996V225.084C226.829 225.367 226.973 225.623 227.191 225.808C227.409 225.993 227.685 226.095 227.971 226.095C228.257 226.095 228.533 225.993 228.751 225.808C228.969 225.623 229.114 225.367 229.16 225.084V127.996C229.16 127.681 229.038 127.379 228.819 127.154C228.599 126.929 228.301 126.798 227.987 126.79H130.971C130.654 126.798 130.353 126.928 130.128 127.152C129.904 127.376 129.775 127.678 129.767 127.996V225.084C129.775 225.402 129.904 225.704 130.128 225.928C130.353 226.152 130.654 226.282 130.971 226.29H227.987C228.269 226.24 228.523 226.092 228.705 225.871C228.888 225.651 228.986 225.373 228.982 225.087C228.978 224.801 228.873 224.525 228.685 224.31C228.497 224.094 228.238 223.953 227.955 223.91Z" fill="black"/>
<path d="M136.266 193.165H195.363C195.645 193.119 195.901 192.974 196.086 192.756C196.271 192.538 196.373 192.261 196.373 191.975C196.373 191.689 196.271 191.412 196.086 191.194C195.901 190.976 195.645 190.831 195.363 190.785H136.266C135.984 190.831 135.727 190.976 135.542 191.194C135.357 191.412 135.256 191.689 135.256 191.975C135.256 192.261 135.357 192.538 135.542 192.756C135.727 192.974 135.984 193.119 136.266 193.165Z" fill="black"/>
<path d="M205.223 193.165H215.051C215.333 193.119 215.59 192.974 215.775 192.756C215.96 192.538 216.061 192.261 216.061 191.975C216.061 191.689 215.96 191.412 215.775 191.194C215.59 190.976 215.333 190.831 215.051 190.785H205.223C204.941 190.831 204.684 190.976 204.499 191.194C204.314 191.412 204.213 191.689 204.213 191.975C204.213 192.261 204.314 192.538 204.499 192.756C204.684 192.974 204.941 193.119 205.223 193.165Z" fill="black"/>
<path d="M215.051 212.773H155.954C155.672 212.82 155.416 212.965 155.231 213.183C155.046 213.401 154.944 213.677 154.944 213.963C154.944 214.249 155.046 214.526 155.231 214.744C155.416 214.962 155.672 215.107 155.954 215.153H215.051C215.333 215.107 215.59 214.962 215.775 214.744C215.96 214.526 216.061 214.249 216.061 213.963C216.061 213.677 215.96 213.401 215.775 213.183C215.59 212.965 215.333 212.82 215.051 212.773Z" fill="black"/>
<path d="M146.126 212.773H136.266C135.984 212.82 135.727 212.965 135.542 213.183C135.357 213.401 135.256 213.677 135.256 213.963C135.256 214.249 135.357 214.526 135.542 214.744C135.727 214.962 135.984 215.107 136.266 215.153H146.126C146.408 215.107 146.664 214.962 146.849 214.744C147.034 214.526 147.136 214.249 147.136 213.963C147.136 213.677 147.034 213.401 146.849 213.183C146.664 212.965 146.408 212.82 146.126 212.773Z" fill="black"/>
<path d="M136.266 204.143H215.051C215.333 204.097 215.59 203.951 215.775 203.734C215.96 203.516 216.061 203.239 216.061 202.953C216.061 202.667 215.96 202.39 215.775 202.172C215.59 201.954 215.333 201.809 215.051 201.763H136.266C135.984 201.809 135.727 201.954 135.542 202.172C135.357 202.39 135.256 202.667 135.256 202.953C135.256 203.239 135.357 203.516 135.542 203.734C135.727 203.951 135.984 204.097 136.266 204.143Z" fill="black"/>
<path d="M199.77 135.483H136.266V180.22H199.77V135.483Z" fill="#263F22"/>
<path d="M130.908 244.501H190.005" stroke="black" stroke-width="0.227083" stroke-miterlimit="10"/>
<path d="M199.865 244.501H209.725" stroke="black" stroke-width="0.227083" stroke-miterlimit="10"/>
<path d="M209.725 266.489H150.628" stroke="black" stroke-width="0.227083" stroke-miterlimit="10"/>
<path d="M140.768 266.489H130.908" stroke="black" stroke-width="0.227083" stroke-miterlimit="10"/>
<path d="M130.908 255.479H209.726" stroke="black" stroke-width="0.227083" stroke-miterlimit="10"/>
<path d="M227.765 267.316L142.417 342.766C146.955 341.437 151.732 341.132 156.403 341.873C161.074 342.614 165.523 344.381 169.429 347.049C182.111 356.123 204.494 381.95 204.969 382.458L227.797 267.316H227.765Z" fill="#263F22" stroke="black" stroke-width="0.908333" stroke-miterlimit="10"/>
<path d="M347.101 347.079C347.101 347.079 353.441 330.009 379.407 336.799C405.373 343.589 426.964 361.04 419.767 370.939C412.57 380.838 405.912 385.883 384.131 379.95C384.131 379.95 358.768 378.554 347.101 347.079Z" fill="white" stroke="black" stroke-width="0.908333" stroke-miterlimit="10"/>
<path d="M418.214 358.852C418.214 358.852 374.177 302.058 358.958 285.877C343.74 269.695 320.025 262.874 320.025 262.874L345.389 346.985C345.389 346.985 356.422 333.659 369.104 335.182C381.786 336.705 404.708 338.577 418.214 358.852Z" fill="#263F22" stroke="black" stroke-width="0.908333" stroke-miterlimit="10"/>
<path d="M178.75 434.935C178.75 434.935 211.754 313.067 211.754 291.079C211.754 269.091 233.726 254.655 277.731 255.512C321.737 256.368 342.028 265.665 347.957 290.223C353.886 314.78 366.567 440.202 366.567 440.202C338.041 462.834 302.223 474.234 265.874 472.248C204.97 468.853 178.75 434.935 178.75 434.935Z" fill="#263F22" stroke="black" stroke-width="0.908333" stroke-miterlimit="10"/>
<path d="M155.383 342.829C155.383 342.829 142.384 338.165 139.024 344.384C135.663 350.602 170.031 396.323 186.39 396.323C202.75 396.323 226.718 368.783 205.857 358.852C184.995 348.921 155.383 342.829 155.383 342.829Z" fill="white" stroke="black" stroke-width="0.908333" stroke-miterlimit="10"/>
<path d="M163.5 318.271L184.647 399.464H278.143L259.089 319.445L163.5 318.271Z" fill="white" stroke="black" stroke-width="0.908333" stroke-miterlimit="10"/>
<path d="M192.291 344.405L159.96 348.527C155.565 349.087 152.457 353.106 153.017 357.504L153.021 357.536C153.58 361.933 157.597 365.044 161.991 364.484L194.322 360.362C198.717 359.802 201.825 355.783 201.265 351.385L201.261 351.353C200.702 346.956 196.685 343.845 192.291 344.405Z" fill="#DE9483" stroke="black" stroke-width="0.908333" stroke-miterlimit="10"/>
<path d="M194.461 361.727L162.13 365.849C157.735 366.409 154.627 370.429 155.187 374.826L155.191 374.858C155.75 379.256 159.767 382.367 164.161 381.806L196.492 377.685C200.886 377.124 203.995 373.105 203.435 368.707L203.431 368.676C202.871 364.278 198.855 361.167 194.461 361.727Z" fill="#DE9483" stroke="black" stroke-width="0.908333" stroke-miterlimit="10"/>
<path d="M199.869 378.049L167.538 382.171C163.143 382.731 160.035 386.75 160.595 391.148L160.599 391.179C161.159 395.577 165.175 398.688 169.569 398.128L201.9 394.006C206.295 393.446 209.403 389.427 208.844 385.029L208.84 384.997C208.28 380.599 204.263 377.489 199.869 378.049Z" fill="#DE9483" stroke="black" stroke-width="0.908333" stroke-miterlimit="10"/>
<path d="M297.768 368.749C297.768 368.749 341.171 423.417 377.029 407.616C412.887 391.816 402.678 345.809 402.678 345.809C402.678 345.809 384.638 337.338 368.849 336.291C353.061 335.244 348.812 345.809 348.812 345.809C348.812 345.809 309.055 315.065 297.8 313.066C286.545 311.067 265.081 331.437 265.081 331.437C263.591 332.54 262.424 334.023 261.699 335.73C260.975 337.437 260.719 339.306 260.959 341.145C261.657 346.412 267.3 346.349 269.361 346.158C269.436 346.157 269.511 346.173 269.58 346.204C269.648 346.235 269.709 346.281 269.758 346.339C269.806 346.397 269.841 346.465 269.861 346.538C269.88 346.611 269.882 346.687 269.868 346.761C268.219 357.93 279.696 356.28 282.55 355.836C282.55 355.836 282.74 355.994 282.55 356.089C277.572 359.865 278.967 370.399 289.049 371.224C299.131 372.049 301.446 364.085 301.446 364.085" fill="#DE9483"/>
<path d="M297.768 368.749C297.768 368.749 341.171 423.417 377.029 407.616C412.887 391.816 402.678 345.809 402.678 345.809C402.678 345.809 384.638 337.338 368.849 336.291C353.061 335.244 348.812 345.809 348.812 345.809C348.812 345.809 309.055 315.065 297.8 313.066C286.545 311.067 265.081 331.437 265.081 331.437C263.591 332.54 262.424 334.023 261.699 335.73C260.975 337.437 260.719 339.306 260.959 341.145C261.657 346.412 267.3 346.349 269.361 346.158C269.436 346.157 269.511 346.173 269.58 346.204C269.648 346.235 269.709 346.281 269.758 346.339C269.806 346.397 269.841 346.465 269.861 346.538C269.88 346.611 269.882 346.687 269.868 346.761C268.219 357.93 279.696 356.28 282.55 355.836C282.55 355.836 282.74 355.994 282.55 356.089C277.572 359.865 278.967 370.399 289.049 371.224C299.131 372.049 301.446 364.085 301.446 364.085" stroke="black" stroke-width="0.908333" stroke-miterlimit="10"/>
<path d="M274.022 342.128L285.721 333.244" stroke="black" stroke-width="0.908333" stroke-miterlimit="10"/>
<path d="M285.721 353.202L297.451 344.286" stroke="black" stroke-width="0.908333" stroke-miterlimit="10"/>
<path d="M265.874 244.345H282.36V264.968C282.36 267.156 281.492 269.254 279.946 270.801C278.4 272.348 276.303 273.218 274.117 273.218C271.931 273.218 269.834 272.348 268.288 270.801C266.742 269.254 265.874 267.156 265.874 264.968V244.345Z" fill="#DE9483" stroke="black" stroke-width="0.908333" stroke-miterlimit="10"/>
<path d="M280.711 246.279V262.809L267.554 256.178V246.279H280.711Z" fill="#A76F62"/>
<path d="M300.368 235.458C305.604 235.458 309.848 231.211 309.848 225.971C309.848 220.732 305.604 216.484 300.368 216.484C295.133 216.484 290.889 220.732 290.889 225.971C290.889 231.211 295.133 235.458 300.368 235.458Z" fill="#DE9483" stroke="black" stroke-width="0.908333" stroke-miterlimit="10"/>
<path d="M247.866 235.458C253.101 235.458 257.345 231.211 257.345 225.971C257.345 220.732 253.101 216.484 247.866 216.484C242.63 216.484 238.386 220.732 238.386 225.971C238.386 231.211 242.63 235.458 247.866 235.458Z" fill="#DE9483" stroke="black" stroke-width="0.908333" stroke-miterlimit="10"/>
<path d="M274.022 253.036C288.468 253.036 300.178 241.317 300.178 226.86C300.178 212.404 288.468 200.685 274.022 200.685C259.576 200.685 247.866 212.404 247.866 226.86C247.866 241.317 259.576 253.036 274.022 253.036Z" fill="#DE9483" stroke="black" stroke-width="0.908333" stroke-miterlimit="10"/>
<path d="M289.494 237.806C287.516 239.825 285.156 241.429 282.551 242.525C279.946 243.62 277.149 244.184 274.323 244.184C271.498 244.184 268.701 243.62 266.096 242.525C263.491 241.429 261.131 239.825 259.153 237.806H289.494Z" fill="black"/>
<path d="M309.88 205.696C309.884 204.219 309.597 202.755 309.035 201.388C308.472 200.022 307.646 198.78 306.604 197.734C305.561 196.687 304.322 195.857 302.959 195.291C301.595 194.724 300.133 194.433 298.656 194.433C296.533 194.427 294.453 195.033 292.664 196.178C292.101 194.856 291.282 193.659 290.255 192.656C290.51 191.478 290.637 190.276 290.635 189.071C290.629 185.099 289.203 181.261 286.615 178.251C284.027 175.241 280.447 173.257 276.524 172.659C272.601 172.061 268.594 172.888 265.227 174.99C261.86 177.093 259.357 180.332 258.17 184.121H257.377C255.901 184.117 254.438 184.404 253.072 184.967C251.707 185.529 250.466 186.356 249.421 187.399C248.375 188.443 247.545 189.682 246.979 191.047C246.413 192.412 246.122 193.875 246.122 195.353C246.123 196.273 246.24 197.19 246.471 198.081C245.246 199.14 244.263 200.45 243.59 201.923C242.917 203.396 242.57 204.997 242.571 206.616C242.571 207.029 242.571 207.473 242.571 207.886C240.805 208.814 239.316 210.195 238.258 211.888C237.201 213.581 236.612 215.526 236.552 217.522C236.493 219.517 236.964 221.493 237.919 223.247C238.873 225 240.276 226.468 241.984 227.501C243.693 228.533 245.644 229.092 247.639 229.121C249.634 229.15 251.601 228.648 253.338 227.665C255.076 226.683 256.521 225.256 257.526 223.531C258.531 221.806 259.059 219.845 259.057 217.848C259.089 217.415 259.089 216.98 259.057 216.547C260.873 215.602 262.395 214.176 263.457 212.425C264.519 210.674 265.081 208.665 265.081 206.616C265.081 205.696 264.964 204.779 264.733 203.888L265.398 203.253C267.499 204.545 269.859 205.358 272.31 205.633C273.226 207.531 274.658 209.132 276.44 210.254C278.223 211.377 280.286 211.974 282.392 211.978C283.346 211.983 284.295 211.855 285.214 211.598C285.214 211.598 285.214 211.852 285.214 211.978C285.142 214.957 286.256 217.843 288.31 220C290.365 222.157 293.191 223.408 296.168 223.48C299.144 223.552 302.027 222.437 304.183 220.381C306.338 218.325 307.589 215.497 307.66 212.518C309.132 210.551 309.912 208.153 309.88 205.696Z" fill="black"/>
<path d="M131.225 278.706V312.972L160.996 295.839L131.225 278.706Z" fill="#263F22"/>
<path d="M82.876 121.047C84.627 121.047 86.0465 119.627 86.0465 117.874C86.0465 116.122 84.627 114.702 82.876 114.702C81.125 114.702 79.7056 116.122 79.7056 117.874C79.7056 119.627 81.125 121.047 82.876 121.047Z" fill="#263F22"/>
<path d="M82.876 129.297C84.627 129.297 86.0465 127.876 86.0465 126.124C86.0465 124.372 84.627 122.951 82.876 122.951C81.125 122.951 79.7056 124.372 79.7056 126.124C79.7056 127.876 81.125 129.297 82.876 129.297Z" fill="#263F22"/>
<path d="M317.52 126.124L366.535 84.5918L412.855 126.124" stroke="#CCCCCC" stroke-width="1.81667" stroke-miterlimit="10"/>
<path d="M366.536 84.5918V126.124" stroke="#CCCCCC" stroke-width="1.81667" stroke-miterlimit="10"/>
<path d="M82.8755 136.562V309.196" stroke="#CCCCCC" stroke-width="0.454167" stroke-miterlimit="10"/>
</g>
<defs>
<clipPath id="clip0_374_2330">
<rect width="436" height="478.685" fill="white" transform="translate(0 0.0351562)"/>
</clipPath>
</defs>
</svg>
