<svg width="438" height="364" viewBox="0 0 438 364" fill="none" xmlns="http://www.w3.org/2000/svg">
<g clip-path="url(#clip0_374_2408)">
<path d="M396.163 311.595C354.364 352.127 312.713 355.501 312.713 355.501C312.713 355.501 263.438 361.784 224.285 326.118C203.031 306.766 189.943 281.373 180.752 254.918C151.724 249.008 122.956 238.94 100.024 218.954C60.0144 184.183 60.4805 134.553 60.4805 134.553C60.4805 134.553 58.9704 92.772 94.3751 46.498C129.78 0.223944 194.176 -14.1505 233.738 15.3627C273.3 44.876 271.026 59.6605 288.327 105.674C290.016 110.182 291.965 114.59 294.163 118.873C300.836 121.772 307.74 124.111 314.801 125.865C362.548 137.741 376.96 133.695 410.873 169.529C444.786 205.362 437.981 271.026 396.163 311.595Z" fill="#E9F1E8"/>
<path d="M92.8276 94.9902H56.3789" stroke="#CCCCCC" stroke-miterlimit="10"/>
<path d="M103.641 71.3687H56.3789" stroke="#CCCCCC" stroke-miterlimit="10"/>
<path d="M127.095 47.728H56.3789" stroke="#CCCCCC" stroke-miterlimit="10"/>
<path d="M150.885 24.1064H56.3789" stroke="#CCCCCC" stroke-miterlimit="10"/>
<path d="M56.3789 118.612V24.1064" stroke="#CCCCCC" stroke-miterlimit="10"/>
<path d="M80.0195 95.0277V24.1064" stroke="#CCCCCC" stroke-miterlimit="10"/>
<path d="M103.641 66.6517V24.1064" stroke="#CCCCCC" stroke-miterlimit="10"/>
<path d="M400.619 218.599H437.068" stroke="#CCCCCC" stroke-miterlimit="10"/>
<path d="M389.824 242.24H437.068" stroke="#CCCCCC" stroke-miterlimit="10"/>
<path d="M366.352 265.861H437.068" stroke="#CCCCCC" stroke-miterlimit="10"/>
<path d="M342.562 289.483H437.068" stroke="#CCCCCC" stroke-miterlimit="10"/>
<path d="M437.068 194.978V289.483" stroke="#CCCCCC" stroke-miterlimit="10"/>
<path d="M413.446 218.562V289.483" stroke="#CCCCCC" stroke-miterlimit="10"/>
<path d="M389.824 246.938V289.483" stroke="#CCCCCC" stroke-miterlimit="10"/>
<path d="M315.846 98.5513C315.836 110.858 312.863 122.98 307.178 133.895C301.494 144.81 293.265 154.195 283.187 161.257C273.109 168.32 261.478 172.852 249.279 174.47C237.08 176.088 224.67 174.745 213.099 170.554L212.82 170.442C199.683 165.6 188.124 157.251 179.399 146.3C170.674 135.35 165.117 122.219 163.331 108.332C161.545 94.4454 163.599 80.3349 169.27 67.5336C174.94 54.7324 184.011 43.73 195.496 35.7219C206.98 27.7137 220.44 23.0061 234.412 22.1105C248.385 21.2149 262.335 24.1656 274.748 30.6419C287.162 37.1182 297.562 46.8725 304.821 58.845C312.08 70.8175 315.918 84.5503 315.92 98.5513H315.846Z" stroke="black" stroke-miterlimit="10"/>
<path d="M203.777 118.034L184.537 126.983H184.294C184.232 126.986 184.171 126.976 184.113 126.953C184.055 126.931 184.003 126.897 183.959 126.853L168.932 115.667L156.869 132.017L171.896 143.11C174.903 145.38 178.468 146.794 182.213 147.201C185.959 147.608 189.745 146.993 193.169 145.422L212.391 136.492L203.777 118.034Z" fill="#DE9483" stroke="black" stroke-miterlimit="10"/>
<path d="M287.19 117.009C288.322 117.147 289.462 117.209 290.602 117.195C298.147 117.186 305.535 115.04 311.912 111.006C314.631 109.256 317.135 107.191 319.369 104.853C321.929 102.156 324.151 99.1568 325.988 95.9229C329.963 89.0363 332.874 81.5876 334.62 73.8299C335.734 68.9353 336.315 63.9345 336.354 58.9148C336.367 57.6697 336.311 56.4249 336.186 55.186L315.976 57.2928L322.334 56.6216L315.976 57.2182L322.334 56.547L315.976 57.1436C315.976 57.1436 315.976 57.7403 315.976 58.8216C315.933 62.3733 315.514 65.9105 314.727 69.374C313.428 75.1347 311.265 80.666 308.313 85.7806C307.025 88.0797 305.369 90.1518 303.41 91.9144C302.278 92.9335 301.026 93.8101 299.681 94.5246C298.007 95.3939 296.218 96.0216 294.368 96.3889C293.098 96.6541 291.805 96.7916 290.508 96.7991H289.595L289.148 101.46L289.744 96.8178H289.595L289.148 101.479L289.744 96.8364L287.097 116.99L287.19 117.009Z" fill="#DE9483"/>
<path d="M315.976 57.1436L322.334 56.547L315.976 57.2182L322.334 56.6216L315.976 57.2928L336.186 55.186C336.311 56.4249 336.367 57.6697 336.354 58.9148C336.315 63.9345 335.734 68.9353 334.62 73.8299C332.874 81.5876 329.963 89.0363 325.988 95.9228C324.151 99.1568 321.929 102.156 319.369 104.853C317.135 107.191 314.631 109.256 311.912 111.006C305.535 115.04 298.147 117.186 290.602 117.195C289.462 117.209 288.322 117.147 287.19 117.009L287.097 116.99L289.744 96.8364L289.148 101.479L289.595 96.8178H289.744L289.148 101.46L289.595 96.7991H290.508C291.805 96.7916 293.098 96.6541 294.368 96.3889C296.218 96.0216 298.007 95.3939 299.681 94.5246C301.026 93.8101 302.278 92.9335 303.41 91.9144C305.369 90.1518 307.025 88.0797 308.313 85.7806C311.265 80.666 313.428 75.1347 314.727 69.374C315.514 65.9105 315.933 62.3733 315.976 58.8216C315.976 57.7403 315.976 57.1436 315.976 57.1436ZM315.976 57.1436L317.169 57.0318" stroke="black" stroke-miterlimit="10"/>
<path d="M251.86 90.7023L297.63 87.7192C297.63 87.7192 302.888 115.07 297.63 120.663C297.63 120.663 285.102 124.951 263.028 112.441C240.953 99.931 251.86 90.7023 251.86 90.7023Z" fill="#51654E" stroke="black" stroke-miterlimit="10"/>
<path d="M226.504 95.9785L193.486 118.165C193.486 118.165 204.337 139.736 210.918 140.798C210.918 140.798 221.787 137.07 230.326 116.822C238.865 96.5751 226.504 95.9785 226.504 95.9785Z" fill="#51654E" stroke="black" stroke-miterlimit="10"/>
<path d="M284.412 160.43C274.261 167.824 262.451 172.614 250.017 174.379C237.584 176.144 224.907 174.831 213.099 170.554L212.82 170.442C211.738 170.013 210.62 169.585 209.501 169.118L222.235 97.4515C222.242 97.4033 222.261 97.3577 222.291 97.3187C222.32 97.2797 222.358 97.2485 222.402 97.2278C223.913 96.4074 238.045 88.8007 242.016 89.0617L266.253 90.7024C266.31 90.7054 266.364 90.7245 266.411 90.7576C266.457 90.7906 266.493 90.8361 266.514 90.8888C267.558 93.8719 282.697 133.49 284.412 160.43Z" fill="#263F22" stroke="black" stroke-miterlimit="10"/>
<path d="M169.876 119.782C171.504 120.866 173.703 120.426 174.788 118.798C175.873 117.17 175.432 114.97 173.804 113.886L164.479 107.674C162.85 106.589 160.651 107.03 159.567 108.658C158.482 110.286 158.923 112.485 160.551 113.57L169.876 119.782Z" fill="#DE9483" stroke="black" stroke-miterlimit="10"/>
<path d="M322.363 43.6001C322.123 41.6585 320.355 40.2792 318.413 40.5193C316.471 40.7594 315.092 42.5281 315.332 44.4697L316.707 55.5899C316.948 57.5315 318.716 58.9108 320.658 58.6707C322.599 58.4306 323.979 56.6619 323.739 54.7204L322.363 43.6001Z" fill="#DE9483" stroke="black" stroke-miterlimit="10"/>
<path d="M314.742 52.1795C313.657 50.5513 311.458 50.1107 309.83 51.1953C308.202 52.2799 307.761 54.4791 308.846 56.1073L315.058 65.4325C316.142 67.0607 318.342 67.5013 319.97 66.4167C321.598 65.3321 322.039 63.1329 320.954 61.5047L314.742 52.1795Z" fill="#DE9483" stroke="black" stroke-miterlimit="10"/>
<path d="M329.895 43.5894C329.654 41.6478 327.886 40.2685 325.944 40.5086C324.003 40.7487 322.623 42.5173 322.863 44.4589L324.239 55.5792C324.479 57.5207 326.247 58.9001 328.189 58.6599C330.131 58.4198 331.51 56.6512 331.27 54.7096L329.895 43.5894Z" fill="#DE9483" stroke="black" stroke-miterlimit="10"/>
<path d="M338.05 44.0179C338.05 42.0615 336.465 40.4756 334.508 40.4756C332.552 40.4756 330.966 42.0615 330.966 44.0179V55.2229C330.966 57.1793 332.552 58.7652 334.508 58.7652C336.465 58.7652 338.05 57.1793 338.05 55.2229V44.0179Z" fill="#DE9483" stroke="black" stroke-miterlimit="10"/>
<path d="M254.265 83.1702C256.592 83.1702 258.478 81.2837 258.478 78.9567C258.478 76.6296 256.592 74.7432 254.265 74.7432C251.938 74.7432 250.051 76.6296 250.051 78.9567C250.051 81.2837 251.938 83.1702 254.265 83.1702Z" fill="#DE9483" stroke="black" stroke-miterlimit="10"/>
<path d="M230.252 83.5247C232.579 83.5247 234.465 81.6382 234.465 79.3112C234.465 76.9841 232.579 75.0977 230.252 75.0977C227.925 75.0977 226.038 76.9841 226.038 79.3112C226.038 81.6382 227.925 83.5247 230.252 83.5247Z" fill="#DE9483" stroke="black" stroke-miterlimit="10"/>
<path d="M240.306 83.4873L249.274 83.9357L248.914 91.1322C248.854 92.3239 248.324 93.4431 247.439 94.2436C246.554 95.0441 245.388 95.4603 244.196 95.4007C243.008 95.3364 241.894 94.8039 241.097 93.9199C240.301 93.0358 239.887 91.8723 239.946 90.6838L240.306 83.4873Z" fill="#DE9483" stroke="black" stroke-width="1.00125" stroke-miterlimit="10"/>
<path d="M242.37 88.8751C248.466 88.8751 253.407 83.9336 253.407 77.8379C253.407 71.7423 248.466 66.8008 242.37 66.8008C236.275 66.8008 231.333 71.7423 231.333 77.8379C231.333 83.9336 236.275 88.8751 242.37 88.8751Z" fill="#DE9483" stroke="black" stroke-miterlimit="10"/>
<path d="M251.599 73.3447C251.604 73.4441 251.604 73.5437 251.599 73.643C251.347 74.5763 250.881 75.438 250.238 76.1599C249.007 77.3345 249.306 76.2718 244.645 74.7057C239.984 73.1396 240.021 76.9244 235.957 76.1972C234.092 75.843 233.458 74.8922 233.309 73.96C233.3 73.8358 233.3 73.7112 233.309 73.5871L233.533 73.4566C236.238 71.8174 239.331 70.9291 242.493 70.8832C245.655 70.8373 248.773 71.6355 251.524 73.1956L251.599 73.3447Z" fill="#6F4A42"/>
<path d="M171.915 111.993C171.915 114.007 168.186 115.722 163.376 115.722C158.566 115.722 154.837 114.082 154.837 111.993C154.837 109.905 158.659 108.358 163.376 108.358C168.093 108.358 171.915 109.999 171.915 111.993Z" fill="white" stroke="black" stroke-miterlimit="10"/>
<path d="M171.915 111.994V123.31C171.915 125.324 168.186 127.039 163.376 127.039C158.566 127.039 154.837 125.417 154.837 123.31V111.994C154.837 114.007 158.659 115.722 163.376 115.722C168.093 115.722 171.915 114.007 171.915 111.994Z" fill="white" stroke="black" stroke-miterlimit="10"/>
<path d="M185.618 83.0212C185.62 87.6012 184.206 92.0699 181.569 95.8147C178.932 99.5596 175.202 102.398 170.889 103.94C169.839 104.691 168.982 105.682 168.389 106.829C167.796 107.976 167.484 109.248 167.478 110.539V110.838C167.272 111.733 166.744 112.521 165.994 113.051C165.244 113.58 164.325 113.815 163.413 113.709C162.504 113.81 161.59 113.573 160.844 113.044C160.098 112.514 159.572 111.729 159.367 110.838V110.539C159.349 109.239 159.025 107.961 158.423 106.808C157.821 105.656 156.957 104.66 155.9 103.902C152.074 102.514 148.703 100.103 146.153 96.9314C143.604 93.7599 141.973 89.9497 141.438 85.9156C140.904 81.8814 141.486 77.778 143.123 74.052C144.759 70.326 147.386 67.1202 150.717 64.7838C154.049 62.4474 157.958 61.0698 162.019 60.801C166.079 60.5322 170.136 61.3826 173.746 63.2595C177.357 65.1364 180.384 67.9679 182.497 71.4458C184.61 74.9236 185.728 78.9145 185.73 82.9839L185.618 83.0212Z" fill="#FFD573" stroke="black" stroke-miterlimit="10"/>
<path d="M163.129 122.521C165.07 122.761 166.839 121.381 167.079 119.44C167.319 117.498 165.94 115.73 163.998 115.49L152.878 114.114C150.936 113.874 149.168 115.254 148.928 117.195C148.687 119.137 150.067 120.905 152.008 121.145L163.129 122.521Z" fill="#DE9483" stroke="black" stroke-miterlimit="10"/>
<path d="M163.111 130.058C165.053 130.298 166.821 128.919 167.061 126.977C167.301 125.036 165.922 123.267 163.981 123.027L152.86 121.652C150.919 121.412 149.15 122.791 148.91 124.733C148.67 126.674 150.049 128.443 151.991 128.683L163.111 130.058Z" fill="#DE9483" stroke="black" stroke-miterlimit="10"/>
<path d="M163.618 136.846C165.575 136.846 167.161 135.26 167.161 133.304C167.161 131.347 165.575 129.761 163.618 129.761H152.413C150.457 129.761 148.871 131.347 148.871 133.304C148.871 135.26 150.457 136.846 152.413 136.846H163.618Z" fill="#DE9483" stroke="black" stroke-miterlimit="10"/>
<path d="M252.4 73.2333C249.311 71.4905 245.814 70.5982 242.267 70.6474C238.72 70.6965 235.249 71.6853 232.209 73.513C233.046 71.544 234.437 69.8608 236.213 68.6681C237.99 67.4754 240.074 66.8246 242.213 66.795C244.353 66.7654 246.455 67.3581 248.263 68.5012C250.072 69.6442 251.509 71.2883 252.4 73.2333Z" fill="#263F22" stroke="black" stroke-miterlimit="10"/>
<path d="M363.145 282.156C363.145 282.156 361.15 284.785 352.872 284.542C344.594 284.3 318.4 271.79 319.071 263.773L328.971 255.682L351.94 264.165L358.894 274.903L363.145 282.156Z" fill="#F9FCFD" stroke="black" stroke-miterlimit="10"/>
<path d="M312.098 263.96C312.098 263.96 308.929 263.027 306.244 255.178C303.559 247.329 306.039 218.431 313.776 216.269L324.832 222.701L324.981 247.18L317.356 257.471L312.098 263.96Z" fill="#F9FCFD" stroke="black" stroke-miterlimit="10"/>
<path d="M320.898 252.68C322.609 253.234 324.438 253.318 326.193 252.923C327.952 252.845 329.658 252.298 331.133 251.338C334.113 249.571 336.302 246.728 337.249 243.396C337.715 241.686 337.836 239.9 337.605 238.143C337.375 236.386 336.797 234.692 335.906 233.16L333.837 230.457C332.206 228.833 330.183 227.658 327.964 227.045L301.713 223.484L297.985 222.981C294.522 222.185 290.889 222.662 287.749 224.323C284.755 226.074 282.562 228.923 281.634 232.265C280.068 239.512 278.508 246.758 276.954 254.004L269.497 288.644C268.938 291.292 268.36 293.939 267.782 296.605C266.926 300.064 267.405 303.719 269.124 306.841C270.005 308.35 271.174 309.67 272.565 310.727C273.957 311.784 275.543 312.556 277.233 312.999C278.923 313.443 280.684 313.548 282.415 313.311C284.145 313.073 285.813 312.496 287.32 311.613C290.307 309.854 292.497 307.008 293.436 303.671C294.989 296.425 296.549 289.179 298.115 281.932C300.365 271.455 302.627 260.983 304.902 250.518L317.207 252.177L320.898 252.68Z" fill="#DE9483" stroke="black" stroke-miterlimit="10"/>
<path d="M396.685 316.591C395.668 313.295 393.497 310.476 390.57 308.649L373.213 297.463L349.33 282.193C351.605 277.066 353.861 271.958 356.135 266.849L357.869 262.934C358.823 261.457 359.364 259.751 359.435 257.994C359.837 256.24 359.759 254.412 359.211 252.699C358.263 249.367 356.075 246.525 353.096 244.756C351.562 243.862 349.865 243.282 348.104 243.052C346.344 242.821 344.555 242.945 342.842 243.414C341.179 243.851 339.62 244.615 338.256 245.662C336.893 246.709 335.751 248.017 334.9 249.511L322.874 276.675C322.297 277.961 321.719 279.266 321.159 280.571C320.191 282.043 319.643 283.751 319.574 285.512C319.179 287.267 319.263 289.095 319.817 290.807C320.832 294.104 322.995 296.928 325.913 298.768L343.271 309.861L370.826 327.461L377.147 331.506C378.655 332.389 380.322 332.966 382.053 333.203C383.784 333.441 385.544 333.335 387.234 332.892C388.924 332.449 390.51 331.677 391.902 330.62C393.293 329.563 394.463 328.242 395.343 326.733C397.116 323.664 397.599 320.016 396.685 316.591Z" fill="#DE9483" stroke="black" stroke-miterlimit="10"/>
<path d="M365.55 234.204C362.902 230.084 360.647 226.858 360.647 226.858C360.647 226.858 320.32 221.824 316.572 218.636C316.572 218.636 324.03 228.424 317.933 236.385C313.515 242.183 310.905 247.031 310.476 252.866C310.364 253.724 309.152 264.053 312.135 264.053C312.135 264.053 318.716 258.459 326.808 259.373C334.899 260.287 349.628 264.109 357.962 262.17C366.296 260.231 373.548 254.712 373.921 250.61C374.107 248.075 369.409 240.189 365.55 234.204Z" fill="#191831" stroke="black" stroke-miterlimit="10"/>
<path d="M354.103 221.657C349.311 222.682 345.489 223.652 345.489 223.652C345.489 223.652 326.603 259.634 322.296 262.021C322.296 262.021 334.061 258.497 339.393 266.999C343.252 273.17 346.85 277.309 352.164 279.807C352.947 280.198 362.176 284.971 363.145 282.156C363.145 282.156 360.199 274.009 363.928 266.756C367.657 259.504 376.382 247.068 377.519 238.585C378.657 230.102 376.047 221.396 372.318 219.587C370.099 218.506 361.076 220.147 354.103 221.657Z" fill="#191831" stroke="black" stroke-miterlimit="10"/>
<path d="M331.395 128.158C331.107 127.859 330.839 127.541 330.593 127.207L332.662 129.892C331.155 127.926 329.902 125.777 328.934 123.497L330.276 126.666C329.141 123.926 328.37 121.049 327.983 118.109L328.449 121.651C328.029 118.402 328.029 115.112 328.449 111.863L327.983 115.387C328.492 111.68 329.469 108.053 330.891 104.592L329.549 107.78C330.479 105.601 331.668 103.541 333.091 101.646L331.152 104.406C332.341 102.86 333.719 101.469 335.254 100.267L332.55 102.336C334.167 101.114 335.926 100.093 337.789 99.2972L334.62 100.64C336.738 99.7401 338.962 99.1136 341.238 98.7752L337.696 99.2599C340.35 98.9058 343.04 98.9058 345.694 99.2599L342.171 98.7938C342.525 98.7938 342.898 98.7938 343.252 98.9616C346.715 99.824 350.376 99.3514 353.506 97.6379C356.542 95.8491 358.748 92.9321 359.642 89.5233C360.537 86.1144 360.046 82.4904 358.279 79.4415C356.52 76.4463 353.665 74.2531 350.318 73.3263C346.94 72.5903 343.479 72.3081 340.027 72.4873C336.633 72.6218 333.266 73.1537 329.996 74.0721C326.427 75.076 323.041 76.6432 319.966 78.7144C315.691 81.6585 312.031 85.4074 309.19 89.7515C307.707 92.2275 306.458 94.8365 305.461 97.5447C304.585 99.6872 303.875 101.894 303.335 104.145C302.045 109.227 301.53 114.476 301.807 119.712C302.033 124.023 302.848 128.282 304.23 132.371C306.007 137.764 308.876 142.734 312.657 146.97C314.514 148.82 316.877 150.081 319.448 150.595C322.019 151.108 324.684 150.851 327.11 149.855C329.535 148.86 331.612 147.17 333.081 144.998C334.55 142.826 335.345 140.269 335.366 137.648C335.277 134.099 333.86 130.712 331.395 128.158Z" fill="#DE9483" stroke="black" stroke-miterlimit="10"/>
<path d="M338.367 161.363C341.114 159.698 343.183 157.115 344.207 154.071C345.231 151.027 345.144 147.718 343.961 144.732C341.649 137.287 337.842 130.391 332.774 124.466C332.774 124.466 307.903 120.738 299.215 139.382C299.178 139.326 316.424 173.705 338.367 161.363Z" fill="#263F22" stroke="black" stroke-miterlimit="10"/>
<path d="M320.731 152.567L312.738 157.182L322.172 173.521L330.164 168.907L320.731 152.567Z" fill="#DE9483" stroke="black" stroke-miterlimit="10"/>
<path d="M310.514 159.293C317.835 159.293 323.769 153.358 323.769 146.038C323.769 138.717 317.835 132.782 310.514 132.782C303.193 132.782 297.258 138.717 297.258 146.038C297.258 153.358 303.193 159.293 310.514 159.293Z" fill="#DE9483" stroke="black" stroke-miterlimit="10"/>
<path d="M323.247 142.346H297.78C298.578 139.586 300.252 137.16 302.548 135.433C304.845 133.707 307.64 132.773 310.514 132.773C313.387 132.773 316.182 133.707 318.479 135.433C320.775 137.16 322.449 139.586 323.247 142.346Z" fill="#263F22" stroke="black" stroke-miterlimit="10"/>
<path d="M323.247 142.346H285.4" stroke="black" stroke-width="2" stroke-miterlimit="10"/>
<path d="M311.576 150.475C311.311 151.266 310.887 151.995 310.33 152.616C309.773 153.238 309.095 153.739 308.337 154.088C307.579 154.437 306.757 154.628 305.923 154.648C305.088 154.667 304.259 154.516 303.485 154.203" fill="#DA8489"/>
<path d="M311.576 150.475C311.311 151.266 310.887 151.995 310.33 152.616C309.773 153.238 309.095 153.739 308.337 154.088C307.579 154.437 306.757 154.628 305.923 154.648C305.088 154.667 304.259 154.516 303.485 154.203" stroke="black" stroke-miterlimit="10"/>
<path d="M317.505 144.191C318.344 143.333 319.416 142.739 320.59 142.484C321.763 142.229 322.985 142.324 324.105 142.757C325.225 143.19 326.193 143.942 326.889 144.92C327.586 145.898 327.98 147.059 328.023 148.259C328.065 149.459 327.755 150.645 327.13 151.67C326.506 152.695 325.594 153.514 324.507 154.026C323.421 154.538 322.209 154.72 321.021 154.549C319.832 154.378 318.72 153.863 317.822 153.066" fill="#DE9483"/>
<path d="M317.505 144.191C318.344 143.333 319.416 142.739 320.59 142.484C321.763 142.229 322.985 142.324 324.105 142.757C325.225 143.19 326.193 143.942 326.889 144.92C327.586 145.898 327.98 147.059 328.023 148.259C328.065 149.459 327.755 150.645 327.13 151.67C326.506 152.695 325.594 153.514 324.507 154.026C323.421 154.538 322.209 154.72 321.021 154.549C319.832 154.378 318.72 153.863 317.822 153.066" stroke="black" stroke-miterlimit="10"/>
<path d="M330.071 152.973C330.071 152.973 310.457 163.544 315.883 182.542C321.308 201.54 322.818 189.179 330.071 226.896C330.071 226.896 348.174 238.082 378.638 225.386C378.638 225.386 377.445 152.973 358.13 149.058C338.815 145.142 330.071 152.973 330.071 152.973Z" fill="#263F22" stroke="black" stroke-miterlimit="10"/>
<path d="M355.37 179.652L356.619 179.764L353.245 179.335C355.683 179.647 358.071 180.274 360.348 181.199L357.16 179.894C359.902 181.035 362.484 182.526 364.841 184.332L362.007 182.169C364.59 184.176 366.896 186.514 368.868 189.123L366.706 186.438C368.979 189.416 370.859 192.675 372.299 196.133L370.994 192.945C371.902 195.132 372.528 197.424 372.858 199.769C372.709 198.65 372.579 197.531 372.429 196.394C372.672 198.332 372.672 200.292 372.429 202.23C372.579 201.111 372.728 199.992 372.858 198.855C372.596 200.865 372.076 202.833 371.311 204.709L372.616 201.521C371.726 203.634 370.573 205.626 369.185 207.45L371.348 204.616C369.739 206.719 367.858 208.6 365.755 210.209L368.589 208.047L367.694 208.699C364.631 210.529 362.378 213.455 361.392 216.884C360.542 220.241 361.009 223.797 362.697 226.821C363.557 228.341 364.709 229.676 366.086 230.75C367.463 231.824 369.038 232.615 370.721 233.08C372.405 233.544 374.163 233.671 375.896 233.455C377.629 233.238 379.302 232.682 380.819 231.818C383.731 229.951 386.383 227.706 388.705 225.143C391.002 222.639 393.003 219.881 394.672 216.921C396.457 213.679 397.715 210.174 398.4 206.536C399.345 201.434 399.282 196.196 398.214 191.118C396.925 186.068 394.909 181.232 392.229 176.762C389.563 172.25 386.217 168.175 382.311 164.681C379.099 161.785 375.504 159.345 371.628 157.429C366.56 154.872 361.019 153.387 355.352 153.066C351.828 153.071 348.449 154.473 345.957 156.965C343.466 159.457 342.064 162.835 342.059 166.359C342.084 169.857 343.483 173.205 345.955 175.681C348.484 178.139 351.845 179.556 355.37 179.652Z" fill="#DE9483" stroke="black" stroke-miterlimit="10"/>
<path d="M362.342 207.271L362.326 207.261C360.525 206.221 358.221 206.839 357.181 208.64L354.068 214.033C353.028 215.834 353.645 218.137 355.446 219.177L355.463 219.187C357.264 220.227 359.567 219.609 360.607 217.808L363.721 212.415C364.761 210.614 364.143 208.311 362.342 207.271Z" fill="#DE9483" stroke="black" stroke-miterlimit="10"/>
<path d="M371.131 208.678L371.115 208.668C369.314 207.628 367.01 208.245 365.97 210.047L362.857 215.439C361.817 217.241 362.434 219.544 364.235 220.584L364.252 220.593C366.053 221.633 368.356 221.016 369.396 219.215L372.51 213.822C373.55 212.021 372.932 209.717 371.131 208.678Z" fill="#DE9483" stroke="black" stroke-miterlimit="10"/>
<path d="M378.883 211.521L378.867 211.511C377.065 210.471 374.762 211.089 373.722 212.89L370.608 218.283C369.568 220.084 370.186 222.387 371.987 223.427L372.003 223.437C373.804 224.477 376.108 223.859 377.148 222.058L380.261 216.665C381.301 214.864 380.684 212.561 378.883 211.521Z" fill="#DE9483" stroke="black" stroke-miterlimit="10"/>
<path d="M367.628 236.962C370.392 237.746 373.268 236.141 374.052 233.378C374.836 230.614 373.231 227.738 370.468 226.954L366.629 225.865C363.866 225.081 360.989 226.685 360.205 229.449C359.421 232.213 361.026 235.089 363.79 235.873L367.628 236.962Z" fill="#DE9483" stroke="black" stroke-miterlimit="10"/>
<path d="M355.04 70.1042L355.028 70.0896C353.729 68.4652 351.359 68.2015 349.735 69.5006L344.872 73.3897C343.248 74.6888 342.984 77.0587 344.283 78.6831L344.294 78.6976C345.594 80.322 347.963 80.5857 349.588 79.2867L354.451 75.3975C356.075 74.0985 356.339 71.7286 355.04 70.1042Z" fill="#DE9483" stroke="black" stroke-miterlimit="10"/>
<path d="M362.697 74.6184L362.686 74.6038C361.387 72.9794 359.017 72.7157 357.392 74.0147L352.529 77.9039C350.905 79.203 350.641 81.5728 351.94 83.1972L351.952 83.2118C353.251 84.8362 355.621 85.0999 357.245 83.8008L362.108 79.9117C363.733 78.6126 363.996 76.2427 362.697 74.6184Z" fill="#DE9483" stroke="black" stroke-miterlimit="10"/>
<path d="M368.901 80.0978L368.889 80.0833C367.59 78.4589 365.22 78.1952 363.596 79.4942L358.733 83.3834C357.108 84.6824 356.845 87.0523 358.144 88.6767L358.155 88.6913C359.454 90.3157 361.824 90.5794 363.449 89.2803L368.312 85.3912C369.936 84.0921 370.2 81.7222 368.901 80.0978Z" fill="#DE9483" stroke="black" stroke-miterlimit="10"/>
<path d="M349.138 99.7694C351.427 101.506 354.69 101.058 356.426 98.7698C358.163 96.4812 357.715 93.2183 355.427 91.4818L352.248 89.0701C349.96 87.3336 346.697 87.7812 344.96 90.0698C343.224 92.3583 343.671 95.6212 345.96 97.3577L349.138 99.7694Z" fill="#DE9483" stroke="black" stroke-miterlimit="10"/>
<path d="M330.071 155.695C328.506 158.491 327.981 161.75 328.588 164.896C329.195 168.042 330.896 170.872 333.389 172.884C340.026 178.925 350.579 179.223 357.831 181.945C357.831 181.945 376.475 176.203 375.021 155.695C375.021 155.695 343.14 134.236 330.071 155.695Z" fill="#263F22" stroke="black" stroke-miterlimit="10"/>
<path d="M299.681 280.907L291.161 318.027L240.04 305.759C240.234 303.18 240.583 300.615 241.084 298.078C242.295 291.888 244.812 283.815 249.884 281.429C258.46 277.383 266.532 286.798 266.532 286.798L272.126 274.456L299.681 280.907Z" fill="white" stroke="black" stroke-miterlimit="10"/>
<path d="M292.895 310.439L291.161 318.027L240.04 305.759C240.246 303.181 240.594 300.617 241.084 298.078C241.177 297.668 241.251 297.257 241.345 296.829L292.895 310.439Z" stroke="black" stroke-miterlimit="10"/>
<path d="M263.438 294.573C264.993 292.123 265.874 289.306 265.992 286.407H266.98C267.885 288.391 268.404 290.53 268.509 292.708" stroke="black" stroke-miterlimit="10"/>
<path d="M375.301 298.302L407.499 317.766L380.074 361.896C377.723 360.913 375.432 359.792 373.213 358.54C367.769 355.501 360.982 350.635 360.311 345.154C359.155 335.832 370.491 331.19 370.491 331.19L360.666 322.11L375.301 298.302Z" fill="white" stroke="black" stroke-miterlimit="10"/>
<path d="M400.936 313.757L407.517 317.728L380.092 361.858C377.743 360.871 375.453 359.751 373.231 358.503L372.131 357.869L400.936 313.757Z" stroke="black" stroke-miterlimit="10"/>
<path d="M376.941 336.465C375.124 334.254 372.758 332.557 370.081 331.543L370.36 330.611C372.5 330.383 374.663 330.56 376.736 331.133" stroke="black" stroke-miterlimit="10"/>
<path d="M125.566 317.561L114.809 341.499L162.406 359.267C163.486 357.97 164.288 356.465 164.762 354.845C165.236 353.225 165.373 351.526 165.163 349.851C164.953 348.176 164.402 346.563 163.543 345.11C162.684 343.658 161.535 342.397 160.169 341.406C150.101 332.904 149.188 335.142 150.344 324.738L125.566 317.561Z" fill="white" stroke="black" stroke-miterlimit="10"/>
<path d="M114.79 341.518L162.406 359.267C163.711 357.577 164.616 355.614 165.054 353.525L117.549 335.403L114.79 341.518Z" fill="white" stroke="black" stroke-miterlimit="10"/>
<path d="M137.387 320.451C139.575 321.516 141.925 322.209 144.341 322.501C146.444 323.021 148.63 323.123 150.773 322.8C152.579 322.701 154.32 322.086 155.788 321.029C156.528 320.714 157.197 320.256 157.758 319.68C158.318 319.103 158.757 318.421 159.051 317.673C159.554 316.144 161.157 312.08 161.642 310.607L162.817 307.008L165.427 299.998L172.884 279.807C174.251 276.796 174.779 273.473 174.413 270.187C174.059 268.658 173.686 267.111 173.313 265.563C172.563 263.27 171.226 261.214 169.435 259.597C167.898 257.632 165.864 256.114 163.544 255.197L156.981 253.016L128.531 243.694L110.689 237.765C107.674 236.412 104.354 235.884 101.068 236.236L96.4446 237.355C91.8436 239.119 88.1205 242.621 86.0786 247.106C84.5311 250.429 84.0322 254.144 84.6484 257.758C85.2645 261.372 86.9665 264.712 89.5278 267.334C91.07 269.29 93.1028 270.801 95.4192 271.716L101.963 273.897L130.432 283.331L131.439 283.666C130.992 284.971 130.563 286.221 130.209 287.395C128.866 291.609 126.387 298.302 125.026 302.515C124.203 304.535 124.203 306.797 125.026 308.817L126.722 312.117C129.475 315.791 133.156 318.667 137.387 320.451Z" fill="#191831" stroke="black" stroke-miterlimit="10"/>
<path d="M128.475 311.11L151.892 319.667L155.266 320.898C156.545 321.484 157.543 322.55 158.041 323.865C158.54 325.181 158.501 326.64 157.932 327.927C157.328 329.19 156.261 330.171 154.952 330.668C153.643 331.164 152.193 331.137 150.904 330.593L127.468 322.035L124.112 320.805C122.83 320.223 121.83 319.157 121.33 317.84C120.83 316.523 120.872 315.062 121.446 313.776C122.05 312.513 123.118 311.532 124.427 311.035C125.736 310.539 127.185 310.565 128.475 311.11Z" fill="#51654E" stroke="black" stroke-miterlimit="10"/>
<path d="M34.3049 272.2H8.01709L11.3357 322.893C12.9602 323.345 14.66 323.459 16.3305 323.23C18.001 323.001 19.6068 322.432 21.0493 321.559C22.4918 320.685 23.7404 319.526 24.7183 318.153C25.6961 316.779 26.3826 315.22 26.7355 313.571C30.3524 300.893 27.9287 300.986 37.9218 297.761L34.3049 272.2Z" fill="white" stroke="black" stroke-miterlimit="10"/>
<path d="M8.01709 272.2L11.3357 322.893C13.4216 323.371 15.5887 323.371 17.6746 322.893L14.7475 272.2H8.01709Z" fill="white" stroke="black" stroke-miterlimit="10"/>
<path d="M152.469 155.639C157.34 155.639 161.288 151.691 161.288 146.821C161.288 141.95 157.34 138.002 152.469 138.002C147.599 138.002 143.651 141.95 143.651 146.821C143.651 151.691 147.599 155.639 152.469 155.639Z" fill="#263F22" stroke="black" stroke-miterlimit="10"/>
<path d="M36.5233 284.095C36.4512 286.526 36.7852 288.952 37.5114 291.273C37.8935 293.406 38.6985 295.441 39.8792 297.258C40.7169 298.882 42.0136 300.224 43.6079 301.117C44.1995 301.661 44.8927 302.083 45.6478 302.358C46.4029 302.633 47.205 302.756 48.0079 302.72C49.5926 302.534 53.918 302.366 55.4654 302.18L59.1942 301.788L66.6517 301.303L88.1481 299.83C91.4259 299.831 94.6443 298.956 97.47 297.295L101.199 294.386C104.518 290.782 106.453 286.119 106.661 281.224C106.419 278.931 106.177 276.637 105.953 274.344L102.877 244.514C102.23 238.299 101.609 232.085 101.012 225.87C101.003 222.591 100.122 219.374 98.4581 216.548L95.5497 212.82C92.0473 209.345 87.3209 207.383 82.3871 207.357C77.4898 207.556 72.8234 209.492 69.2246 212.82C65.9123 216.426 63.9838 221.089 63.7806 225.982C64.0043 228.257 64.2467 230.55 64.489 232.843L67.5653 262.673C67.5653 263.027 67.5653 263.363 67.6585 263.717L63.8179 264.109C59.4179 264.612 52.296 265.097 47.896 265.582C45.7145 265.642 43.6447 266.56 42.1351 268.136C41.352 269.087 40.5876 270 39.8232 271.026C37.588 275.014 36.4494 279.524 36.5233 284.095Z" fill="#191831" stroke="black" stroke-miterlimit="10"/>
<path d="M173.724 209.203C175.482 211.854 178.192 213.73 181.293 214.442C184.161 214.903 187.058 215.171 189.962 215.243C194.761 215.337 199.554 214.868 204.244 213.845C206.463 213.417 208.641 212.793 210.75 211.981C213.938 210.798 216.994 209.286 219.867 207.469C220.933 206.776 221.954 206.016 222.925 205.194C224.718 203.749 226.418 202.193 228.014 200.533C229.554 198.77 230.968 196.901 232.247 194.94C233.087 193.697 233.847 192.402 234.521 191.062C237.537 184.783 239.37 178.001 239.928 171.057V170.442C240.133 168.279 240.245 166.098 240.263 163.917C240.263 163.637 240.263 163.376 240.263 163.078C240.263 162.779 240.263 162.481 240.263 162.183C240.187 159.583 239.932 156.992 239.499 154.427C238.799 151.259 236.87 148.499 234.137 146.751C231.404 145.003 228.089 144.411 224.92 145.105C222.725 145.661 220.701 146.749 219.028 148.275C218.373 148.881 217.808 149.577 217.35 150.344C215.697 152.974 215.036 156.108 215.486 159.181C215.486 159.349 215.486 159.517 215.486 159.703C215.594 160.202 215.675 160.706 215.728 161.213C215.728 160.977 215.728 160.716 215.728 160.43L215.84 161.661V161.213C215.84 162.332 215.933 163.451 215.84 164.569C215.84 164.905 215.84 165.24 215.84 165.557C215.84 166.415 215.84 167.254 215.747 168.112L215.915 166.508C215.821 167.571 215.728 168.634 215.654 169.696C215.467 170.722 215.281 171.747 215.076 172.773C215.187 172.213 215.281 171.635 215.374 171.076C215.382 171.206 215.382 171.337 215.374 171.468C215.03 173.512 214.545 175.531 213.92 177.508C214.106 177.061 214.293 176.595 214.46 176.128L213.379 179.093C213.565 178.589 213.733 178.086 213.901 177.564C213.195 179.285 212.347 180.943 211.366 182.523L211.869 181.871L210.564 183.735L211.366 182.486C210.482 183.624 209.516 184.696 208.476 185.693L209.65 184.742L207.283 186.774C207.693 186.439 208.084 186.066 208.476 185.693C207.233 186.645 205.917 187.499 204.542 188.247L205.269 187.949L203.125 188.974C203.61 188.75 204.076 188.508 204.542 188.247C202.437 189.15 200.252 189.855 198.017 190.354L199.713 190.055L196.488 190.671L198.017 190.354L196.264 190.577C193.553 190.879 190.821 190.948 188.098 190.783L188.993 190.894L187.315 190.745C187.576 190.764 187.837 190.764 188.098 190.745C187.595 190.745 187.073 190.633 186.569 190.54C183.361 189.912 180.035 190.511 177.247 192.218C176.661 192.564 176.117 192.977 175.625 193.449C173.873 195.217 172.647 197.438 172.083 199.862C171.381 203.07 171.97 206.426 173.724 209.203Z" fill="#DE9483"/>
<path d="M208.476 185.693C209.516 184.696 210.482 183.624 211.366 182.486L210.564 183.735L211.869 181.871L211.366 182.523C212.347 180.943 213.195 179.285 213.901 177.564C213.733 178.086 213.565 178.589 213.379 179.093L214.46 176.128C214.293 176.595 214.106 177.061 213.92 177.508C214.545 175.531 215.03 173.512 215.374 171.468C215.383 171.337 215.383 171.206 215.374 171.076C215.281 171.635 215.187 172.213 215.076 172.773C215.281 171.747 215.467 170.722 215.654 169.696C215.728 168.634 215.821 167.571 215.915 166.508L215.747 168.112C215.84 167.254 215.84 166.415 215.84 165.557C215.84 165.24 215.84 164.905 215.84 164.569C215.933 163.451 215.84 162.332 215.84 161.213V161.661L215.728 160.43C215.728 160.716 215.728 160.977 215.728 161.213C215.675 160.706 215.594 160.202 215.486 159.703C215.486 159.517 215.486 159.349 215.486 159.181C215.036 156.108 215.697 152.974 217.35 150.344C217.808 149.577 218.373 148.881 219.028 148.275C220.701 146.749 222.725 145.661 224.92 145.105C228.089 144.411 231.404 145.003 234.137 146.751C236.87 148.499 238.799 151.259 239.499 154.427C239.932 156.992 240.187 159.583 240.263 162.183C240.263 162.481 240.263 162.779 240.263 163.078C240.263 163.376 240.263 163.637 240.263 163.917C240.245 166.098 240.133 168.279 239.928 170.442V171.057C239.37 178.001 237.537 184.783 234.521 191.062C233.847 192.402 233.087 193.697 232.247 194.94C230.968 196.901 229.554 198.77 228.014 200.533C226.418 202.193 224.718 203.749 222.925 205.194C221.954 206.016 220.933 206.776 219.867 207.469C216.994 209.286 213.938 210.798 210.75 211.981C208.641 212.793 206.463 213.417 204.244 213.845C199.554 214.868 194.761 215.337 189.962 215.243C187.058 215.171 184.161 214.903 181.293 214.442C178.192 213.73 175.482 211.854 173.724 209.203C171.97 206.426 171.381 203.07 172.083 199.862C172.647 197.438 173.873 195.217 175.625 193.449C176.117 192.977 176.661 192.564 177.247 192.218C180.035 190.511 183.361 189.912 186.569 190.54C187.073 190.633 187.595 190.745 188.098 190.745C187.837 190.764 187.576 190.764 187.315 190.745L188.993 190.894L188.098 190.783C190.821 190.948 193.553 190.879 196.264 190.577L198.017 190.354M208.476 185.693L209.65 184.742L207.283 186.774C207.693 186.439 208.084 186.066 208.476 185.693ZM208.476 185.693C207.233 186.645 205.917 187.499 204.542 188.247M204.542 188.247L205.269 187.949L203.125 188.974C203.61 188.75 204.076 188.508 204.542 188.247ZM204.542 188.247C202.437 189.15 200.252 189.855 198.017 190.354M198.017 190.354L199.713 190.055L196.488 190.671L198.017 190.354Z" stroke="black" stroke-miterlimit="10"/>
<path d="M223.99 132.021C223.652 129.106 221.014 127.017 218.099 127.355C215.184 127.694 213.096 130.331 213.434 133.246L215.686 152.654C216.025 155.569 218.662 157.658 221.577 157.32C224.492 156.982 226.581 154.344 226.242 151.429L223.99 132.021Z" fill="#DE9483" stroke="black" stroke-miterlimit="10"/>
<path d="M240.394 163.283C240.414 162.91 240.414 162.537 240.394 162.164C240.394 162.462 240.394 162.761 240.394 163.059C240.394 163.357 240.394 163.618 240.394 163.898V163.283Z" fill="#DE9483" stroke="black" stroke-miterlimit="10"/>
<path d="M240.394 163.917C240.394 166.098 240.263 168.28 240.058 170.442C240.31 168.277 240.422 166.097 240.394 163.917Z" fill="#DE9483" stroke="black" stroke-miterlimit="10"/>
<path d="M234.782 165.818C235.254 166.694 235.995 167.395 236.896 167.818C237.797 168.24 238.809 168.363 239.785 168.166C240.76 167.97 241.646 167.465 242.313 166.727C242.98 165.989 243.392 165.056 243.489 164.066L244.384 154.595C244.44 153.988 244.376 153.377 244.196 152.796C244.015 152.214 243.722 151.674 243.332 151.206C242.942 150.739 242.464 150.352 241.925 150.07C241.385 149.788 240.795 149.615 240.189 149.561H239.76C239.12 149.543 238.484 149.664 237.896 149.915V150.12L236.777 161.903C236.658 163.421 235.94 164.829 234.782 165.818Z" fill="#DE9483" stroke="black" stroke-miterlimit="10"/>
<path d="M230.456 167.18C232.005 167.32 233.547 166.842 234.745 165.85C235.943 164.858 236.7 163.433 236.851 161.885L237.97 150.102V149.897C238.059 148.383 237.556 146.893 236.569 145.742C235.581 144.591 234.185 143.868 232.675 143.726H232.116C230.657 143.728 229.251 144.274 228.172 145.256C227.094 146.238 226.419 147.587 226.28 149.039L225.18 160.822C225.04 162.364 225.517 163.899 226.506 165.09C227.494 166.282 228.915 167.033 230.456 167.18Z" fill="#DE9483" stroke="black" stroke-miterlimit="10"/>
<path d="M225.229 161.134C227.635 161.696 230.041 160.204 230.601 157.803C231.162 155.401 229.665 152.999 227.259 152.437L216.202 149.856C213.796 149.294 211.39 150.786 210.83 153.187C210.269 155.589 211.765 157.991 214.172 158.553L225.229 161.134Z" fill="#DE9483" stroke="black" stroke-miterlimit="10"/>
<path d="M152.879 207.059C152.879 207.059 158.323 217.425 193.169 222.142C193.169 222.142 206.219 210.955 200.403 180.007C200.403 180.007 183.623 189.328 155.564 174.152C155.564 174.152 138.859 181.349 152.879 207.059Z" fill="#51654E" stroke="black" stroke-miterlimit="10"/>
<path d="M96.3887 186.14L97.2463 186.345L98.0293 186.476L96.3887 186.14Z" fill="#4A3E8D" stroke="black" stroke-miterlimit="10"/>
<path d="M85.6499 185.618C86.2092 185.618 86.7872 185.618 87.3651 185.618L88.9126 185.488L85.6499 185.618Z" fill="#4A3E8D" stroke="black" stroke-miterlimit="10"/>
<path d="M79.1245 187.277C79.6093 187.116 80.1126 186.967 80.6347 186.83C81.1194 186.625 81.6228 186.438 82.1262 186.271L79.1245 187.277Z" fill="#4A3E8D" stroke="black" stroke-miterlimit="10"/>
<path d="M75.1348 189.683C75.5636 189.384 75.9924 189.123 76.4398 188.862L77.7449 187.949L75.1348 189.683Z" fill="#4A3E8D" stroke="black" stroke-miterlimit="10"/>
<path d="M72.0024 192.889C72.3753 192.479 72.7482 192.069 73.1397 191.696L74.0905 190.559L72.0024 192.889Z" fill="#4A3E8D" stroke="black" stroke-miterlimit="10"/>
<path d="M69.2617 197.625C69.4818 197.178 69.7245 196.742 69.9888 196.32C70.2126 195.835 70.4363 195.332 70.6973 194.866L69.2617 197.625Z" fill="#4A3E8D" stroke="black" stroke-miterlimit="10"/>
<path d="M66.8757 205.474C66.9689 204.933 67.0808 204.393 67.1927 203.852L66.5215 207.059C66.6333 206.537 66.7639 205.996 66.8757 205.474Z" fill="#4A3E8D" stroke="black" stroke-miterlimit="10"/>
<path d="M121.203 163.022C121.203 163.022 159.218 167.124 168.727 187.949C178.235 208.774 121.203 244.514 121.203 244.514C121.203 244.514 66.4465 248.784 55.5771 207.059C44.7077 165.334 121.203 163.022 121.203 163.022Z" fill="#263F22" stroke="black" stroke-miterlimit="10"/>
<path d="M149.297 181.52L149.313 181.53C151.515 182.801 154.332 182.047 155.603 179.844L160.432 171.48C161.704 169.278 160.949 166.461 158.746 165.19L158.73 165.18C156.528 163.909 153.711 164.663 152.44 166.866L147.611 175.23C146.339 177.432 147.094 180.249 149.297 181.52Z" fill="#DA8489" stroke="black" stroke-miterlimit="10"/>
<path d="M161.288 173.332C168.609 173.332 174.544 167.397 174.544 160.076C174.544 152.755 168.609 146.82 161.288 146.82C153.967 146.82 148.032 152.755 148.032 160.076C148.032 167.397 153.967 173.332 161.288 173.332Z" fill="#DA8489" stroke="black" stroke-miterlimit="10"/>
<path d="M148.629 156.124L150.009 156.385C157.112 157.392 155.602 164.868 161.288 158.902C165.017 155.061 170.386 155.173 173.779 155.658C172.852 153.034 171.122 150.768 168.834 149.182C166.547 147.597 163.819 146.771 161.036 146.823C158.253 146.874 155.558 147.8 153.331 149.47C151.104 151.139 149.459 153.467 148.629 156.124Z" fill="#263F22" stroke="black" stroke-miterlimit="10"/>
<path d="M160.225 164.513C160.492 165.303 160.918 166.03 161.475 166.65C162.033 167.27 162.711 167.77 163.468 168.119C164.226 168.468 165.046 168.659 165.88 168.68C166.713 168.701 167.542 168.552 168.317 168.242" fill="#DA8489"/>
<path d="M160.225 164.513C160.492 165.303 160.918 166.03 161.475 166.65C162.033 167.27 162.711 167.77 163.468 168.119C164.226 168.468 165.046 168.659 165.88 168.68C166.713 168.701 167.542 168.552 168.317 168.242" stroke="black" stroke-miterlimit="10"/>
<path d="M154.39 158.231C153.825 157.642 153.148 157.174 152.398 156.854C151.649 156.533 150.842 156.368 150.027 156.366C148.4 156.366 146.84 157.012 145.69 158.163C144.539 159.313 143.893 160.873 143.893 162.5C143.893 164.127 144.539 165.687 145.69 166.837C146.84 167.988 148.4 168.634 150.027 168.634C151.52 168.636 152.962 168.085 154.073 167.086" fill="#DA8489"/>
<path d="M154.39 158.231C153.825 157.642 153.148 157.174 152.398 156.854C151.649 156.533 150.842 156.368 150.027 156.366C148.4 156.366 146.84 157.012 145.69 158.163C144.539 159.313 143.893 160.873 143.893 162.5C143.893 164.127 144.539 165.687 145.69 166.837C146.84 167.988 148.4 168.634 150.027 168.634C151.52 168.636 152.962 168.085 154.073 167.086" stroke="black" stroke-miterlimit="10"/>
<path d="M41.3892 272.2C41.9858 280.491 42.6073 288.787 43.2536 297.09L43.5146 300.651C43.5 302.06 42.9336 303.408 41.9368 304.405C40.9399 305.402 39.5921 305.968 38.1825 305.983C36.7834 305.941 35.4536 305.365 34.4657 304.373C33.4777 303.382 32.9064 302.05 32.869 300.651C32.2724 292.373 31.6509 284.083 31.0046 275.78L30.7622 272.2C30.772 270.794 31.3349 269.448 32.3293 268.454C33.3236 267.459 34.6695 266.896 36.0757 266.887C37.4745 266.92 38.8069 267.49 39.7962 268.48C40.7856 269.469 41.356 270.801 41.3892 272.2Z" fill="#51654E" stroke="black" stroke-miterlimit="10"/>
<path d="M29.3267 204.299L161.101 255.663L189.608 251.301L171.579 228.797L39.8045 177.434L29.3267 204.299Z" fill="white" stroke="black" stroke-miterlimit="10"/>
<path d="M169.211 234.857L41.0908 184.91" stroke="black" stroke-miterlimit="10"/>
<path d="M166.639 241.475L38.4995 191.528" stroke="black" stroke-miterlimit="10"/>
<path d="M163.469 249.604L35.3486 199.638" stroke="black" stroke-miterlimit="10"/>
<path d="M22.5426 189.624L24.8926 183.597C27.1368 177.841 24.2899 171.356 18.5339 169.111L18.5165 169.105C12.7605 166.86 6.27505 169.707 4.03088 175.463L1.68085 181.491C-0.563323 187.247 2.28358 193.732 8.0396 195.976L8.05696 195.983C13.813 198.227 20.2984 195.381 22.5426 189.624Z" fill="#D46875" stroke="black" stroke-miterlimit="10"/>
<path d="M33.381 204.621L43.0249 179.886C43.7131 178.121 42.84 176.132 41.0748 175.444L24.2951 168.902C22.53 168.213 20.5411 169.087 19.8529 170.852L10.209 195.587C9.52074 197.352 10.3938 199.341 12.159 200.029L28.9387 206.571C30.7039 207.26 32.6928 206.387 33.381 204.621Z" fill="white" stroke="black" stroke-miterlimit="10"/>
<path d="M171.579 228.797L185.189 245.782L189.608 251.3L161.102 255.663L171.579 228.797Z" fill="#D46875" stroke="black" stroke-miterlimit="10"/>
<path d="M181.89 252.475L189.608 251.301L185.19 245.782L184.724 245.204L181.89 252.475Z" fill="black" stroke="black" stroke-miterlimit="10"/>
<path d="M42.0607 210.191L42.7691 219.196C42.8531 220.149 43.2751 221.04 43.959 221.709C44.6428 222.378 45.5434 222.781 46.498 222.844C47.4526 222.907 48.3982 222.626 49.1641 222.053C49.93 221.48 50.4656 220.651 50.6741 219.718C50.6741 219.364 51.1402 219.848 51.1402 219.848L51.4012 220.669C51.7226 221.678 52.4305 222.519 53.3703 223.009C54.3101 223.498 55.4052 223.595 56.4164 223.279C58.1317 222.719 59.1944 219.364 59.213 219.364L60.2571 222.664C60.2901 222.82 60.3466 222.971 60.4249 223.111C60.4162 223.254 60.4162 223.397 60.4249 223.54C60.6434 224.216 61.0687 224.806 61.6407 225.228C62.2127 225.649 62.9025 225.88 63.613 225.889C63.9615 225.888 64.3076 225.831 64.6384 225.721L69.6722 224.136C70.3744 223.915 70.9836 223.468 71.4052 222.864C71.8267 222.261 72.0368 221.535 72.0027 220.799L67.4163 219.065L67.0434 217.928L65.4401 212.54C65.8713 211.39 66.1715 210.196 66.335 208.979C66.4841 207.804 66.6706 206.648 66.8756 205.474C66.7451 205.996 66.6333 206.537 66.5214 207.059C66.7451 205.996 66.9875 204.915 67.1926 203.852C67.0807 204.393 66.9875 204.915 66.8756 205.474C67.6096 202.34 68.6525 199.286 69.9892 196.357C69.7282 196.786 69.5044 197.215 69.2621 197.662L70.6976 194.847C70.4552 195.313 70.2315 195.798 69.9892 196.301C70.9098 194.681 71.9637 193.141 73.14 191.696C72.9349 191.883 72.7484 192.088 72.562 192.274L74.0908 190.559L73.14 191.696C74.154 190.669 75.2515 189.727 76.4213 188.881C75.9738 189.123 75.545 189.403 75.1162 189.664L77.7264 187.949C77.2789 188.247 76.8501 188.545 76.4213 188.881C77.8004 188.079 79.2404 187.387 80.728 186.811L79.2179 187.277L81.4551 186.532L80.728 186.811C82.9282 186.185 85.1811 185.761 87.4584 185.544H85.7246L89.0059 185.357L87.4584 185.469H89.211C91.938 185.512 94.6568 185.781 97.3397 186.271L96.4821 186.066L98.1041 186.42C97.8535 186.351 97.598 186.301 97.3397 186.271C97.8443 186.379 98.3423 186.516 98.8312 186.681C101.948 187.706 105.336 187.519 108.321 186.159C110.484 185.106 112.287 183.438 113.506 181.364C114.724 179.291 115.303 176.903 115.169 174.501C115.036 172.1 114.196 169.791 112.756 167.865C111.315 165.939 109.338 164.481 107.072 163.674H106.979C104.196 162.839 101.354 162.216 98.477 161.81C93.7373 161.108 88.9317 160.964 84.1585 161.381C81.9031 161.528 79.6642 161.865 77.4653 162.388C74.1541 163.152 70.935 164.271 67.8638 165.725C66.7123 166.274 65.5975 166.897 64.5265 167.59C62.5749 168.786 60.7063 170.113 58.9333 171.561C57.1806 173.152 55.5363 174.858 54.0114 176.669C53.0204 177.795 52.1049 178.984 51.2707 180.23C46.1991 188.362 43.0491 197.544 42.0607 207.077C41.8821 208.107 41.8821 209.161 42.0607 210.191Z" fill="#DE9483"/>
<path d="M66.8756 205.474C66.6706 206.648 66.4841 207.804 66.335 208.979C66.1715 210.196 65.8713 211.39 65.4401 212.54L67.0434 217.928L67.4163 219.065L72.0027 220.799C72.0368 221.535 71.8267 222.261 71.4052 222.864C70.9836 223.468 70.3744 223.915 69.6722 224.136L64.6384 225.721C64.3076 225.831 63.9615 225.888 63.613 225.889C62.9025 225.88 62.2127 225.649 61.6407 225.228C61.0687 224.806 60.6434 224.216 60.4249 223.54C60.4162 223.397 60.4162 223.254 60.4249 223.111C60.3466 222.971 60.2901 222.82 60.2571 222.664L59.213 219.364C59.1944 219.364 58.1317 222.719 56.4164 223.279C55.4052 223.595 54.3101 223.498 53.3703 223.009C52.4305 222.519 51.7226 221.678 51.4012 220.669L51.1402 219.848C51.1402 219.848 50.6741 219.364 50.6741 219.718C50.4656 220.651 49.93 221.48 49.1641 222.053C48.3982 222.626 47.4526 222.907 46.498 222.844C45.5434 222.781 44.6428 222.378 43.959 221.709C43.2751 221.04 42.8531 220.149 42.7691 219.196L42.0607 210.191C41.8821 209.161 41.8821 208.107 42.0607 207.077C43.0491 197.544 46.1991 188.362 51.2707 180.23C52.1049 178.984 53.0204 177.795 54.0114 176.669C55.5363 174.858 57.1806 173.152 58.9333 171.561C60.7063 170.113 62.5749 168.786 64.5265 167.59C65.5975 166.897 66.7123 166.274 67.8638 165.725C70.935 164.271 74.1541 163.152 77.4653 162.388C79.6642 161.865 81.9031 161.528 84.1585 161.381C88.9317 160.964 93.7373 161.108 98.477 161.81C101.354 162.216 104.196 162.839 106.979 163.674H107.072C109.338 164.481 111.315 165.939 112.756 167.865C114.196 169.791 115.036 172.1 115.169 174.501C115.303 176.903 114.724 179.291 113.506 181.364C112.287 183.438 110.484 185.106 108.321 186.159C105.336 187.519 101.948 187.706 98.8312 186.681C98.3423 186.516 97.8443 186.379 97.3397 186.271M66.8756 205.474C66.7451 205.996 66.6333 206.537 66.5214 207.059C66.7451 205.996 66.9875 204.915 67.1926 203.852C67.0807 204.393 66.9875 204.915 66.8756 205.474ZM66.8756 205.474C67.6096 202.34 68.6525 199.286 69.9892 196.357C69.7282 196.786 69.5044 197.215 69.2621 197.662L70.6976 194.847C70.4552 195.313 70.2315 195.798 69.9892 196.301C70.9098 194.681 71.9637 193.141 73.14 191.696M73.14 191.696C72.9349 191.883 72.7484 192.088 72.562 192.274L74.0908 190.559L73.14 191.696ZM73.14 191.696C74.154 190.669 75.2515 189.727 76.4213 188.881M76.4213 188.881C75.9738 189.123 75.545 189.403 75.1162 189.664L77.7264 187.949C77.2789 188.247 76.8501 188.545 76.4213 188.881ZM76.4213 188.881C77.8004 188.079 79.2404 187.387 80.728 186.811M80.728 186.811L79.2179 187.277L81.4551 186.532L80.728 186.811ZM80.728 186.811C82.9282 186.185 85.1811 185.761 87.4584 185.544H85.7246L89.0059 185.357L87.4584 185.469H89.211C91.938 185.512 94.6568 185.781 97.3397 186.271M97.3397 186.271L96.4821 186.066L98.1041 186.42C97.8535 186.351 97.598 186.301 97.3397 186.271Z" stroke="black" stroke-miterlimit="10"/>
<path d="M85.6497 155.453C85.6497 155.453 77.2413 184.537 85.6497 198.911C85.6497 198.911 95.4004 190.093 117.587 193.561C139.773 197.028 143.39 164.793 122.564 160.99C101.739 157.187 85.6497 155.453 85.6497 155.453Z" fill="#51654E" stroke="black" stroke-miterlimit="10"/>
</g>
<defs>
<clipPath id="clip0_374_2408">
<rect width="438" height="363.033" fill="white"/>
</clipPath>
</defs>
</svg>
