<?xml version="1.0" standalone="no"?>
<!DOCTYPE svg PUBLIC "-//W3C//DTD SVG 20010904//EN"
 "http://www.w3.org/TR/2001/REC-SVG-20010904/DTD/svg10.dtd">
<svg version="1.0" xmlns="http://www.w3.org/2000/svg"
 width="512.000000pt" height="512.000000pt" viewBox="0 0 512.000000 512.000000"
 preserveAspectRatio="xMidYMid meet">

<g transform="translate(0.000000,512.000000) scale(0.100000,-0.100000)"
fill="#000000" stroke="none">
<path d="M2356 4894 c-9 -8 -16 -18 -16 -21 0 -8 -70 -426 -75 -448 -3 -15
-25 -27 -92 -48 -48 -15 -138 -53 -200 -83 l-111 -55 -197 141 c-108 77 -206
140 -218 140 -13 0 -73 -52 -170 -148 -115 -114 -150 -155 -149 -174 0 -17 46
-91 136 -216 75 -105 136 -195 136 -200 0 -5 -20 -49 -45 -98 -25 -49 -61
-136 -79 -194 -19 -57 -39 -106 -45 -108 -5 -2 -112 -20 -236 -41 -160 -27
-231 -43 -243 -55 -15 -15 -17 -43 -17 -231 0 -142 4 -218 11 -225 6 -6 118
-29 250 -51 131 -22 241 -43 244 -47 3 -4 20 -52 38 -108 18 -55 52 -140 77
-189 25 -48 45 -92 45 -97 0 -5 -63 -97 -140 -205 -107 -150 -139 -201 -134
-217 9 -33 297 -316 321 -316 12 0 110 63 218 141 l198 140 96 -49 c53 -27
143 -64 199 -83 80 -26 104 -38 107 -54 5 -22 75 -440 75 -448 0 -3 7 -13 16
-21 11 -12 36 -16 95 -16 l79 0 0 -75 0 -75 -309 0 c-340 0 -327 2 -338 -64
l-6 -36 -111 0 -112 0 -74 75 -74 75 -191 0 -190 0 -17 29 c-71 126 -268 68
-268 -79 0 -147 197 -205 268 -79 l17 29 170 0 171 0 74 -75 74 -75 133 0 133
0 0 -75 0 -75 -152 0 -153 0 -17 29 c-71 126 -268 68 -268 -79 0 -147 197
-205 268 -79 l17 29 153 0 152 0 0 -75 0 -75 -183 0 -183 0 -74 -75 -74 -75
-151 0 c-162 0 -175 -4 -175 -50 0 -47 12 -50 195 -50 l171 0 74 75 74 75 162
0 161 0 6 -36 c11 -69 -39 -64 702 -64 741 0 691 -5 702 64 l6 36 161 0 162 0
74 -75 74 -75 171 0 c183 0 195 3 195 50 0 46 -13 50 -175 50 l-151 0 -74 75
-74 75 -183 0 -183 0 0 75 0 75 153 0 152 0 17 -29 c71 -126 268 -68 268 79 0
147 -197 205 -268 79 l-17 -29 -152 0 -153 0 0 75 0 75 133 0 133 0 74 75 74
75 171 0 170 0 17 -29 c71 -126 268 -68 268 79 0 147 -197 205 -268 79 l-17
-29 -190 0 -191 0 -74 -75 -74 -75 -112 0 -111 0 -6 36 c-11 66 2 64 -338 64
l-309 0 0 75 0 75 79 0 c59 0 84 4 95 16 9 8 16 18 16 21 0 8 70 426 75 449 3
16 25 26 96 49 50 15 140 52 200 82 l108 53 196 -140 c108 -77 206 -140 218
-140 13 0 73 52 170 148 115 114 150 155 150 174 0 17 -47 91 -137 216 -75
105 -136 195 -136 201 0 5 21 51 47 102 25 51 61 137 78 191 18 54 34 100 36
103 3 2 112 22 243 44 132 22 244 45 250 51 7 7 11 83 11 225 0 188 -2 216
-17 231 -12 12 -83 28 -243 55 -124 21 -231 39 -236 41 -6 2 -25 49 -43 104
-18 55 -54 142 -79 193 -26 51 -47 97 -47 102 0 6 61 96 136 201 90 125 137
199 137 216 0 19 -35 60 -150 174 -97 96 -157 148 -170 148 -12 0 -110 -63
-218 -140 l-196 -140 -108 53 c-60 30 -150 67 -200 82 -71 23 -93 33 -96 49
-5 23 -75 441 -75 449 0 3 -7 13 -16 21 -13 14 -48 16 -229 16 -181 0 -216 -2
-229 -16z m384 -91 c0 -5 14 -87 30 -183 16 -96 30 -180 30 -186 0 -7 -19 -8
-57 -3 -32 4 -103 7 -158 7 -55 0 -126 -3 -157 -7 -39 -5 -58 -4 -58 3 0 6 14
90 30 186 16 96 30 178 30 183 0 4 70 7 155 7 85 0 155 -3 155 -7z m-1119
-514 c79 -56 146 -104 149 -107 3 -2 -13 -18 -35 -35 -49 -38 -189 -177 -236
-234 l-34 -42 -112 157 -112 157 107 108 c59 59 112 105 118 103 6 -2 76 -51
155 -107z m2201 4 l107 -108 -112 -157 -112 -157 -34 42 c-45 55 -185 194
-236 235 -33 26 -37 34 -25 41 8 5 78 55 155 110 77 55 142 100 145 101 3 0
53 -48 112 -107z m-1052 32 c281 -43 521 -164 720 -364 218 -219 345 -494 369
-795 29 -382 -101 -738 -369 -1007 -503 -505 -1305 -505 -1810 1 -219 218
-345 491 -369 797 -29 380 101 736 369 1003 290 291 695 426 1090 365z m-1559
-1163 c-5 -62 -7 -121 -6 -130 2 -9 6 -56 9 -103 l5 -85 -187 31 -187 31 0
154 0 154 185 31 c102 18 186 31 187 30 1 0 -2 -51 -6 -113z m3107 53 c9 -3
12 -44 12 -155 0 -111 -3 -152 -12 -155 -7 -3 -93 -18 -191 -33 l-179 -29 7
45 c4 25 7 102 7 172 0 70 -3 147 -7 172 l-7 45 179 -29 c98 -15 184 -30 191
-33z m-2704 -1131 c45 -44 99 -94 121 -111 22 -17 38 -33 35 -35 -22 -19 -295
-211 -304 -214 -6 -2 -59 44 -118 103 l-107 108 112 157 112 157 34 -42 c19
-23 71 -78 115 -123z m2215 -9 l100 -140 -109 -109 -108 -109 -154 108 c-84
60 -155 111 -158 113 -3 2 13 18 35 35 67 53 164 149 218 214 45 56 52 61 63
45 7 -9 57 -80 113 -157z m-1244 -393 c55 0 126 3 158 7 38 5 57 4 57 -3 0 -6
-14 -90 -30 -186 -16 -96 -30 -178 -30 -182 0 -5 -70 -8 -155 -8 -85 0 -155 3
-155 8 0 4 -14 86 -30 182 -16 96 -30 180 -30 186 0 7 19 8 58 3 31 -4 102 -7
157 -7z m-1567 -584 c15 -15 15 -61 0 -76 -15 -15 -51 -15 -66 0 -15 15 -15
61 0 76 7 7 21 12 33 12 12 0 26 -5 33 -12z m3200 0 c7 -7 12 -24 12 -38 0
-31 -17 -50 -45 -50 -28 0 -45 19 -45 50 0 31 17 50 45 50 12 0 26 -5 33 -12z
m-2038 -438 l0 -300 -95 0 -95 0 0 300 0 300 95 0 95 0 0 -300z m700 0 l0
-300 -295 0 -295 0 0 300 0 300 295 0 295 0 0 -300z m300 0 l0 -300 -95 0 -95
0 0 300 0 300 95 0 95 0 0 -300z m-1712 38 c7 -7 12 -24 12 -38 0 -31 -17 -50
-45 -50 -28 0 -45 19 -45 50 0 31 17 50 45 50 12 0 26 -5 33 -12z m2300 0 c7
-7 12 -24 12 -38 0 -31 -17 -50 -45 -50 -28 0 -45 19 -45 50 0 31 17 50 45 50
12 0 26 -5 33 -12z"/>
<path d="M2423 3996 c-392 -75 -686 -361 -768 -749 -19 -88 -19 -286 0 -374
78 -368 352 -650 717 -738 102 -25 259 -30 364 -11 395 69 696 358 779 749 31
141 16 356 -33 497 -106 305 -364 537 -684 616 -89 21 -286 27 -375 10z m318
-102 c327 -61 592 -313 669 -637 27 -112 27 -282 0 -394 -105 -439 -539 -721
-981 -637 -326 61 -592 314 -669 634 -27 116 -27 284 0 399 105 437 540 719
981 635z"/>
<path d="M2447 3694 c-196 -42 -362 -175 -448 -359 -46 -99 -59 -161 -59 -275
0 -121 13 -178 67 -288 76 -157 211 -274 377 -329 70 -23 98 -27 201 -27 104
0 131 4 202 28 162 53 299 171 373 321 52 105 70 179 70 292 0 117 -13 178
-59 278 -128 274 -427 423 -724 359z m262 -99 c200 -48 368 -218 411 -416 18
-79 8 -230 -18 -303 -12 -32 -24 -61 -26 -63 -3 -3 -33 18 -68 46 -35 29 -100
70 -145 93 l-82 41 24 31 c76 100 78 238 5 339 -101 138 -302 154 -422 32 -99
-101 -109 -258 -23 -371 l24 -31 -82 -41 c-45 -23 -110 -64 -144 -92 -34 -27
-64 -50 -67 -50 -2 0 -14 26 -27 58 -30 79 -38 242 -15 332 72 281 371 462
655 395z m-70 -225 c69 -20 123 -93 124 -169 1 -65 -28 -118 -82 -152 -121
-78 -276 8 -274 152 2 122 114 203 232 169z m56 -465 c98 -21 186 -67 258
-135 l62 -59 -54 -50 c-129 -120 -317 -174 -483 -140 -81 16 -206 81 -267 137
-53 50 -53 50 -36 74 55 72 186 149 295 172 85 19 140 19 225 1z"/>
<path d="M4062 4790 c-30 -28 -30 -82 0 -110 47 -43 118 -10 118 55 0 41 -32
75 -70 75 -14 0 -36 -9 -48 -20z"/>
<path d="M712 4440 c-47 -44 -15 -130 48 -130 38 0 70 34 70 75 0 41 -32 75
-70 75 -14 0 -36 -9 -48 -20z"/>
<path d="M4487 4343 c-64 -22 -144 -94 -173 -158 -33 -70 -33 -180 0 -250 32
-69 109 -137 181 -160 142 -44 303 28 364 165 30 66 29 178 -3 245 -63 136
-225 206 -369 158z m183 -105 c24 -13 58 -40 74 -61 29 -36 31 -45 31 -117 0
-72 -2 -81 -31 -117 -38 -48 -106 -83 -159 -83 -53 0 -121 35 -158 82 -53 66
-50 181 6 245 63 72 156 92 237 51z"/>
<path d="M412 3490 c-47 -44 -15 -130 48 -130 38 0 70 34 70 75 0 41 -32 75
-70 75 -14 0 -36 -9 -48 -20z"/>
<path d="M4562 2690 c-30 -28 -30 -82 0 -110 47 -43 118 -10 118 55 0 41 -32
75 -70 75 -14 0 -36 -9 -48 -20z"/>
<path d="M505 2351 c-96 -26 -187 -98 -233 -186 -24 -45 -27 -61 -27 -155 0
-94 3 -110 27 -155 33 -63 113 -139 175 -167 38 -17 67 -22 138 -22 71 0 100
5 138 22 62 28 142 104 175 167 24 45 27 61 27 155 0 94 -3 110 -27 155 -33
63 -113 139 -175 166 -52 23 -169 33 -218 20z m191 -119 c50 -26 99 -77 118
-124 20 -46 21 -148 2 -192 -19 -47 -73 -104 -120 -129 -57 -30 -165 -30 -221
0 -89 48 -135 123 -135 223 0 117 65 204 180 241 40 13 133 3 176 -19z"/>
<path d="M3412 1440 c-30 -28 -30 -82 0 -110 47 -43 118 -10 118 55 0 41 -32
75 -70 75 -14 0 -36 -9 -48 -20z"/>
<path d="M562 940 c-47 -44 -15 -130 48 -130 38 0 70 34 70 75 0 41 -32 75
-70 75 -14 0 -36 -9 -48 -20z"/>
</g>
</svg>
