<svg width="42" height="247" viewBox="0 0 42 247" fill="none" xmlns="http://www.w3.org/2000/svg">
<g clip-path="url(#clip0_247_440)">
<path d="M112.17 0.380005H46.22C38.1346 0.380005 31.58 6.93456 31.58 15.02V137.41C31.58 145.495 38.1346 152.05 46.22 152.05H112.17C120.255 152.05 126.81 145.495 126.81 137.41V15.02C126.81 6.93456 120.255 0.380005 112.17 0.380005Z" fill="white" stroke="black" stroke-width="0.75" stroke-miterlimit="10"/>
<path d="M122.29 20.48V131.98C122.291 133.668 121.96 135.34 121.315 136.901C120.67 138.461 119.723 139.878 118.53 141.073C117.337 142.267 115.919 143.214 114.36 143.861C112.8 144.507 111.128 144.84 109.44 144.84H48.97C45.5653 144.829 42.3036 143.47 39.8989 141.06C37.4943 138.65 36.1426 135.385 36.14 131.98V20.48C36.1427 17.0684 37.4998 13.7974 39.9131 11.386C42.3264 8.97457 45.5984 7.62001 49.01 7.62001H59.01V10.62H99.45V7.62001H109.45C111.137 7.62132 112.808 7.95499 114.367 8.60197C115.925 9.24896 117.341 10.1966 118.533 11.3907C119.726 12.5849 120.671 14.0022 121.316 15.5618C121.96 17.1213 122.291 18.7925 122.29 20.48Z" fill="white" stroke="black" stroke-width="0.75" stroke-miterlimit="10"/>
<path d="M83.5 155.06L59.89 152.15C56.4043 151.71 52.8807 152.598 50.0186 154.635C47.1566 156.673 45.1653 159.712 44.44 163.15L35.14 206.48L67.14 211.26L72.53 187.35L81.72 188.47L83.5 155.06Z" fill="#DA8D7B" stroke="black" stroke-miterlimit="10"/>
<path d="M69.85 203.48L58.41 246.07L0.580017 235.98L3.71002 216.98C3.71002 216.98 7.52001 204.21 18.51 205.55C23.59 206.16 26.8 209.97 28.79 213.86L36.45 196.36L69.85 203.48Z" fill="white" stroke="black" stroke-miterlimit="10"/>
<path d="M60.78 237.24L58.41 246.07L0.570007 235.99L2.00001 227.35L60.78 237.24Z" fill="white" stroke="black" stroke-miterlimit="10"/>
<path d="M27.47 223.21L28.79 213.81C30.2191 216.704 31.2099 219.794 31.73 222.98" stroke="black" stroke-miterlimit="10"/>
</g>
<defs>
<clipPath id="clip0_247_440">
<rect width="185.39" height="246.65" fill="white"/>
</clipPath>
</defs>
</svg>
