<svg width="167" height="167" viewBox="0 0 167 167" fill="none" xmlns="http://www.w3.org/2000/svg">
<path d="M128.991 6.06626e-05C129.366 0.325163 129.773 0.611711 130.206 0.855412C132.996 2.08415 134.591 4.24973 134.761 7.22993C134.891 8.59299 134.606 9.96358 133.944 11.1618C133.281 12.36 132.272 13.3298 131.048 13.9439C130.657 14.1055 130.333 14.3951 130.128 14.765C129.923 15.135 129.85 15.5635 129.921 15.9805C129.989 17.2228 129.921 18.4719 129.921 19.7142C129.921 21.8866 129.031 22.7419 126.839 22.7419C120.281 22.7419 113.718 22.7419 107.152 22.7419C106.676 22.7419 106.208 22.7827 105.658 22.8098V27.6161H112.929C113.519 27.6161 114.124 27.5822 114.714 27.6161C115.344 27.6321 115.942 27.8954 116.379 28.349C116.816 28.8025 117.057 29.4099 117.049 30.0397C117.059 30.3532 117.004 30.6653 116.89 30.9574C116.776 31.2495 116.604 31.5157 116.385 31.7399C116.166 31.9642 115.904 32.142 115.615 32.2628C115.325 32.3836 115.014 32.4448 114.701 32.4429C112.372 32.5175 110.044 32.4429 107.715 32.4429H105.679V37.3918H153.294C156.227 37.3918 156.885 38.0706 156.885 41.044V123.051C156.885 126.031 156.206 126.71 153.301 126.71H13.591C10.733 126.71 10.027 126.031 10.027 123.2C10.027 120.484 10.027 117.769 10.027 115.054C10.027 113.268 10.9366 112.175 12.3758 112.128C13.815 112.08 14.8672 113.214 14.8876 115.06C14.8876 117.226 14.8876 119.391 14.8876 121.686H151.889V42.3271H105.726C105.656 42.6765 105.611 43.0304 105.59 43.3861C105.59 46.9569 105.536 50.5345 105.631 54.1053C105.673 54.4428 105.79 54.7669 105.972 55.0543C106.153 55.3418 106.396 55.5857 106.683 55.7686C109.467 57.2077 112.304 58.5519 115.162 59.8417C115.88 60.0876 116.495 60.567 116.908 61.2031C117.322 61.8393 117.51 62.5956 117.443 63.3514C117.403 76.0235 117.403 88.6956 117.443 101.368C117.443 103.126 116.764 104.226 115.176 104.877C113.818 105.427 112.549 106.154 111.211 106.731C109.691 107.41 108.387 106.928 107.817 105.611C107.653 105.323 107.557 105.001 107.536 104.67C107.515 104.34 107.57 104.009 107.696 103.702C107.823 103.396 108.017 103.122 108.265 102.903C108.513 102.683 108.808 102.522 109.127 102.434C112.393 101.544 112.698 99.4126 112.644 96.4731C112.467 87.2202 112.582 77.9605 112.582 68.7009V66.5828C112.184 66.6723 111.792 66.7879 111.408 66.929C103.307 70.7986 95.206 74.6636 87.105 78.524C86.7285 78.6489 86.406 78.8987 86.1911 79.2321C85.9762 79.5656 85.8819 79.9625 85.9237 80.3569C85.9237 90.9132 85.9237 101.47 85.9237 112.033C85.9237 112.392 86.0052 112.759 86.0663 113.336L95.5703 108.835C96.9892 108.156 98.3876 107.477 99.82 106.799C101.449 106.059 102.773 106.446 103.411 107.783C104.049 109.12 103.513 110.403 101.884 111.177C96.2832 113.893 90.6893 116.608 85.0276 119.167C84.049 119.558 82.9581 119.558 81.9795 119.167C71.7966 114.415 61.6679 109.507 51.5053 104.687C50.8981 104.457 50.3809 104.038 50.0301 103.492C49.6793 102.945 49.5135 102.301 49.5571 101.653C49.5571 88.768 49.5571 75.8696 49.5571 62.9577C49.5164 62.3074 49.6885 61.6617 50.0473 61.1179C50.4062 60.5741 50.9323 60.1619 51.5461 59.9435C54.4991 58.5858 57.425 57.2281 60.3237 55.7414C60.7718 55.5174 61.342 54.9539 61.3488 54.533C61.4235 50.4599 61.3964 46.4342 61.3964 42.2796H14.9623V102.759C14.9931 103.3 14.9794 103.843 14.9215 104.382C14.8505 104.975 14.5626 105.52 14.1132 105.913C13.6639 106.306 13.0848 106.519 12.4878 106.511C11.8908 106.502 11.3181 106.273 10.88 105.868C10.4419 105.462 10.1694 104.909 10.1151 104.314C10.0811 103.882 10.0811 103.449 10.1151 103.017V40.8539C10.1151 38.0502 10.794 37.3646 13.6995 37.3646H61.3352V32.4904H8.93392C6.04876 32.4904 5.24096 33.2779 5.24096 36.1155V127.898C5.24096 130.776 6.0353 131.584 8.87973 131.584H158.148C161.013 131.584 161.827 130.783 161.827 127.932V36.1494C161.827 33.2846 161.026 32.4904 158.161 32.4904H126.316C125.777 32.5269 125.236 32.5087 124.7 32.4361C124.147 32.3253 123.649 32.0241 123.295 31.585C122.94 31.1458 122.75 30.5963 122.758 30.0318C122.766 29.4674 122.972 28.9235 123.339 28.4946C123.706 28.0658 124.212 27.779 124.768 27.684C125.252 27.6206 125.741 27.6046 126.228 27.6365C136.893 27.6365 147.564 27.6365 158.229 27.6365C162.201 27.6365 164.984 29.1843 166.376 32.9927C166.457 33.21 166.797 33.339 167.007 33.5019V130.613C166.81 130.728 166.477 130.796 166.416 130.966C165.018 135.039 162.031 136.499 157.89 136.485C141.373 136.424 124.856 136.485 108.333 136.485H106.371C107.037 142.382 109.955 147.794 114.517 151.59C114.998 151.917 115.572 152.081 116.153 152.058C119.181 152.106 122.216 152.058 125.25 152.058C126.971 152.024 128.649 152.599 129.989 153.68C131.329 154.761 132.245 156.279 132.576 157.969C132.907 159.658 132.631 161.411 131.798 162.917C130.965 164.424 129.627 165.588 128.02 166.206C127.659 166.421 127.332 166.689 127.049 167H39.9647C39.7311 166.712 39.4512 166.464 39.1365 166.267C35.5317 164.733 33.7057 161.515 34.4524 157.808C35.1313 154.414 38.1454 152.079 41.9199 152.058C44.8933 152.058 47.8666 152.058 50.84 152.058C51.4197 152.09 51.9946 151.938 52.483 151.624C57.0758 147.839 60.0007 142.403 60.6293 136.485H58.5928C41.8792 136.485 25.1678 136.485 8.45875 136.485C4.54851 136.485 2.18608 134.883 0.665434 131.312C0.550028 131.041 0.224174 130.857 -0.0134277 130.633V33.4612C0.190231 33.3458 0.515998 33.2643 0.577096 33.1013C1.98234 29.0282 4.96259 27.5686 9.11044 27.589C25.8851 27.6501 42.6531 27.589 59.4277 27.589H61.2742V22.7148H59.4345C52.9899 22.7148 46.5496 22.7148 40.114 22.7148C37.9349 22.7148 37.0796 21.8526 37.0525 19.6667C37.0525 18.4244 36.9914 17.1753 37.0525 15.9397C37.1213 15.5221 37.0467 15.0935 36.8408 14.7237C36.635 14.3539 36.3099 14.0647 35.9187 13.9031C34.6972 13.2885 33.6899 12.3193 33.0285 11.1226C32.3672 9.9258 32.0826 8.55719 32.2121 7.19598C32.3886 4.18862 33.9907 2.05701 36.7741 0.821478C37.2045 0.576878 37.6114 0.292797 37.9892 -0.0270996H40.9152C41.3633 0.307687 41.8352 0.609436 42.3271 0.875777C43.5278 1.38647 44.57 2.20947 45.345 3.25923C46.12 4.30899 46.5996 5.5472 46.7341 6.84509C46.8685 8.14298 46.6528 9.45318 46.1094 10.6395C45.566 11.8258 44.7148 12.8449 43.6442 13.5909C41.7434 14.9486 41.5396 15.451 42.1846 17.8405H62.9442C65.4356 17.8405 66.2164 18.6416 66.23 21.1602C66.23 23.2579 66.23 25.3488 66.23 27.4736H81.029C81.029 23.3597 81.0699 19.3612 80.9816 15.3559C80.9816 14.8875 80.391 14.2901 79.9225 13.9982C77.3429 12.3893 76.0327 10.1083 76.2296 7.08058C76.4265 4.05286 78.0963 1.98911 80.8661 0.767157C81.2271 0.545964 81.5581 0.279003 81.8506 -0.0270996H85.1022C85.4941 0.32451 85.9219 0.63395 86.3785 0.896142C91.2528 3.08208 92.4883 9.78925 88.2454 12.9188C86.0391 14.5413 85.7879 16.2045 85.8966 18.4447C85.978 20.0129 85.8966 21.5811 85.8966 23.156V27.46H100.696C100.696 25.2741 100.696 23.2171 100.696 21.1602C100.696 18.6348 101.483 17.8473 103.975 17.8405H124.938C125.108 15.9329 125.23 14.5277 123.193 13.4076C120.749 12.0499 119.853 9.48374 120.206 6.68683C120.345 5.41261 120.825 4.19963 121.597 3.17655C122.37 2.15346 123.404 1.35842 124.592 0.875777C125.087 0.611039 125.561 0.309224 126.01 -0.0270996L128.991 6.06626e-05ZM81.063 113.37V111.53C81.063 101.246 81.063 90.9608 81.097 80.6828C81.1494 80.1597 81.02 79.6346 80.7307 79.1957C80.4414 78.7568 80.0097 78.4308 79.5084 78.2728C71.6811 74.5866 63.8946 70.8461 56.0876 67.1191C55.6192 66.9019 55.144 66.705 54.567 66.4402C54.5006 66.829 54.4553 67.2211 54.4313 67.6147C54.4313 78.2253 54.4313 88.8291 54.4313 99.4397C54.4313 100.553 54.9947 100.926 55.789 101.32C62.478 104.488 69.1603 107.674 75.8358 110.879C77.4786 111.707 79.1282 112.481 81.063 113.424V113.37ZM109.209 62.5436C108.961 62.3559 108.703 62.1836 108.435 62.0276C100.438 58.2056 92.4543 54.3633 84.4233 50.6092C83.6877 50.3758 82.8906 50.4341 82.1968 50.7721C74.4646 54.3973 66.7662 58.097 59.0611 61.7765C58.6674 61.9665 58.3075 62.2177 57.7848 62.5232C64.3833 65.6732 70.7647 68.7348 77.1595 71.7761C79.2504 72.7741 81.3617 74.4916 83.473 74.4916C85.5842 74.4916 87.6955 72.808 89.7932 71.7761C96.2288 68.7823 102.658 65.7003 109.209 62.5708V62.5436ZM108 151.977C104.307 147.601 102.015 142.215 101.422 136.519H65.5647C64.9784 142.209 62.7013 147.593 59.0272 151.977H108ZM83.507 161.773H124.239C124.778 161.812 125.32 161.789 125.854 161.705C126.409 161.602 126.91 161.308 127.271 160.874C127.632 160.44 127.829 159.893 127.829 159.329C127.829 158.765 127.632 158.218 127.271 157.784C126.91 157.35 126.409 157.056 125.854 156.953C125.319 156.874 124.778 156.854 124.239 156.892H42.7413C42.2545 156.861 41.7661 156.875 41.2818 156.933C40.7082 157.019 40.1847 157.309 39.8064 157.748C39.4281 158.188 39.22 158.749 39.22 159.329C39.22 159.909 39.4281 160.47 39.8064 160.91C40.1847 161.349 40.7082 161.639 41.2818 161.725C41.8204 161.787 42.3632 161.8 42.9042 161.766L83.507 161.773ZM66.3453 42.2931V52.9377C71.1652 50.6296 75.8494 48.4029 80.4725 46.1491C80.623 46.0543 80.7504 45.9271 80.8455 45.7768C80.9407 45.6265 81.001 45.4568 81.0222 45.2801C81.0969 44.3297 81.0222 43.3658 81.0222 42.3271L66.3453 42.2931ZM100.628 52.8698V42.3135H86.1477C85.5367 45.5992 85.5978 45.7078 88.4015 47.0655L91.3207 48.4233L100.628 52.8698ZM66.3181 37.2085H80.9612V32.5583H66.3181V37.2085ZM86.0391 37.2424H100.635V32.6397H86.0391V37.2424ZM39.5031 10.0336C40.1246 10.0008 40.7098 9.73071 41.1381 9.27918C41.5664 8.82765 41.805 8.22903 41.805 7.6067C41.805 6.98436 41.5664 6.38575 41.1381 5.93422C40.7098 5.48269 40.1246 5.21264 39.5031 5.17976C39.1736 5.16233 38.844 5.21218 38.5344 5.32627C38.2247 5.44036 37.9416 5.61632 37.7022 5.84339C37.4628 6.07047 37.2721 6.3439 37.1418 6.64706C37.0115 6.95021 36.9444 7.27673 36.9444 7.6067C36.9444 7.93667 37.0115 8.26319 37.1418 8.56634C37.2721 8.8695 37.4628 9.14293 37.7022 9.37C37.9416 9.59708 38.2247 9.77303 38.5344 9.88713C38.844 10.0012 39.1736 10.0511 39.5031 10.0336ZM127.538 10.0336C127.867 10.0427 128.194 9.98486 128.5 9.86363C128.806 9.7424 129.084 9.56029 129.318 9.32836C129.551 9.09643 129.735 8.81951 129.858 8.51438C129.982 8.20925 130.042 7.88226 130.035 7.55325C130.028 7.22424 129.954 6.90005 129.818 6.60036C129.682 6.30066 129.487 6.0317 129.244 5.80977C129.001 5.58784 128.715 5.41756 128.405 5.30926C128.094 5.20097 127.764 5.15691 127.436 5.17976C126.813 5.2231 126.231 5.50434 125.81 5.96519C125.389 6.42604 125.162 7.03118 125.175 7.6552C125.188 8.27921 125.441 8.87428 125.881 9.31707C126.321 9.75986 126.914 10.0164 127.538 10.0336ZM85.8966 7.67799C85.906 7.20183 85.7733 6.73365 85.5155 6.33321C85.2577 5.93278 84.8864 5.61824 84.449 5.42975C84.0117 5.24126 83.5281 5.18738 83.06 5.27495C82.5918 5.36253 82.1604 5.5876 81.8207 5.92146C81.4811 6.25531 81.2486 6.68281 81.153 7.14937C81.0574 7.61592 81.103 8.10038 81.2839 8.54092C81.4649 8.98146 81.773 9.35809 82.169 9.62275C82.5649 9.88741 83.0307 10.0281 83.507 10.0268C84.1276 10.022 84.7223 9.77793 85.1675 9.34543C85.6126 8.91293 85.8739 8.32536 85.8966 7.70513V7.67799Z" fill="black"/>
</svg>
