<?xml version="1.0" standalone="no"?>
<!DOCTYPE svg PUBLIC "-//W3C//DTD SVG 20010904//EN"
 "http://www.w3.org/TR/2001/REC-SVG-20010904/DTD/svg10.dtd">
<svg version="1.0" xmlns="http://www.w3.org/2000/svg"
 width="512.000000pt" height="512.000000pt" viewBox="0 0 512.000000 512.000000"
 preserveAspectRatio="xMidYMid meet">

<g transform="translate(0.000000,512.000000) scale(0.100000,-0.100000)"
fill="#000000" stroke="none">
<path d="M3350 4764 c-184 -39 -325 -116 -461 -253 -138 -138 -215 -280 -253
-463 -18 -88 -21 -257 -5 -344 33 -188 126 -362 270 -506 91 -91 93 -95 99
-303 5 -174 6 -182 32 -227 16 -25 39 -55 51 -65 14 -11 27 -35 31 -58 25
-138 133 -257 277 -305 85 -29 234 -25 322 9 110 43 223 178 243 290 4 21 20
51 40 71 62 66 74 107 74 271 0 191 10 225 90 304 132 129 223 284 267 452 36
139 36 317 0 454 -92 351 -377 616 -731 678 -82 15 -268 12 -346 -5z m120
-274 c0 -144 1 -150 23 -164 14 -10 42 -14 78 -13 45 2 62 -2 79 -18 76 -68
21 -177 -81 -161 -46 7 -88 -10 -94 -38 -3 -12 -6 -68 -8 -126 l-2 -105 -58 0
-58 0 -18 53 c-35 102 -119 161 -227 162 -106 0 -193 -66 -219 -167 l-12 -48
-58 -3 -58 -3 6 85 c23 324 292 621 620 686 94 18 87 30 87 -140z m310 113
c296 -97 516 -377 532 -678 l3 -60 -117 -3 c-111 -2 -119 -4 -133 -26 -12 -18
-14 -37 -9 -74 6 -45 4 -52 -23 -82 -23 -26 -36 -32 -68 -32 -32 0 -45 6 -68
32 -27 30 -28 37 -22 86 5 45 3 56 -14 73 -19 19 -33 21 -136 21 l-115 0 0 64
0 64 45 11 c53 13 118 68 144 120 68 135 -10 301 -154 331 l-30 6 -3 93 -3 92
48 -6 c26 -4 82 -18 123 -32z m-605 -690 c24 -25 27 -33 22 -78 -9 -98 17
-115 174 -115 l99 0 0 -58 0 -58 -49 -13 c-60 -15 -127 -70 -152 -125 -27 -60
-25 -151 4 -207 29 -54 94 -105 153 -120 l44 -11 0 -94 0 -94 -164 0 -163 0
-6 79 c-7 110 -37 170 -135 275 -87 92 -126 144 -165 221 -22 45 -67 175 -67
195 0 4 47 9 104 12 135 5 147 13 143 105 -2 60 0 66 26 89 40 34 95 33 132
-3z m565 -238 c7 -25 30 -65 51 -89 127 -144 357 -83 403 107 6 25 10 27 56
27 57 0 57 -1 34 -81 -34 -114 -101 -224 -204 -334 -112 -118 -138 -171 -147
-292 l-6 -73 -158 0 -158 0 -3 151 c-3 144 -4 152 -26 170 -18 14 -37 18 -84
16 -54 -2 -62 0 -84 26 -36 43 -33 97 8 132 28 24 37 26 83 20 43 -5 56 -3 76
14 22 18 24 27 27 135 l4 116 58 0 57 0 13 -45z m190 -900 c0 -14 -13 -39 -29
-57 l-29 -33 -336 0 -336 0 -25 25 c-13 14 -27 40 -31 58 l-6 32 396 0 396 0
0 -25z m-120 -242 c0 -3 -11 -26 -25 -49 -28 -48 -89 -94 -149 -114 -57 -18
-191 -9 -242 18 -45 23 -118 100 -127 132 -5 20 0 20 269 20 151 0 274 -3 274
-7z"/>
<path d="M4823 2655 c-79 -22 -161 -66 -306 -169 -73 -51 -261 -183 -419 -295
-159 -111 -294 -204 -302 -207 -8 -3 -24 0 -36 6 -11 6 -103 24 -203 40 -419
66 -763 152 -1051 262 -253 96 -367 120 -576 120 -317 1 -575 -95 -850 -317
-62 -50 -212 -145 -230 -145 -4 0 -29 40 -54 89 -45 88 -58 101 -98 101 -26 0
-644 -314 -676 -344 -16 -14 -22 -29 -20 -47 5 -33 695 -1380 716 -1396 9 -7
27 -13 41 -13 28 0 644 311 678 343 30 27 29 56 -7 126 l-29 59 52 23 c94 42
120 38 797 -131 550 -137 624 -153 700 -153 54 0 100 6 128 16 65 25 1343 772
1392 814 50 43 567 812 612 911 49 109 50 195 1 253 -55 65 -148 84 -260 54z
m145 -137 c17 -17 14 -57 -8 -105 -28 -62 -542 -833 -576 -865 -42 -38 -1323
-784 -1370 -797 -21 -6 -51 -11 -66 -11 -15 0 -285 63 -600 140 -778 191 -755
186 -833 173 -35 -6 -90 -23 -121 -37 -31 -15 -58 -25 -59 -24 -8 11 -414 807
-417 817 -2 7 38 36 87 65 50 29 126 81 170 117 315 254 652 337 1028 253 39
-9 149 -45 243 -80 313 -116 622 -195 1037 -264 249 -41 265 -47 287 -116 20
-58 -18 -131 -76 -148 -20 -6 -784 33 -1059 54 -315 24 -323 24 -345 5 -26
-24 -26 -76 0 -100 13 -12 46 -20 102 -26 134 -13 510 -37 833 -53 165 -9 338
-18 383 -21 100 -6 147 5 204 48 61 47 100 123 102 200 0 34 -5 77 -13 95 -8
18 -12 34 -10 36 20 20 844 593 874 609 85 43 178 60 203 35z m-3984 -1149
c168 -327 306 -600 306 -605 0 -5 -112 -67 -250 -137 -224 -115 -250 -126
-258 -110 -176 339 -612 1193 -612 1200 1 12 494 263 502 255 4 -4 144 -275
312 -603z"/>
</g>
</svg>
