<svg width="669" height="341" viewBox="0 0 669 341" fill="none" xmlns="http://www.w3.org/2000/svg">
<path d="M263.494 211.806C262.242 211.806 260.994 211.516 259.899 210.952L248.449 204.946C246.74 204.098 247.575 203.798 248.137 203.621C250.418 202.919 250.878 202.757 253.316 201.533C253.569 201.405 253.904 201.453 254.166 201.591L262.964 206.222C263.127 206.298 263.309 206.339 263.494 206.339C263.679 206.339 263.861 206.298 264.025 206.222L298.324 188.669C298.483 188.584 298.616 188.463 298.707 188.319C298.799 188.175 298.847 188.012 298.846 187.846V152.749C298.846 152.581 298.796 152.415 298.703 152.269C298.609 152.122 298.475 151.999 298.312 151.912L264.028 134.374C263.867 134.294 263.685 134.252 263.5 134.252C263.315 134.252 263.133 134.294 262.972 134.374L228.696 151.916C228.533 152.002 228.397 152.124 228.302 152.27C228.207 152.416 228.156 152.581 228.154 152.749V187.846C228.155 188.012 228.205 188.175 228.301 188.318C228.396 188.461 228.532 188.579 228.696 188.659L238.091 193.472C243.188 195.734 246.312 193.071 246.312 190.395V155.744C246.312 155.253 246.756 154.869 247.31 154.869H251.658C252.2 154.869 252.653 155.256 252.653 155.744V190.395C252.653 196.429 248.948 199.887 242.497 199.887C240.516 199.887 238.953 199.887 234.596 197.981L225.596 193.393C224.502 192.828 223.594 192.018 222.963 191.045C222.332 190.072 222 188.969 222 187.846V152.749C222 150.47 223.377 148.34 225.596 147.206L259.895 129.633C260.999 129.097 262.239 128.816 263.498 128.816C264.757 128.816 265.997 129.097 267.101 129.633L301.397 147.206C303.619 148.344 305 150.47 305 152.749V187.846C304.998 188.969 304.664 190.072 304.032 191.045C303.4 192.018 302.491 192.828 301.397 193.393L267.101 210.952C266.01 211.516 264.765 211.806 263.494 211.806ZM291.187 177.203C291.187 170.633 286.179 168.884 275.638 167.649C264.988 166.401 263.904 165.754 263.904 163.545C263.904 161.719 264.82 159.281 272.709 159.281C279.756 159.281 282.354 160.626 283.422 164.838C283.471 165.032 283.593 165.207 283.768 165.332C283.943 165.457 284.161 165.525 284.386 165.526H288.835C288.971 165.525 289.105 165.499 289.23 165.451C289.355 165.403 289.467 165.333 289.561 165.246C289.655 165.155 289.727 165.048 289.772 164.931C289.817 164.815 289.834 164.691 289.822 164.568C289.132 157.314 283.695 153.932 272.709 153.932C262.929 153.932 257.095 157.59 257.095 163.728C257.095 170.384 262.897 172.224 272.284 173.047C283.516 174.022 284.386 175.478 284.386 177.435C284.386 180.834 281.309 182.283 274.082 182.283C265.007 182.283 263.011 180.263 262.34 176.259C262.303 176.051 262.183 175.862 262.002 175.726C261.821 175.589 261.591 175.515 261.353 175.516H256.919C256.789 175.515 256.66 175.537 256.54 175.58C256.419 175.624 256.31 175.688 256.218 175.77C256.126 175.851 256.053 175.948 256.003 176.054C255.953 176.161 255.928 176.275 255.928 176.391C255.928 181.515 259.072 187.622 274.082 187.622C284.955 187.625 291.187 183.832 291.187 177.203Z" fill="black" fill-opacity="0.3"/>
<path d="M439.634 11.7759L400 46.8771L412.206 57.7L463.947 11.811H439.677L439.634 11.7759ZM439.68 44.1626L418.332 63.05L439.677 81.9754H464L442.689 63.0558L464 44.1597H439.683L439.68 44.1626Z" fill="black" fill-opacity="0.3"/>
<path d="M458.471 139.181L477.646 148.999C478.537 148.167 479.635 147.53 480.852 147.14C482.069 146.749 483.372 146.616 484.658 146.749C485.943 146.883 487.176 147.281 488.258 147.91C489.34 148.54 490.242 149.385 490.892 150.377C491.534 151.372 491.906 152.485 491.98 153.629C492.053 154.773 491.826 155.916 491.316 156.969C490.806 158.022 490.027 158.955 489.04 159.695C488.053 160.435 486.886 160.962 485.631 161.233V180.867C486.89 181.132 488.062 181.655 489.052 182.394C490.042 183.134 490.823 184.068 491.332 185.123C491.841 186.178 492.064 187.325 491.984 188.47C491.903 189.615 491.521 190.728 490.868 191.719C490.209 192.729 489.288 193.585 488.183 194.219C487.078 194.852 485.819 195.244 484.51 195.363C483.201 195.482 481.879 195.324 480.652 194.902C479.425 194.48 478.328 193.806 477.452 192.935L458.393 202.692C458.773 203.705 458.899 204.778 458.765 205.839C458.63 206.899 458.238 207.921 457.614 208.834C456.991 209.747 456.151 210.529 455.154 211.126C454.156 211.723 453.024 212.121 451.836 212.292C450.648 212.463 449.432 212.404 448.273 212.117C447.113 211.831 446.038 211.326 445.12 210.635C444.203 209.944 443.465 209.085 442.959 208.117C442.453 207.149 442.189 206.095 442.187 205.028C442.187 204.321 442.3 203.615 442.529 202.93L423.35 193.121C422.458 193.948 421.36 194.58 420.144 194.965C418.928 195.351 417.628 195.48 416.346 195.343C415.064 195.206 413.836 194.805 412.759 194.174C411.682 193.543 410.785 192.698 410.14 191.706C409.495 190.714 409.119 189.603 409.043 188.46C408.967 187.317 409.191 186.174 409.7 185.122C410.208 184.069 410.985 183.136 411.971 182.396C412.956 181.657 414.123 181.131 415.377 180.86L415.381 161.226C414.123 160.959 412.952 160.435 411.963 159.697C410.973 158.958 410.191 158.025 409.679 156.971C409.167 155.918 408.939 154.773 409.014 153.628C409.088 152.482 409.463 151.368 410.109 150.374C410.756 149.381 411.656 148.535 412.737 147.904C413.817 147.273 415.049 146.874 416.334 146.739C417.619 146.603 418.921 146.735 420.139 147.124C421.356 147.513 422.454 148.148 423.346 148.979L442.533 139.16C442.166 138.061 442.093 136.901 442.321 135.773C442.548 134.644 443.07 133.578 443.844 132.66C444.617 131.742 445.622 130.996 446.778 130.483C447.934 129.97 449.209 129.703 450.502 129.703C451.798 129.701 453.076 129.968 454.235 130.482C455.393 130.996 456.4 131.744 457.175 132.665C457.949 133.586 458.47 134.655 458.695 135.786C458.92 136.918 458.843 138.08 458.471 139.181ZM456.47 142.202C456.399 142.272 456.324 142.339 456.245 142.402L481.349 180.953C481.45 180.922 481.566 180.898 481.667 180.874V161.212C480.609 160.98 479.613 160.565 478.737 159.991C477.86 159.416 477.119 158.695 476.557 157.867C475.994 157.039 475.622 156.121 475.46 155.165C475.298 154.209 475.351 153.234 475.614 152.296L475.688 152.048L456.47 142.202ZM444.755 142.405L444.522 142.199L425.305 152.024C425.607 152.953 425.7 153.926 425.579 154.886C425.457 155.847 425.123 156.777 424.596 157.623C424.069 158.47 423.359 159.215 422.506 159.818C421.654 160.421 420.676 160.869 419.628 161.137L419.333 161.209V180.874L419.659 180.953L444.763 142.402L444.755 142.405ZM452.822 144.152C451.306 144.538 449.702 144.538 448.19 144.152L423.09 182.7C424.232 183.675 425.041 184.922 425.421 186.286H475.587C475.964 184.915 476.78 183.664 477.93 182.689L452.822 144.152ZM456.653 200.056L475.742 190.279C475.685 190.118 475.636 189.955 475.594 189.79H425.41L425.328 190.076L444.518 199.901C445.292 199.187 446.222 198.619 447.25 198.233C448.279 197.846 449.385 197.648 450.502 197.652C452.938 197.652 455.126 198.578 456.653 200.056Z" fill="black" fill-opacity="0.3"/>
<path d="M612.734 197.161C612.734 197.161 608.434 199.382 615.796 200.131C624.715 201.038 629.273 200.909 639.097 199.253C639.097 199.253 641.685 200.693 645.291 201.941C623.257 210.315 595.431 201.45 612.734 197.161ZM610.038 186.232C610.038 186.232 605.218 189.398 612.58 190.076C622.108 190.946 629.629 191.021 642.651 188.795C642.651 188.795 644.452 190.413 647.28 191.299C620.65 198.209 590.976 191.84 610.038 186.232ZM632.734 167.687C638.164 173.232 631.308 178.224 631.308 178.224C631.308 178.224 645.09 171.909 638.759 164.005C632.846 156.633 628.312 152.972 652.86 140.342C652.86 140.338 614.333 148.875 632.734 167.687ZM661.872 205.248C661.872 205.248 665.056 207.574 658.37 209.371C645.652 212.79 605.438 213.818 594.273 209.508C590.259 207.956 597.79 205.806 600.153 205.356C602.624 204.882 604.036 204.969 604.036 204.969C599.567 202.178 575.169 210.448 591.642 212.819C636.565 219.28 673.525 209.907 661.872 205.248ZM614.802 174.904C614.802 174.904 594.348 179.214 607.562 180.778C613.138 181.44 624.26 181.29 634.619 180.521C643.087 179.888 651.584 178.536 651.584 178.536C651.584 178.536 648.597 179.668 646.436 180.978C625.667 185.825 585.542 183.57 597.096 178.615C606.859 174.43 614.802 174.904 614.802 174.904ZM651.491 193.101C672.606 183.366 662.843 174.01 656.03 175.275C654.365 175.583 653.615 175.849 653.615 175.849C653.615 175.849 654.234 174.988 655.42 174.613C668.902 170.407 679.269 187.014 651.069 193.592C651.069 193.587 651.397 193.334 651.491 193.101ZM638.759 119.95C638.759 119.95 650.454 130.325 627.669 146.283C609.4 159.084 623.505 166.385 627.665 174.721C617.001 166.181 609.175 158.672 614.422 151.679C622.131 141.407 643.481 136.432 638.759 119.95ZM616.875 219.476C637.142 220.628 668.264 218.839 669 210.332C669 210.332 667.584 213.556 652.25 216.118C634.956 219.006 613.616 218.669 600.964 216.817C600.964 216.813 603.558 218.718 616.875 219.476Z" fill="black" fill-opacity="0.3"/>
<path d="M36.6338 30.6017C36.6338 32.0233 36.8071 33.1712 37.1104 34.0117C37.4571 34.857 37.8904 35.7791 38.4971 36.7781C38.7138 37.0807 38.8004 37.3881 38.8004 37.657C38.8004 38.0413 38.5404 38.4255 37.9771 38.8097L35.2525 40.4187C34.9232 40.6292 34.5315 40.7494 34.1258 40.7645C33.6925 40.7645 33.2592 40.5723 32.8312 40.2265C32.2494 39.6716 31.7288 39.0685 31.2767 38.4255C30.7924 37.6889 30.3442 36.9341 29.9333 36.1633C26.5641 39.6886 22.3229 41.4513 17.2203 41.4513C13.5911 41.4513 10.6932 40.5339 8.57528 38.6944C6.45735 36.8501 5.37943 34.4007 5.37943 31.3317C5.37943 28.0754 6.67402 25.4242 9.31195 23.4359C11.9499 21.4427 15.4491 20.4437 19.9016 20.4437C21.3749 20.4437 22.8862 20.559 24.4841 20.7511C26.0875 20.9432 27.7341 21.2506 29.4566 21.5964V18.7963C29.4566 15.881 28.7687 13.8494 27.4254 12.6631C26.0441 11.472 23.7095 10.9005 20.3837 10.9005C18.867 10.9005 17.307 11.0494 15.7091 11.3952C14.1111 11.741 12.5511 12.1636 11.0399 12.7015C10.5471 12.8972 10.0405 13.064 9.5232 13.201C9.30042 13.2647 9.06909 13.3018 8.83528 13.3115C8.22861 13.3115 7.92528 12.9273 7.92528 12.1252V10.2473C7.92528 9.63253 8.01194 9.17146 8.22861 8.9025C8.55581 8.55381 8.97165 8.27892 9.44195 8.10043C11.1743 7.33778 13.0013 6.7575 14.8857 6.37141C17.0904 5.87095 19.3592 5.62716 21.6349 5.64618C26.7808 5.64618 30.54 6.68359 32.9612 8.75361C35.3392 10.8188 36.5471 13.9647 36.5471 18.1816V30.6017H36.6338ZM19.0837 36.4323C20.5083 36.4323 21.9762 36.2018 23.5362 35.7407C25.1218 35.2548 26.5371 34.4106 27.642 33.2913C28.3404 32.5833 28.8447 31.7416 29.1154 30.8322C29.37 29.9149 29.5487 28.8006 29.5487 27.499V25.8901C28.2365 25.6065 26.9073 25.3884 25.5675 25.2369C24.22 25.0851 22.8632 25.0081 21.5049 25.0064C18.607 25.0064 16.4891 25.5059 15.0591 26.5433C13.6345 27.5759 12.9466 29.0311 12.9466 30.9475C12.9466 32.7485 13.4611 34.0933 14.5445 35.0107C15.5791 35.9712 17.0903 36.4323 19.0837 36.4323ZM53.8047 40.5723C53.0247 40.5723 52.5047 40.4571 52.158 40.1881C51.8113 39.9576 51.508 39.4197 51.248 38.6944L41.0917 9.05619C40.8941 8.55923 40.7632 8.04338 40.7017 7.51928C40.7017 6.90452 41.0484 6.55872 41.7363 6.55872H45.9776C46.7955 6.55872 47.3588 6.67879 47.6567 6.94295C48.0088 7.17348 48.2688 7.7114 48.5234 8.44143L55.7926 33.8196L62.5364 8.44143C62.7531 7.67297 63.0131 7.17348 63.3543 6.94295C63.874 6.66036 64.4791 6.52623 65.0877 6.55872H68.5435C69.3669 6.55872 69.9302 6.67879 70.2769 6.94295C70.6181 7.17348 70.9269 7.7114 71.0948 8.44143L77.9252 34.1269L85.4057 8.44143C85.6657 7.67297 85.969 7.17348 86.2724 6.94295C86.7741 6.66049 87.3638 6.526 87.957 6.55872H91.9816C92.6695 6.55872 93.0649 6.8709 93.0649 7.51928C93.0649 7.7114 93.0161 7.90351 92.9728 8.13405C92.905 8.46177 92.8034 8.7833 92.6695 9.09461L82.2532 38.7281C81.9932 39.4965 81.6898 39.9912 81.3432 40.2217C80.8551 40.4994 80.2809 40.6338 79.7019 40.606H75.9806C75.1627 40.606 74.5994 40.4907 74.2473 40.2217C73.906 39.9528 73.6027 39.4533 73.4348 38.6848L66.7289 13.9599L60.0664 38.6464C59.8497 39.4149 59.5951 39.9144 59.2539 40.1833C58.9018 40.4523 58.2951 40.5675 57.5205 40.5675L53.8047 40.5723ZM109.358 41.6049C107.11 41.6049 104.862 41.3744 102.701 40.9181C100.54 40.4571 98.8553 39.9576 97.7287 39.3812C97.0353 39.0402 96.5641 38.656 96.3907 38.3102C96.2218 37.9712 96.1333 37.605 96.1307 37.2344V35.2796C96.1307 34.4776 96.4774 34.0933 97.122 34.0933C97.382 34.0933 97.642 34.1318 97.902 34.2086C98.162 34.2854 98.552 34.4391 98.9853 34.5928C100.453 35.1692 102.051 35.6254 103.741 35.9328C105.469 36.2402 107.154 36.3939 108.887 36.3939C111.606 36.3939 113.73 35.9712 115.198 35.1259C115.901 34.749 116.48 34.2136 116.875 33.5742C117.269 32.9348 117.466 32.2141 117.445 31.4854C117.461 30.9918 117.367 30.5004 117.167 30.0395C116.967 29.5787 116.666 29.1576 116.281 28.8006C115.501 28.0754 114.028 27.4222 111.91 26.8074L105.642 25.0784C102.485 24.1995 100.15 22.8979 98.7253 21.1737C97.3311 19.5825 96.5693 17.6271 96.5587 15.612C96.5587 14.0031 96.9541 12.5863 97.7287 11.3567C98.5087 10.132 99.5433 9.05619 100.843 8.21569C102.143 7.33197 103.606 6.67879 105.339 6.22252C107.072 5.76145 108.887 5.56934 110.788 5.56934C111.736 5.56934 112.733 5.60776 113.686 5.72303C114.678 5.83829 115.582 5.99198 116.492 6.14567C117.359 6.33779 118.182 6.5299 118.957 6.75564C119.737 6.98617 120.343 7.21671 120.777 7.44724C121.287 7.67509 121.732 8.0037 122.077 8.40781C122.356 8.78077 122.491 9.22407 122.461 9.67095V11.472C122.461 12.2789 122.115 12.7015 121.465 12.7015C120.889 12.643 120.332 12.4865 119.823 12.2405C117.211 11.2173 114.38 10.7078 111.525 10.7468C109.06 10.7468 107.11 11.0878 105.772 11.8178C104.429 12.5478 103.741 13.6573 103.741 15.2278C103.741 16.3037 104.175 17.2258 105.041 17.951C105.902 18.6811 107.5 19.4111 109.792 20.0643L115.934 21.7837C119.043 22.6674 121.297 23.8969 122.635 25.4675C123.973 27.038 124.623 28.839 124.623 30.8322C124.623 32.4796 124.233 33.9781 123.501 35.2796C122.733 36.592 121.656 37.7433 120.343 38.656C119 39.6166 117.402 40.3034 115.544 40.8029C113.594 41.336 111.568 41.6049 109.358 41.6049ZM117.532 60.2399C103.308 69.5574 82.6378 74.4995 64.871 74.4995C39.965 74.4995 17.5291 66.3347 0.574821 52.7619C-0.763103 51.6909 0.44482 50.2308 2.04816 51.0761C20.3783 60.5041 42.993 66.2194 66.3823 66.2194C82.1665 66.2194 99.4999 63.3041 115.458 57.3246C117.835 56.364 119.867 58.703 117.532 60.2399ZM123.458 54.2556C121.638 52.1904 111.433 53.2614 106.807 53.7609C105.426 53.9146 105.209 52.8388 106.466 52.0319C114.591 46.9745 127.954 48.4298 129.508 50.1156C131.063 51.8446 129.075 63.6884 121.465 69.3605C120.3 70.2442 119.173 69.7831 119.693 68.6353C121.427 64.841 125.273 56.292 123.458 54.2556Z" fill="black" fill-opacity="0.3"/>
<path d="M229.953 275.118V301.943H233.491V282.551C233.527 281.322 233.47 280.093 233.321 278.871H233.456C233.709 279.459 234.031 280.021 234.417 280.548L249.97 301.943H254.317V275.118H250.782V293.982C250.75 295.299 250.822 296.617 250.997 297.926H250.921C250.537 297.314 250.127 296.716 249.693 296.132L234.549 275.118H229.953ZM262.167 275.118V301.943H278.248L278.266 298.999H265.784V289.701H276.706V286.874H265.784V277.957H277.505V275.118H262.167ZM280.973 275.118V277.957H289.668V301.943H293.202V277.96H302V275.121L280.973 275.118ZM221.258 298.119C220.961 298.125 220.669 298.184 220.398 298.293C220.127 298.401 219.883 298.557 219.681 298.75C219.464 298.943 219.291 299.173 219.174 299.426C219.057 299.678 218.998 299.949 219 300.222C218.996 300.496 219.054 300.767 219.171 301.02C219.289 301.273 219.462 301.502 219.681 301.694C219.895 301.893 220.153 302.05 220.439 302.157C220.724 302.263 221.032 302.315 221.341 302.31C221.651 302.313 221.957 302.259 222.243 302.153C222.528 302.047 222.786 301.891 223.001 301.694C223.224 301.504 223.401 301.275 223.52 301.022C223.64 300.769 223.7 300.497 223.697 300.222C223.698 299.948 223.637 299.677 223.518 299.424C223.398 299.171 223.223 298.942 223.001 298.75C222.788 298.55 222.531 298.391 222.245 298.282C221.96 298.173 221.652 298.118 221.341 298.119C221.314 298.118 221.286 298.118 221.258 298.119Z" fill="black" fill-opacity="0.3"/>
<path d="M635.87 40.017C635.87 40.017 634.531 29.8898 622.152 29.6069C609.77 29.327 603.416 37.2031 603.416 48.4589C603.416 59.7148 610.443 68.7195 622.485 68.7195C634.531 68.7195 635.873 57.4636 635.873 57.4636L658.959 58.5892C658.959 58.5892 660.316 68.7564 650.656 76.5125C640.993 84.2686 629.138 85.5357 620.855 85.4834C612.572 85.428 601.092 85.5879 589.986 76.3526C578.89 67.1234 577 58.1525 577 49.3416C577 40.5276 579.105 28.8565 592.31 20.0025C601.279 13.9932 610.377 11.7759 619.475 11.7759C657.454 11.7728 660 40.2139 660 40.2139L635.87 40.017Z" fill="black" fill-opacity="0.3"/>
<path d="M44.3681 262.704L3 275.612L9.53567 323.668L44.4121 340.663L79.4643 323.437L86 275.382L44.3681 262.704ZM44.2692 266.79L81.8749 278.159L75.7825 321.141L44.2692 336.603L13.2431 321.345L7.64164 278.367L44.2692 266.79ZM44.2692 269.324L18.6981 319.776L28.2378 319.62L33.3667 308.248H56.2891L61.9016 319.78L71.031 319.929L44.2692 269.324ZM44.3425 285.5L52.97 301.514H36.7261L44.3425 285.5Z" fill="black" fill-opacity="0.3"/>
<path d="M411 300.81H427.14V302.858H411V300.81ZM411 296.878H427.14V298.933H411V296.878ZM415.6 292.956H422.527V295.014H415.6V292.956ZM415.6 289.038H422.527V291.092H415.6V289.038ZM415.6 285.113H422.527V287.17H415.6V285.113ZM415.6 281.185H422.527V283.242H415.6V281.185ZM411 277.266H427.14V279.32H411V277.266ZM411 273.344H427.14V275.398H411V273.344ZM429.44 298.933H454.26C454.675 298.301 454.993 297.605 455.184 296.878H429.443V298.933H429.44ZM452.327 289.038H434.057V291.092H454.264C453.752 290.318 453.1 289.624 452.334 289.038H452.327ZM434.053 285.113V287.17H452.331C453.102 286.594 453.748 285.901 454.264 285.113H434.053ZM454.26 277.266H429.44V279.32H455.18C454.971 278.604 454.662 277.914 454.26 277.266ZM446.631 273.344H429.44V275.398H452.559C450.945 274.076 448.828 273.342 446.631 273.344ZM434.053 281.185H440.97V283.242H434.053V281.185ZM447.89 283.242H455.125C455.329 282.586 455.436 281.893 455.436 281.185H447.89V283.242ZM434.053 292.956H440.966V295.014H434.05L434.053 292.956ZM447.89 292.956V295.014H455.436C455.436 294.309 455.329 293.613 455.125 292.956H447.89ZM429.44 302.843L446.628 302.864C448.934 302.864 451.013 302.076 452.566 300.81H429.44V302.843ZM457.113 300.81H468.637V302.858H457.113V300.81ZM457.113 296.878H468.637V298.933H457.113V296.878ZM461.716 292.956H468.633V295.014H461.716V292.956ZM461.716 289.038H468.633V291.092H461.716V289.038ZM471.846 277.266H457.113V279.32H472.641L471.846 277.266ZM470.317 273.344H457.113V275.395H471.113L470.317 273.344ZM482.466 300.81H494V302.858H482.466V300.81ZM482.466 296.878H494V298.933H482.466V296.878ZM482.466 292.956H489.383V295.014H482.466V292.956ZM482.466 289.038H489.383V291.092H482.466V289.038ZM482.466 287.17H489.383V285.113H476.203L475.553 286.775L474.903 285.113H461.716V287.17H468.633V285.281L469.37 287.17H481.733L482.466 285.281V287.17ZM489.387 281.185H477.732L476.937 283.242H489.387V281.185ZM480.8 273.344L480.001 275.395H494V273.344H480.8ZM475.553 302.843L476.349 300.81H474.754L475.553 302.843ZM474.025 298.933H477.082L477.905 296.878H473.212L474.025 298.933ZM472.472 295.014H478.635L479.447 292.956H471.656L472.472 295.014ZM470.923 291.092H480.187L480.979 289.038H470.127L470.923 291.092ZM461.716 283.242H474.173L473.374 281.185H461.716V283.242ZM478.472 279.32H494V277.266H479.261L478.472 279.32Z" fill="black" fill-opacity="0.5"/>
<path d="M12 155.079L19.7709 145.984L48.8382 135.509V127.929L74.3261 144.466L22.2574 153.426V178.644L12 176.026V155.079ZM95 141.434V186.363L75.1042 201.385L42.9313 192.014V201.385L22.2574 178.644L74.3295 184.158V144.466L95 141.434Z" fill="black" fill-opacity="0.3"/>
<path d="M238 0.667969H321V74.2617H238V0.667969ZM314.201 56.7096C313.596 53.3519 311.13 50.5308 303.816 47.8998C301.27 46.8419 298.441 46.1059 297.601 44.4041C297.286 43.3922 297.238 42.8402 297.442 42.2423C297.961 40.2614 300.606 39.6665 302.681 40.2185C304.03 40.5864 305.275 41.5063 306.057 42.9782C309.632 40.9053 309.632 40.9053 312.126 39.5285C311.192 38.2406 310.729 37.6856 310.099 37.1367C307.921 34.9749 305.019 33.871 300.298 33.9661L297.86 34.239C295.522 34.7449 293.295 35.8488 291.947 37.3207C288.004 41.2794 289.142 48.1788 293.914 51.0306C298.635 54.1583 305.538 54.8452 306.42 57.792C307.25 61.3797 303.411 62.5296 299.621 62.1156C296.816 61.5637 295.263 60.3187 293.551 58.0189L287.222 61.2417C287.949 62.7136 288.779 63.3545 290.024 64.6424C296.041 70.027 311.085 69.751 313.786 61.5637C313.886 61.2877 314.616 59.4019 314.042 56.5041L314.201 56.7096ZM283.135 34.4935H275.36C275.36 40.4362 275.329 46.3421 275.329 52.294C275.329 56.0718 275.547 59.5399 274.852 60.607C273.711 62.7197 270.771 62.4499 269.436 62.0788C268.067 61.4778 267.372 60.6499 266.566 59.4571C266.348 59.1351 266.185 58.8561 266.127 58.8561L259.815 62.3058C260.87 64.2376 262.409 65.8996 264.394 66.9575C267.351 68.5214 271.324 69.0273 275.485 68.1994C278.193 67.5064 280.527 66.0805 281.748 63.8727C283.512 61.0209 283.138 57.5252 283.121 53.6125C283.162 47.3141 283.121 41.0126 283.121 34.6652L283.135 34.4935Z" fill="black" fill-opacity="0.3"/>
</svg>
