<svg width="438" height="391" viewBox="0 0 438 391" fill="none" xmlns="http://www.w3.org/2000/svg">
<path d="M240.115 192.541C239.004 192.541 237.897 192.283 236.925 191.783L226.769 186.456C225.254 185.704 225.994 185.438 226.493 185.281C228.516 184.658 228.924 184.514 231.086 183.429C231.311 183.315 231.609 183.358 231.84 183.481L239.644 187.588C239.789 187.656 239.951 187.691 240.115 187.691C240.279 187.691 240.44 187.656 240.585 187.588L271.008 172.019C271.15 171.943 271.267 171.836 271.348 171.708C271.43 171.58 271.472 171.436 271.472 171.289V140.158C271.471 140.008 271.428 139.862 271.345 139.732C271.261 139.602 271.142 139.493 270.998 139.416L240.589 123.859C240.445 123.788 240.284 123.751 240.12 123.751C239.956 123.751 239.794 123.788 239.651 123.859L209.249 139.419C209.104 139.495 208.984 139.603 208.899 139.733C208.815 139.862 208.77 140.008 208.768 140.158V171.289C208.769 171.436 208.814 171.581 208.898 171.707C208.983 171.834 209.104 171.938 209.249 172.01L217.582 176.279C222.103 178.285 224.874 175.923 224.874 173.549V142.814C224.874 142.378 225.268 142.038 225.759 142.038H229.616C230.097 142.038 230.498 142.382 230.498 142.814V173.549C230.498 178.902 227.212 181.969 221.491 181.969C219.733 181.969 218.346 181.969 214.483 180.279L206.499 176.209C205.528 175.708 204.723 174.99 204.164 174.126C203.604 173.263 203.309 172.285 203.31 171.289V140.158C203.31 138.137 204.531 136.247 206.499 135.241L236.922 119.654C237.902 119.179 239.001 118.93 240.118 118.93C241.235 118.93 242.334 119.179 243.314 119.654L273.734 135.241C275.706 136.25 276.93 138.137 276.93 140.158V171.289C276.928 172.285 276.632 173.263 276.071 174.126C275.51 174.989 274.705 175.707 273.734 176.209L243.314 191.783C242.346 192.283 241.242 192.541 240.115 192.541ZM264.678 161.848C264.678 156.021 260.236 154.469 250.886 153.374C241.439 152.267 240.478 151.693 240.478 149.733C240.478 148.114 241.291 145.952 248.289 145.952C254.539 145.952 256.843 147.145 257.791 150.88C257.834 151.053 257.942 151.208 258.097 151.318C258.253 151.429 258.446 151.49 258.645 151.491H262.592C262.713 151.49 262.832 151.467 262.942 151.425C263.053 151.382 263.152 151.32 263.235 151.242C263.319 151.162 263.383 151.067 263.423 150.963C263.462 150.86 263.478 150.75 263.467 150.641C262.855 144.206 258.033 141.207 248.289 141.207C239.613 141.207 234.438 144.452 234.438 149.896C234.438 155.8 239.585 157.432 247.911 158.162C257.874 159.027 258.645 160.318 258.645 162.054C258.645 165.069 255.916 166.354 249.506 166.354C241.457 166.354 239.686 164.563 239.091 161.011C239.058 160.827 238.951 160.659 238.791 160.538C238.63 160.417 238.426 160.351 238.216 160.352H234.283C234.167 160.351 234.053 160.37 233.946 160.409C233.839 160.448 233.742 160.505 233.66 160.577C233.579 160.649 233.514 160.735 233.47 160.83C233.426 160.924 233.403 161.025 233.404 161.128C233.404 165.673 236.192 171.09 249.506 171.09C259.15 171.093 264.678 167.728 264.678 161.848Z" fill="black" fill-opacity="0.99"/>
<path d="M408.155 3L373 34.1345L383.827 43.7344L429.721 3.03113H408.193L408.155 3ZM408.196 31.7268L389.261 48.4798L408.193 65.2665H429.768L410.865 48.485L429.768 31.7242H408.199L408.196 31.7268Z" fill="black" fill-opacity="0.99"/>
<path d="M407.736 127.336L424.744 136.045C425.535 135.307 426.508 134.742 427.588 134.396C428.667 134.05 429.823 133.931 430.963 134.05C432.104 134.168 433.197 134.521 434.157 135.079C435.117 135.638 435.916 136.387 436.493 137.268C437.062 138.15 437.393 139.137 437.458 140.152C437.523 141.166 437.322 142.181 436.869 143.114C436.417 144.048 435.726 144.876 434.85 145.532C433.975 146.189 432.94 146.656 431.826 146.897V164.312C432.943 164.547 433.983 165.011 434.861 165.667C435.739 166.322 436.432 167.151 436.883 168.087C437.335 169.023 437.533 170.04 437.462 171.056C437.39 172.072 437.051 173.059 436.472 173.937C435.887 174.833 435.071 175.593 434.09 176.155C433.11 176.717 431.994 177.064 430.832 177.17C429.671 177.275 428.498 177.135 427.41 176.76C426.322 176.386 425.349 175.788 424.572 175.016L407.667 183.67C408.003 184.569 408.116 185.521 407.997 186.462C407.877 187.402 407.529 188.309 406.976 189.118C406.423 189.928 405.678 190.622 404.793 191.151C403.909 191.681 402.905 192.033 401.851 192.185C400.797 192.337 399.719 192.284 398.69 192.031C397.662 191.777 396.708 191.328 395.894 190.716C395.08 190.103 394.426 189.341 393.977 188.482C393.528 187.624 393.294 186.689 393.292 185.742C393.292 185.116 393.392 184.489 393.596 183.881L376.584 175.181C375.792 175.915 374.819 176.475 373.74 176.817C372.662 177.159 371.508 177.274 370.371 177.152C369.234 177.03 368.145 176.675 367.189 176.115C366.234 175.555 365.439 174.806 364.867 173.926C364.295 173.046 363.961 172.06 363.894 171.047C363.826 170.033 364.025 169.019 364.476 168.086C364.927 167.152 365.617 166.324 366.491 165.668C367.365 165.012 368.399 164.546 369.512 164.306L369.516 146.89C368.4 146.653 367.361 146.189 366.483 145.534C365.605 144.879 364.912 144.051 364.458 143.116C364.004 142.182 363.802 141.166 363.868 140.15C363.934 139.135 364.266 138.147 364.839 137.265C365.413 136.384 366.212 135.634 367.17 135.074C368.128 134.514 369.221 134.16 370.36 134.04C371.5 133.92 372.656 134.037 373.735 134.382C374.815 134.727 375.789 135.29 376.581 136.027L393.599 127.318C393.273 126.343 393.209 125.314 393.411 124.313C393.613 123.312 394.075 122.367 394.761 121.552C395.448 120.738 396.339 120.077 397.364 119.621C398.39 119.166 399.521 118.929 400.668 118.93C401.817 118.928 402.951 119.164 403.978 119.62C405.006 120.077 405.899 120.74 406.586 121.557C407.273 122.374 407.735 123.322 407.935 124.326C408.134 125.329 408.066 126.36 407.736 127.336ZM405.961 130.016C405.898 130.078 405.831 130.137 405.761 130.193L428.028 164.388C428.118 164.361 428.221 164.339 428.311 164.318V146.878C427.373 146.672 426.489 146.304 425.711 145.794C424.934 145.285 424.276 144.645 423.778 143.911C423.279 143.176 422.949 142.362 422.805 141.514C422.662 140.666 422.708 139.802 422.942 138.97L423.007 138.75L405.961 130.016ZM395.57 130.196L395.364 130.013L378.318 138.728C378.586 139.552 378.668 140.415 378.561 141.267C378.453 142.119 378.156 142.944 377.689 143.695C377.221 144.445 376.591 145.107 375.835 145.642C375.079 146.176 374.212 146.574 373.282 146.811L373.021 146.875V164.318L373.31 164.388L395.577 130.193L395.57 130.196ZM402.725 131.746C401.381 132.088 399.958 132.088 398.617 131.746L376.353 165.937C377.366 166.802 378.083 167.908 378.421 169.118H422.917C423.252 167.902 423.975 166.793 424.996 165.928L402.725 131.746ZM406.123 181.333L423.055 172.66C423.005 172.517 422.961 172.372 422.924 172.226H378.411L378.338 172.48L395.36 181.195C396.047 180.561 396.871 180.058 397.783 179.715C398.695 179.372 399.677 179.197 400.668 179.2C402.828 179.2 404.769 180.022 406.123 181.333Z" fill="black" fill-opacity="0.99"/>
<path d="M227.023 370.136C227.023 370.136 223.209 372.107 229.739 372.771C237.65 373.575 241.693 373.461 250.406 371.992C250.406 371.992 252.702 373.269 255.901 374.376C236.356 381.804 211.675 373.941 227.023 370.136ZM224.631 360.443C224.631 360.443 220.355 363.251 226.885 363.852C235.337 364.623 242.009 364.69 253.559 362.716C253.559 362.716 255.156 364.151 257.664 364.937C234.044 371.066 207.724 365.417 224.631 360.443ZM244.762 343.993C249.579 348.912 243.498 353.339 243.498 353.339C243.498 353.339 255.722 347.738 250.107 340.727C244.862 334.189 240.84 330.941 262.614 319.739C262.614 319.735 228.441 327.307 244.762 343.993ZM270.608 377.31C270.608 377.31 273.432 379.372 267.501 380.966C256.221 383.999 220.551 384.911 210.648 381.088C207.087 379.712 213.767 377.804 215.863 377.405C218.055 376.985 219.307 377.062 219.307 377.062C215.343 374.586 193.703 381.922 208.314 384.025C248.16 389.756 280.944 381.442 270.608 377.31ZM228.857 350.395C228.857 350.395 210.714 354.218 222.435 355.605C227.38 356.192 237.246 356.059 246.434 355.376C253.946 354.815 261.482 353.616 261.482 353.616C261.482 353.616 258.833 354.62 256.916 355.782C238.494 360.081 202.903 358.081 213.152 353.686C221.811 349.974 228.857 350.395 228.857 350.395ZM261.399 366.535C280.129 357.9 271.469 349.602 265.425 350.723C263.949 350.996 263.283 351.233 263.283 351.233C263.283 351.233 263.832 350.469 264.885 350.137C276.843 346.406 286.039 361.136 261.025 366.97C261.025 366.967 261.316 366.741 261.399 366.535ZM250.107 301.65C250.107 301.65 260.48 310.853 240.27 325.008C224.065 336.362 236.577 342.838 240.266 350.233C230.808 342.657 223.866 335.997 228.52 329.794C235.358 320.683 254.295 316.27 250.107 301.65ZM230.695 389.929C248.672 390.951 276.277 389.365 276.93 381.819C276.93 381.819 275.674 384.678 262.073 386.951C246.734 389.512 227.805 389.213 216.583 387.571C216.583 387.568 218.883 389.258 230.695 389.929Z" fill="black" fill-opacity="0.99"/>
<path d="M32.6814 24.9369C32.6814 26.1979 32.8352 27.2161 33.1042 27.9616C33.4117 28.7113 33.7961 29.5293 34.3342 30.4154C34.5264 30.6838 34.6032 30.9564 34.6032 31.195C34.6032 31.5358 34.3726 31.8766 33.8729 32.2174L31.4562 33.6445C31.1642 33.8313 30.8167 33.9379 30.4569 33.9512C30.0725 33.9512 29.6882 33.7808 29.3086 33.4741C28.7925 32.9819 28.3307 32.4469 27.9297 31.8766C27.5002 31.2232 27.1026 30.5538 26.7382 29.8701C23.7497 32.997 19.9877 34.5604 15.4618 34.5604C12.2428 34.5604 9.67231 33.7468 7.79372 32.1151C5.91513 30.4793 4.95902 28.3066 4.95902 25.5845C4.95902 22.6961 6.10731 20.3446 8.44714 18.5809C10.787 16.813 13.8907 15.9269 17.8401 15.9269C19.1469 15.9269 20.4874 16.0291 21.9048 16.1995C23.3269 16.3699 24.7875 16.6426 26.3154 16.9493V14.4657C26.3154 11.8798 25.7052 10.0778 24.5136 9.02553C23.2885 7.96903 21.2177 7.46208 18.2677 7.46208C16.9224 7.46208 15.5387 7.59415 14.1213 7.90087C12.704 8.2076 11.3203 8.58248 9.9798 9.05961C9.54274 9.23313 9.09335 9.38113 8.63452 9.50266C8.43691 9.55913 8.23173 9.59208 8.02434 9.60064C7.48623 9.60064 7.21717 9.25984 7.21717 8.5484V6.88271C7.21717 6.33742 7.29404 5.92846 7.48623 5.68989C7.77645 5.38061 8.14529 5.13678 8.56245 4.97846C10.099 4.302 11.7196 3.78729 13.391 3.44483C15.3466 3.00093 17.359 2.78469 19.3775 2.80156C23.9419 2.80156 27.2763 3.72174 29.4239 5.55783C31.5331 7.38966 32.6045 10.18 32.6045 13.9204V24.9369H32.6814ZM17.1146 30.1087C18.3782 30.1087 19.6802 29.9042 21.0639 29.4952C22.4704 29.0643 23.7257 28.3154 24.7058 27.3226C25.3253 26.6946 25.7725 25.9481 26.0127 25.1414C26.2385 24.3277 26.397 23.3394 26.397 22.1849V20.7578C25.2331 20.5062 24.0541 20.3128 22.8657 20.1784C21.6705 20.0438 20.467 19.9755 19.2622 19.9739C16.6918 19.9739 14.8132 20.417 13.5448 21.3372C12.2812 22.2531 11.671 23.5439 11.671 25.2436C11.671 26.8412 12.1274 28.034 13.0884 28.8477C14.006 29.6997 15.3465 30.1087 17.1146 30.1087ZM47.9119 33.7808C47.2201 33.7808 46.7588 33.6786 46.4513 33.44C46.1438 33.2355 45.8748 32.7584 45.6442 32.1151L36.6356 5.82622C36.4603 5.38542 36.3442 4.92786 36.2896 4.46299C36.2896 3.9177 36.5971 3.61098 37.2073 3.61098H40.9693C41.6948 3.61098 42.1945 3.71748 42.4587 3.95178C42.771 4.15627 43.0016 4.63339 43.2275 5.28092L49.6752 27.7912L55.6569 5.28092C55.8491 4.59931 56.0797 4.15627 56.3824 3.95178C56.8433 3.70113 57.3801 3.58216 57.9198 3.61098H60.9852C61.7155 3.61098 62.2151 3.71748 62.5226 3.95178C62.8253 4.15627 63.0992 4.63339 63.2481 5.28092L69.3067 28.0638L75.9418 5.28092C76.1724 4.59931 76.4415 4.15627 76.7105 3.95178C77.1556 3.70125 77.6786 3.58195 78.2048 3.61098H81.7746C82.3847 3.61098 82.7355 3.88788 82.7355 4.46299C82.7355 4.63339 82.6922 4.8038 82.6538 5.00828C82.5936 5.29897 82.5035 5.58416 82.3847 5.8603L73.1455 32.145C72.9149 32.8266 72.6459 33.2654 72.3384 33.4699C71.9055 33.7161 71.3962 33.8353 70.8826 33.8107H67.5818C66.8563 33.8107 66.3567 33.7084 66.0444 33.4699C65.7417 33.2313 65.4726 32.7882 65.3237 32.1066L59.3756 10.1758L53.466 32.0726C53.2738 32.7542 53.048 33.1972 52.7453 33.4358C52.433 33.6743 51.8949 33.7766 51.2079 33.7766L47.9119 33.7808ZM97.1876 34.6968C95.1937 34.6968 93.1998 34.4923 91.2828 34.0876C89.3658 33.6786 87.8716 33.2356 86.8722 32.7243C86.2572 32.4219 85.8392 32.0811 85.6855 31.7743C85.5357 31.4736 85.4572 31.1488 85.4548 30.8201V29.0862C85.4548 28.3748 85.7623 28.034 86.3341 28.034C86.5647 28.034 86.7953 28.0681 87.0259 28.1362C87.2566 28.2044 87.6025 28.3407 87.9869 28.477C89.2889 28.9883 90.7063 29.393 92.2053 29.6656C93.7379 29.9382 95.2322 30.0746 96.7696 30.0746C99.1815 30.0746 101.065 29.6997 102.367 28.9499C102.991 28.6155 103.504 28.1407 103.855 27.5735C104.205 27.0064 104.379 26.3672 104.361 25.7208C104.375 25.283 104.291 24.8471 104.114 24.4383C103.936 24.0295 103.669 23.656 103.328 23.3394C102.636 22.6961 101.329 22.1168 99.4506 21.5715L93.8917 20.0378C91.0906 19.2582 89.0198 18.1038 87.7562 16.5744C86.5195 15.163 85.8438 13.4285 85.8344 11.6412C85.8344 10.2141 86.1852 8.95737 86.8722 7.86679C87.5641 6.78047 88.4817 5.82621 89.6348 5.0807C90.7879 4.29685 92.0852 3.71748 93.6226 3.31277C95.1601 2.9038 96.7696 2.7334 98.456 2.7334C99.2968 2.7334 100.181 2.76748 101.026 2.86972C101.906 2.97196 102.708 3.10828 103.515 3.24461C104.284 3.41501 105.014 3.58541 105.701 3.78564C106.393 3.99012 106.931 4.19461 107.316 4.39909C107.768 4.60119 108.163 4.89267 108.469 5.2511C108.716 5.58192 108.836 5.97513 108.81 6.3715V7.96903C108.81 8.68473 108.502 9.05961 107.926 9.05961C107.415 9.00772 106.921 8.86885 106.47 8.65065C104.153 7.74313 101.642 7.29115 99.1095 7.32576C96.9234 7.32576 95.1937 7.62823 94.007 8.27576C92.8155 8.92329 92.2053 9.90737 92.2053 11.3004C92.2053 12.2547 92.5896 13.0726 93.3584 13.7159C94.1223 14.3634 95.5396 15.0109 97.572 15.5903L103.02 17.1154C105.778 17.8993 107.777 18.9899 108.964 20.3829C110.15 21.7759 110.727 23.3735 110.727 25.1414C110.727 26.6026 110.381 27.9318 109.732 29.0862C109.05 30.2503 108.095 31.2715 106.931 32.0811C105.74 32.9331 104.322 33.5423 102.674 33.9853C100.945 34.4582 99.1479 34.6968 97.1876 34.6968ZM104.438 51.2259C91.8209 59.4904 73.4867 63.874 57.7277 63.874C35.6362 63.874 15.7357 56.6319 0.697362 44.5929C-0.489368 43.6429 0.582052 42.3479 2.00421 43.0976C18.2629 51.4602 38.322 56.5297 59.0681 56.5297C73.0687 56.5297 88.4433 53.9438 102.598 48.64C104.707 47.788 106.508 49.8626 104.438 51.2259ZM109.694 45.9178C108.08 44.086 99.0278 45.036 94.9247 45.479C93.6995 45.6153 93.5073 44.6611 94.622 43.9454C101.829 39.4595 113.682 40.7503 115.061 42.2456C116.44 43.7792 114.676 54.2846 107.926 59.3157C106.893 60.0996 105.894 59.6906 106.355 58.6725C107.892 55.307 111.303 47.7241 109.694 45.9178Z" fill="black" fill-opacity="0.99"/>
<path d="M213.025 243.109V266.902H216.163V249.702C216.195 248.612 216.145 247.522 216.012 246.438H216.132C216.356 246.959 216.642 247.458 216.985 247.926L230.779 266.902H234.635V243.109H231.5V259.842C231.472 261.01 231.535 262.179 231.69 263.339H231.623C231.283 262.797 230.919 262.266 230.534 261.748L217.101 243.109H213.025ZM241.598 243.109V266.902H255.862L255.878 264.291H244.807V256.045H254.494V253.537H244.807V245.627H255.203V243.109H241.598ZM258.28 243.109V245.627H265.991V266.902H269.126V245.63H276.93V243.112L258.28 243.109ZM205.313 263.511C205.049 263.516 204.79 263.569 204.549 263.665C204.309 263.761 204.093 263.899 203.914 264.071C203.721 264.242 203.568 264.446 203.464 264.67C203.36 264.894 203.308 265.134 203.31 265.376C203.306 265.619 203.358 265.86 203.462 266.084C203.565 266.308 203.719 266.512 203.914 266.682C204.104 266.858 204.332 266.998 204.586 267.092C204.839 267.186 205.112 267.233 205.386 267.229C205.661 267.231 205.933 267.183 206.186 267.089C206.439 266.995 206.668 266.857 206.859 266.682C207.056 266.513 207.213 266.31 207.319 266.086C207.425 265.861 207.478 265.62 207.475 265.376C207.477 265.133 207.423 264.892 207.317 264.668C207.211 264.444 207.055 264.241 206.859 264.071C206.67 263.893 206.441 263.752 206.188 263.655C205.935 263.559 205.662 263.51 205.386 263.511C205.362 263.51 205.337 263.51 205.313 263.511Z" fill="black" fill-opacity="0.99"/>
<path d="M416.073 338.231C416.073 338.231 414.885 329.248 403.905 328.997C392.922 328.749 387.286 335.735 387.286 345.719C387.286 355.703 393.519 363.69 404.201 363.69C414.885 363.69 416.076 353.706 416.076 353.706L436.553 354.704C436.553 354.704 437.756 363.723 429.188 370.602C420.617 377.482 410.101 378.606 402.755 378.559C395.408 378.51 385.225 378.652 375.374 370.46C365.532 362.274 363.855 354.317 363.855 346.502C363.855 338.684 365.723 328.332 377.435 320.478C385.391 315.148 393.461 313.181 401.53 313.181C435.218 313.178 437.476 338.405 437.476 338.405L416.073 338.231Z" fill="black" fill-opacity="0.99"/>
<path d="M39.5419 232.496L2.84863 243.946L8.64573 286.571L39.5809 301.646L70.672 286.366L76.4691 243.742L39.5419 232.496ZM39.4542 236.121L72.8102 246.205L67.4063 284.329L39.4542 298.044L11.9342 284.511L6.96574 246.389L39.4542 236.121ZM39.4542 238.368L16.7727 283.119L25.2344 282.981L29.7837 272.894H50.1157L55.0939 283.122L63.1917 283.255L39.4542 238.368ZM39.5191 252.717L47.1717 266.921H32.7635L39.5191 252.717Z" fill="black" fill-opacity="0.99"/>
<path d="M363.855 266.584H378.172V268.401H363.855V266.584ZM363.855 263.097H378.172V264.919H363.855V263.097ZM367.935 259.618H374.08V261.443H367.935V259.618ZM367.935 256.142H374.08V257.964H367.935V256.142ZM367.935 252.661H374.08V254.486H367.935V252.661ZM367.935 249.176H374.08V251.001H367.935V249.176ZM363.855 245.7H378.172V247.523H363.855V245.7ZM363.855 242.222H378.172V244.044H363.855V242.222ZM380.211 264.919H402.227C402.595 264.359 402.877 263.741 403.046 263.097H380.215V264.919H380.211ZM400.512 256.142H384.307V257.964H402.23C401.776 257.278 401.198 256.662 400.518 256.142H400.512ZM384.304 252.661V254.486H400.515C401.199 253.974 401.773 253.36 402.23 252.661H384.304ZM402.227 245.7H380.211V247.523H403.043C402.858 246.887 402.584 246.275 402.227 245.7ZM395.46 242.222H380.211V244.044H400.718C399.287 242.871 397.409 242.22 395.46 242.222ZM384.304 249.176H390.439V251.001H384.304V249.176ZM396.577 251.001H402.994C403.175 250.419 403.27 249.805 403.27 249.176H396.577V251.001ZM384.304 259.618H390.436V261.443H384.3L384.304 259.618ZM396.577 259.618V261.443H403.27C403.27 260.818 403.175 260.2 402.994 259.618H396.577ZM380.211 268.387L395.457 268.406C397.503 268.406 399.347 267.707 400.724 266.584H380.211V268.387ZM404.758 266.584H414.979V268.401H404.758V266.584ZM404.758 263.097H414.979V264.919H404.758V263.097ZM408.841 259.618H414.976V261.443H408.841V259.618ZM408.841 256.142H414.976V257.964H408.841V256.142ZM417.825 245.7H404.758V247.523H418.531L417.825 245.7ZM416.47 242.222H404.758V244.041H417.175L416.47 242.222ZM427.246 266.584H437.476V268.401H427.246V266.584ZM427.246 263.097H437.476V264.919H427.246V263.097ZM427.246 259.618H433.381V261.443H427.246V259.618ZM427.246 256.142H433.381V257.964H427.246V256.142ZM427.246 254.486H433.381V252.661H421.69L421.114 254.135L420.537 252.661H408.841V254.486H414.976V252.81L415.629 254.486H426.595L427.246 252.81V254.486ZM433.384 249.176H423.046L422.341 251.001H433.384V249.176ZM425.767 242.222L425.059 244.041H437.476V242.222H425.767ZM421.114 268.387L421.819 266.584H420.405L421.114 268.387ZM419.758 264.919H422.47L423.2 263.097H419.037L419.758 264.919ZM418.381 261.443H423.847L424.568 259.618H417.657L418.381 261.443ZM417.006 257.964H425.224L425.927 256.142H416.301L417.006 257.964ZM408.841 251.001H419.89L419.181 249.176H408.841V251.001ZM423.703 247.523H437.476V245.7H424.402L423.703 247.523Z" fill="black" fill-opacity="0.76"/>
<path d="M10.832 137.034L17.7247 128.967L43.5072 119.676V112.953L66.1149 127.621L19.9303 135.568V157.937L10.832 155.614V137.034ZM84.4525 124.931V164.783L66.8051 178.107L38.2679 169.795V178.107L19.9303 157.937L66.1179 162.827V127.621L84.4525 124.931Z" fill="black" fill-opacity="0.99"/>
<path d="M203.31 0.959473H276.93V66.2366H203.31V0.959473ZM270.899 50.668C270.362 47.6897 268.175 45.1875 261.688 42.8538C259.43 41.9154 256.921 41.2627 256.175 39.7531C255.896 38.8556 255.853 38.366 256.034 37.8356C256.494 36.0786 258.841 35.5509 260.681 36.0405C261.878 36.3669 262.982 37.1828 263.675 38.4884C266.847 36.6498 266.847 36.6498 269.059 35.4285C268.231 34.2862 267.82 33.7939 267.261 33.307C265.329 31.3895 262.755 30.4103 258.568 30.4947L256.405 30.7367C254.332 31.1855 252.356 32.1647 251.16 33.4702C247.663 36.9816 248.672 43.1013 252.905 45.6308C257.092 48.4051 263.215 49.0143 263.997 51.6281C264.734 54.8104 261.329 55.8304 257.967 55.4632C255.479 54.9736 254.102 53.8693 252.583 51.8294L246.97 54.688C247.614 55.9935 248.35 56.562 249.454 57.7044C254.792 62.4805 268.135 62.2357 270.531 54.9736C270.62 54.7288 271.267 53.0561 270.758 50.4858L270.899 50.668ZM243.344 30.9625H236.448C236.448 36.2336 236.42 41.4721 236.42 46.7514C236.42 50.1023 236.614 53.1785 235.997 54.125C234.985 55.999 232.377 55.7596 231.193 55.4305C229.979 54.8974 229.362 54.1631 228.647 53.105C228.454 52.8194 228.31 52.5719 228.258 52.5719L222.659 55.6318C223.595 57.3453 224.96 58.8195 226.721 59.7579C229.344 61.145 232.868 61.5938 236.558 60.8594C238.96 60.2447 241.031 58.98 242.114 57.0217C243.678 54.4922 243.347 51.3915 243.331 47.9209C243.368 42.3343 243.331 36.7449 243.331 31.1148L243.344 30.9625Z" fill="black" fill-opacity="0.99"/>
</svg>
