<svg width="493" height="439" viewBox="0 0 493 439" fill="none" xmlns="http://www.w3.org/2000/svg">
<path d="M270.494 215.99C269.242 215.99 267.994 215.699 266.899 215.136L255.449 209.129C253.74 208.282 254.575 207.981 255.137 207.805C257.418 207.103 257.878 206.94 260.316 205.716C260.569 205.588 260.904 205.637 261.166 205.775L269.964 210.405C270.127 210.482 270.309 210.522 270.494 210.522C270.679 210.522 270.861 210.482 271.025 210.405L305.324 192.853C305.483 192.768 305.616 192.647 305.707 192.503C305.799 192.358 305.847 192.196 305.846 192.03V156.933C305.846 156.764 305.796 156.599 305.703 156.452C305.609 156.306 305.475 156.183 305.312 156.096L271.028 138.558C270.867 138.478 270.685 138.436 270.5 138.436C270.315 138.436 270.133 138.478 269.972 138.558L235.696 156.099C235.533 156.185 235.397 156.307 235.302 156.453C235.207 156.599 235.156 156.764 235.154 156.933V192.03C235.155 192.196 235.205 192.359 235.301 192.502C235.396 192.644 235.532 192.762 235.696 192.843L245.091 197.656C250.188 199.917 253.312 197.255 253.312 194.579V159.927C253.312 159.436 253.756 159.052 254.31 159.052H258.658C259.2 159.052 259.653 159.44 259.653 159.927V194.579C259.653 200.612 255.948 204.07 249.497 204.07C247.516 204.07 245.953 204.07 241.596 202.165L232.596 197.576C231.502 197.012 230.594 196.202 229.963 195.229C229.332 194.256 229 193.153 229 192.03V156.933C229 154.654 230.377 152.524 232.596 151.39L266.895 133.817C267.999 133.281 269.239 133 270.498 133C271.757 133 272.997 133.281 274.101 133.817L308.397 151.39C310.619 152.527 312 154.654 312 156.933V192.03C311.998 193.153 311.664 194.256 311.032 195.229C310.4 196.202 309.491 197.011 308.397 197.576L274.101 215.136C273.01 215.699 271.765 215.99 270.494 215.99ZM298.187 181.387C298.187 174.817 293.179 173.067 282.638 171.833C271.988 170.584 270.904 169.938 270.904 167.728C270.904 165.902 271.82 163.465 279.709 163.465C286.756 163.465 289.354 164.81 290.422 169.021C290.471 169.216 290.593 169.39 290.768 169.515C290.943 169.64 291.161 169.709 291.386 169.71H295.835C295.971 169.708 296.105 169.683 296.23 169.635C296.355 169.587 296.467 169.517 296.561 169.429C296.655 169.339 296.727 169.232 296.772 169.115C296.817 168.998 296.834 168.875 296.822 168.752C296.132 161.497 290.695 158.115 279.709 158.115C269.929 158.115 264.095 161.774 264.095 167.911C264.095 174.568 269.897 176.407 279.284 177.23C290.516 178.206 291.386 179.661 291.386 181.618C291.386 185.018 288.309 186.466 281.082 186.466C272.007 186.466 270.011 184.447 269.34 180.443C269.303 180.235 269.183 180.046 269.002 179.909C268.821 179.773 268.591 179.698 268.353 179.699H263.919C263.789 179.698 263.66 179.72 263.54 179.764C263.419 179.808 263.31 179.872 263.218 179.953C263.126 180.035 263.053 180.131 263.003 180.238C262.953 180.345 262.928 180.459 262.928 180.574C262.928 185.699 266.072 191.805 281.082 191.805C291.955 191.809 298.187 188.015 298.187 181.387Z" fill="black" fill-opacity="0.99"/>
<path d="M459.634 2L420 37.1012L432.206 47.9241L483.947 2.0351H459.677L459.634 2ZM459.68 34.3867L438.332 53.2741L459.677 72.1995H484L462.689 53.2799L484 34.3838H459.683L459.68 34.3867Z" fill="black" fill-opacity="0.99"/>
<path d="M459.471 142.478L478.646 152.296C479.537 151.464 480.635 150.827 481.852 150.437C483.069 150.046 484.372 149.913 485.658 150.046C486.943 150.18 488.176 150.578 489.258 151.207C490.34 151.837 491.242 152.682 491.892 153.674C492.534 154.669 492.906 155.782 492.98 156.926C493.053 158.07 492.826 159.213 492.316 160.266C491.806 161.319 491.027 162.252 490.04 162.992C489.053 163.732 487.886 164.258 486.631 164.53V184.164C487.89 184.429 489.062 184.952 490.052 185.691C491.042 186.431 491.823 187.365 492.332 188.42C492.841 189.475 493.064 190.622 492.984 191.767C492.903 192.912 492.521 194.025 491.868 195.016C491.209 196.026 490.288 196.882 489.183 197.516C488.078 198.149 486.819 198.541 485.51 198.66C484.201 198.779 482.879 198.62 481.652 198.198C480.425 197.776 479.328 197.103 478.452 196.232L459.393 205.989C459.773 207.002 459.899 208.075 459.765 209.136C459.63 210.196 459.238 211.218 458.614 212.131C457.991 213.044 457.151 213.826 456.154 214.423C455.156 215.02 454.024 215.417 452.836 215.589C451.648 215.76 450.432 215.7 449.273 215.414C448.113 215.128 447.038 214.622 446.12 213.932C445.203 213.241 444.465 212.382 443.959 211.414C443.453 210.446 443.189 209.392 443.187 208.325C443.187 207.618 443.3 206.912 443.529 206.226L424.35 196.418C423.458 197.245 422.36 197.877 421.144 198.262C419.928 198.648 418.628 198.777 417.346 198.64C416.064 198.502 414.836 198.102 413.759 197.471C412.682 196.84 411.785 195.995 411.14 195.003C410.495 194.011 410.119 192.9 410.043 191.757C409.967 190.614 410.191 189.471 410.7 188.419C411.208 187.366 411.985 186.433 412.971 185.693C413.956 184.954 415.123 184.428 416.377 184.157L416.381 164.523C415.123 164.256 413.952 163.732 412.963 162.993C411.973 162.255 411.191 161.322 410.679 160.268C410.167 159.215 409.939 158.07 410.014 156.924C410.088 155.779 410.463 154.665 411.109 153.671C411.756 152.678 412.656 151.832 413.737 151.201C414.817 150.57 416.049 150.171 417.334 150.036C418.619 149.9 419.921 150.032 421.139 150.421C422.356 150.81 423.454 151.445 424.346 152.276L443.533 142.457C443.166 141.358 443.093 140.198 443.321 139.069C443.548 137.941 444.07 136.875 444.844 135.957C445.617 135.039 446.622 134.293 447.778 133.78C448.934 133.267 450.209 132.999 451.502 133C452.798 132.998 454.076 133.265 455.235 133.779C456.393 134.293 457.4 135.041 458.175 135.962C458.949 136.883 459.47 137.952 459.695 139.083C459.92 140.215 459.843 141.377 459.471 142.478ZM457.47 145.499C457.399 145.569 457.324 145.636 457.245 145.699L482.349 184.25C482.45 184.219 482.566 184.195 482.667 184.171V164.509C481.609 164.277 480.613 163.861 479.737 163.287C478.86 162.713 478.119 161.992 477.557 161.164C476.994 160.336 476.622 159.417 476.46 158.462C476.298 157.506 476.351 156.531 476.614 155.593L476.688 155.345L457.47 145.499ZM445.755 145.702L445.522 145.496L426.305 155.321C426.607 156.25 426.7 157.222 426.579 158.183C426.457 159.144 426.123 160.074 425.596 160.92C425.069 161.766 424.359 162.512 423.506 163.115C422.654 163.718 421.676 164.166 420.628 164.433L420.333 164.506V184.171L420.659 184.25L445.763 145.699L445.755 145.702ZM453.822 147.449C452.306 147.835 450.702 147.835 449.19 147.449L424.09 185.997C425.232 186.972 426.041 188.219 426.421 189.583H476.587C476.964 188.212 477.78 186.961 478.93 185.986L453.822 147.449ZM457.653 203.353L476.742 193.576C476.685 193.415 476.636 193.251 476.594 193.087H426.41L426.328 193.373L445.518 203.198C446.292 202.484 447.222 201.916 448.25 201.53C449.279 201.143 450.385 200.945 451.502 200.948C453.938 200.948 456.126 201.875 457.653 203.353Z" fill="black" fill-opacity="0.99"/>
<path d="M255.734 416.211C255.734 416.211 251.434 418.433 258.796 419.181C267.715 420.088 272.273 419.959 282.097 418.304C282.097 418.304 284.685 419.743 288.291 420.991C266.257 429.365 238.431 420.5 255.734 416.211ZM253.038 405.283C253.038 405.283 248.218 408.448 255.58 409.127C265.108 409.996 272.629 410.071 285.651 407.845C285.651 407.845 287.452 409.464 290.28 410.35C263.65 417.26 233.976 410.89 253.038 405.283ZM275.734 386.737C281.164 392.282 274.308 397.274 274.308 397.274C274.308 397.274 288.09 390.959 281.759 383.055C275.846 375.684 271.312 372.023 295.86 359.393C295.86 359.389 257.333 367.925 275.734 386.737ZM304.872 424.298C304.872 424.298 308.056 426.624 301.37 428.421C288.652 431.841 248.438 432.868 237.273 428.558C233.259 427.007 240.79 424.856 243.153 424.407C245.624 423.932 247.036 424.02 247.036 424.02C242.567 421.228 218.169 429.499 234.642 431.87C279.565 438.33 316.525 428.958 304.872 424.298ZM257.802 393.955C257.802 393.955 237.348 398.265 250.562 399.829C256.138 400.49 267.26 400.34 277.619 399.571C286.087 398.939 294.584 397.586 294.584 397.586C294.584 397.586 291.597 398.718 289.436 400.028C268.667 404.875 228.542 402.62 240.096 397.666C249.859 393.48 257.802 393.955 257.802 393.955ZM294.491 412.151C315.606 402.416 305.843 393.06 299.03 394.325C297.365 394.633 296.615 394.899 296.615 394.899C296.615 394.899 297.234 394.038 298.42 393.664C311.902 389.458 322.269 406.065 294.069 412.642C294.069 412.638 294.397 412.384 294.491 412.151ZM281.759 339C281.759 339 293.454 349.375 270.669 365.333C252.4 378.134 266.505 385.435 270.665 393.772C260.001 385.231 252.175 377.722 257.422 370.729C265.131 360.458 286.481 355.482 281.759 339ZM259.875 438.526C280.142 439.678 311.264 437.889 312 429.382C312 429.382 310.584 432.606 295.25 435.169C277.956 438.056 256.616 437.719 243.964 435.868C243.964 435.863 246.558 437.769 259.875 438.526Z" fill="black" fill-opacity="0.99"/>
<path d="M36.6338 27.0323C36.6338 28.454 36.8071 29.6019 37.1104 30.4423C37.4571 31.2876 37.8904 32.2098 38.4971 33.2088C38.7138 33.5113 38.8004 33.8187 38.8004 34.0877C38.8004 34.4719 38.5404 34.8561 37.9771 35.2404L35.2525 36.8493C34.9232 37.0598 34.5315 37.1801 34.1258 37.1951C33.6925 37.1951 33.2592 37.003 32.8312 36.6572C32.2494 36.1022 31.7288 35.4991 31.2767 34.8561C30.7924 34.1196 30.3442 33.3648 29.9333 32.594C26.5641 36.1193 22.3229 37.8819 17.2203 37.8819C13.5911 37.8819 10.6932 36.9646 8.57528 35.1251C6.45735 33.2808 5.37943 30.8314 5.37943 27.7624C5.37943 24.506 6.67402 21.8549 9.31195 19.8665C11.9499 17.8733 15.4491 16.8744 19.9016 16.8744C21.3749 16.8744 22.8862 16.9896 24.4841 17.1817C26.0875 17.3739 27.7341 17.6812 29.4566 18.027V15.227C29.4566 12.3117 28.7687 10.2801 27.4254 9.09378C26.0441 7.90268 23.7095 7.33114 20.3837 7.33114C18.867 7.33114 17.307 7.48003 15.7091 7.82583C14.1111 8.17163 12.5511 8.59428 11.0399 9.1322C10.5471 9.32782 10.0405 9.49468 9.5232 9.63169C9.30042 9.69536 9.06909 9.7325 8.83528 9.74216C8.22861 9.74216 7.92528 9.35793 7.92528 8.55586V6.67795C7.92528 6.06319 8.01194 5.60212 8.22861 5.33316C8.55581 4.98447 8.97165 4.70959 9.44195 4.53109C11.1743 3.76845 13.0013 3.18816 14.8857 2.80207C17.0904 2.30162 19.3592 2.05782 21.6349 2.07685C26.7808 2.07685 30.54 3.11426 32.9612 5.18428C35.3392 7.24949 36.5471 10.3953 36.5471 14.6122V27.0323H36.6338ZM19.0837 32.863C20.5083 32.863 21.9762 32.6324 23.5362 32.1714C25.1218 31.6855 26.5371 30.8412 27.642 29.7219C28.3404 29.0139 28.8447 28.1723 29.1154 27.2629C29.37 26.3455 29.5487 25.2313 29.5487 23.9297V22.3208C28.2365 22.0371 26.9073 21.819 25.5675 21.6676C24.22 21.5158 22.8632 21.4388 21.5049 21.437C18.607 21.437 16.4891 21.9365 15.0591 22.9739C13.6345 24.0066 12.9466 25.4618 12.9466 27.3781C12.9466 29.1792 13.4611 30.524 14.5445 31.4413C15.5791 32.4019 17.0903 32.863 19.0837 32.863ZM53.8047 37.003C53.0247 37.003 52.5047 36.8877 52.158 36.6188C51.8113 36.3882 51.508 35.8503 51.248 35.1251L41.0917 5.48685C40.8941 4.9899 40.7632 4.47404 40.7017 3.94995C40.7017 3.33519 41.0484 2.98938 41.7363 2.98938H45.9776C46.7955 2.98938 47.3588 3.10945 47.6567 3.37361C48.0088 3.60415 48.2688 4.14206 48.5234 4.87209L55.7926 30.2502L62.5364 4.87209C62.7531 4.10364 63.0131 3.60415 63.3543 3.37361C63.874 3.09102 64.4791 2.95689 65.0877 2.98938H68.5435C69.3669 2.98938 69.9302 3.10945 70.2769 3.37361C70.6181 3.60415 70.9269 4.14206 71.0948 4.87209L77.9252 30.5576L85.4057 4.87209C85.6657 4.10364 85.969 3.60415 86.2724 3.37361C86.7741 3.09116 87.3638 2.95667 87.957 2.98938H91.9816C92.6695 2.98938 93.0649 3.30157 93.0649 3.94995C93.0649 4.14206 93.0161 4.33417 92.9728 4.56471C92.905 4.89243 92.8034 5.21396 92.6695 5.52528L82.2532 35.1587C81.9932 35.9272 81.6898 36.4219 81.3432 36.6524C80.8551 36.93 80.2809 37.0645 79.7019 37.0366H75.9806C75.1627 37.0366 74.5994 36.9214 74.2473 36.6524C73.906 36.3834 73.6027 35.8839 73.4348 35.1155L66.7289 10.3905L60.0664 35.0771C59.8497 35.8455 59.5951 36.345 59.2539 36.614C58.9018 36.8829 58.2951 36.9982 57.5205 36.9982L53.8047 37.003ZM109.358 38.0356C107.11 38.0356 104.862 37.8051 102.701 37.3488C100.54 36.8877 98.8553 36.3882 97.7287 35.8119C97.0353 35.4709 96.5641 35.0867 96.3907 34.7409C96.2218 34.4019 96.1333 34.0357 96.1307 33.665V31.7103C96.1307 30.9082 96.4774 30.524 97.122 30.524C97.382 30.524 97.642 30.5624 97.902 30.6393C98.162 30.7161 98.552 30.8698 98.9853 31.0235C100.453 31.5998 102.051 32.0561 103.741 32.3635C105.469 32.6709 107.154 32.8245 108.887 32.8245C111.606 32.8245 113.73 32.4019 115.198 31.5566C115.901 31.1796 116.48 30.6443 116.875 30.0049C117.269 29.3655 117.466 28.6448 117.445 27.9161C117.461 27.4225 117.367 26.931 117.167 26.4702C116.967 26.0093 116.666 25.5882 116.281 25.2313C115.501 24.5061 114.028 23.8529 111.91 23.2381L105.642 21.5091C102.485 20.6302 100.15 19.3286 98.7253 17.6044C97.3311 16.0131 96.5693 14.0577 96.5587 12.0427C96.5587 10.4338 96.9541 9.01693 97.7287 7.78741C98.5087 6.56269 99.5433 5.48685 100.843 4.64636C102.143 3.76264 103.606 3.10945 105.339 2.65319C107.072 2.19211 108.887 2 110.788 2C111.736 2 112.733 2.03842 113.686 2.15369C114.678 2.26896 115.582 2.42265 116.492 2.57634C117.359 2.76845 118.182 2.96057 118.957 3.1863C119.737 3.41684 120.343 3.64737 120.777 3.87791C121.287 4.10576 121.732 4.43437 122.077 4.83847C122.356 5.21143 122.491 5.65474 122.461 6.10161V7.90268C122.461 8.70955 122.115 9.1322 121.465 9.1322C120.889 9.07369 120.332 8.91713 119.823 8.67113C117.211 7.64799 114.38 7.13842 111.525 7.17745C109.06 7.17745 107.11 7.51845 105.772 8.24848C104.429 8.97851 103.741 10.088 103.741 11.6585C103.741 12.7343 104.175 13.6565 105.041 14.3817C105.902 15.1117 107.5 15.8417 109.792 16.4949L115.934 18.2143C119.043 19.0981 121.297 20.3276 122.635 21.8981C123.973 23.4686 124.623 25.2697 124.623 27.2629C124.623 28.9102 124.233 30.4087 123.501 31.7103C122.733 33.0227 121.656 34.174 120.343 35.0867C119 36.0472 117.402 36.734 115.544 37.2335C113.594 37.7667 111.568 38.0356 109.358 38.0356ZM117.532 56.6706C103.308 65.9881 82.6378 70.9302 64.871 70.9302C39.965 70.9302 17.5291 62.7654 0.574821 49.1926C-0.763103 48.1216 0.44482 46.6615 2.04816 47.5068C20.3783 56.9347 42.993 62.6501 66.3823 62.6501C82.1665 62.6501 99.4999 59.7348 115.458 53.7553C117.835 52.7947 119.867 55.1337 117.532 56.6706ZM123.458 50.6863C121.638 48.6211 111.433 49.6921 106.807 50.1916C105.426 50.3453 105.209 49.2694 106.466 48.4626C114.591 43.4052 127.954 44.8604 129.508 46.5462C131.063 48.2752 129.075 60.119 121.465 65.7912C120.3 66.6749 119.173 66.2138 119.693 65.0659C121.427 61.2717 125.273 52.7227 123.458 50.6863Z" fill="black" fill-opacity="0.99"/>
<path d="M239.953 273V299.825H243.491V280.433C243.527 279.204 243.47 277.975 243.321 276.753H243.456C243.709 277.341 244.031 277.903 244.417 278.431L259.97 299.825H264.317V273H260.782V291.864C260.75 293.182 260.822 294.499 260.997 295.808H260.921C260.537 295.196 260.127 294.598 259.693 294.014L244.549 273H239.953ZM272.167 273V299.825H288.248L288.266 296.881H275.784V287.584H286.706V284.757H275.784V275.839H287.505V273H272.167ZM290.973 273V275.839H299.668V299.825H303.202V275.843H312V273.003L290.973 273ZM231.258 296.001C230.961 296.008 230.669 296.067 230.398 296.175C230.127 296.284 229.883 296.439 229.681 296.633C229.464 296.826 229.291 297.055 229.174 297.308C229.057 297.561 228.998 297.831 229 298.105C228.996 298.378 229.054 298.649 229.171 298.902C229.289 299.155 229.462 299.384 229.681 299.576C229.895 299.775 230.153 299.933 230.439 300.039C230.724 300.145 231.032 300.197 231.341 300.193C231.651 300.195 231.957 300.141 232.243 300.035C232.528 299.929 232.786 299.773 233.001 299.576C233.224 299.386 233.401 299.157 233.52 298.904C233.64 298.651 233.7 298.379 233.697 298.105C233.698 297.83 233.637 297.559 233.518 297.306C233.398 297.053 233.223 296.824 233.001 296.633C232.788 296.432 232.531 296.273 232.245 296.164C231.96 296.056 231.652 296 231.341 296.001C231.314 296.001 231.286 296.001 231.258 296.001Z" fill="black" fill-opacity="0.99"/>
<path d="M468.87 380.241C468.87 380.241 467.531 370.114 455.152 369.831C442.77 369.551 436.416 377.427 436.416 388.683C436.416 399.939 443.443 408.944 455.485 408.944C467.531 408.944 468.873 397.688 468.873 397.688L491.959 398.813C491.959 398.813 493.316 408.981 483.656 416.737C473.993 424.493 462.138 425.76 453.855 425.707C445.572 425.652 434.092 425.812 422.986 416.577C411.89 407.348 410 398.377 410 389.566C410 380.752 412.105 369.081 425.31 360.227C434.279 354.217 443.377 352 452.475 352C490.454 351.997 493 380.438 493 380.438L468.87 380.241Z" fill="black" fill-opacity="0.99"/>
<path d="M44.3681 261.035L3 273.944L9.53567 321.999L44.4121 338.995L79.4643 321.769L86 273.713L44.3681 261.035ZM44.2692 265.122L81.8749 276.491L75.7825 319.472L44.2692 334.934L13.2431 319.677L7.64164 276.699L44.2692 265.122ZM44.2692 267.655L18.6981 318.108L28.2378 317.952L33.3667 306.58H56.2891L61.9016 318.111L71.031 318.261L44.2692 267.655ZM44.3425 283.832L52.97 299.846H36.7261L44.3425 283.832Z" fill="black" fill-opacity="0.99"/>
<path d="M410 299.466H426.14V301.514H410V299.466ZM410 295.535H426.14V297.589H410V295.535ZM414.6 291.613H421.527V293.67H414.6V291.613ZM414.6 287.694H421.527V289.748H414.6V287.694ZM414.6 283.769H421.527V285.826H414.6V283.769ZM414.6 279.841H421.527V281.898H414.6V279.841ZM410 275.922H426.14V277.976H410V275.922ZM410 272H426.14V274.054H410V272ZM428.44 297.589H453.26C453.675 296.957 453.993 296.261 454.184 295.535H428.443V297.589H428.44ZM451.327 287.694H433.057V289.748H453.264C452.752 288.974 452.1 288.28 451.334 287.694H451.327ZM433.053 283.769V285.826H451.331C452.102 285.25 452.748 284.557 453.264 283.769H433.053ZM453.26 275.922H428.44V277.976H454.18C453.971 277.26 453.662 276.57 453.26 275.922ZM445.631 272H428.44V274.054H451.559C449.945 272.732 447.828 271.998 445.631 272ZM433.053 279.841H439.97V281.898H433.053V279.841ZM446.89 281.898H454.125C454.329 281.242 454.436 280.549 454.436 279.841H446.89V281.898ZM433.053 291.613H439.966V293.67H433.05L433.053 291.613ZM446.89 291.613V293.67H454.436C454.436 292.965 454.329 292.269 454.125 291.613H446.89ZM428.44 301.499L445.628 301.52C447.934 301.52 450.013 300.732 451.566 299.466H428.44V301.499ZM456.113 299.466H467.637V301.514H456.113V299.466ZM456.113 295.535H467.637V297.589H456.113V295.535ZM460.716 291.613H467.633V293.67H460.716V291.613ZM460.716 287.694H467.633V289.748H460.716V287.694ZM470.846 275.922H456.113V277.976H471.641L470.846 275.922ZM469.317 272H456.113V274.051H470.113L469.317 272ZM481.466 299.466H493V301.514H481.466V299.466ZM481.466 295.535H493V297.589H481.466V295.535ZM481.466 291.613H488.383V293.67H481.466V291.613ZM481.466 287.694H488.383V289.748H481.466V287.694ZM481.466 285.826H488.383V283.769H475.203L474.553 285.431L473.903 283.769H460.716V285.826H467.633V283.938L468.37 285.826H480.733L481.466 283.938V285.826ZM488.387 279.841H476.732L475.937 281.898H488.387V279.841ZM479.8 272L479.001 274.051H493V272H479.8ZM474.553 301.499L475.349 299.466H473.754L474.553 301.499ZM473.025 297.589H476.082L476.905 295.535H472.212L473.025 297.589ZM471.472 293.67H477.635L478.447 291.613H470.656L471.472 293.67ZM469.923 289.748H479.187L479.979 287.694H469.127L469.923 289.748ZM460.716 281.898H473.173L472.374 279.841H460.716V281.898ZM477.472 277.976H493V275.922H478.261L477.472 277.976Z" fill="black" fill-opacity="0.76"/>
<path d="M12 153.412L19.7709 144.317L48.8382 133.842V126.262L74.3261 142.799L22.2574 151.759V176.977L12 174.358V153.412ZM95 139.766V184.695L75.1042 199.717L42.9313 190.346V199.717L22.2574 176.977L74.3295 182.49V142.799L95 139.766Z" fill="black" fill-opacity="0.99"/>
<path d="M229 0H312V73.5937H229V0ZM305.201 56.0416C304.596 52.6839 302.13 49.8628 294.816 47.2318C292.27 46.1739 289.441 45.438 288.601 43.7361C288.286 42.7242 288.238 42.1723 288.442 41.5743C288.961 39.5934 291.606 38.9985 293.681 39.5505C295.03 39.9184 296.275 40.8384 297.057 42.3102C300.632 40.2374 300.632 40.2374 303.126 38.8605C302.192 37.5727 301.729 37.0176 301.099 36.4687C298.921 34.3069 296.019 33.203 291.298 33.2981L288.86 33.571C286.522 34.077 284.295 35.1809 282.947 36.6527C279.004 40.6115 280.142 47.5109 284.914 50.3626C289.635 53.4904 296.538 54.1772 297.42 57.124C298.25 60.7117 294.411 61.8616 290.621 61.4477C287.816 60.8957 286.263 59.6508 284.551 57.351L278.222 60.5737C278.949 62.0456 279.779 62.6865 281.024 63.9744C287.041 69.359 302.085 69.083 304.786 60.8957C304.886 60.6197 305.616 58.7339 305.042 55.8362L305.201 56.0416ZM274.135 33.8255H266.36C266.36 39.7682 266.329 45.6741 266.329 51.626C266.329 55.4038 266.547 58.8719 265.852 59.939C264.711 62.0518 261.771 61.7819 260.436 61.4109C259.067 60.8099 258.372 59.9819 257.566 58.7891C257.348 58.4671 257.185 58.1881 257.127 58.1881L250.815 61.6378C251.87 63.5696 253.409 65.2316 255.394 66.2895C258.351 67.8534 262.324 68.3594 266.485 67.5314C269.193 66.8384 271.527 65.4125 272.748 63.2047C274.512 60.353 274.138 56.8573 274.121 52.9445C274.162 46.6461 274.121 40.3447 274.121 33.9972L274.135 33.8255Z" fill="black" fill-opacity="0.99"/>
</svg>
